<?xml version="1.0" encoding="UTF-8" standalone="no"?>
<!-- Generator: imaengine 6.0   -->

<svg
   xmlns:dc="http://purl.org/dc/elements/1.1/"
   xmlns:cc="http://creativecommons.org/ns#"
   xmlns:rdf="http://www.w3.org/1999/02/22-rdf-syntax-ns#"
   xmlns:svg="http://www.w3.org/2000/svg"
   xmlns="http://www.w3.org/2000/svg"
   xmlns:sodipodi="http://sodipodi.sourceforge.net/DTD/sodipodi-0.dtd"
   xmlns:inkscape="http://www.inkscape.org/namespaces/inkscape"
   viewBox="0 0 1300 630"
   width="1300"
   height="630"
   version="1.1"
   id="svg7"
   sodipodi:docname="cogs2.svg"
   inkscape:version="0.92.2 5c3e80d, 2017-08-06"
   enable-background="new">
  <metadata
     id="metadata11">
    <rdf:RDF>
      <cc:Work
         rdf:about="">
        <dc:format>image/svg+xml</dc:format>
        <dc:type
           rdf:resource="http://purl.org/dc/dcmitype/StillImage" />
        <dc:title />
      </cc:Work>
    </rdf:RDF>
  </metadata>
  <sodipodi:namedview
     pagecolor="#ffffff"
     bordercolor="#666666"
     borderopacity="1"
     objecttolerance="10"
     gridtolerance="10"
     guidetolerance="10"
     inkscape:pageopacity="0"
     inkscape:pageshadow="2"
     inkscape:window-width="1280"
     inkscape:window-height="695"
     id="namedview9"
     showgrid="false"
     inkscape:zoom="1.4331228"
     inkscape:cx="1170.2121"
     inkscape:cy="280.14554"
     inkscape:window-x="0"
     inkscape:window-y="1"
     inkscape:window-maximized="1"
     inkscape:current-layer="layer0" />
  <defs
     id="defs2" />
  <g
     id="layer0"
     style="opacity:0.8"
     transform="translate(0,-90)">
    <path
       style="fill:#2f2222"
       d="M 771.67578,47.15625 C 759.79052,47.093298 754.75937,54.55 754,64 739.5,73.8 740.6,49.3 728,53 c -9,4.1 -25.3,6.1 -20,21 3.4,17.3 -16.7,7.8 -23,3 -5.8,7.1 -19.1,11.9 -18,23 11,7 4.9,26.8 -8,21 -14.4,-3.7 -14,14.6 -17,23 7.6,3.7 20.4,17.4 6,23 -13.9,1.1 -12.8,15.5 -11,28 5.7,8.1 27,4.8 20,20 -9.8,5.3 -12.5,18.4 -4,26 0.7,16.2 25,-0.8 27,11 3.4,10.8 -7.7,23.9 5,28 9,13.1 19.5,3.8 27,-2 17.7,-2.5 5.7,24.7 18,24 11.5,8.1 23.6,4.6 25,-7 14,-12.3 18.6,8.4 23,13 12.1,-1.9 29.4,0.1 26,-16 1,-17.9 20.2,-6.4 23,-1 9.6,-3.4 22.4,-5.9 22,-19 -8.5,-12.5 4.6,-24.6 14,-16 13.1,2.5 15,-13.5 20,-20 -1.8,-7.6 -20,-18.3 -3,-23 14.8,0.9 16.4,-12.8 17,-25 -0.2,-11.4 -23.4,-8.8 -16,-23 12.8,-0.6 16.3,-17.3 9,-27 2.6,-14.8 -25.9,-3.4 -23,-17 8.9,-6.7 8.7,-21.9 -1,-27 -5,-14.1 -18.2,-2 -28,-4 -4.2,-8.4 4.2,-26.8 -11,-27 -9.8,-10.1 -21.7,-1.9 -27,5 -14.2,4.1 -5.4,-21.8 -21,-20 -2.6875,-0.5625 -5.12325,-0.832092 -7.32422,-0.84375 z m -2.25,6.841797 C 770.68848,53.950391 772.1875,54.25 774,55 c 16.1,-1.5 5.6,23.7 21,20 13,7.9 14,-15.9 25,-9 15,1.7 8.2,16.4 9,25 6.1,12.6 19.2,5.7 27,3 9.1,4.9 14.2,17.1 4,24 -2.1,12.9 6.2,21.2 20,18 9.2,4.9 9.4,23.5 -3,23 -8.9,4.9 -2.4,25.4 6,24 12.8,2 5.9,25.6 -5,22 -11.3,-0.6 -16,18.5 -9,23 11.3,4.9 2.3,22.7 -7,21 -11.9,-5.6 -22.6,3.2 -22,12 7.5,13.8 -1.2,20.2 -12,23 -4.2,-7.9 -17.8,-12.9 -25,-5 -6.4,8.3 -0.2,23.4 -17,22 -12.2,0.6 -7.6,-21.1 -23,-16 -16.1,-3.6 -10.3,19.8 -26,13 -14.8,3.1 -0.5,-25.9 -17,-23 -7.8,-11.2 -14.7,2.7 -25,3 -13.8,-0.8 -7.4,-17.5 -5,-24 -5.1,-7.4 -9.2,-18.9 -24,-13 -13.1,0.9 -13.5,-18 -5,-22 8.3,-3.4 2.7,-22.4 -7,-24 -13.4,5 -14,-21.6 -3,-21 10.1,0.7 15.4,-20.5 7,-25 -9.2,-1.9 -11.3,-20.6 1,-22 16.8,3.9 19.3,-6.7 22,-17 -8.4,-8.4 -4.9,-19.7 4,-24 9.8,5 20.8,9.8 28,0 7,-7.6 -2.1,-26.5 13,-25 12.6,0.1 11.3,19.4 26,10 11.375,0.7 8.58691,-16.668359 17.42578,-17.001953 z m 0.80469,22.699219 C 757.38027,76.632202 743.96875,78.15625 733,81 c -11.9,4.7 -21.9,11.9 -32,19 -8.7,8.3 -16.7,17.4 -23,28 -5,12 -11.9,23.2 -12,38 -1.3,13.7 -0.2,32.4 4,44 4,13.6 10.9,24.7 18,33 8.3,9.1 17.5,17.1 27,24 10.8,6.8 24.7,10.8 38,12 14.5,-0.1 34.3,2.6 45,-4 12.9,-4.5 24.8,-9.6 34,-18 8.8,-7.9 17.6,-16.2 23,-28 5.9,-10.8 11.5,-23.2 13,-38 0,-12.9 1.8,-34.3 -5,-45 -3.9,-11.8 -9.5,-24.1 -18,-33 -5.6,-9.9 -17,-15.6 -27,-24 -11,-4.6 -23.2,-10.3 -39,-12 -2.86875,-0.1875 -5.8041,-0.28772 -8.76953,-0.302734 z M 767,82 c 16.9,1.2 30.5,5 40,10 11.5,5.2 20.8,11.9 28,20 9.2,7.4 14.3,18.3 20,28 4.3,12.2 8.5,24 7,41 0.7,16.9 -4.2,28 -10,38 -3.5,12.7 -12.2,20 -19,29 -8.4,7.8 -18.4,13.8 -30,18 -8,7.5 -25.9,7.8 -39,7 -16.4,1.6 -27.9,-4.3 -39,-10 -11.6,-2.8 -19.2,-11.2 -28,-20 -7.4,-7 -13,-17.3 -19,-29 -4.6,-10.6 -6,-23.6 -6,-39 -0.9,-9.5 3.4,-26.5 7,-37 6,-10.1 12.6,-19.5 21,-27 7.3,-8.8 17.4,-14.6 27,-21 12.5,-3.5 24.5,-7.5 40,-8 z M 952.59766,99.039062 C 946.40078,99.26875 941.75,107.95 947,115 c 3.9,12.2 -3.1,21.5 -13,17 -6,-2.4 -18.8,-14.1 -24,-3 0.5,9.5 10.8,13.3 14,20 3.8,12.9 -8,15.1 -19,16 -13.5,-2.5 -9.4,21.4 4,15 12.3,-2.8 20,13.1 13,17 -3.6,7.3 -17.1,10.7 -13,20 6.5,10.6 18.3,-2.3 24,-4 9.15823,-1.77558 16.91537,7.10407 12.17969,16.10938 -0.0252,0.26302 -0.0498,0.52617 -0.0781,0.78906 -0.0472,0.43189 -0.0985,0.86538 -0.1289,1.29883 -0.0339,0.46284 -0.0703,0.92397 -0.10547,1.38671 -0.0304,0.43651 -0.0378,0.87564 -0.0625,1.3125 -0.0183,0.41703 -0.0437,0.83457 -0.0195,1.25196 3.1e-4,0.0209 0.004,0.0416 0.004,0.0625 0.002,0.0285 0.004,0.0576 0.006,0.0859 0.009,0.34746 0.0242,0.69402 0.0723,1.03906 0.0503,0.43573 0.10339,0.8708 0.16797,1.30468 0.0597,0.40182 0.12298,0.80407 0.19922,1.20313 0.0722,0.37562 0.14782,0.74979 0.24023,1.12109 0.08,0.32407 0.16506,0.64766 0.26953,0.96485 0.0979,0.29281 0.20702,0.582 0.33008,0.86523 0.12391,0.29025 0.2519,0.57786 0.40625,0.85352 0.1512,0.28988 0.31137,0.57526 0.47656,0.85742 0.1381,0.22626 0.2739,0.4535 0.43555,0.66406 0.14165,0.18945 0.3001,0.36777 0.46094,0.54102 0.0576,0.061 0.11891,0.11814 0.17773,0.17773 0.82542,0.20226 1.73935,0.52991 2.72461,0.97071 0.13985,-0.0303 0.28069,-0.056 0.41992,-0.0898 0.3934,-0.0952 0.78691,-0.19111 1.17383,-0.31055 0.37063,-0.11414 0.737,-0.23932 1.09961,-0.37695 0.35535,-0.1331 0.71564,-0.25738 1.0625,-0.41211 0.33159,-0.14107 0.66607,-0.27619 0.99219,-0.42969 0.23479,-0.11493 0.46215,-0.24259 0.6914,-0.36718 C 960.69678,238.18431 962.3612,229.80956 968,225 c 15.8,-2.5 13.3,13.7 19,18 6,12.6 20.6,-0.2 12,-12 -5.8,-10.1 6.4,-20.6 14,-16 7.4,2.5 17,15.6 22,5 5.7,-9.4 -8,-14.3 -12,-20 -5.8,-7.8 2.4,-18.6 14,-17 12.3,4.6 20.9,-12.4 7,-15 -8,-3 -24.3,1.4 -22,-14 3.2,-8.3 14.5,-10.6 16,-20 -1,-13.2 -13.9,-5.9 -21,-2 -7,6.7 -20.5,-0.4 -16,-13 6.7,-8.6 1.8,-22.5 -9,-18 -5.6,6.3 -6.5,21 -16,20 -14.4,3.7 -10.2,-12.4 -17,-19 -2.1,-2.175 -4.33672,-3.037496 -6.40234,-2.960938 z M 356.35352,107.34375 C 346.67937,107.59575 347.5875,128.7 338,130 c -12.2,-4.7 -30,-14.2 -30,6 10,5.4 26.4,20.1 9,29 -18.2,7.9 4.1,30.2 13,13 17.2,-14.3 20.2,13.6 28,17 24.9,1.6 -0.9,-27.6 13,-34 17.5,5.8 35.6,-15.8 13,-20 -25.1,5 -19.4,-14.8 -19,-30 -3.61875,-2.6625 -6.41399,-3.7144 -8.64648,-3.65625 z M 952,110 c 7.9,8.3 11.2,25.2 31,17 6.6,-12.9 20.1,-26.7 10,-2 0.4,12.1 18.3,24.7 27,13 24.1,-7.6 -12.4,10.8 -4,19 -10.8,22.6 38.2,9.6 19,21 -19.9,-7 -24.7,19.7 -18,26 22,16.5 0.7,8.9 -11,2 -14.9,2.3 -17.5,19.8 -13,32 -6.1,-10.2 -9.1,-24.9 -30,-19 -5.4,16.4 -18.3,26.2 -10,0 -3.6,-11.1 -19.7,-20.5 -30,-8 -17.9,0.2 22.2,-10.6 6,-24 10.1,-18 -43.4,-7.9 -16,-18 18.3,5.3 24.9,-20.7 15,-27 -20.4,-14.8 1.2,-7.6 11,0 14,-5 21.9,-14.4 13,-32 z m -596.14453,6.88672 c 0.83697,0.11952 1.84765,1.05078 3.14453,3.11328 -6.4,12.4 1.3,27 12,27 30.2,-0.1 4.4,9.3 -5,9 -11.1,7 -4.5,21.3 -4,31 -8.9,-5.5 -8.2,-21 -24,-21 -7.2,8.1 -28.5,13.1 -12,-1 10.6,-6.2 4.5,-26.3 -5,-28 -11,-16 13.2,6.7 19,-1 11.89688,3.29063 11.3358,-19.7587 15.85547,-19.11328 z M 762,118 c -8.5,1 -16.2,3.6 -24,6 -5.7,4.2 -11.8,9.5 -17,13 -7.6,12.4 -15.4,24.5 -14,46 1.8,18.5 9.5,30.7 19,40 12.1,9.1 24.4,16.8 45,15 9.3,-0.5 17.7,-2.4 23,-7 7.1,-3.2 14.4,-7.3 17,-13 10.3,-10 16.9,-23.5 16,-45 -1.9,-17.4 -9.4,-29.9 -20,-40 -11,-8.2 -23.8,-15.4 -45,-15 z m 1.61523,5.96484 C 781.29553,124.16809 793.125,129.96875 801,137 c 10.6,8.4 17.2,20.9 20,34 1.2,20.1 -5.5,32.5 -13,42 -8.6,9.2 -19.8,17.1 -35,19 -17.5,1.2 -30.8,-4.5 -41,-13 -8.4,-7.8 -16.2,-19.1 -18,-35 -2.5,-16.1 4.4,-30.9 11,-40 9.2,-9.2 20.8,-16.7 35,-20 1.23125,-0.0375 2.43655,-0.0487 3.61523,-0.0352 z m 3.77539,6.42188 C 755.36245,130.43274 745.125,134.2875 737,139 c -7.6,7.5 -14.9,17.1 -17,29 -1.6,18.1 1,31.5 8,39 7.3,9.8 18,16 29,18 18.3,2.6 30.8,-1 39,-9 10.1,-5.2 15.3,-16.9 18,-29 3,-15.6 -1.3,-29.1 -9,-38 -5.6,-8.7 -15.9,-15.3 -29,-18 -2.9625,-0.43125 -5.83364,-0.6239 -8.60938,-0.61328 z M 974.67383,133.75 C 962.59746,133.62285 953.0375,136.6625 947,142 c -7.1,5.5 -11.8,15.5 -14,25 -2.8,14.1 3.3,24.6 7,31 7.1,7.6 14.5,14.9 25,15 15.3,2.2 27.1,-0.6 33,-7 8.1,-5.3 13.3,-14.7 15,-25 2.5,-14.8 -1.9,-25.1 -8,-33 -5.7,-5.8 -13.1,-13 -25,-14 -1.825,-0.15 -3.60098,-0.23184 -5.32617,-0.25 z m -482.45899,2.22852 C 480.83164,135.78711 483.325,149.875 480,156 c 3.7,11.7 -20.1,13.4 -22,4 -4.5,-4.8 -3.7,-20.4 -17,-17 -11.3,-0.5 -14.3,12.3 -10,22 5.7,13.6 -9.2,16.5 -17,16 -6.1,-4.3 -10.7,-13.8 -19,-16 -7.4,3.2 -18.9,9.5 -12,19 3.6,8 13.6,18.2 2,23 -5.6,10.7 -16.6,1.1 -23,-3 -10.8,-7.7 -14.9,5.9 -20,11 3.2,9.9 11.6,13.4 16,20 -0.2,8.4 -2.9,19.8 -15,19 -6.3,-5.1 -23.8,-5.5 -23,6 -4.5,13.3 9.6,14 15,18 10.8,2.9 4.7,20.4 -2,23 -7.5,1.3 -22.6,-1 -24,10 -2.4,15.8 8.9,16.5 19,17 11.8,-1.2 15.3,15.1 10,22 -6.4,5.5 -18.8,5.1 -22,14 2.7,10.1 5.5,21.4 19,16 12.1,-6.5 18.6,0.9 21,10 1,9.6 -10.3,13.1 -15,19 -4.5,7.9 4.7,18.5 11,20 8.7,-1.4 16.3,-10.9 25,-8 9.4,5.1 11.4,15.5 3,23 -7.2,8.7 -2.8,16.7 5,21 9.9,8.6 14.7,-6.3 20,-10 6.6,-7.8 18.9,0 22,6 2,9 -9.7,24.9 2,26 10.2,9 19.9,1.7 21,-8 1.2,-10.5 13.8,-12.5 22,-7 7.4,5.6 1.5,23.5 9,27 15.9,4.5 23.2,-1.8 21,-15 -1.7,-12.9 11.4,-13.9 21,-13 5.1,8.4 7.6,18 14,22 9.2,-1.6 23.3,-2.4 16,-18 -3.6,-11.8 1.8,-18.5 12,-21 10.5,-1 11.5,12.1 19,15 6.5,4 18.7,-3.6 18,-13 -1.1,-7.5 -11.8,-16.5 -6,-25 6.4,-8.3 16.4,-7.2 23,-1 10.2,9.4 18,-0.9 21,-9 3,-7.1 -8.1,-12.9 -13,-19 -1.7,-7.4 1.8,-20.8 14,-19 8.8,2.9 23.6,8.1 22,-7 9.4,-10.5 -6,-14 -13,-18 -9.4,0.3 -7.3,-19.9 -2,-24 9.1,-3.2 28.3,4.1 24,-12 3.8,-14.2 -9.4,-13 -20,-15 -11.7,1.5 -7.7,-17.4 -7,-23 9.2,-2.3 19.9,-3.6 21,-14 2,-11.6 -6.4,-19.6 -17,-14 -13.1,5.8 -17.7,-0.7 -21,-11 1.8,-9.9 10.7,-13 15,-20 1.2,-8.3 -4.7,-19.4 -15,-18 -6.1,2.7 -16.6,15.6 -23,5 -10.8,-3.5 -6.7,-15 -1,-22 9.2,-8.3 1.4,-15.8 -7,-20 -9.2,-4.2 -13.7,8.2 -20,12 -5.9,5.1 -21.6,-1 -19,-11 0.2,-9.4 7.8,-23 -6,-24 -11,-8.2 -16.3,4.2 -19,12 -0.3,9.9 -18,9.3 -24,3 -2.3,-8.8 2.5,-25.6 -11,-25 -2.25,-0.675 -4.15898,-0.99414 -5.78516,-1.02148 z m 271.59766,0.006 C 777.58496,136.19942 787.09375,140.75 793,146 c 8.2,6.4 13.7,14.6 15,26 1.7,16 -2.2,25.9 -10,32 -5.2,8.2 -13.4,13.7 -25,15 -15.4,2.5 -25.6,-2.5 -33,-9 -6.5,-6.1 -12.9,-13.5 -15,-27 -0.1,-13.8 3,-24.4 10,-31 7.2,-6.6 13.7,-13.8 26,-16 0.95625,-0.025 1.89434,-0.0302 2.8125,-0.0156 z m 209.18359,3.6914 c 8.76136,0.10918 17.48516,2.69297 20.00391,7.32422 6.9,5.6 12.9,11.1 14,20 2,13.4 -1.8,21.1 -7,28 -4.3,6.4 -11.1,11 -21,12 -12.4,2.1 -21.9,-1.4 -27,-7 -6.6,-4.6 -10.8,-11.8 -13,-22 -2.6,-10.3 3.4,-17.9 7,-25 5.3,-6 11,-11.7 21,-13 1.95,-0.24375 3.97424,-0.34941 5.99609,-0.32422 z m -624.58593,0.20703 C 332.50033,139.46101 332.69688,163.32188 345,164 c 17.4,3.8 20.6,-24.2 5,-24 -0.54688,-0.0656 -1.07662,-0.10368 -1.58984,-0.11719 z M 496,143 c 10.4,2.9 2.7,22.5 9,27 10.5,0.3 22.5,7.9 28,2 4.2,-5.9 8,-18 14,-19 12.1,2.1 1.6,18.9 2,25 4.3,8.7 16.5,9.5 22,14 9.6,1.5 12.7,-10.5 19,-14 14.5,-5.1 9.3,13.6 4,17 -8.7,8.1 -1,18.2 5,21 4.6,9.6 14.4,10.8 21,3 8.1,-9.1 24.6,1.3 12,7 -2.9,6.8 -16.8,11.6 -11,21 6.6,4.9 5.7,21.6 15,18 10.6,0 24.9,-7.9 24,5 -5.5,6.4 -15.7,9.3 -22,14 0.4,10.7 -1.2,23.3 4,27 6.3,4.9 28.9,0.4 24,8 2.2,13.5 -17.9,5.4 -24,12 -4.9,4.9 -5.4,20.3 -6,26 6.2,6.3 17.6,7.9 21,14 3.6,14.1 -15.2,4.5 -23,5 -9.8,-1 -10.4,13.5 -16,18 -5.9,9.2 9.3,14.1 11,20 12.1,7.2 -5.1,17.8 -11,7 -5.8,-5.6 -17.3,-6.8 -22,1 -5,5.2 -15.8,13.5 -7,21 4.8,7.1 10.8,19.4 -1,19 -7.3,-3.9 -12.3,-12 -19,-17 -8.1,4.1 -17.5,7.8 -24,12 -1.3,6.4 6.4,25.4 -3,27 -9,1.7 -9,-13.4 -14,-19 -7.1,-5.3 -20.5,2.1 -29,2 -4.3,6.6 -0.4,23.6 -8,26 -13.6,2.9 -5.1,-17.6 -11,-24 -5.8,-4.7 -18.3,-7.3 -28,-6 -5.5,5.3 -6.6,17.2 -14,20 -11.6,2.2 -4,-16.5 -4,-24 0.2,-8.1 -13.2,-9.8 -18,-15 -10.1,-1.9 -15.7,8.4 -21,13 -10.6,8.4 -13.2,-9.5 -6,-14 7.9,-7.8 5.7,-17.4 -3,-22 -2.3,-8.4 -14.6,-11.5 -23,-5 -5.8,10.2 -22.2,1.8 -12,-7 3.5,-5.4 17.2,-9.6 11,-19 -3.9,-5.4 -4.5,-20.7 -14,-19 -9.2,-0.5 -25.1,9.6 -23,-7 5.8,-5.5 18,-6.3 21,-14 0,-7 -0.2,-21.9 -7,-26 -6.1,-3.3 -24.8,-0.5 -22,-11 4.3,-8.1 22.3,-2.1 27,-10 -1,-8.6 10.2,-20.2 1,-26 -5,-5.4 -17.8,-5.6 -19,-16 5.5,-9.8 19.6,1.8 28,-1 4.9,-7 10.6,-14.3 13,-23 -4,-6.4 -10.1,-13.3 -16,-18 -1.9,-14.1 12.8,-7.7 17,-4 8.3,10.4 18.2,3.1 22,-3 9.5,-3.5 8.9,-16.3 3,-23 -8.7,-6 -1.5,-21.2 6,-14 6.6,5.4 10.7,16.4 19,14 7.3,-3.9 19.4,-4.9 21,-14 1.9,-9.2 -9.1,-25.1 5,-25 7.3,5.2 8.4,17.1 14,21 5.8,1.8 24.2,2.1 27,-4 4.6,-6.7 0.5,-23.9 11,-24 z m -147.85156,3.55859 C 354.55371,146.83477 354.5,155.475 351,156 c -8.7,3.9 -9.3,-7.5 -6,-9 1.1875,-0.35 2.2334,-0.48086 3.14844,-0.44141 z m 623.08984,6.0586 C 960.65762,152.87832 953.8,160.8625 951,169 c -1.3,16.3 8.1,22.7 17,26 16.4,2.6 23.3,-6.3 26,-17 2.6,-15.4 -5.8,-22.8 -18,-25 -1.6625,-0.3 -3.2502,-0.42012 -4.76172,-0.38281 z m 1.85352,6.36133 C 983.13696,159.23193 987.0625,164.78125 988,172 c 0.7,10.5 -5.4,15.9 -13,17 -9.5,-0.6 -15.6,-4.8 -17,-14 0.4,-9.1 5.5,-15.4 13,-16 0.725,-0.0312 1.42212,-0.0384 2.0918,-0.0215 z m 185.752,12.40429 c -2.203,-0.013 -4.4813,0.16719 -6.8438,0.61719 -10.5,2.5 -20.4,5.2 -29,9 -7.6,5.1 -15.1,10.2 -22,16 -5.6,6.8 -10.6,14.4 -15,22 -5.1,7.4 -6.1,22.5 -6,31 -2.1,12.5 2,23.2 6,30 4.9,8.8 9.1,17.1 14,24 4.2,9.1 9.8,16.1 12,25 3.7747,3.77467 5.0989,9.58961 5.5879,15.86719 0.09,1.64105 0.1691,3.46658 0.2266,5.75 l 0.074,2.95312 c 0.021,2.54583 0.025,5.06211 0.1113,7.42969 3.9,8.6 10.9,18.2 7,27 2.7,9.3 -3.4,21.9 5,27 15.6,-2.8 12.6,12.7 22,15 14.4,1.8 27.5,0.9 25,-14 -4.9929,-0.0999 -11.5817,15.55163 -24.9434,6.03711 -0.027,-0.0241 -0.055,-0.0481 -0.082,-0.0723 -8.7113,-10.65091 17.3307,-4.97049 22.0254,-9.96484 13.7,-9.4 -10.3,-3 -19,-3 -6.5285,1.4134 -19.6073,0.74191 -21.1016,-1.25 -0.1038,-0.24314 -0.1081,-0.4991 -0.033,-0.75 0.5407,-0.84497 2.9453,-1.8578 8.1348,-3 3.5,-1.1 1,-6.2 -2,-5 -18.4,-0.3 5.9,-5.4 0,-9 -14.1277,-4.06818 -2.5429,-7.03469 7.7656,-7.49805 1.0549,-0.029 2.1388,-0.0452 3.2832,-0.0352 0.284,0.002 0.5101,-0.005 0.7832,-0.004 2.0337,0.0538 3.8632,0.21887 5.168,0.53711 9.4955,-2.76953 22.3101,-3.48125 30.7168,-2.04492 l 0.023,1.04101 c -1.5282,7.47732 5.5905,18.88222 -15.7402,14.00391 -21.531,2.27162 -0.44,9.80283 11.5488,6.13477 0.3069,0.0193 0.5498,0.19247 0.8106,0.63281 1.5149,3.96186 2.9197,16.44753 11.6406,1.23242 0.01,-0.1289 0.014,-0.2412 0.023,-0.36914 l 0.1446,-0.21875 -0.01,-1.94336 c 0.6791,-11.01041 0.1059,-18.46942 -0.1172,-26.20313 l -0.01,-1.29687 c 7.2657,-5.5914 6.6372,-18.24547 6.9317,-29.59375 0.082,-0.85263 0.1889,-1.57823 0.3222,-2.25195 2.7894,-8.69109 6.5157,-16.06616 9.7188,-23.7168 1.2396,-2.50925 2.4748,-4.88076 3.6816,-7.05469 3.9211,-6.3134 8.3718,-11.96735 11.2813,-19.28906 0.026,-0.0455 0.05,-0.0872 0.076,-0.13281 5.1795,-7.18208 9.7582,-15.16104 11.9512,-24.92969 4.8,-10.6 1.8,-22.8 0,-34 -2.5,-9 -6.6,-17.4 -12,-26 -4.7,-6.4 -10.4,-13.2 -19,-18 -5.7,-6 -15,-9.3 -25,-13 -7.475,-0.89375 -15.61,-4.56101 -25.1562,-4.61719 z m 4.1601,7.14844 c 4.5158,5.9e-4 8.7336,0.41875 11.9961,1.46875 10.5,3 19.9,6.2 26,11 8.3427,4.96814 13.4397,11.75976 18.9043,16.95898 0.7147,0.82578 1.382,1.62271 1.9766,2.38672 5.1618,7.84494 9.1326,15.66787 11.1191,24.6543 0.8213,2.7867 1.48,6.1651 1.8906,9.7207 0.1662,1.70525 0.2996,3.43701 0.3633,5.24219 0.063,1.78712 0.073,3.41453 0.037,4.92578 -0.2341,5.21137 -1.2221,10.00796 -3.291,13.11133 -2.2,10.2 -7.5,17.5 -13,25 -3.3,8.8 -8.2,16.4 -13,24 -3.9,8.9 -7.3,18.1 -10,28 0.6376,9.56452 -0.1351,18.52214 -4.5488,23.36133 -0.4841,0.51286 -0.9962,0.98647 -1.5352,1.40429 -1.5904,1.1953 -3.5399,1.97517 -5.916,2.23438 -11.8131,0.6834 -3.4256,-19.97782 -5.8125,-30.26367 0.032,-0.99379 0.092,-2.02858 0.1738,-3.09961 1.4127,-9.18663 2.8825,-18.63048 3.5157,-28.73633 0.1676,-1.19635 0.3632,-2.47176 0.5839,-3.82422 2.2958,-9.59744 3.6333,-20.07768 6.5391,-29.07617 0.026,-1.12428 0.1599,-2.15354 0.3672,-3.11133 0.2762,-1.00104 0.5383,-1.84821 0.7988,-2.56445 3.1365,-7.59867 11.2874,-10.10725 8.0938,-19.58203 -0.058,-0.41706 -0.1217,-0.81423 -0.1914,-1.19141 0.9079,-5.85846 -4.8341,-2.46849 -7.8711,-1.43164 -0.5959,0.13915 -1.0995,0.2299 -1.4121,0.23242 -0.9466,-0.22953 -0.2338,-2.15645 4.2148,-8.35156 8.8,-6.9 2.1,-23.8 -11,-18 -3.684,3.92962 -6.0262,5.109 -8.1582,4.94336 -0.7008,-0.1296 -1.7637,-0.49537 -2.9941,-0.99219 -3.0141,-1.55528 -6.6357,-4.41874 -13.8477,-4.95117 -14.1,-1 -11.5,17.8 -7,23 0.2614,0.47309 0.4887,0.92463 0.6816,1.35547 8e-4,0.002 0,0.004 0,0.006 0,0.007 0.01,0.0145 0.01,0.0215 0.087,0.19623 0.1469,0.37295 0.2207,0.56055 0.2682,0.73823 0.4619,1.41981 0.584,2.04492 1.2962,8.3703 -14.5941,4.76742 -14.1738,-2.27344 0,-0.0303 0,-0.0594 0.01,-0.0898 0,-0.0454 0.016,-0.093 0.022,-0.13867 0.095,-0.60968 0.3022,-1.24997 0.6074,-1.92188 0.2632,-0.51164 0.5933,-1.03206 1.043,-1.56445 6.7,-9 3.4,-22.6 -9,-20 -7.9531,2.00393 -6.535,8.24325 -5.959,14.54297 0.037,2.66125 0.049,4.53259 -0.012,5.73242 -0.2651,1.70938 -0.8576,3.31858 -2.0293,4.72461 -1.9,9.3 9.6,13.6 9,24 3.8587,9.59976 5.3367,20.14416 7.5801,28.44141 0.1783,0.92489 0.3364,1.79841 0.4863,2.64257 0.7694,12.76966 4.684,21.07997 2.9336,33.91602 1.7688,9.92502 2.7558,25.91566 0.1328,34.5332 -0.1834,0.2434 -0.403,0.40163 -0.6738,0.52344 -13.8129,1.53275 -16.1758,-9.91577 -17.459,-22.05664 0.3,-11 -3.8,-19.5 -7,-30 -4.9546,-6.12043 -8.4063,-14.78658 -14.4668,-22.33594 -0.4212,-0.72101 -0.861,-1.48684 -1.3613,-2.38672 -3.35,-7.05181 -7.3595,-14.76314 -12.1719,-23.27734 -1.4478,-2.51795 -2.2212,-5.45358 -2.6211,-8.69141 -0.2027,-2.60281 -0.2694,-5.9799 -0.3437,-11.14648 l -0.01,-0.71875 c 0.067,-3.99844 0.1745,-8.17854 -0.025,-12.44336 2.8027,-8.78184 6.2229,-17.02918 10.166,-24.4375 0.4629,-0.76323 0.9532,-1.51683 1.4688,-2.26758 5.988,-6.53711 10.7377,-13.95014 18.3652,-18.29492 6.7694,-5.69023 15.4663,-9.26228 24.4805,-12.79492 0.3544,-0.10832 0.7069,-0.21424 1.0547,-0.3125 6.0725,-1.26665 14.1525,-2.36228 21.4687,-2.36133 z M 489.79297,194.72266 C 487.48203,194.76953 485.2,195.125 483,196 c -9.8,0.6 -18.2,2.5 -27,4 -7,3.2 -15.1,5.4 -22,9 -7.1,2.9 -11.8,8.5 -18,12 -4.7,6.2 -11.1,10 -17,15 -2.7,6.9 -9.2,10.7 -13,18 -1.6,7.9 -7.4,12.4 -10,20 -2.3,8 -4.2,16.4 -7,24 1.3,11.5 0.5,20.8 -1,30 0.9,11 3.9,18.3 5,27 3.3,7.4 6.3,14.7 9,21 4,7.5 8.3,13.5 12,19 l 16,15 c 5.4,5.7 11.1,10.3 18,13 5.8,5.2 13.1,8.2 20,10 7.9,3.9 16.2,5.9 24,7 h 31 c 11.1,1.2 17.9,-2.3 26,-4 8,-2.7 15.2,-5.8 22,-9 6,-4.5 13,-7.8 18,-13 4.8,-5.5 11.9,-8.7 15,-16 6.3,-3.9 9.9,-10.6 13,-18 4.1,-5.8 8.2,-12.1 9,-21 3.9,-6 7.2,-15.3 6,-24 3.1,-6.3 4.8,-17 1,-26 1,-9.6 -2.3,-16.6 -4,-26 -3.1,-6.4 -5.1,-14.6 -9,-22 -2.8,-6.5 -8.1,-11.5 -12,-18 -3.3,-6.8 -9.6,-10.7 -15,-17 -4.9,-4 -10.7,-8.5 -18,-13 -4.9,-3.9 -12.8,-6.2 -20,-10 -7.3,-2.3 -14.9,-4.9 -25,-6 -6.075,0.225 -13.27422,-2.41797 -20.20703,-2.27734 z m 0.69726,8.04492 C 505.67097,202.77361 520.575,204.36875 530,209 c 16,4.8 27,13.3 38,21 9.9,10.2 19.5,19.9 26,32 6.4,13.9 12.2,27.5 12,46 2.1,20.3 1.1,35.9 -6,50 -4,15 -12.1,26.4 -21,37 -8.7,10.6 -19.2,19.5 -32,26 -12.7,6.4 -26.6,12.8 -44,13 -19.3,1.1 -38.3,0.7 -51,-7 -14.4,-4 -26.4,-11.4 -37,-21 -9.8,-8.9 -19.1,-18.9 -26,-32 -6.3,-12.6 -12,-26.2 -14,-45 -1.2,-17.6 1.8,-36.3 6,-51 6.3,-13 13.8,-24.9 22,-36 9.6,-9.9 19.6,-19.3 32,-26 13.4,-6 27.5,-12 45,-13 3.46875,-0.15 6.98699,-0.23381 10.49023,-0.23242 z m 4.08985,7.94922 C 483.64158,210.65181 472.28125,213.4875 463,215 c -14.4,4.1 -25.8,11.7 -36,18 -9.8,8.6 -19.5,17.9 -26,28 -6.9,11.4 -11.6,25.7 -15,39 -2.9,17.7 0.3,36.6 3,49 4.9,13.8 12,25.7 19,35 7.4,11.2 18.3,19.4 29,25 10.5,8.1 25.4,12.2 39,15 18.4,1 37.8,1.3 49,-4 13.5,-4.8 26.1,-11.3 34,-20 11.5,-6.8 19.6,-17.8 25,-29 7,-9.5 13.7,-26.5 13,-38 6.1,-11.4 0.8,-31.7 -2,-44 -3.5,-14.2 -10.3,-26.4 -18,-36 -7.2,-10.4 -17.6,-19.1 -29,-26 -10.2,-6.3 -23.2,-12.4 -39,-14 -4.5625,-1.625 -9.44788,-2.25366 -14.41992,-2.2832 z m -0.5293,8.10742 C 506.95078,218.86172 518.95,219.8 526,224 c 13.8,3.7 23.9,11.6 32,19 10.4,6.6 16.4,18.6 22,28 6.8,10.7 10.7,24.8 12,38 1.2,13.1 -0.2,29.8 -5,41 -3.7,12.9 -10.9,23.6 -18,32 -7.7,9.3 -17.3,17.7 -28,23 -9.7,6.6 -22.9,10 -36,13 -18.1,1.9 -33.5,-0.6 -45,-6 -13.5,-2.2 -22.7,-10.9 -33,-17 -8.9,-7.2 -16.4,-17.8 -23,-28 -5.6,-10.1 -9.7,-23.9 -12,-39 -3.5,-14.2 2.5,-30.9 5,-43 5,-11.2 10.8,-23.3 18,-32 7.6,-9.1 18.5,-16.1 27,-23 12.9,-4.1 22.9,-10.6 39,-11 4.35,-0.1 8.75078,-0.18828 13.05078,-0.17578 z m -263.7207,6.04492 c -1.05232,-0.0177 -2.16133,0.0246 -3.33008,0.13086 -10.4,1.7 -5.6,33.7 -22,18 -1.8,-13.4 -15.6,-17.7 -27,-8 -7.7,7.8 11.9,28 -9,28 -9.1,-8.5 -22.4,-11 -27,4 -11.4,13.8 21.7,13.7 9,27 -8.4,6.5 -29.3,4.2 -22,23 0.3,15.1 32.1,2.9 21,24 -11,5.6 -17.8,16.9 -6,27 1.49965,0.45844 2.6832,0.92669 3.64453,1.40234 0.008,5.8e-4 0.0156,1.2e-4 0.0234,0.002 0.20787,0.004 0.41713,-0.009 0.625,-0.01 0.20093,-0.004 0.40075,-0.009 0.60156,-0.0176 0.21798,-0.0171 0.43675,-0.0348 0.6543,-0.0566 0.20804,-0.0208 0.41553,-0.0427 0.62305,-0.0684 0.20572,-0.0261 0.41199,-0.0539 0.61718,-0.084 0.21542,-0.0332 0.42999,-0.0649 0.64453,-0.10352 0.21323,-0.0377 0.42687,-0.0779 0.63868,-0.12304 0.20128,-0.0428 0.40066,-0.09 0.59961,-0.14258 0.27135,-0.0714 0.54212,-0.15003 0.81835,-0.20117 0.23652,-0.0488 0.47193,-0.10029 0.70899,-0.14649 0.24266,-0.0498 0.48514,-0.10608 0.72851,-0.15234 0.20408,-0.0403 0.4073,-0.0815 0.60938,-0.13086 0.18259,-0.0447 0.36427,-0.0938 0.54297,-0.15235 0.20876,-0.0638 0.41724,-0.12629 0.625,-0.19335 0.19798,-0.0588 0.39628,-0.12202 0.5957,-0.17579 0.16723,-0.0491 0.33292,-0.097 0.5,-0.14648 0.13598,-0.0433 0.27354,-0.0836 0.4082,-0.13086 0.12863,-0.0465 0.25937,-0.0888 0.38672,-0.13867 0.13707,-0.0526 0.27443,-0.0996 0.41211,-0.15039 0.12272,-0.0473 0.24492,-0.0993 0.36524,-0.15235 0.14816,-0.0612 0.29829,-0.11765 0.44531,-0.18164 0.007,-0.003 0.0255,-0.01 0.0195,-0.008 0.0275,-0.0136 0.0562,-0.0263 0.084,-0.0391 0.0338,-0.0191 0.0814,-0.0488 0.1289,-0.082 0.30572,-0.21691 0.63516,-0.40508 1.00586,-0.48633 -0.0798,0.023 0.35229,-0.0877 0.35547,-0.0762 0.0848,-0.0142 0.16893,-0.0278 0.25391,-0.041 0.14293,-0.0221 0.27136,-0.0253 0.40625,-0.0371 12.07063,-4.47894 16.98637,7.85281 12.74023,16.28711 -0.0556,0.28175 -0.13449,0.57554 -0.25391,0.88867 -0.0374,0.0982 -0.019,0.0512 -0.0527,0.14063 -0.0437,0.12169 -0.0876,0.24513 -0.13281,0.36523 -0.0382,0.14616 -0.0732,0.29414 -0.0977,0.44336 -0.0438,0.24191 -0.0932,0.48223 -0.14453,0.72266 -0.0438,0.20014 -0.0825,0.40036 -0.12109,0.60156 -0.0377,0.19169 -0.0718,0.38471 -0.0996,0.57813 -0.0293,0.18046 -0.0406,0.36314 -0.0586,0.54492 -0.0182,0.20275 -0.0332,0.40591 -0.041,0.60937 -0.0101,0.20474 -0.0158,0.40822 -0.0137,0.61328 -7.7e-4,0.19274 -5.8e-4,0.38574 0.0137,0.57813 0.0105,0.18712 0.0306,0.37249 0.0527,0.55859 0.0248,0.20818 0.0507,0.41741 0.0801,0.625 0.029,0.1949 0.0593,0.39031 0.0957,0.58399 0.0345,0.18637 0.0727,0.37193 0.11524,0.55664 0.0391,0.171 0.0816,0.3394 0.13086,0.50781 0.0461,0.16039 0.0953,0.32166 0.15234,0.47852 0.0523,0.14513 0.11082,0.28669 0.17773,0.42578 0.0773,0.17023 0.16448,0.33575 0.2461,0.5039 0.0887,0.17475 0.18173,0.34734 0.27539,0.51954 0.0425,0.0778 0.0876,0.15418 0.13281,0.23046 1.20041,0.81771 2.44026,2.00132 3.73047,3.66016 15.7,12.5 19,-6.8 25,-14 22.4,-5.7 7,26.6 25,22 21.9,4.8 9.6,-19.4 18,-27 13.1,-10.1 17.1,20.6 29,5 15.9,-5.9 6.8,-19.4 -1,-27 0.8,-18.8 32.7,6.5 28,-18 14.1,-16.1 -15.9,-11.6 -16,-24 4.6,-10.4 28.8,-7.7 16,-27 0.1,-19.2 -29.5,6.8 -28,-14 10.3,-7.1 14.7,-20.2 0,-26 -10.1,-16.2 -15,14.5 -28,5 2.0625,-13.125 -0.88513,-26.86536 -16.66992,-27.13086 z m 928.81252,3.9082 c 3.876,-0.11167 5.4492,1.68065 5.6836,4.05274 0.012,0.25647 0.029,0.48982 0.027,0.80664 0,0.003 0,0.005 0,0.008 -0.075,3.47205 -2.5564,7.78928 -4.8535,9.35547 -4.4921,0.74868 -8.7694,-8.39308 -5.7656,-12.35352 0.064,-0.0772 0.1089,-0.14839 0.1797,-0.22851 0.6009,-0.68521 1.4466,-1.19011 2.5859,-1.41797 0.7812,-0.13125 1.4944,-0.20398 2.1426,-0.22266 z m 25.7636,0.0332 c 0.3479,0.004 0.7126,0.0644 1.0938,0.18945 9,1.3 1.8,12.5 -2,13 -5.625,-0.46875 -4.3068,-13.24255 0.9062,-13.18945 z m -52.7812,0.22461 c 5.0527,1.08975 4.2457,7.77519 0.875,8.96484 -4.2933,0.3903 -3.0627,-6.72668 -1.1426,-8.83789 0.089,-0.0574 0.1781,-0.0987 0.2676,-0.12695 z m -900.66211,4.56836 C 236.10308,233.62175 241.475,237.1625 239,242 c -6.2,22.5 21.8,26.5 27,11 28.1,-0.1 -9.7,20.6 6,31 10.4,2.2 44.7,4.7 17,18 -9.4,-0.4 -9.7,12.5 -8,21 5.8,5.2 18.1,4.4 18,12 -4.9,14.4 -33.6,-5 -31,21 17.2,11.1 3.6,35.9 -9,14 -19.4,-8.6 -22.7,14.9 -27,27 -12.8,3.5 -4.5,-15 -12,-18 -6.6,-2.5 -22.1,-3.1 -24,2 -11.2,25.5 -21.1,0 -12,-13 -9.2,-19 -24.6,-5.8 -37,-8 1.1,-11.4 23.7,-18.7 7,-39 -6.3,-2.2 -20.4,1.6 -19,-11 3.6,-5.8 18.5,-2.3 21,-8 19.6,-18.1 -14.2,-24.6 -3,-38 10.8,9.1 34.9,8.3 33,-11 -9.4,-28.5 18.3,-8.5 22,1 11.4,1.3 17.9,-2.5 18,-13 -1.3125,-5.29375 1.85386,-7.41067 5.46289,-7.39648 z M 1172,238 c 2.5297,0.95565 5.0599,5.67108 5.1914,9.74219 10e-5,0.003 -10e-5,0.005 0,0.008 -3e-4,0.0434 0,0.0821 0,0.125 0.01,0.31504 -0.013,0.62313 -0.037,0.92773 -0.019,0.26181 -0.046,0.50892 -0.08,0.74805 -0.4127,2.35896 -1.9047,4.203 -5.0703,4.44922 -11.8,0 -2.7,-12.7 0,-16 z m -244.50586,3.16406 c -2.30879,0.0462 -4.29102,0.47969 -5.49414,1.83594 -0.2,11.5 -12.8,18.2 -17,5 -4.2,-7.3 -22,-0.3 -19,7 6.8,13.2 -7.2,18.2 -15,10 -8.7,-2.5 -18.4,12.5 -11,17 12,6.4 1,17.5 -12,14 -7.7,5.5 -6,23.4 5,21 11.8,11 -5,14.9 -9,20 -3.8,16.3 11.3,14.8 20,16 7.8,10.2 -11.2,16.7 -1,25 7.4,12.7 16.1,-2.3 24,0 8.6,6.2 -3,22 11,21 2.35811,-0.20285 4.19961,-0.23728 5.68945,-0.15625 0.13337,-0.0614 0.26789,-0.12031 0.40039,-0.18359 0.30777,-0.1492 0.61571,-0.29873 0.91993,-0.45508 0.28658,-0.14797 0.57462,-0.29423 0.84765,-0.4668 0.25985,-0.15276 0.51474,-0.31247 0.75977,-0.48828 0.26951,-0.19413 0.53786,-0.39074 0.80078,-0.59375 0.24607,-0.19529 0.48219,-0.40206 0.71289,-0.61523 0.22844,-0.20909 0.44643,-0.42822 0.66797,-0.64454 0.18313,-0.17692 0.36511,-0.35489 0.54492,-0.53515 0.16356,-0.18046 0.33195,-0.35701 0.48242,-0.54883 0.16147,-0.19611 0.327,-0.38845 0.48438,-0.58789 0.1601,-0.19398 0.32012,-0.38909 0.48828,-0.57617 0.11932,-0.12707 0.22529,-0.26594 0.33594,-0.40039 0.12609,-0.15825 0.25598,-0.31212 0.38867,-0.46485 0.1388,-0.1676 0.28083,-0.33299 0.4375,-0.48437 0.12109,-0.12314 0.24043,-0.24803 0.36914,-0.36328 0.32548,-0.29146 0.64681,-0.50204 0.95508,-0.64649 1.6951,-1.26394 3.31057,-1.78685 4.80273,-1.77344 3.83013,0.0346 6.84973,3.54032 8.38086,6.75782 0.044,0.0446 0.0854,0.0915 0.12891,0.13672 0.19623,0.20646 0.37277,0.42841 0.55078,0.65039 0.13241,0.15702 0.26411,0.31439 0.41015,0.45898 0.1807,0.17164 0.36399,0.34301 0.55274,0.50586 0.2209,0.19738 0.44361,0.39122 0.67187,0.58008 0.25251,0.21684 0.51317,0.42453 0.76953,0.63672 0.25507,0.22313 0.51833,0.43584 0.77735,0.65429 0.23758,0.19745 0.48706,0.37947 0.73437,0.56446 0.27431,0.19774 0.54709,0.39917 0.82227,0.5957 0.27341,0.19853 0.55377,0.38656 0.83203,0.57813 0.27756,0.18725 0.55158,0.3786 0.83008,0.56445 0.18244,0.12369 0.37474,0.35436 0.5664,0.46289 4.08188,1.7899 4.96219,1.73249 9.88477,-1.03906 2.1,-6.6 5.2,-27.12305 15,-15.12305 7.1,8.1 21,1.5 19,-10 -9.1,-9.5 2.7,-20.3 12,-13 7.7,-1.3 15.4,-15.7 5,-20 -12.8,-5.9 -2.7,-16.2 8,-16 5.3,-6.3 1.9,-22 -10,-20 -13.7,-7.8 8.8,-12.2 3,-23 -1.2,-11.5 -11.1,-9.2 -23,-7 -8.1,-3.9 10.7,-19.8 -4,-23 -8.4,-8.6 -16.1,1.7 -23,6 -3.49713,-3.40509 -5.20882,-8.09674 -4.69922,-11.4043 -0.0291,-0.0619 -0.0597,-0.12317 -0.0879,-0.18554 -0.15057,-0.31465 -0.30259,-0.62777 -0.45117,-0.94336 -0.15344,-0.33558 -0.32257,-0.66262 -0.48438,-0.99414 -0.15299,-0.30576 -0.30704,-0.61042 -0.47851,-0.90625 -0.16136,-0.28152 -0.3409,-0.55027 -0.53125,-0.8125 -0.22637,-0.29791 -0.45829,-0.59295 -0.69727,-0.88086 -0.24997,-0.29539 -0.51363,-0.578 -0.7832,-0.85547 -0.30458,-0.32529 -0.61736,-0.64325 -0.92578,-0.96485 -0.10924,-0.11006 -0.22877,-0.20869 -0.3418,-0.31445 -2.94707,-0.12118 -6.22439,-0.63022 -9.02539,-0.57422 z m 4.00586,7.29688 c 2.10767,-0.0721 3.90625,2.60156 5.5,10.53906 6.3,20.8 22.3,-6.1 29,2 -8.6,17.2 5.9,29.5 20,21 7.6,9.3 -16.9,21.3 1,31 29.4,6.7 -8.9,11.2 -6,23 12,10.5 16.3,24.9 -7,19 -17.1,3.5 9.3,34.6 -12,25 -11,-14.3 -24.8,4.3 -24,16 -4.1,-6.6 -20.9,-24.3 -30,-9 -16.8,20.2 -2.8,-17.8 -19,-16 -12.8,4.5 -29.1,5.4 -15,-13 6.1,-17.3 -36.3,-7.4 -18,-23 17.8,-6 4.2,-27.3 -6,-28 5.7,-6.3 31.3,-6.1 20,-23 -16.2,-20.9 15.6,-2.5 21,-13 0.2,-24.3 10.9,-18.7 21,-9 8.73125,0.0688 14.86313,-13.38035 19.5,-13.53906 z m 225.4688,7.58203 0.2656,0.22265 c 9.9518,11.99587 27.4847,-7.04083 29.5605,4.75391 0.022,0.92468 -0.1059,2.01225 -0.3847,3.26953 -4.4547,9.90933 -6.2481,22.36224 -9.4102,32.71094 -1.8,14 -3.8,28.3 -5,41 -0.818,4.72205 -0.2542,10.81197 0.027,16.63672 -0.017,4.78698 -0.058,8.06111 -0.1757,9.94336 -0.7312,5.30463 -2.9747,9.13815 -8.8516,9.41992 -16.3681,2.22761 -9.2866,-20.59053 -13.5488,-31.02344 -0.094,-0.82085 -0.1788,-1.78439 -0.252,-2.88476 1.4329,-14.66084 -2.5694,-24.95778 -4.1992,-38.0918 -1.8,-12.7 -5.2,-25.5 -9,-37 -10.1871,-18.87602 13.4373,3.43879 20.9688,-8.95703 z m -938.09771,8.61328 C 204.89434,264.67949 193.225,270.225 185,276 c -8.3,8.4 -16.1,17.8 -18,33 -1.1,17.4 3.8,32.6 11,40 8.3,9.9 19.1,16.2 33,19 19.3,1.5 31.3,-5.1 40,-12 9.3,-8.5 17,-17.9 18,-34 2.2,-14.6 -3.4,-30.6 -11,-39 -8.1,-8.2 -17.9,-15.6 -33,-18 -2.0875,-0.2375 -4.13223,-0.34707 -6.12891,-0.34375 z m 2.30664,7.14648 C 234.80312,272.15547 243.05,277.9625 249,284 c 8,7.1 13.5,16.4 13,30 2.1,17 -5,24.8 -12,33 -7,7.4 -16,13.3 -30,15 -14,-0.1 -24.5,-6 -32,-13 -7.7,-6.6 -13.4,-15.8 -15,-30 -0.9,-16.3 6,-24.2 11,-34 8.7,-6.2 17,-12.8 31,-13 2.175,-0.1875 4.23125,-0.24766 6.17773,-0.19727 z m 703.58399,0.13868 C 908.95605,272.09375 898.90625,278.75 890,284 c -9.9,7.6 -12.7,22.6 -16,35 4.8,18.3 -0.8,18.5 9,32 7.1,10.7 17.1,17.3 30,20 19.3,2.4 33.1,-1.7 41,-9 9.3,-8.1 17.2,-18.1 18,-33 1.9,-17.6 -3.1,-30.6 -11,-39 -6.1,-9.9 -18.4,-14.1 -33,-18 -1.10625,-0.05 -2.18457,-0.0688 -3.23828,-0.0586 z M 496,278 c -9.1,0.5 -22.5,1.7 -30,8 -6,7.4 -11.9,16.2 -14,26 -2.5,16.6 4.4,23.4 9,32 6.1,7.7 16,12.5 26,14 15.1,1.8 23.2,-3.7 31,-9 7.9,-6.1 12.7,-15.9 13,-28 4.3,-10 -2.7,-21.6 -8,-29 -5.7,-6.8 -14.3,-12.9 -27,-14 z m 428.20508,0.67188 C 935.98203,278.84276 945.1375,285.1875 951,290 c 9.3,5.5 13.3,17.3 16,27 0.7,15.3 -4.6,25.7 -11,33 -6.1,7.9 -14.7,13.6 -28,15 -14.6,1.4 -26.1,-2.8 -33,-10 -6.1,-6.9 -15.2,-16.2 -15,-28 -1.5,-16.1 5.6,-24.8 11,-33 6.5,-7.6 15,-13.3 28,-15 1.7875,-0.25 3.52266,-0.35254 5.20508,-0.32812 z M 487,284 c 9,0 20.8,2.5 25,7 7.1,6 12.4,12.1 14,21 1.3,9.5 -2.6,18.8 -7,26 -4.4,6.4 -11.4,10.8 -20,13 -12.5,2 -20.1,-1.8 -28,-7 -5.6,-4.2 -10.5,-10.7 -13,-21 -1.9,-10.1 3.7,-18.8 7,-26 6.4,-4.9 11.3,-11.5 22,-13 z m 580.6719,11.93555 c -0.2582,-0.009 -0.5245,-0.008 -0.8008,0.002 -0.2807,0.0104 -0.5711,0.0312 -0.8711,0.0625 -10.8,4.6 -14.7,33 -28,8 -22.2,-6.7 -10.6,18.3 -12,25 -20.6,-8.9 -31.5,21.7 -11,21 20,11.4 -20.4,17.7 -2,30 7.9893,4.1293 29.5396,-9.37522 25.459,6.43359 -0.065,0.25256 0.087,0.5144 0.1308,0.77149 0.066,0.38922 0.1362,0.77646 0.211,1.16406 0.083,0.4299 0.1537,0.86157 0.2285,1.29297 0.07,0.40534 0.1439,0.81148 0.2246,1.21484 0.079,0.39212 0.1593,0.78311 0.2441,1.17383 0.083,0.38453 0.1903,0.76333 0.295,1.14258 0.11,0.39855 0.258,0.78583 0.3886,1.17773 0.1506,0.4522 0.065,1.06687 0.4414,1.35938 1.7742,1.37985 3.629,2.42672 5.3008,3.48437 0.1797,0.11369 0.4191,-0.0804 0.6524,-0.10156 0.3115,-0.0282 0.6225,-0.0562 0.9336,-0.0879 0.4628,-0.0471 0.9265,-0.0996 1.3886,-0.1543 0.4824,-0.0571 0.965,-0.0982 1.4493,-0.13671 0.3717,-0.0296 0.746,-0.0514 1.1191,-0.0469 0.014,1.7e-4 0.032,0.0157 0.039,0.004 0.2083,-0.37892 0.4052,-0.76367 0.6171,-1.14063 0.2274,-0.40466 0.458,-0.80924 0.6973,-1.20703 0.2696,-0.44823 0.57,-0.87628 0.8828,-1.29492 0.2934,-0.39269 0.5936,-0.77945 0.9024,-1.16016 0.3405,-0.41972 0.7141,-0.80937 1.0898,-1.19726 0.348,-0.35928 0.7055,-0.71069 1.0723,-1.05079 0.1872,-0.17354 0.4766,-0.27533 0.5683,-0.51367 8.8692,-23.05802 16.5197,18.65803 28.6641,1.87305 13.8,-5.4 -17.4,-31.3 14,-25 24.4,-9.9 -5.6,-20.5 -8,-29 16.5,-1 14.5,-30.1 -3,-22 -24.1279,18.0233 -5.0647,-20.47924 -21.3281,-21.06445 z M 925,296 c -17.7,-0.3 -23.3,11.7 -28,24 1.1,17.8 10.9,25.7 25,29 16.5,-1.1 25.2,-10.1 28,-25 -1.4,-15.6 -9.2,-25.5 -25,-28 z m -4,6 c 10.2,0.3 19.6,7.4 23,16 -0.2,13.5 -6,21.4 -17,24 -13.8,0.6 -19.2,-7.7 -24,-17 1.3,-12.4 8.1,-19.3 18,-23 z m 145,2 c 5.5,5 -3.4,21.6 8,22 7.4,9.4 14.5,-5 21,-2 0.3,9 -15,9.6 -10,18 -1.9,13.3 12.1,11.2 16,15 -1.5,10.3 -18.9,-2.5 -20,8 -9,5.8 0.8,15.9 1,21 -8.4,6.5 -7.6,-11.4 -18,-9 -13.1,-2.4 -9.36,16 -16,16 -6.7201,0 0.4,-20.6 -10,-22 -5.3,-6.1 -18.7,10.3 -20,0 5,-4.6 15.7,-9.6 9,-20 1.3,-9.8 -19.1,-3.5 -16,-14 8.5,0.2 21.1,5.9 22,-5 9.8,-7.7 -7.1,-16.1 -2,-22 9.7,0.4 11.4,15.5 19,10 15.1,4.3 8.7,-14 16,-16 z m -310.63867,6.08008 C 746.18242,309.9007 742.16875,317.30937 742,326 c 4.1,17.8 -14.3,7.9 -16,0 -1.5,-10.5 -14,-8.2 -21,-2 -10.2,3.9 0.4,17.9 1,25 -2.8,13.8 -15.8,-0.7 -24,0 -6.4,0.5 -14.8,11.3 -11,19 3.3,7.3 18.1,11.4 11,20 -7.7,4.5 -25.2,-1 -23,13 -4.3,13.7 5.4,18 17,17 15.6,2.4 5,14 -3,16 -9.5,4.5 -5.9,18 -1,23 8.4,9.1 18,-1.9 27,-2 10.7,5.6 -3,16.7 -3,24 2.5,8 12.5,14.9 20,12 7.6,-2.8 10.2,-17.2 19,-14 7.4,5.6 -0.4,25.4 10,26 15.7,3.3 21.8,-2.6 22,-15 -2,-15.8 14,-10 15,-1 3.4,10.5 16.7,8.2 22,1 9.7,-4.7 -0.3,-16.9 -1,-25 3.9,-10.7 16.5,1.4 23,2 9.6,-1.1 14.2,-10.6 13,-21 -2.8,-6.2 -18.1,-10.7 -12,-19 6.7,-4.9 25.2,1.6 23,-13 6,-13.8 -5.5,-17.1 -17,-18 -15.2,-0.1 -3.6,-14.1 3,-16 10.9,-4.3 5.6,-15.2 0,-22 -6.4,-8.2 -17.7,2.4 -27,2 -7.4,-6.4 4.3,-16.4 4,-26 -1.7,-4.2 -12.4,-12.6 -21,-10 -6.6,3.5 -8.1,18.9 -19,13 -5.5,-5.9 1.8,-25.2 -12,-24 -2.0625,-0.59375 -3.93887,-0.8867 -5.63867,-0.91992 z m 2.70898,6.23633 C 769.18612,316.06028 762.01562,333.55938 767,338 c 3.2,8.3 20.7,9.5 19,-1 4.9,-6.6 17.2,-11.2 19,-1 -2.1,6.9 -9.3,18.2 -4,24 4.9,10.6 16.9,2 25,1 10.8,-5.8 9.5,16.6 1,15 -8.3,1.8 -12.1,16.3 -6,21 7,5.9 24.5,0.8 22,12 -2,10.2 -17,6.6 -24,11 -5.9,10.2 0.6,18.7 7,21 10,2.9 7.7,19.5 -4,15 -6.8,-1.7 -17.6,-10.5 -23,-2 -7.3,7.3 1.2,18.5 2,26 -2.6,13.3 -15.5,3.6 -17,-3 -1.9,-8.8 -15.7,-8.4 -22,-3 -2.6,7.8 -0.2,22.7 -10,23 -11.3,0.8 -3.9,-18.1 -10,-24 -5.6,-6.9 -20.1,-4 -22,3 -1.4,8.5 -17.1,12.7 -16,-1 3.2,-5.8 11,-19.2 2,-24 -4.8,-8.4 -16.5,1.5 -24,2 -12.1,-1.7 -7.1,-13.5 0,-16 8.9,-2 12.5,-12.8 6,-21 -3.6,-6.2 -22.2,-0.1 -22,-11 -1.6,-12.4 15.9,-6.3 23,-11 6.5,-7.6 4.1,-17.2 -4,-21 -8.8,-1.7 -12,-14.4 -2,-17 8.1,1 18,10.2 23,5 9.7,-3.1 7.5,-15.8 3,-24 -6.4,-10.1 14,-14.1 14,-5 3,8.4 12.3,15.1 21,9 7.1,-4.3 1.6,-22.3 10,-24 1.575,-0.44063 2.9204,-0.6571 4.07031,-0.68359 z m 299.80469,15.64257 c -10.3784,0.13953 -17,5.44727 -18.875,13.04102 -0.8,13.4 4.8,19.2 13,22 13.7,2.1 19.2,-5.4 21,-14 2.8,-13.1 -4.4,-17.4 -13,-21 -0.725,-0.0375 -1.4331,-0.0503 -2.125,-0.041 z m -1.7734,5.61524 c 14.5125,-0.57752 14.2422,21.20703 2.8984,22.42578 -15.2,3.8 -17.8,-18.9 -6,-22 1.1,-0.25 2.1341,-0.38728 3.1016,-0.42578 z M 754.39844,351.48633 C 739.43594,351.23613 727.6125,357.35 720,364 c -11.1,8.1 -18.3,20.4 -20,36 -2.7,15.2 4.5,33.1 11,41 8.2,11.4 21.4,17.8 35,21 20.5,1.6 33.7,-4.7 44,-12 9.5,-9 17.9,-20.2 19,-37 2.9,-14.7 -3.4,-32.5 -12,-41 -8.1,-9.3 -18.5,-18.4 -36,-20 -2.2625,-0.3125 -4.46406,-0.47793 -6.60156,-0.51367 z m -651.46875,6.15625 C 93.467494,357.81555 82.525,366.68125 90,377 c 6.8,13.8 4.8,29.3 -15,26 -16,-4.3 -24.1,15.2 -15,25 12.8,4.5 35.6,-1.5 35,13 0.3,13.5 -11,33.7 6,34 20.3,3.5 14.5,-18.3 23,-26 10.3,-10.6 21.9,3.1 30,6 13.6,4.9 25.3,-16.5 12,-22 -6.5,-4.7 -21.9,-15.8 -13,-27 4.1774,-3.0057 8.13763,-8.74313 12.38281,-11.91602 0.0298,-0.034 0.0602,-0.0674 0.0898,-0.10156 0.0936,-0.10052 0.1813,-0.2057 0.26757,-0.3125 0.0765,-0.0915 0.15008,-0.18877 0.21485,-0.28906 0.0857,-0.128 0.16634,-0.25888 0.24609,-0.39063 0.0968,-0.15928 0.19739,-0.31562 0.29492,-0.47461 0.0872,-0.14456 0.17024,-0.29061 0.25,-0.43945 0.0937,-0.16603 0.17814,-0.33855 0.26563,-0.50781 0.0897,-0.17536 0.17558,-0.35215 0.26172,-0.5293 0.0914,-0.19487 0.18874,-0.38671 0.2832,-0.58008 0.0947,-0.19364 0.18819,-0.38759 0.28125,-0.58203 0.0899,-0.19746 0.1818,-0.39417 0.27149,-0.59179 0.0265,-0.06 0.0508,-0.12107 0.0762,-0.18164 8e-4,-0.006 3e-4,-0.0117 0.002,-0.0176 0.0273,-0.20103 0.0503,-0.40378 0.0723,-0.60547 0.0229,-0.21053 0.0408,-0.42195 0.0605,-0.63281 0.0184,-0.1967 0.0338,-0.39301 0.0508,-0.58985 0.0201,-0.23369 0.0508,-0.46605 0.0762,-0.69922 0.0219,-0.20132 0.0414,-0.40363 0.0586,-0.60547 0.0182,-0.21372 0.0325,-0.42659 0.0469,-0.64062 0.0158,-0.23623 0.027,-0.47254 0.0391,-0.70898 0.0117,-0.22804 0.0271,-0.45721 0.0254,-0.68555 -0.002,-0.24525 -0.0198,-0.49008 -0.041,-0.73438 -0.0162,-0.18766 -0.0325,-0.37507 -0.0488,-0.5625 -0.005,-0.0166 -0.0112,-0.0299 -0.0156,-0.0469 -0.01,-0.0369 -0.0176,-0.0744 -0.0273,-0.11133 -0.0567,-0.21535 -0.11983,-0.42945 -0.16993,-0.64648 -0.0455,-0.19852 -0.0863,-0.39939 -0.13281,-0.59766 -0.0464,-0.20257 -0.0917,-0.40413 -0.13476,-0.60742 -0.006,-0.0267 -0.0115,-0.0534 -0.0176,-0.0801 -2.14054,-2.27891 -4.77085,-4.60399 -6.8086,-6.71094 -0.10061,-0.10402 -0.28381,-0.0571 -0.42578,-0.084 -0.17881,-0.0338 -0.35964,-0.0559 -0.54101,-0.0703 -0.20926,-0.0167 -0.41894,-0.033 -0.62891,-0.0391 -0.19566,-0.006 -0.3904,-0.006 -0.58594,0.002 -0.24088,0.009 -0.48192,0.0208 -0.72265,0.0332 -0.23662,0.0122 -0.47255,0.0259 -0.70899,0.041 -0.2348,0.015 -0.47051,0.0306 -0.70508,0.0488 -0.23045,0.0178 -0.46133,0.0383 -0.6914,0.0605 -0.22605,0.0219 -0.45222,0.0434 -0.67774,0.0703 -0.22072,0.0264 -0.44022,0.0554 -0.66015,0.0879 -0.21285,0.0315 -0.425,0.0651 -0.63672,0.10352 -0.20955,0.038 -0.41921,0.0742 -0.62695,0.12109 -0.21024,0.0474 -0.42059,0.0991 -0.62891,0.1543 -0.23173,0.0614 -0.4656,0.11615 -0.69727,0.17773 -0.24001,0.0638 -0.47984,0.12506 -0.7207,0.18555 -0.27201,0.0683 -0.54683,0.12537 -0.82422,0.16797 -0.0492,0.0233 -0.0997,0.0438 -0.14844,0.0684 -0.17075,0.087 -0.34313,0.1685 -0.51562,0.25195 -0.17885,0.0801 -0.35515,0.16817 -0.5332,0.25 -0.1685,0.0737 -0.33459,0.15003 -0.5,0.23047 -0.12605,0.0615 -0.25462,0.11702 -0.38282,0.17383 -0.1057,0.0468 -0.20673,0.0787 -0.30664,0.11133 -4.7505,3.6815 -15.28672,7.37314 -18.35156,10.0332 -13.7,-1.2 -12.3,-18.7 -21,-27 -1.78125,-0.975 -3.88674,-1.39734 -6.07031,-1.35742 z m 651.85937,0.26172 C 768.61316,357.8713 780.53125,364.375 787,370 c 8.7,8.8 15.3,19.5 16,33 0.9,18 -5.2,29.4 -13,36 -6.9,9.8 -18.4,14.3 -32,17 -15.1,-0.4 -27.4,-5.5 -36,-13 -7.2,-8.1 -15.1,-17.6 -15,-34 -1.6,-17 5.3,-27.5 12,-36 9.1,-6.9 17,-15 33,-15 0.9375,-0.0625 1.86746,-0.0935 2.78906,-0.0957 z m -653.94726,6.63867 c 4.58933,-0.0355 9.26445,5.91953 10.1582,10.45703 2.8,8.6 6.4,17 15,16 11.5,4 16.5435,-3.36571 22,-8 9.45769,-8.03256 17.86804,1.69509 8,9 -6.51081,4.81969 -11.7,10.1 -14,18 -1.3,13.1 5.8,16.8 12,21 4.8,4.3 16.1,11.9 6,18 -7.5,-2.9 -14.7,-6.6 -22,-11 -7.4,-0.7 -17.9,2.6 -21,9 -3.9,6.9 -5,17.7 -10,22 -14.2,0.6 -5.3,-12.1 -6,-22 5.2,-9.3 -3.6,-15.2 -8,-21 -7,-3.3 -21.6,0.5 -28,-5 -7.8,-11.1 10.1,-9.2 16,-12 13.4,2.3 15.2,-6.7 20,-13 -1.2,-9.3 -3.5,-17.9 -6,-27 1.6875,-3.1875 3.755671,-4.44092 5.8418,-4.45703 z M 1176,386 c -8.4,2.1 -28.5,-2.6 -26,6 9.7,-0.1 29,3.9 26,-6 z m -113.4414,7.04102 c -0.2094,-0.0168 -0.3208,0.2713 -0.4785,0.41015 -0.339,0.29847 -0.6843,0.59183 -1.0196,0.89453 -0.3244,0.2928 -0.6518,0.58221 -0.9726,0.87891 -0.3016,0.27888 -0.5953,0.56622 -0.8809,0.86133 -0.2731,0.28226 -0.548,0.5609 -0.7968,0.86523 -0.2703,0.33054 -0.5306,0.6705 -0.7872,1.01172 -0.2276,0.30259 -0.4442,0.61349 -0.6406,0.9375 -0.2104,0.34699 -0.4072,0.70186 -0.6074,1.05469 -0.1876,0.33054 -0.376,0.66046 -0.5469,1 -0.1736,0.34497 -0.3434,0.69261 -0.5019,1.04492 -0.1621,0.36042 -0.3181,0.72409 -0.4727,1.08789 -0.1217,0.28647 -0.2514,0.56849 -0.3574,0.86133 -0.099,0.27469 -0.1885,0.55289 -0.2676,0.83398 -0.096,0.34082 -0.1773,0.68521 -0.2949,1.01953 -0.1116,0.31744 -0.2534,0.62254 -0.3809,0.9336 -0.1163,0.28383 -0.2161,0.57472 -0.3086,0.86719 -0.1171,0.37041 -0.2056,0.74774 -0.3261,1.11718 -0.01,0.0225 -0.024,0.0423 -0.021,0.0645 0.5847,3.94624 -1.0207,8.77579 -5.8965,15.21484 -14,13.6 -26.9,-0.7 -31,-12 -12.4,-19.5 -24,8.3 -11,17 8.3,14 -10,31.2 -23,20 -13.4,-15.2 -32.9,5.6 -13,13 14.3,4 21.6,18.9 9,31 -8.9,3.2 -39.4,7.5 -21,20 21.3,-2.6 36.8,0.9 36,18 -3.8,10.4 -24.5,22 -12,32 14.3,2.4 20.8,-19.9 34,-13 21.6,-2.9 4.1,33.6 15,38 18.4,0.3 9.6,-26.8 23,-31 21,-5.2 21,15.9 30,22 22.3,5.1 7.2,-21.5 5,-31 2.6,-13.6 18.3,-18.4 30,-9 22.7,11 20.7,-18 4,-18 -14,-0.3 -15.5,-31.8 2,-30 16.2,4.8 31.9,-25.1 2,-19 -19.7,7.1 -28.5,-16.4 -19,-25 10.8,-5.4 19.2,-30 -1,-23 -9,7.5 -22.5,21.7 -35,8 -1.6703,-13.18644 3.7304,-37.98523 -8.4414,-38.95898 z m -145.28321,4.71093 c -1.6658,-0.031 -3.38721,0.42417 -4.92969,1.35352 -0.14359,0.0934 -0.28743,0.18644 -0.43164,0.2793 -0.28701,0.18175 -0.57815,0.36018 -0.85547,0.55664 -0.25808,0.17363 -0.51075,0.35396 -0.75781,0.54297 -0.27123,0.20954 -0.53888,0.42383 -0.81055,0.63281 -0.24808,0.20215 -0.49225,0.40652 -0.72461,0.62695 -0.1281,0.11397 -0.26495,0.21782 -0.39648,0.32813 -0.83363,2.62877 -5.1933,6.43952 -8.36914,9.92773 -12.2,3.8 -13.5,-13.9 -24,-7 -12.7,1.6 -5.4,16.3 -8,25 -3.3,8.3 -24.1,-0.6 -22,14 -3.7,16.8 16.2,10.5 13,24 -2.2,8.3 -14.2,13.7 -6,23 4.7,12.5 19.6,-1.8 26,5 3,9.7 1.1,23.5 13,22 15,2.6 9.7,-16.3 23,-14 7.6,2.8 14.3,15.2 23,6 12.8,-3.9 -3.3,-20.5 6,-26 8.1,-3.8 23.6,-0.2 21,-15 1.2,-11 -17,-8.4 -14,-20 2.6,-6.9 14.8,-14.4 5,-24 -3,-10 -21.4,4.2 -26,-7 -2.08864,-2.80563 -2.6897,-5.74698 -2.16211,-8.39453 -0.0274,-0.0994 -0.0546,-0.19874 -0.0801,-0.29883 -0.0698,-0.23883 -0.13265,-0.47942 -0.19336,-0.7207 -0.061,-0.26834 -0.12885,-0.53521 -0.19336,-0.80274 -0.0544,-0.25498 -0.1179,-0.50719 -0.18945,-0.75781 -0.0704,-0.26788 -0.16153,-0.53073 -0.25,-0.79297 -0.0963,-0.2695 -0.20023,-0.53482 -0.30078,-0.80273 -0.11679,-0.30912 -0.23493,-0.61763 -0.34375,-0.92969 -0.1009,-0.29225 -0.21044,-0.58172 -0.32422,-0.86914 -0.12314,-0.31676 -0.24437,-0.63309 -0.36914,-0.94922 -0.12138,-0.28904 -0.24407,-0.57861 -0.37109,-0.86523 -0.11708,-0.25489 -0.23099,-0.51327 -0.36524,-0.75977 -0.0731,-0.14578 -0.15884,-0.2841 -0.24219,-0.42383 -2.33136,-2.13578 -4.21699,-2.58678 -6.63085,-2.83593 -0.23505,-0.0243 -0.47102,-0.0405 -0.70899,-0.0449 z m -799.95508,1.23633 C 108.97949,399.33398 101.5625,405.65625 101,414 c -0.8,12.5 6.9,16.2 14,19 12.3,1.1 17.8,-6.5 20,-15 0.8,-11.4 -5.8,-16.2 -16,-19 -0.5625,-0.0312 -1.12363,-0.0348 -1.67969,-0.0117 z m 799.38086,4.41602 c 0.23242,-0.0104 0.45476,-0.006 0.66602,0.0117 8.16838,0.68051 0.93281,21.76525 9.63281,21.584 3.5,10.8 17.4,1.7 23,3 7.8,8.6 -8,12.5 -6,21 -2.6,13.6 9.5,13.6 13,19 4.4,11.8 -17.4,4.1 -19,11 -7.6,4.8 -2.2,16.3 -4,23 -6.4,9.6 -10.5,-6.1 -19,-5 -12.2,-1.7 -14.1,8.4 -19,13 -14,3.7 -3.6,-17.6 -14,-19 -2.7,-9.2 -18.4,1.8 -23,-5 -1.8,-7.9 12.3,-11.7 7,-22 1.5,-10.8 -11.4,-9.8 -14,-18 1.1,-9.3 20.9,-1.4 21,-11 10.5,-3.8 -2.3,-16.5 3,-23 10.7,-3.7 12.3,12.5 21,8 11.3,0.9 12.70273,-10.99375 17.30273,-16.09375 0.90704,-0.30938 1.70118,-0.47065 2.39844,-0.50195 z M 116,405 c 15.8,-0.3 16.3,20.7 3,22 -13.9,1.5 -15.9,-20.7 -3,-22 z m 945.4805,1.51367 c 0.8793,0.0466 2.271,0.60343 2.5195,2.48633 1.2701,9.6248 -6.5,21.5 1,28 8.7,1.7 14.9,10.8 23,8 6.9,-3.7 12.8,-9.2 19,-14 7.9,2.2 -6.3,12.2 -8,16 -8.9,7.2 -0.4,17.5 2,23 1.3,11.3 17,8.1 26,8 19.1,1.6 -6.3,7.3 -11,8 -11.7,-0.9 -10.6,12.7 -12,21 -2.1,10.9 8.8,14.3 14,18 13.6,7 6.6,12.9 -4,5 -6,-2.9 -19.9,-7.3 -24,2 -4.3,4.6 -14.8,12.8 -8,20 1.5,6.3 12.3,25.7 1,17 -3.7,-6.3 -7.3,-15.1 -13,-20 -7,1.3 -21.6,1.3 -27,5 -3.2,7.9 -4.2,19.4 -8,25 -5.6,-5.2 0.4,-22.7 -5,-30 -6.9,-2 -14.6,-8.9 -22,-9 -7.7,3.3 -12.1,10.3 -20,14 -7.9,0.8 6.9,-11.6 8,-15 8.7,-6.7 2.2,-16.5 -3,-23 1.6,-10.4 -13.7,-10.6 -23,-9 -18.8,-0.9 4.5,-6.5 10,-8 10.8,0.4 9.2,-13.7 11,-22 1.7,-12.1 -9.8,-12 -16,-19 -14.2,-7.3 3.1,-6.2 9,-2 7.9,6.4 21.1,3.8 22,-5 10.6,-1.8 10.6,-14.7 5,-22 -5.1,-7.1 -3.2,-22.9 3,-8 6.3,6.2 7,17.9 18,16 6.6,-4.5 23.4,-0.2 22,-11 2.7625,-3.49375 3.6767,-19.06908 7.1406,-19.47656 0.1,-0.0118 0.2142,-0.0154 0.3399,-0.01 z M 911,427 c -10.4,0.1 -18.6,2.2 -25,6 -4.3,5.5 -10,11.3 -12,18 -0.2,12.3 2.1,20.3 6,25 4.3,7.3 11.9,11.1 18,12 12.2,1.8 20.5,-0.2 26,-5 6.5,-3.4 10.2,-11 11,-19 1.6,-10.4 -0.3,-18.7 -6,-25 -3.4,-4.7 -10.3,-9.3 -18,-12 z m -5.98438,6.83594 C 916.85541,433.58158 924.45625,442.64687 928,451 c 3.4,16.6 -4,27 -16,30 -18.2,3.7 -25.9,-4.6 -31,-17 -2.2,-14.8 6.6,-24.6 17,-29 2.48438,-0.75 4.82308,-1.11696 7.01562,-1.16406 z m 253.75978,21.91992 c -2.8273,-0.0391 -5.4692,0.94101 -6.7754,3.24414 -0.5,7.7 2.3,19.7 2,26 -1.1,9.1 -12,9.5 -21,9 -12.4,-3.1 -15.8,8 -13,15 7.5,3.3 18.3,3.9 25,5 19.6,8.5 -9.2,35.5 9,40 9.6,-0.9 10.8,-10 14,-17 3,-4.8 15,-10.7 19,-6 7.3,3.1 13.2,9.8 20,9 9.7,-1.3 5.7,-14.9 0,-18 -4.5,-4.7 -12.4,-7 -11,-20 5.5,-4.8 11.4,-10.2 16,-15 10.3,-22.8 -19.2,-9.7 -29,-5 -10.4,1 -10,-9.7 -14,-17 1.2469,-5.38125 -4.8271,-9.16948 -10.2246,-9.24414 z m -109.6289,7.23828 C 1030.2997,463.24891 1021.0687,473.37188 1017,488 c -0.1,20.9 9.7,31.1 25,34 21.9,2.2 31.4,-8.4 35,-25 2.4,-22.1 -10.4,-29.3 -26,-34 -0.6281,-0.0125 -1.2456,-0.0119 -1.8535,-0.006 z m 112.7441,3.36328 C 1165.8064,466.60161 1167.0687,492.3 1178,487 c 8.3,10.3 35.5,-16.6 23,1 -11.3,0.7 -15,29.4 -5,34 20.1,17.5 -4.7,5.8 -12,0 -17.6,0.2 -22.3,13.4 -27,24 -3.5,-7.6 8.7,-26.9 -5,-36 -8.6,-1.4 -42.8,-8.9 -10,-10 14.9,-0.7 24.2,-14.5 17,-30 1.1516,-2.64688 2.0779,-3.69326 2.8906,-3.64258 z M 1046,469 c 14.8,1.4 23.3,8.9 25,23 -0.3,15.5 -9.7,22.9 -23,24 -14.3,0.1 -22,-8.2 -25,-23 2.5,-13.2 10.4,-22.2 23,-24 z m 125.9902,21.86719 c -9.706,-0.30615 -14.2714,4.72656 -16.9902,12.13281 -0.4,11.3 6.6,15.7 12,18 10.7,0 17,-4 19,-12 1.5,-10.4 -4.3,-16 -12,-18 -0.6937,-0.0688 -1.3627,-0.1124 -2.0098,-0.13281 z m -1.6738,6.0332 c 13.1429,-0.41314 12.3398,17.71211 1.6836,18.09961 -12.1,2.7 -13.4,-17.5 -3,-18 0.4531,-0.0531 0.8924,-0.0863 1.3164,-0.0996 z"
       transform="translate(0,90)"
       id="path4"
       inkscape:connector-curvature="0" />
    <path
       style="opacity:1;fill:#cca958;fill-opacity:1;fill-rule:nonzero;stroke:#cca958;stroke-width:0.5;stroke-linejoin:round;stroke-miterlimit:4;stroke-dasharray:none;stroke-opacity:1"
       d="m 1142.7568,341.00495 c -0.5514,-2.66838 -0.6151,-3.96717 -0.35,-7.13406 0.374,-4.46703 0.044,-8.52076 -1.405,-17.24923 -0.6174,-3.71952 -1.3375,-8.65659 -1.6001,-10.97127 -0.2797,-2.46407 -0.8787,-5.88971 -1.4453,-8.26449 -0.5322,-2.2308 -1.43,-6.10979 -1.995,-8.61997 -1.3279,-5.8989 -2.5055,-10.19907 -3.856,-14.08129 -0.7035,-2.02213 -1.086,-3.54287 -1.0879,-4.32509 -0.01,-2.84999 -1.3124,-5.76838 -4.7883,-10.70439 -2.6392,-3.74779 -3.6989,-5.7162 -4.1105,-7.63546 -0.3912,-1.82415 -0.1937,-3.70599 0.4897,-4.66573 1.1496,-1.61449 1.5044,-3.21963 1.5044,-6.80734 0,-1.83259 -0.1234,-4.71656 -0.2741,-6.40883 -0.433,-4.86211 0.1817,-7.31856 2.2813,-9.1157 1.5517,-1.32825 3.3675,-1.93616 6.1794,-2.06882 1.8135,-0.0856 2.7113,-0.0114 3.7259,0.30772 3.8571,1.21321 6.2202,4.98352 6.1886,9.87376 -0.023,3.49948 -1.1522,6.79871 -3.398,9.9247 -1.6167,2.25031 -1.98,4.07857 -1.1664,5.86967 1.2823,2.82268 4.9565,4.84069 8.9131,4.89538 1.7779,0.0246 2.2505,-0.0587 3.106,-0.54725 2.6621,-1.52029 2.6167,-4.50517 -0.1394,-9.16428 -4.0303,-6.81315 -3.9696,-15.94277 0.1312,-19.72274 1.9499,-1.79736 2.9409,-2.11118 6.6469,-2.10492 4.422,0.007 6.1834,0.50705 11.959,3.39199 4.2487,2.12225 4.6588,2.27635 6.0442,2.27119 1.9147,-0.007 3.4222,-0.81126 6.0404,-3.22219 2.3927,-2.20325 3.6213,-2.69002 6.7941,-2.69184 1.9767,-0.001 2.3962,0.0828 3.8238,0.76511 4.0884,1.95393 6.4743,6.70898 5.7416,11.44287 -0.3572,2.3073 -1.2777,4.13568 -3.0242,6.00672 -1.5918,1.70542 -4.4265,5.90454 -5.0666,7.50543 -0.3308,0.82734 -0.3572,1.12726 -0.1242,1.40806 0.3811,0.45913 1.1969,0.29628 3.9298,-0.78442 4.1806,-1.65317 5.5164,-1.33885 5.5902,1.31538 0.022,0.79769 0.2362,2.32411 0.4755,3.39205 0.9272,4.13722 0.1726,6.37009 -3.8466,11.38263 -1.4154,1.76526 -2.9214,3.77503 -3.3467,4.46616 -1.0898,1.77124 -1.9965,4.43358 -2.2801,6.69502 -0.1333,1.06295 -0.3605,2.2435 -0.505,2.62346 -0.5985,1.57418 -2.0789,8.01392 -3.9765,17.29728 -2.6118,12.77736 -2.6471,12.9796 -2.9519,16.89904 -0.3859,4.96358 -1.1227,11.08233 -2.3467,19.48941 -0.6025,4.13842 -1.0959,7.99621 -1.0963,8.57288 0,0 0.6006,4.69182 0.1737,6.97958 -0.163,0.87364 -0.285,1.07196 -0.9359,1.67704 -0.6598,0.61334 -1.774,1.83967 -2.6518,1.6374 -1.0342,-0.23829 -2.0578,-0.84298 -2.5389,-1.78898 -0.6457,-1.26975 -0.2449,-3.24492 -0.3512,-4.66545 -0.099,-1.31732 -0.022,-3.96295 -0.022,-3.96295 0.084,-0.6445 0.379,-3.33663 0.6556,-5.9825 1.2467,-11.92871 4.5326,-37.12572 5.067,-38.85547 0.2097,-0.67843 1.3859,-5.28558 2.614,-10.23811 2.3267,-9.38331 3.5574,-13.72779 4.8918,-17.2691 1.6168,-4.29073 1.7374,-4.71913 1.7543,-6.23147 0.01,-0.87585 -0.1472,-1.92574 -0.364,-2.43523 -0.434,-1.01971 -1.6198,-2.11361 -2.5423,-2.34514 -1.2772,-0.32055 -4.2205,0.14331 -7.8834,1.24238 -4.391,1.31756 -5.4879,1.57681 -8.0097,1.89301 -3.7323,0.468 -7.1631,-0.58416 -9.6865,-2.97076 l -1.3215,-1.24981 -0.9032,1.1022 c -1.2456,1.52012 -3.4514,2.58153 -5.7686,2.77579 -2.3102,0.19368 -4.5814,-0.19066 -9.886,-1.67293 -4.5853,-1.28131 -5.9298,-1.44983 -6.5577,-0.82193 -0.8302,0.83022 -0.4668,2.59761 1.29,6.27327 1.8881,3.95053 6.1724,19.27805 8.0371,28.75369 0.4792,2.43521 1.272,7.03651 1.7618,10.22513 0.4898,3.18861 1.2763,7.79576 1.7477,10.2381 2.257,11.6915 2.6202,14.97542 2.5305,22.88156 l -0.066,5.85916 -2.1055,1.22111 c -2.6561,1.54038 -4.2018,-1.23551 -4.3135,-1.77619 z m 31.9136,-87.63233 c 0.8276,-0.42794 1.816,-1.62683 2.2452,-2.72315 0.4391,-1.1217 0.3793,-4.232 -0.1139,-5.91974 -0.6604,-2.25996 -2.0531,-4.71416 -3.2964,-5.80852 -1.2474,-1.09796 -1.4556,-1.15605 -1.9506,-0.54404 -1.3045,1.61318 -3.8372,5.74537 -4.5172,7.37012 -1.1143,2.66213 -1.2845,5.02381 -0.451,6.26013 0.3202,0.4749 1.0118,1.07395 1.5369,1.33123 1.817,0.89015 4.8608,0.90594 6.547,0.034 z m -14.094,-10.63518 c 0.3052,-0.2138 1.1039,-1.17038 1.7748,-2.12574 3.2329,-4.60349 3.443,-9.6523 0.4657,-11.1919 -1.2327,-0.63747 -3.1908,-0.88029 -5.0153,-0.62191 -3.1574,0.44714 -4.5621,2.04981 -4.5727,5.21723 -0.018,5.3161 4.5199,10.70284 7.3475,8.72232 z m 25.2631,-1.46627 c 1.2222,-0.80878 2.8137,-2.84164 3.7027,-4.72938 2.0356,-4.32256 0.3828,-7.33574 -4.2038,-7.66391 -1.6352,-0.117 -1.7129,-0.096 -2.6319,0.7109 -1.4663,1.28742 -2.1601,3.08217 -2.2914,5.92751 -0.1598,3.4621 0.5351,5.2009 2.5359,6.34601 0.661,0.37826 1.7651,0.1523 2.8885,-0.59113 z m -51.8668,-3.72681 c 1.2963,-1.09075 1.8009,-2.37921 1.6913,-4.31864 -0.068,-1.1989 -0.2402,-1.87491 -0.6033,-2.36506 -0.7388,-0.9971 -2.0744,-1.83049 -2.7983,-1.74605 -1.4539,0.16959 -2.7542,4.88785 -1.9873,7.21146 0.3236,0.98076 1.4556,1.86354 2.3916,1.86515 0.2949,5.2e-4 0.8826,-0.29058 1.306,-0.64686 z"
       id="path846"
       inkscape:connector-curvature="0"
       transform="translate(0,90)"
       sodipodi:nodetypes="cccccccccccsccccccccccccscccccccccccccccscccsssssccccccccccccccccccscccscccccccccccccccscccccccccccccccc" />
  </g>
</svg>
