<svg xmlns="http://www.w3.org/2000/svg" id="svg25" width="326" height="386" fill-rule="evenodd" clip-rule="evenodd" image-rendering="optimizeQuality" shape-rendering="geometricPrecision" text-rendering="geometricPrecision" version="1" viewBox="0 0 3396 4021">
  <style id="style2">
    .fil0{fill:#222}.fil1{fill:none}
  </style>
  <path id="path3" fill="#222" d="M3114 3589c-1 9 1 4-4 6zm-46 72c-20 0-1 5-23 5l7-5c10-9-2-2 20-18l15-10c31-28 20-25 36-40 6-6 1 1 6-7 6-10 7-16 15-24 2 13-2 26-10 35l-19 19-4 4-36 32c-10 5-7-4-9 8zm38-79c0-12 3-16 9-24 0 11-2 17-9 24zm-182-112c4-10 13-39 23-42 9 9 1 24-7 32l-5 5c-5 4-5 3-11 4zm-284-35c-2-5-4-2-2-9 3-7 4-2 4-2 1 5 1 4-3 11zm263-15l1-7c4 4 7 1-1 7zm-299-40c3 12 1 14-2 22l-2-1-9-6 5-10zm-888 78c0-9-17-23-24-29l-6-4c-4-3-7-15-33-29l-11-11c10-20 32-12 46-2 7 5 6 8 12 13l26 21c13 9 0 3 24 23l5 5 42 36c23 17 11 35-2 37l-10-2c-8-4 5 1-7-3-3 11 0 8-5 23-29 1-41 9-69 0-8-2-10 0-14-2l-46-33c-20-31-21-19-28-33-4-9-18-51-17-57 4-9 12-14 20-20 13 1 15 3 24 3 5 15 42 42 57 51l4 3c8 7-2 3 13 7zm873-84c4 17 1 6-1 9-2-6-3-1 1-9zm297-8c-3 16 3-2 7 17-6 3 0 0-6 1-9 2-2 6-9 1l-10-15c-4-7-2-1-4-12 6 2 3 1 7 4 13 10-9-4 3 3 7 4 4 3 12 1zm-241 29c-5-8 3-35 3-51 12 6 5 46-3 51zm205-45c0-11 0-35 7-44 7 3 4 0 7 6 2 4 10 24 6 29l-14 20-2-3v-1l-5-6zm-232-18l-2-12c0-4 5 0 0-10 4 2 5 1 5 9l-3 12zm3-26c-9-2-4 0-7-5 8 2 5-2 7 5zm-20-7l2-22c5 8 5 12 4 24-2 16 3 49-1 64-7-7-2 12-5-21-3-31 1-24 1-45zm235 0l-1-9c2 5 2 12 0 16-1 0-8 0-3-6l4-2zm-234-33c-2-6 2 1 2 1 1 2 0 6-2-1zm273-15c7 10 17 28 22 32l7 6c2 2 23 50 24 60l-7 4-6 3-13-3c-5-7-8-6-13-12l-14-28c-4-10-5-7-11-14-9-10-10-55-6-68 4 7 9 8 17 20zm-221 17l-4-7c4 3 2-3 4 7zm-50-8c-5-2-4 0 0-10zm15-46c5 5 4-8 5 11l-1 10c-5 33 5 28-7 36v-34l3-24zm-14 33c-4-6 0-43 1-53 6 24-3 29-1 41 1 8 6 3 0 12zm-306-62v-6l9 1 5 2 9 3c-12 3-8 0-16 6-3-4-1-3-7-5zm70 0c-2-7 9-12 17-8-1 6 2 5-6 9l-9 3-3-4zm-70 0l-5 1-2-4-1-1-1-1 4-2c4 12 3 5 6 6zm-10-5c-4 6-1 5-9 7l-11 1h-21l-2-8 5-3c14-6 25-2 38 2zm-96 4c-3-3 0-2-4-3-5 6-18 8-27-4l9-8c25 3 19 11 70 10l-2 2c-3 4-4 3-2 9-13-6 0-1-14-1-7 0-8-2-16 0l-15-5zm-258 0c32 0 37-16 52-21l8-2 7-3c4-2 27-20 38-2l7 18c-5 6-38 20-46 23l-16 7-49 13c-10 2-8 3-20 2 2-9 4-15 2-24 6-3 7-5 11-6 4-2 2 3 5-5zm682 30c-1-8-1-45 4-53l1 14 1 26c-1 13-1 9-6 13zm-11-30c-5-17 0-27-2-50 7 8 5 37 2 50zm10-35c7-5 3-4 6-10 4 6 1 13-3 18zm-417-9c0-7 3-4 3 0 1 3-3 5-3 0zm-2-1l-2 1-6 4c4-4-10-2 7-6zm37 0c-12-12-22 4-29-10l30 4zm608-19l-2 6zm-570-9l4 4zm334 17c0-16-4-17 2-31l6 7-7 5c1 7 0 4 5 8l-3 3-1 3c-1 4 1 3-2 6zm10-17c7-8 7-18 3-26l4-2c2 8 4 28-1 39zm-5-52c8 8-2 0 5 11l3 3c-7 2-6-7-6 12 0 6 2 3-2 7zm-482-6c-2-6 2-3 4 0 3 5-3 1-4 0zm95-10c-5-2-7 1-1-6zm141-8c-5 5-2 4-6 1zm-103 8c-7 0-6-5-7-8 5-10 22-1 33-5l-1 11-24 1zm-38 0c10 5-1-1 8 9 14-7 30 13 43 18l16 4c-8 7 0 6-11 6 10 8 9 1 20 8l-10 2-16-2-7-2 5-5c4-4 1 2 2-3l-7 2c1 8 5 5-4 14 12 10 22 2 45 6-7 7-3-1 0 8-8-2-9-2-16 1l-8-8c-5 2-3 0-7 4l-3 4-5-2c-6 11 7 14-5 13-2-3-3 2-2-9l-1 1-7 6c1-10 4-4-1-9l-12 4-5 1c-16 4-11-2-18-2h-6c-38-4-14-1-36 2 0 14 4 4-1 14l-2 4c11 1 10 1 15 5l-3 1-7 2c-11-10-2 1-8-15-3 6-10 10-18 10 4-12-1-12-9-19l3-3 1-1v-4l2-3 3-5c7-10 11-15 7-29-2-6-1-4-6-9 6-12-4-5 5-21-18-10-11 6-23-5-18 3-10 0-24-1 5-5 0-4 4-12 11 2 8 7 22 6v-11c35 1 17 2 27 6 6 2 2 1 7-1l-3 12c13 4 13 14 34 9l10-5 1-1c3 2 5 4 11 6l1-6zm70-6c11-4 44-7 55-6l4 7c-15 7-23 11-47 3l-11 3h-7l4-6zm70-2c10-6 16-3 29-6l33-7 5-3c9-3 2 0 12-1 26-1 30-7 47-13l13-4c11-4 3-1 10-7 8-7 8-2 17-11 7-7 12-14 15-24 26 11 20 36 11 45l-3 2c-11 9-10 4-16 10l-1 1v1l-91 19c-20 0-17-5-39 3-16 5-23 2-38 4 3-6 2 4 1-9h-7zm250-46c-7-3-5-2-3-13 1 9-1 7 3 13zm-17-20c-3-6 2-12 2-12zm19 2c10-9 4-7 7-21 3-12 6-12 8 2 3 31-2 43-3 62 0 3 4 52-9 52 2-11-2-11 4-17l-1-2c-9-24-2-16 0-34l1-7 1-2 1-2-1-1-3-2-1-1-1-1c10-3 5-21-1-26zm-5-10l-1 5c-3-4-2-2 1-5zm19-25c-6-2-7-3-2-11zm4-40c-7 0-2 2-5-5 7 3 4-3 5 5zm-1-49c4 2 2 11 2 15-4-6-6-7-2-15zm0 0c-4-2-3 2-5-11l-1-13c0-6 2-14 1-26 10-12 8-27 4-40-2-8 1-1 1-7 0-3-3-6-1-29 1-15 1-39-1-56-2-12 0-5 2-16 2-8 0-9 0-19 0-5 3-12 2-18s-4 0-1-17l7-90c0-21 8-24-1-34l9-2c0 12 1 18-2 29-3 15 0 15 2 28l-5 112c-2 25 0 51 0 75-1 38 2 68 0 75l-1 1-2 24c-2 17-2 20-10 33zm-260-522v-7c1-6 0-2 3-5zm270 6c13-12 2-27 11-32 3 18 5 36 2 55-4 23-5 27-3 51 1 2-1 2-2 9l1 17c0 4-3 9-2 14 2 17 8 11-4 24-6-7-3-4-1-13v-21c-2-20 2-17 2-34l1-16c1-18-3-38 1-52l-4-2zm8-38c0-2 2-4 3 0 0 2-3 6-3 0zm3-54c-2-6 2 0 3 1zm-20-22l7 8-8 7zm24-5v8c-9-15-2-15-2-15l2 8zm-7-10c2-7-3-2 6-6-3 5-2 4-6 6zm-361 53c1-7-2-5-1-14 2-22-10-50 3-77 13 4 11 9 10 23l-5 60c-2 14 3-4 2 15v16c0 17-3 26-3 30 0 5 2 7 2 16 1 15-3 13-3 31 0 20 3 69-7 77l5 4-1 15c0 10-1 6-2 12-2 10 2 0 0 11l-2 5-2 2c6 11 1 48 5 77l-7 69c-2 14-3 14-2 32 2 27-3 44-6 69v18c-2 12-7 1 1 10 2 10 0 16-1 26l-1 74c1 20 7 19 9 38l2 29 16 75c-1 12 0 7-4 14l-2 5c-6-1-15 2-20 1-3 0-12-6-18-7-16-3-30-5-22-24 5-12 15-70 16-80l1-18c3-22-1-27 3-55 2-15 0-29 4-42l8-46 1-19c1-16 0-27 2-38v-18l-1-19 4-40c2-23 0-46 3-67 1-10 4-11 4-19 1-8-4-5-2-15 4-18 4-17 2-35-2-23 6-46 5-72 0-16 3-17 3-28l1-23c-1-6-4-13-3-19 9-58-3-39 4-80zm-59-153c2-9-1-10 6-16 10-8 49-1 58 1 7 1 52 2 66 1 6 2 11 18 13 22 6 12 9 6 16 16 3 9-9 11-16 21l-26-1-48-5c-9 0-4 1-8 1l-72-14c-21 0-26 7-38-2 1-15 3-6 12-17 13-15 7-18 38-8zm-101 32c-10-15 2-15 7-16 0 12 0 10-7 16zm524-3c-1-4-3-6 4-27 5 13 5 32 1 45l-2 5-3-24zm8-53c0 4 8 2-7 2zm-635 37c0-18-5-21-2-38 3-15 3-20 16-27 57-32 84 27 41 69-8 8-15 13-30 12-10-1-8-1-15-7zm75-81l-9-11v-2l3-7c13 14 45 6 39 33-7 29-2 37-4 46-3 19-13 13-13 13-10-19 10-40 13-48-7-9-4-7-12-9-18-4-11 0-15-16h-1zm-89-18l4 8c0 14-2 6-5 9zm679-14l1-4c6-19 26-23 14-47-8-3-2-2-10 0-5-12-6-2-10-14 6-8 13-13 24-14 12 0 19 4 32 3l15 1c5 1 8 3 14 3 7-1 36-7 46 10 12-3 13-1 27-1l-3 4c-4 5-2 6-9 9-5 3-8 2-14 1h-28l-1 8 13 2c5-4 7 0 20-1-4 6-2 2-2 11 1 11-3 28 3 36 9-19-3-28 11-46 10-2 24 1 32-2 10-3 7-7 22 0 6 18-3 23-11 34-7 9-5 27-7 38-6 35 5 50-2 70l1 1 1 1h1l1 1-5 27c-3 17-2 35-1 53l2 37c2 13-4 27-4 39l1 58-2 13 1 10c0 21-4 38-3 58 3 51-3 86-6 127-1 7 3 16 2 20l-3 11-4 150c-1 7-2 4-2 15l-3 93c-2 22 0 45 0 70 0 12-4 36 0 43-8 12-3 41-4 59l2 4c-7 4-5 2-5 14 0 41 2 20-2 73l-2 98c0 26-8 63-7 80 1 15-3 19 1 38 4 17 1 26 0 41 4 1 5-2 8 2 6 8 0 30-1 39-10-7-3-7-8-16l-2 37 23 18c3 12 1 12-9 13-8 1-1 0-7 2s-10-1-16-2c-11 9-13 8-15 9-8-10-3 0-7-15l-1-1-1-1-3 1 2-9c-7-4-13-9-17-15-9 3 0 1-6 3l-6 2c-14 4-34 10-45 19 3 4 4 6 10 7 13 3 15-2 29 6-3 10-1 8-8 12l4 5c6 9-3-9 1 3-4 4 1 0-6 4l-15 7c-32 11-18 2-39-5-9-3-8-5-11-14-4-11-16-17-16-33 0-45 8-86 2-129-5-36 6-103 2-138l6-209c2-17 4-38 4-57 0-22-2-44-1-61l6-140c3-26 0-57 2-83 2-27 0-99 9-116l-5-8c6-8 0-12 0-25l4-76-2-25 2-58 3-33v-53c0-8 4-16 4-30 0-32-3-32-1-45l2-54 4-22v-40l-14-7zm186-59c-2-11 9-10 13-8-1 7 2 4-5 7zm-221-7c0-11-2-8 5-8-10 5 6 3-5 8zm-606 40c1-13 5-23 9-33 13-26 9-18 25-35 35-39 29-20 52-48 17-21 30-16 41-19 9-2 40-18 66-2 11 7 18 18 24 26 7 9 8 19 9 32 1 18 7 46-6 60-23 27-1 22 11 29 24 13 15-5 47 6 3 1-4-6 0 1 4 9 5 6 14 8 14 3 3 6 23 6l7 5c10 0 10-2 20 1l5 12c-5 8-11 15-23 17-17 2-10-4-21-9l-4-1c-40-5-47 5-57-12-21 2-16-7-32 0l-4 2c-9-8-33-8-34-8-19 3-5 1-21 1-16-1-22 16-37-6-14-20-16-34-2-49 11-12 18-10 29-11 7-1 11-4 19-6 9-3 9-2 14-9-5-5-3-6-19-4-14 2-49 12-57 19-6 4-9 8-12 12l-2 3-3 4-4 9c-7 38-6 12-20 25-6-14-4-6-12-10l-13-8c-14-7-18-12-34-8zm664-75c6 6 2-1 6 6l-19-4 7-7c7 4 0 0 7 6zm114-64l4-22c16 5 7 15 18 23s19 5 17 18c10-5 16 6 21 11 6 6 1 2 6 4l19 9c1 7-1 12-6 18-13 4-13 1-25 1-8 0-12 4-18 5-14 2-30-2-42 5l-9-5c-4 4 2 1-5 3-17 5-29-5-32-6 11-5 12-6 13-22-8-5-4-1-8-8 4-14 9-39 24-36 6 1 10 6 13 9l10-8zm-157-15c-1 8-1 14-7 18l-15 6c0-10 14-19 22-24zm-20 47c16-3 30-21 38-33 7-9 5-3 18-18l9 11c1 3 3 27-13 43l-8 10c-9 13 3 17-27 18l-45-14-4-13zm20-47c2-5 0-3 4-4zm98-3c-13-5-2-2-8-10-3-4-4 1-8-14 10-3 14-3 26 1 29 10-6 38-6 38-15 21-7 4-16 15l-4-8 12-9 4-14zm26-50c0-6 2-2 2 0 1 2-2 2-2 0zm-44-86c13 2 21-1 28 0 10 16 1 20 2 45 0 8 6 22-1 31-9 12-2 2-12 6l-1 1-7 3-1-1-8-6-1-12-3-7c-5-15 0-46 6-60zm35-14l-3-7-5-5c16 0 20-7 27 3l-19 8zm22-14c3-4 4-2 9-6l2-2-1 11c-8-5 3-7-10-3zm-12-44l1-25c0-8 0-9 8-18 2-3 19-14 31-28h10c7 7 13 11 15 22 5 31 1 16 2 29 2 29-1 35-9 56-27-7-58 5-58-35zm129-76c3-6 4-15 7-22 9-19 7 0 17-13l4 26v2c10-2 7-3 22-19 0 10-23 59-51 27zm53-41c-2-4 3 1 3 1zm-47 6c-8-6-5-2-6-9-2-8-1-11-2-19l13 1-5 28zm17-26c8-10 3-9 16-20 6-6 15-7 21 1 4 4 5 16 0 20l-7 6c-6-3-7-5-15-5-10 0-4-1-14-2zm-29-34c10-4 0 2 10-3l2 10c-6 6-10 11-19 12-1-8 0-4 3-10zm63-29c9 0 8-1 4 7zm-243 127l2-1c42-20 19-16 45-30 16-9 30-26 41-37l25-25c10-11 33-48 45-55l10 4c4 1 14 4 15 10-2 16-28 54-42 69l-25 30c-18 19-53 47-74 63-6 5-13 6-19 9-10 6-44 24-52 24-9 0-2-5-19 0-2-12 0-6-6-17l54-46zm-196-131c0-2 1-3 2 1 0 1-2 7-2-1zm-9 0c-8 4-6 3-12 1 4-3 9-4 12-1zm53-7c1-5-3-2 3-5 3-2-1-1 5 0l-9 5zm337-23c-3 3 0 2 0 1 4-5 3-5 0-1zm-504 7l-5-6c6 2 3-5 5 6zm-10-24c-5-8-4-14-2-21l2 11c4 12 1 8 0 10zm177-5c3-8 2-5 16-13 10-6 6-2 8 1l-13 10c-6 3-4 4-11 2zm392-28c-2-5 2 0 2 0 2 3-2 1-2 0zm-552-10c-12-1-6 4-9-7l1 1 3 3 4 3zm-37 5c2-10 6-10 14-14l6 5 4 2-5 13c-10-8-6 6-19-6zm411-65c-1-6 2-2 3 0 1 4-2 2-3 0zm-16-7c-3-12 2-7 5-8zm-216-24c-7-19 1-19 11-33 7-10 12-23 27-25l9 8c-4 6-2 0-3 9l-1 11c1 21 22 20 14 51-26 2-13-5-31-5-6-8-11-8-27-16zm-193-192c13-12 7-14 22-18-3 16-6 13-16 24zm-9-14c4-7-1-5 8-7-4 7-2 5-8 7zm-62-7c-3-5-5 7-2-7l11-12c-5 9-6 6-9 18zm-22 1c-1-8-3-2 8-16l12-11c-2 9-13 23-19 27zm83-21c5-9 5-9 14-14 0 14-9 15-9 15l-2 1c-1 8-16 21-27 35-4 5-6 7-14 8 4-12 7-22 13-29l19-13 2-1zm-36-15c-2 8-1 4-6 9l-6 5c5-8 2-10 12-14zm-18 50c0-20 22-37 36-55 10-11 7-4 16-9-1 13-16 21-23 34-5 11-18 26-29 30zm-7-68c2-7 1-6 8-10zm25 18c5-16 13-14 21-24 6-7-4-5 8-5-5 8-5 9-11 14-9 8-6 12-18 15zm-24 5c3-9 3-5 9-11 7-8 17-25 27-25-6 2 1 1-4 7l-5 5c-3 4 0 2-4 6-4 5-15 15-22 17zm7-33c-2-8-4-3 4-5zm28-24c-4 3-1 1 1 0zm263-6l-5-4-1-4zm-12-25c-3-2-1 3-6-5 8 4 3-2 6 5zm-286 65c-7 12-15 20-20 28l-1-2-4-9c-17 10-43 66-51 85-12 31-19 73-6 105 4 10 7 23 13 32 21 30 26 12 17 54l-4 12-1 1-1 2c-8 22-6 41-6 58 0 11-3 15 0 25 4 15 3 40 5 56 2 12 6 17 7 30l4 2c0 15 4 16 9 27 6 13 9 26 17 39 4 6 5 5 8 12 13 25 12 14 26 29l30 25c8 6 14 4 25 13 8 7 15 9 18 19 15 0 15 6 25 6 9 0 9-2 20-1 9 1 15 6 23 7 6 1 20 0 29 2 6 2 23 17 33 19 54 11 52 3 81 7 16 2 28 0 44-5l6-2c20-7 26 3 31 21 4 15 26 12 23 45-1 7-5 19 2 25l4-23v-5c0-5 0-1 2-9 7 9 9 21 10 32 1 15-2 25-10 36-1-10-4-10-8-17-4 5-9 20-7 27-25 2-20 31-33 46-24 28-8 16-44 36-47 25-23 30-13 48 3 6 2 22 2 30 1 30-8 116-5 138l2 17c-1 13-2 15-9 24-7-7-6-6-14-8-6 5-11 10-21 13-12 3-14-5-29 4l-3 15c-10 2-11 6-17 13-10 1-13 0-19 6-8-1 0-3-12 1l3 7 27 6c21 5 77-7 89 13 4 18-3 78-5 100-3 30-2 60-5 90-3 28 3 74-1 105l-7 43c-5 26-8 63-3 88 3 18 2 33 1 49-3 24-2 76-1 103l-3 67-3 48c-2 49-2 25-10 48 10 14 7 15 6 33l-5 3-4 4-8-6c-12-4-22 0-33-15-6-7-4-10-13-19l-26-25c-4-4-4-7-7-11l-8-9c-11-17-10-15-17-35-6-16 2-16-6-38l-3-8-4-8c-6-16-7-51-13-74l-3-20c-4-21 0-52 2-73 0-6 4-15 2-24-2-11-4-13-3-25 1-10 4-13 3-25l-1-138c-1-32-6-63-1-97 3-21-1-33-1-51 0-16 3-35 2-53-1-12-10-33 2-44 5-4 11-4 17-11 15-17 4-45 4-70l5-2 1-1 1-1c14-10 20 6 31 7 5 0 10-3 15-4l18-2 8 9c7-2 5-4 12-3 8 1 8 8 13-4-7-4-5-2-10-4s1 1-6-5c-16-1-44-6-58 0-6-2-3 0-9-5l-2 1-4 3c-2-20 1-13 5-33 4-17 5-25-1-41-8-23-27-45-48-28-6-2-2 3-6-5-5 7-4 5-11 0-11 10-28 1-37 6l-4 3c-14 0-20-4-29-9 2-10 4-11 11-16 12 3 7 4 24-2l21-6c-36-8-11-9-51-4-3 0 2 2-6 0-8-3-6-10-7-19-1 20-5 35-13 52l-13 2-10-10c5-12 4-50 1-64l-3-12v-10c-2-7-5-12-6-22-2-16 0-20-12-28-17-12-15-5-27-18-17 11-73 8-95 26l-53 47-7 6-7 8c-12 15-25 37-33 53-27 59-4 30-52 64 6-38 41-89 56-121l9-13 5-7c6-8 12-10 19-16l7-6c10-7 14-18 24-23 8-4 20-14 30-18 11-4 9 3 20-6 2 0-4 4 9 0l48-11c16 9 39 12 57 5-27-28-26-12-56-18-11-3-11-3-24-3-23 1-44 12-63 23l-6 4-5 2-5 3c-13 10-22 21-36 29l-18 15c-35 30-38 52-56 91l-5 11c-3 5-4 5-6 11l-5 10c-26 40-33 84-52 128-4 10-2 14-7 26-3 9-5 16-6 27l-23 102c-7 33-2 63-9 79-3 8-3 16-3 24-1 30-11 86-11 105l1 28c0 7-3 11-2 20l1 27c0 11-3 18-3 28l2 23c0 13-11 17-8 77 0 5-2 24 0 51l2 43c1 5 2 16 0 23-1 6-6 12-9 21 11 12 5 17 3 37-9 7-23 10-31 21l-19 1c-2-4 2-2-2 1-17 9-34 14-51 25l-40 31c-15 11-28 28-41 42l-31 33c-11 13-14 30-23 43l-13 20c-32 51-57 82-58 150l-3 57c-1 9 2 7 4 15 4-14 3 1 6-14 4-21-2-40 7-61 3-6 2-5 3-13l3-26c3-12 1-13 7-25 4-8 5-19 10-27 16-26 32-58 53-79l11-11c14-13 20-40 32-53l17-17c4-3-1 2 6-3 10-7 21-21 33-28 6-3 2 0 7-5 10-9 21-15 33-20l5-3c9-5 13-9 23-12 14-4 9-5 17-9s22-10 32-11c8 18 4 21 3 39-1 26 6 59 0 85-3 13 4 62 2 81-2 7 1 1-4 5l-4 93 2 19c3 23-13 16 0 41 7-8 6-25 5-37 0-16 5-26 4-40-2-29 8-46 5-72-2-16-7-17-6-38l3-37c1-15-4-27-2-39 3-13 4-27 4-41 0-29-5-26-2-65l-2-91c-1-18 9-81 8-122l1-16c1-7 3-6 3-16 0-12-4-28-2-42 2-13 6-19 6-38s4-24 3-38c-1-22-4-39 1-64 10-48 3-82 20-145 6-21 4-41 11-68l2-20 1-9 6-17 13-39 1-2 1-2 6-24c1-8 2-10 7-16 5 7 5 15 4 24l2 14c3 12-3 25-7 37-6 21-7 48-13 70-2 7-7 29-7 34-3 43-14 95-21 138-2 14-1 23-2 37l-3 18v18c2 14-3 26-4 38l2 37c2 23 2 55-1 74-7 39-4 36 2 72 7-8 7-16 7-28-1-12 3-18 4-28 1-16 0-62 4-79l10-86c1-16-4-13-3-25 2-17 1-43 7-59 4-11 2-14 2-23s1-5 3-11c4-14 5-26 6-40 1-37 17-76 17-110 0-14 8-39 16-48 7 6 20 9 27 16 8 8 0 9 13 10 10 1 11-2 14-7-7-6-8-6-12-12-14 1-14 1-23-9-8-9-15-23-16-34l-3-28v-13c2-10 11-9 19-11 0 22-3 37 8 53l2 3 1 1c11 13 3 1 17 12l6 4c6 3 12 15 20 15 11 1 1-5 19 1 4-3 6-4 12-5-1 11 2 11-7 17l-11 6-2 1-4 3 11 6c10 1 31-9 38-15 10-8 17-21 29-27l12-7c6 10 0 22-1 34-1 11 0 23-4 38-7 26-8 56-8 83l3 32c3 19 1 45 2 65l-8 161c0 31 1 59-3 90l-14 76c-3 17-6 21-20 27l9 7c-4 18-8 34-29 37l-6 1-75 1-3 5c-7-3-13 2-19 3-21 5-22 0-44 11l-14 3c-13 2-10 17-13 28 9-1 19-13 30-16l79-20c15-2 33-3 46-8 6 5 20 3 29 5-3 11-4 20-9 29l-14 26c-6 13-24 42-34 45-18 1-15 6-28 11l9 5c-2 7 2 6-3 14-10 18-26 16-8 43 9 13 2 3 9 8l25 20 14 7c-7 3-3 1-10-1l-30-5c-14-4-23-11-35-18-7-4-5-1-8-9l-8-17c-3-7-2-7-1-14 1 0 1-2 2-1l4-2c6-3-1 3 6-4 3-3 5-8 7-14-13 2-17 6-21 17-3 7-2 4-6 9-19 24-12 60-16 90-3 20 4 24 6 42 14 5 10 12 36 21l46 22 5 4-12 8c-9 9-4 6-17 9l-17 7c-16 5-21 13-39 15l-2 6-14 1h-11c-6-16 3-40-3-45-16-12-8 30-8 38l-1 20c0 11 3 13 2 21-1 15-5 30-4 47l-1 38v40c-2 26-11 51-18 78l-4 23c-2 13-11 45-19 56-10 15-15 35-28 48-12 12 1 6-24 21l-34 15c-13 4-36-1-64 6-8 2-18 2-26-3l-19-12-20-2c0-8 0-7-4-3-4-7-5-2-14-14-5-7-11-6-17-11l-25-30c-6-10-12-14-17-23-6-10-7-19-12-31-4-11-3-11 2-22 5-1 1 1 6-1s-1-1 9-4c3 3 4 2 6 6l24 41c8 11 11 27 22 36 9 7 9 5 16 14 5 7 1 2 7 6 29 22 11 21 34 18 8-1 18 4 25 5l9 1c5 1 27 8 41-1 23-13 28-2 47-27l14-13c5-6 6-16 10-23 14-24 27-52 19-77l-1 2-3 7c-6 23 1 21-16 54l-8 14c-10 7-21-5-26-18-4-10-8-10-15-18-8-9-17-15-27-23l-26-22c-6-6-2-5-7-10-10-9-27-19-34-32l-5 2 2-5c3-8 6-8 14-13l24-11c20-16 23-14 43-22l2-1 2-1c8-3 13-9 20-12l16-7 6-4 6-2c4-1 12-3 24-13l1-1 16-10c1 9 3 11 3 18l-2 21-5 67-2 18c-2 7-3 10-4 22 5-5 2 1 5-6s0-14 1-21c3-13 18-30 14-76-1-18 14-66-6-74l2 11c-7 3-13 10-21 13-11 3-15 2-25 8l-83 43c-14 4-16 6-29 13-5 3 3-2-3 1l-6 4-10 7c-9 4-23 7-30 13-11 9-7 6-19 13-17 10-31 23-49 34l-53 33c-23 15-53 29-72 50l-23 20c-6 6-9 14-14 18l-156 125-1 1-4 4c-11 4 8-3-3 0h-2l-7 5c-10 6-6-4-10 9-14 0-20 4-30 10-13 8-11 9-17 21l30-11c25-8-1 4 27-16 4-3 1 1 5-3s0-2 6-9c6-1 20-3 24-5l52-36c16-10 28-28 45-39l26-22 7-8c9-10 29-27 41-34l3-1c6-4 13-16 19-19l44-32 12-6 34 47 4 14c1 4 4 8 6 11l41 42c9 11 26 19 43 21l11 3c9 4 16 9 31 9l64-5c16-6 31-18 43 1 6 11 6 5 10 23 4 22 7 32-2 52-11 26-13 20-26 39-3 4-14 7-19 10l-10 5-11 6c-6 3 0 0-9 1-8 1-7 3-14 4-15 2-24 8-38 13l-32 13c-20 8-43 8-65 16-15 6-25 2-38 5l-68 22 18 6c10 1 1-1 9-2 10-1 4 3 11 2 14-2 32-11 47-13 13-1 43-12 54-19s40-5 58-12l69-24 9-6 31-19 1-1 12-11c60-54 5-107 19-136 3-7 7-8 12-13 8-8 27-31 31-42 3-7 3-17 4-21 8-31 31-64 31-96 0-5-2-8-1-12 1-7 3 0 3-13 1-13 4-47 0-55l3-3c5-6 2-5 4-13 2-10 0-14 0-24 1-34 7-26 38-43l12-5 5-3 26-11 2-1 4-1c10-3 3-2 14-1 3-9 40-21 49-22 18-2 47 5 65 10 17 5 59 5 86 11 12 3 30 7 41 6l12-1 10-2 48-3c14 3-11-4 4 2 11 4 26-5 37-7l36-1c13-1 20-6 33-9 13-4 15-9 24-19 16-19 0-31 33-38 43-9 37-12 58-21l9 7c-1 22-6 59-5 77 3 34-11 111-2 138l-9 9c9 23-7 18-14 34-8 17-8 47 9 58 17 12 26 27 51 27 7 0 13 5 21 7l22 8 15 5c7 3 0 2 6 3 9 1 18-5 24 5 2-5 0-2 4-5 12-5 97 5 124-17l6-4c14-10 26-7 33-20 5-9 10-12 15-20 5-7 9-17 9-29 22 10 4 32 3 49 13-3 6-2 14-9-2 7-5 7 0 14 11-10 5-13 13-27l3 4c2 3 1-2 2 5 1 5-4 14-7 23-2 6-3 6-3 12 11-1 8-2 12-11 16-34 3-43 11-57 0 0 13 7 15 16-2 12-5 30-10 39-12 17-9 12-11 32 15-2 20-4 36-27 16-22 1-19 15-33 4 50-13 32-15 57 7-5 7-3 12-11l8-14c13-25-2-23 10-35 4 15 7 26 0 40-5 10-13 26-20 25v11c7-9 13-5 20-23 5-12 11-18 15-30l9 2-2 5v5c-1 8-5 11-9 20-5 13-10 19-15 31 24-4 26-52 29-59 8 3 3 0 10 8-7 18-4 26-21 51-5 7-8 5-8 15 14-1 17-9 24-24 3-7 12-25 11-31l6 6 1 1 1 1c-3 6-3 6-2 14l3-2 2-5c3-7 0-4 5-7l3 13c-1 12-8 24-13 33-7 14-20 23-24 37l12-2c3-10 26-35 31-56 3-12-1-14 8-21l5 10c4 11 3 21-1 31l-2 6c-4 10-23 29-19 38l6-6c27-29 21-43 32-58 5 9-3 38-9 46-3 3-12 16-15 18-8 8-12 6-18 18 7-2 5 0 11-5l13-12c17-15 26-31 29-53l4 1c-1 25-15 43-30 61l-16 17c-4 4-7 5-8 12 15 0 34-20 43-32l21-34 1-3c2 24-10 36-23 52-11 13-28 22-40 33-7 6 0 2-8 5 2 9 0 4 5 9 7-2 1 1 7-3l18-12s10 1-5 12c-8 6-10 0-11 10 3 3 0 3 5 2 10-2 11-10 21-15l21-14 3-2 4-2c-6 8-11 17-19 24l-42 31-1 2c-9-1-7 0-12-5l8-9 13-9c-5-3-6-1-11 0l-14 4c-18 6-27 13-48 17-19 4-10 6-5 13 4-4-4 0 6-5 11-5 14-7 26-2-2 4-12 12-14 16l15 2 5 8 46-17 40-28 16-16c5-6 10-13 17-18 21-16 18-10 27-38 13 2 11 0 17 9 13 19 13 15 2 44-3 8-15 19-14 29 19 4 33-49 32-54-3-7-3-10-8-14l5-5 1-1 2-1 33 22 20 17c7 5 13 7 18 13 4 6-2 1 5 6l-6-18-5-7-6-4-3-2c-22-16-18-24-45-35-8-3-12-7-17-11-23-16-16-1-40-28l-2-3-4-3-12-16c-10-12-20-13-30-25-14-17-39-36-39-36l-62-46c-16-13-18-7-30-28l-28-50c-15-25-28-42-38-70-7-19-28-48-44-64l7-196c2-12 1-7 0-20-2-43 8-82 9-125l3-91c-2-61 11-117 6-178-2-30 3-58 4-88l-1-22 5-100-1-21c0-10 3-15 3-25 1-15-3-27-1-40 3-22 1-49 3-73l4-21 1-42v-45l7-84c3-17 2-54 5-76l17-48c5-10 5-25-5-31l-16-9c-12-8-17-3-24-13-13-16-24-17-34-43-2-5-5-7-6-11-3-13 2-16-9-28-8-9-5-2-12-5-5-23-1-37-1-60 0-31 5-29 28-38 47-19 7-60 25-90 4 3 5-1 6 12 0 9 2 0-5 8 22 36 43 14 30-1 44-30 17 9 70-53l4-4c14-15 24-66 24-90s4-61-2-82l-6-27c-3-9-9-12-15-17 2-10 3-8 6-16 6-16 11-31 8-48-2-15 0-5 0-19l-3-23-13-87-1-1c-3-6-9-11-10-20-3-17-2-29-9-42l-1-2-2-4-1-1-3-6-8-17c-16-25 2-5-14-28-5-8 2-4-6-14-6-8-12-13-16-22-2-5 0-3-4-8l-31-32c-9-9-19-14-30-19-13-6-20-12-36-19-13-6-20-1-32 0-22 1-30-7-30 14 20-4 57 18 70 32 6 6 2 2 4 7 8 0 7 1 13-2l10-6c7 6 9 3 16 11l6 6 9 6 14 14 1 1 4 4c3 3 12 5 12 8l10 20c14 22 16 28 25 54 5 15 11 28 14 43 1 5 5 18 5 23 0 11-6 12-7 23 1 5 15 16 4 55l-5 28c-9 45-28 61-33 83-2 10 0 3-5 12-10 17-18 37-30 52l-8 10-12 21c-24 35-20 25-38 44l-8 9-17 16c-7 5-1 3-9 3-11 1-7-1-12 6l9-14c19-21 40-32 34-46-20 1-29 29-43 40-7 5-11 5-18 12l-15 13-38 20c-10 4-10 9-15 15 13 2 16 0 24-4 21-11 36-29 59-39 1 11 3 9-5 17-12 13-27 26-44 34a409 409 0 0 1-107 51c-14 2-9 4-18 6l-12 1-44 8-48-4-5-1c-5-2 1-1-7-3-11-3-22-1-28-3l-14-5-15-5c-22-7-15-6-28-11-9-3-8-1-19-9l-12-8c-9-6-12-11-23-17-12-7-29-12-31-29-16 4-26-41-32-54-4-7-5-5-8-15l-4-18-7-15-7-38c-1-11 2-24 3-33 0-7-3-14-4-19-4-26-1-47 10-71 12 1 19 7 25 14 5 5 4 7 9 10 4 3 6 0 11 4 7 5 7 15 24 15l24-1c26 0 2 31 24 60l6 8c9 15 1 14 16 27 9 8 0 0 8 4 6 3 1 6 14 16l16 18c13 1 17 0 22 10 8-1 4 0 10-4 6 6 12 8 20 10 8 3 30 12 42 8 35-12 37 10 56-10 25 4 40-20 62-23l2 14c-1 12-4 1-1 10 1 1 0 4 9 2l8-5 18-9c3 5 2 8 4 13 7-4 11-10 14-19-8 2-6 3-13 2 1-1 1-2 2-1l2-1c16-11 33-26 40-44-11-3-22 14-32 20l-11 9c0-14 13-17 16-29 2-8 1 1-3-9l20-27 32-44c5-9 16-24 19-34v-5l3-4 2 17-4 3c-2 1-4 5-4 11l1 2c8-5 2 0 7-9l6-7 2-2 2-2 5 2 1 1c-4 5-11 15-7 19 1 1-1 9 11-3l4-6 13-40 4 13c13-5 13-9 15-20 2-13 2-22-11-14l-5-9-1-3c-16 12-6 10-12 24-3 6-2 10-6 19-4 8 1 3-6 5 5-5 12-38 11-39l-7-4-2-1-6-3c0-19 13-20 13-30l-5-11-2-12c-2-10-2-21-6-29-5-11-19-37-31-37l6 22c7 20 9 42 7 60-3 22-13 9-16 24l7-1 1-1 6-2c2 15 3 15-2 30l-14 36c-3 8-3 6-7 13-14 27 2 16-39 70-11 15-20 30-38 37 0-12 2-5 4-17-15 0-17 7-27 13-10 5-1-1-9 7l-29 20-6-6-1-1-1-1-1-1c7-10 14-13 22-20 6-5 4-1 8-10-10-5-11 1-17 7l-4-4-1-1c12-5 23-17 25-30-5-4-13-9-20-12l-38 24c-7 4-5 3-10 8-11 9-26 8-41 11v14l1 6-5 2c4 5 5 9 7 16-11-2-19-7-29-1-5-5-10-10-14-18l-13-2c-3-8-1-5-10-4l2-7-1-3-1-1v-1c-3-8-3-4-2-12-12 1-14-2-21-12-5-8 0-4-8-8 4-2 2-1 2-4-4-3 4-4-6-1-6 1 3 2-5 2l-2-3v-5l3-15-9-1c-14 0 3 2-9 0-2-11-5-17 2-23 4-4 14-6 25-5-5 11-4-2-7 13 4 4 2 2 7 4l9 4c11 6 5 4 15 10 19 12 30 7 25 21 13 3 6 2 12 8l1 1 1 1 2 1 1 1c5 5 1 1 3 7 20-5 26 4 56-9l26-9c8-2 22-6 30-14l1-2 1-1 8-6c36-26 62-75 66-118 4-49-23-44-43-93-8-18-13-41 3-56-2-16-9-35-9-47 0-9-3-32-9-42h-11c3 18-1 9 3 19l2 8c3 19 8 10 5 48-2 25-2 26-8 48-3 12-9 31-14 42l-20 35c-23 31 1 6-31 37l-22 20-3 2-3 4-10 7c-12 11-10 7-12 6 0-1-2 0 3-4l8-8c6-8 6-3 15-12 14-15 2-7 24-26 32-28 57-105 60-152 1-19 0-54-9-67l-4-6-5-8c1-7-2-2 5-4l-1-2-1-2c-7-11 2 2-2-4-3-4-2-3-6-5l2-4 24 19c-4 4-2 3-4 7l13-1c-4-6-2-5-4-11-1-6 1 2-2-5-1-4-4-13-4-18 0-4 4-11 8-14 9-6 6 4 14-11-15 0-21 4-31 3-17-2-13-4-25-14-7 2-9 4-16 8 9 7 3 1 9 13 3 6 2 2 9 10l-3 8c-4-3-4-2-4-5l1-3 2-4c-13 4-3 4-12 0-20-7-8-2-29-23l12 1c1-7 1-5 3-10l-6-1c-4-9-5-13-15-11-13 3-2 9-14-1-18-14-21-6-30-6-13 0 11-7-31 3-14 3-7 0-22 0-50-1-49 34-72 39-8 2-17-8-51 27l-32 36c-4 8-2 5 0 9 14-5-13 7 5-3 5-3-1-3 7-1zm-967 624c9-4-1-4 6-4 8 0 4 2 6 12 6 4 3 0 8 5-8 4-17 6-27 1l2-12zm-297 29c-8-12-4-46-2-52 3-8-2-3 21-4 4 14-6 11-6 29 0 11 1 8-1 22-8 0-6 0-11 6zm99-41c-5-7 0-3-7-7 6-5 8-2 1-6l14-3c7 7-1 3 8 4 6 1 9-2 7 2l-3 4-1 2c-3-5-1-2-6-5l-13 7zm35-6c6-8 9-7 26-6 15 1 10-6 20-12l-9 22c-16-4-8 5-31-1l-4-2zm-668-20l3 2c-7 3-5 3-5-4l2 1zm826-61l2 5v62c-4 22 1 25-13 33v-32c3-15-1-10-1-20l5-36c2-10 1-7 6-12zm3-15s-3 5-2 0c0 0 2-4 2 0zm-110-12c1-10 0-11 7-16-4 8-1 7-2 11-1 8 1 2-6 5zm114-63c0 9 0 32-4 30-3-2-2-13-2-18 0-11-3-9 6-12zm14 15l-1 1zm0-24c-2-8-2-6 1-10 3 6 1 2-1 10zm-15-10c0-7-3-4 2-5zm17-7c0-1-1-10 2-17 0 9 2 10-2 17zm-15-23c-3-4-7-11 0-22 2 3 2-4 2 7zm4-59c-4 9-2 18-6 29 4-17 4-12 0-28zm-3-35v-17c0 4 4 14 0 17zm0-55l4 7c-6-3-4 3-4-7zm56-30c5 7 6 7 0 14-3-7-3-6 0-14zm3-94c0 10 4 11-2 18zm-133-20c2 21 8 77-3 98l-1-51c0-17 2-31 0-55 5 9 3-1 4 8zm133 20l-1-7-1-10c0-6 1-5 2-8 5-14-3-11-1-28l6 6c-2 26 4 29-5 47zm-156-75c3 5 2 2 3 10 1 13-3 22-5 25 0-11-2-26 2-35zm21-17c0-10-1-6 4-12l-2 7zm-40-231c12 14 0 171-1 212 0 11-6 15-3 26 3 9 3-1 2 13-2 20 0 43-3 67-5 42 9 32-2 72-2 6-2 15-2 23h-1c0-21-3-57 1-77 9-47-3-6 2-60 2-23-3-75 2-97 1-7-1-10-2-22-1-21 0-34 1-53l4-57c1-9-3-40 2-48zm0 0c-1-8-2-10-1-19 2-9 1-7 0-16-1-12-2-28 5-38 7 13 3 23 2 38 0 8-2 33-7 35zm5-135v52c-4-2-5 1-3-11l1-2 1-1v-1l1-19s-3-4 1-11c-4-5-2-4 0-7zm184-130l2 15c0 8 2 5-2 10zm6-31c-2 14 0 11-5 11l-1-7 5-4zm-175 544c-5-11 1-2-1-16-4-29 0-34-1-55l3-79c0-53 7-166 6-203l-1-16 2-136 1-35c0-20 0-26 9-31 1 37 2 68-2 102-3 28 0 47-2 79l-1 47c1 10-2 17-2 27l3 28-2 27-3 100c-1 11 1 6-6 12 4 9 7 12 0 21l4 2-3 8 1 53c3 16 2 23 2 36l-6 30zm-15-383c-6-18 1-148 1-178 10 3 3-2 3 6l-1 23c0 7 6 4 3 34-1 8 1 13 1 23 0 18-3 37-3 50 0 10 2 30-3 41zm190-171c-3-9-3-11 0-22zm-187-42c3-3 1-5 3 4l-3-2c-1-1-4 2-1-2zm148-90l4-8-1 34c-1 5 1 1-2 6-3-10-4-27-2-32zm-122 88c-3-6-1-55 0-64 2-10-2-44 0-67 9 11 8 116 0 132zm-24-116c-3-9-2-8 3-14 1 8 0 10-3 14zm191-35c-3 6 4 2-5 5zm-165 3c-5-8-3-7-4-15-2-15 1-3-6-12 6 4 5 3 12 5v11c1 13 1 7-2 12zm-924-28c6-5 4 1 4-6 9 1 24-4 30 5 6 8-1 8 11 13 7 3 30 7 37 6l20-4c6-1 84 2 111-1l1 1 1 1 1 1h1l4-1 60 3c14 2 21-3 32-4 10-1 0 1 12 2l12-1c19-1 44 5 61 4 20-2 10-6 27-2l8 1c15-1 65-1 73 2l7 1 11-3c19-3 35-4 49 7 5-2 10-4 15-4 19 0 31-6 40-5l60 2 10 2h31c8-1 21 2 32 3l14 1 44-4 2-6c2 3 2-3 1 4 0 4-1 2-3 5l36-3c3 0 1-2 3 2l13 1c8 2 13 12 12 22-3 40-2 80-3 120l-3 80 2 32-1 28 1 16-1 14-2 103c0 36-5 81-4 115 3 71-6 157-6 228 0 25-5 64-3 85 2 28-6 120-6 148 0 20 2 61-1 78-2 17-9 87-8 101 2 21-4 42-2 64l-1 25-1 4-1 2c-11 7-7 0-16-3-7-2-13 1-22 2-37 2-53-15-95-14-13 0-9 2-20 4-10-6-1-3-11-6l-8-2-36 3c-11 1-3 2-13 3-12 1-12-3-25 0l-12 2-21 1-8-1-13-1h-62l-13 3c-10-2-12-16-23-1l-6-4-2 1-15 3-15-1h-13c-4-1-10-3-14-2-28 2-60 0-87-3-10-1-10 10-10 11h-8c-6-8-24-16-32-6-10-6-11-3-21-7l-10 7-12 5c-10 4-16 7-21 15-20-3-38 2-56-5-4-2-8-7-11-12-19 12-31 3-39 1-15-3-45-3-57-8-6-2-11-1-18 3-8 4-5 9-16 12-38 13-24-60-22-78l3-60c-2-55 2-110 2-165l3-105c0-46 7-138 6-167-1-11 1-26 2-40 4-40 2-79 2-118 0-16 4-30 4-48-1-65 5-130 5-195l2-40 7-198c0-23-3-48-1-71zm1025 759c2-6-1-25 0-34l2-25c0-25 2-17 7-21 5 20 1 54 1 81l-2 73 1 17-3 71c0 10 2 47-7 52-1-17-2-58 0-74l-6-12c-4 8 0 30-2 40-2 14 1 42-10 44l-2-62c-5 2-2-2-3 3v5c0 11 0 22-11 29-3-24 3-34 3-55 8 2 4 0 10 3 4-13 8-90 7-97l-1-43 3-50-1-30v-30c-2-20 1-35 2-52l10-334c-2-39 4-68 4-72l-2-22c0-7 5-35 0-39 3-20 8-99 4-117-19 4-4 6-15 20-15-1-2-3-16-7-6-1-12 2-17 3-14 2-25 1-33 10-4-7 2-1-4-11l-1-2-1-2c5-10 2-26 6-32 5-7 8-5 15-10 25-21 39 14 67-20 9-11 10-15 25-17l14 11c-2 19-6 14-14 26l-15-1c-4 14-3 28 3 40-6 11 0 45-4 64-2 12-5 116-9 104l7 22c4-11 0-7 7-10 3 6 3 60 0 69l-5-27c-2-12 4-20-2-30-9 16-4 69-6 88l-2 18 1 18-2 33c-1 15 6 8 1 30-4 21-3 38 1 57l1 3 2-13v-13l2-58c2-17 0-18 1-35l2-43 3-21c5 8 2 24 0 33v91c-1 16-3 128-7 135-6-2-4 5-4-7 0-6-1-31-4-36-4 9-6 46 0 56l1-2 2-8c8 2 8-5 7 15l-2 17c0 19-4 18-1 35 2 12 5 66-5 75l-1-1-1-1c-5-11-3-24-2-34s-2-7-5-9c2 25-2 57-4 77-1 14 0 32-3 46l8 4zm-102-800c-7-9-2-8 2-18l6 7c-5 4-7 5-8 11zm-365-4c-10-11 2-21 10-24 0 7-5 17-10 24zm-127-40l12 1c13 6 6 7 14 15 9 9 13 13 5 28-13-6 1 4-26-12 0-15 4-21-8-27l2-5zm438 19c-22-23-17-20 0-32l1-1 8-4c-1 18-3 4-6 19 5 11 11 9 16 19s-3 3 7 10c2 2 5-2 6 10-10 8-10 2-20 3-12 2-6 4-21 1l8-25zm-438-19l-9-8 9-4c2 4 2 2 7 5zm391 31c-9 5-4 6-14 11-15 7-84 1-107 1-16 0-28 3-36-8-7-10-1-22 6-31 5-6 3-2 7-6 5-5 2-3 4-6l12-11c7-5 8-4 16-4 19 0 29-7 36-25 13 1 50 2 57 14l5 8c-13 5-3 0-4 9-3 15-11 4 3 23 6 8 4 6 14 6l2 19zm-12-59l-1-2 11-3c-1 8 0 2-2 6l-4 7zm-607 66l2-12 8-32c9-18 40-29 46-34 12-9 1-22 30-18 19 3 32-1 65 3 4 7 4 11 9 18l15-1c0 10-8 15-1 26 7 10 7 6 13 19 4 10 4 14-1 23-8 13-30 12-45 10l-102-3c-30 2-32-4-39 0zm55-119c-9 9-14 8-26 7-42-4-103 30-122 68-28 58 8 34-66 39l-34 3c-9 1-14 1-23 14-5 7-4 7-7 15-10 27-8 128-8 167 0 34-6 71-6 105 0 33-1 77-4 103-4 41 0 86-6 125-1 5 1 14 1 21l-3 42c0 7 2 7 1 19l-7 259c0 42-5 93-6 137l-5 230c-3 30-10 81 6 108l17 23c13 12 27 22 46 21 74-4 44 3 76 35 6 6 11 8 19 11 14 6 28 2 44 8 11 4 15 2 27 2l48 5c5 27 0 20-4 42-3 18-1 34-2 53-1 16-6 32-6 48l-1 47c-1 19-5 27-4 44 1 16-2 35-2 54 0 21 0 51-4 73-5 30-5 14-4 43 1 24-12 120-12 160 0 19-8 49-8 88s-6 90-9 120c-2 22 0 37-2 58-2 19-4 46-4 63l-8 154c-3 22-2 38-8 60-2 8 1 11 0 18l-2 23c-1 8-5 17-5 24l1 20-6 52c-5 15-3 21-3 38 1 31 0 56-8 85-6 23-9 63-16 89l-34 92c-9 18-13 34-24 51-12 17-18 32-29 48l-110 153-40 40-1 1c-6 6-19 19-18 27-18 5-8 4-17 13l-9 5s-2 6-5 8c-9 9-8 2-15 15l-12 16c-29 28-50 48-50 92 0 22 12 28 20 45 5 10 7 18 17 24l2 1 18 11c11 7 26 8 38 9l23 14c12 5 25 1 35 5l8 5c10 6 20 8 32 8h5c5 0 4-1 6-2 7 7 1 4 11 7 8 3 9 3 18 3 6 0 18 8 32 8 15-1 14-4 29 2l44 9h2c14 3 31 9 45 8 10-1 20 3 30 4 19 1 22 7 37 9l41 8c17 4 22 3 39 10l4-8c9 9 13 9 29 8 4-1-3 1 7 2h11c14 1 22 7 37 7l15 1c7 0 2-2 11-1l12 3 36 9c11 4 20 6 34 4 20-3 56 2 72 10 9 4 10 5 18 2 8-2 18 6 29 5s6-4 22-2c21 3 20-3 38 0l75 9c14 0 32 0 33-19-10-5-27-6-39-6l-15-1c-18-2-33-11-50-5l-14 1c-12 1-20 0-31-5-12 8-28-3-52-6-16-2-9 4-22 1l-46-9c-29-2-52-12-75-11-20 0-59-11-73-11-16 0-33-9-45-9-16 0-33 3-49-4-13-6-37-11-54-12l-39-3c-20-5-34-4-51-12-22-10-25-5-48-7-9-1-11-4-15-5-8-2-28-1-48-6l-25-8-2-1-15-2c-17 0-30-6-47-10l-26-11c-23-12-64-15-87-33-17-13-38-66-21-84l22-20c4-4 0-1 4-6l19-21c12-15 37-36 39-56h8c3-7 2-7 9-11 9-6 16-15 25-23l26-32c8-11 3-3 11-11 16-16 51-63 68-85 17-21 21-34 34-54l25-40c17-30 20-43 35-71l24-59c4-11 3-26 12-33-6-8 0-16 3-28 10-44 19-123 22-170l7-110 1-43c1-14 4-22 5-34 1-8 0-23 2-36l9-168 2-31 9-101v-21c0-4 2-5 3-11 2-18 0-31 2-53 3-42 6-80 6-120 0-17 3-23 4-38 2-49 8-87 12-133l4-72c4-43 11-94 11-131 0-3 13-141 17-151 1-4 2-4 3-5l16-1c10 40-6 51-8 112-1 40-9 93-11 135-1 14-1 34-3 47-7 50-8 93-12 139v15c-1 9-3 6-3 9l-1 25c-2 13-4 11-5 26l-3 89c0 10 0 1-2 10-2 10 1 31 0 42-9 70-8 141-14 212l-4 27-1 24c-4 38-5 69-7 109l-3 56c0 17-3 36-4 55-3 59-8 86-8 150 0 20-7 37-8 58-1 22-6 39-9 60l-16 76c-2 8-3 13 0 19l4 6c26-51 13-98 30-131l3-11c11-57 9-37 9-93l5-62 1-16c1-16-4-27-1-46 6-41 8-89 12-132 3-30 3-68 8-98l1-20c1-16 3-13 3-35l3-32 4-48c2-14-2-33 2-47l3-7 4-56-2-12c0-29 4-49 7-78 1-12 0-24 3-37 13-59 7-128 14-192 1-10-1-15-1-25 0-30 5-56 8-83 2-16-1-34 4-58l3-17c3-17-2-27 0-44 1-14 1-31 4-43s4-29 6-42c1-14 0-24 10-35 11 3 33 9 45 1 5 4 16 5 22 5l13-2c6 0 7 2 11 3 5 1 9-2 13-3 9-1 17 5 26 4l22-2c13 0 30 4 43 3l22-3 27 2 13 2c8 0 11-3 20-1 12 3 32 7 44 5 26-3 28 1 49 3 6 0 9 0 14 2 12 5 18 5 31 0h23c17-1 38-7 55-3 13 3 4 2 15 2h60c21 0-3 10 40 5l1-2 1-2c5 4 0 2 8 3l11-6 12-6c11 14 14 21 38 20 51-2 28-5 52-14 35-13 34-20 40-62 8-57 4-68 8-97 1-9-1-16-1-22 1-9 4-9 3-23l1-125c2-22 5-48 3-70l-1-87c1-31 5-57 3-88-1-29 3-57 3-73l-1-16c2-21-4-35-1-56 5-34 5-78 3-111-2-25 3-37 0-58-8 5-11 12-10 21l-3 100c0 7 3 14 4 20l-2 44c0 12-4 19-3 34 1 10-2 28-3 41-11-12-2-38-3-47-1-8-3 5-1-11 5-48 1-99 3-149 0-9 2-10 3-20l1-180 2-28 4-54c3 7 3 42 3 53 0 15 8 47-3 58l4 7 1 2 2 3c8-17 6-97 9-125 3-27 1-70 3-100l1-60c0-12 4-23 4-38 0-22-4-49 2-71 8-28 5-30-2-55-3-12-5-20-17-18 1-9-3-35-6-29 0 0-6-5-16-7-12-3-25-6-39-5l-37 3c-12 1-27 2-35-6-13 4-2 5-21-11l-18-12c-3-1 1-2-5 2-9-3-13-5-23-4v-2l-6-22c-12 6-9 6-22 1s-13-1-21-4c-29-13-35-5-46-10-7-41-5-18-15-40-5-10-13-12-23-7-6 3-20 13-23 17-10 10-2 18-14 28l-4 1-6 1c-18 1-41 4-58 11l-72 38c-8 5-10 9-16 13-20 0-19-8-41-4-9 1-19 1-27-3-7-4-13-15-18-20l-26-24c-33-19-8-5-42-14l-81-8 2-19c-4-22-34-30-58-12-10 8-6 14-7 26z" class="fil0"/>
  <path id="path5" fill="#222" d="M3075 3971c2-11-2-4 3-7zm-668-36v-2l4 5-4-4zm613-7c-1 2-4 3-1 0zm18-6c3-8 7-9 13-7-3 4-3 7-13 7zm-662 5c-1-12-2-9 2-19 9 4 4 2 10 8 12-3 6 1 11-8 0 6-2 1 2 8l1 2 1 2c-4 5-3 4-3 12l-5-6-1-1c-4-3-1-2-6-2h-9c-5 1-2-1-4 4zm665-24c-12 7-9 1-10 0 0 0-1-4 6-5 9-1 2-1 4 5zm4-9c-10-2-4 2-6-6 7 4 3 0 6 6zm27-18l-3 12c-4-1-3 0-5-3 4-2 5-5 9-9zm0 0l3-5c6 3 6 3 9 8l-12-4zm166-91c-4 7-11 16-25 17 4-8 15-15 25-17zm0 0c3-5 2-5 8-4zm37-45c0 11-4 15-9 23-7 12-7 9-19 14 2-10 5-9 11-17 6-7 9-9 9-18l7-3zm6 18c8-12 7-19 22-31-6 26-3 20-14 35l-6 9c-6 9-24 26-35 28l32-40zm-1113-229l1 4-9 3zm0 0l-2-4c7-2 3 0 6-3-1 9 1 4-5 7zm1107 211c3-14 10-28 9-43-9 4-2-6-7 7-6 13-7 12-14 23l-12 20c-7 10-4 10-18 12-2 8-10 16-16 22l-6 7c-7 9-20 13-27 23 5 2 14 1 20-2-1 9 1 3-4 8-6 6-17 8-20 16l20-6c12-4 29-15 39-18-3 6-4 6-11 11-11 8-21 16-34 21l-9 4c-13 6-48 27-63 26-3-24 14-25 24-37l4-6c5-8 2-3 5-11-15 3-25 10-39 14l-37 14c-8 3-15 4-22 2l-7 8c-4-10 0-2-5-6-12 3-42 3-45 14l-1 6-30 10 2 17-5-2-38 2c-7 15-12 13-21 24 10 1 25 1 32-4 5-3 2-3 7-7l6 13c-8 4-4 2-7 12l6 6c11 15 0 29 22 25 3 0 17 2 8-11l-2 3-1 1c-8-3-7 1-14-5 10-7 10-1 11-12l3 4c5 4 5 0 11 5 4-8 8-8 17-11 15-4 18 4 32-6 11-8 25-6 36-2-1 7 0 3-3 10l-19 4c7 6 3 6-2 7-11 2 2 0-3 0h-3l-10-7c-12 3-12 0-15 11 7 4 12-1 20 2-12 9-15 5-28 12-7 4-9 3-17 4-19 3-13 3-26 8l-8 2c-10 4-16 10-27 12s-13-2-24 0l-15 3-36-1c-13 0-25 5-35 4-7-1-5-3-15-4l-22-1c-19-2-54 1-72 0-17-1-43-6-70-6l-124-15c-7-9-15-5-35-9-16-3-28-9-44-8-2-16 7-30-3-44-7-10-5 5-7-13l7 6c1 0 1-2 2-1l4-4 7-5c5-4 12-5 14-11l-3-1c-10-4-21-10-31-11l-46-4-5-6c-6 6-2 4-14 3l-3-6c-3-6 3-4-8-7-6-2-4 1-11-2-5-2-3-3-10-5l-14-3-11-4c-20-7-43-21-60-33l-1-1-4-4c-9-9-11-11-23-13-13-2-10-7-19-9-15-3-10-1-20-11l-27-21c-5-5-5-4-10-7-10-7-15-18-23-25-7-7-19-15-26-24-7-10-17-41-13-54 4-5 1 3 1-2 0 0 0-16 7-29l3-5c4-4 4-3 6-4 4 9 0 14 6 26 4-4 13-10 15-16 5-13-1-16 11-24 11-7 9-10 12-23 4-17 5-12 15-20-3 12-9 20 6 24 1-26 23-52 30-51 1 1 6-2-3 15l-1 2-10 27c-2 8-2 8 1 14 8-8 9-18 12-32 2-13 9-24 22-28 2 8-4 24-8 34-9 23-7 12-6 38 11-7 6-13 21-11l3-13 22 1c16-63 13-37 39-73l14-23c6-11 14-16 22-26l21-23c5-6-3 1 3-3 10-6 17-15 31-11 6-9 5-10 14-16 7-5 17-14 28-7l5 3 7 2c7-7 7-18 17-22 12-5 23-4 33-8 8-3 5-5 13-5s7 2 18 1l29-3 3-8c-26 5-58-3-82 9l-52 16c-25 4-51 21-72 36l-7 6c-4 3 2 0-4 3l-24 12-13 12c-18 17-29 41-39 43-5-6-2-5-8-9-7 3-9 7-16 11l-4 1c-14 6-13 11-28 12-17 1-22 11-34 19h-1l-1 1-1 4h-10c-9 2-18 11-23 17l-6 7-5 8c-8 17-6 13-4 19l-9-5-10 11c-12 22-14 41-22 56-6 12-8 23-10 36l-1 6c-6 27-2 55 2 82 5 28 45 72 69 89l7 5 3 2c20 17 48 25 69 41l7 5 83 32c27 8 57 18 82 31 21 11 73 22 94 22 19 0 80 18 106 18l79 10c9 2 23-3 43 0 18 2 27 5 44 1 19-4 46 5 66 3h18l45-1h17c14-2 28-10 40-6 14 4 5-2 18 0l108-25c11-3 5 1 8-6 5 7 1 2 6 4 8-5 2-2 12-4l56-21c16-10 42-17 60-25l28-19c13-12 33-23 45-35 23-22 43-27 44-82l-1-29 6-47c-5-6-5-13-7-23-6-26-19-36-36-52-4-4-3-4-11-3 1 22 9 15 14 30 9 26 2 14 4 34 1 9 1 7-1 15-2 11-6 18-16 22zm-2268-574l-25-1c-22 1-50 7-71 11l-22 5c-12 2-10 6-21 7-11 0 3 0-7-2-8-1-6 1-10 2l-20 8c-11 3-12 1-20 3l-77 33c-14 9-34 14-54 28l-17 11c-12 7-43 21-51 31-5 6-6 10-13 14s-11 7-15 13c-13 17-31 46-38 67-21 62-23 114-16 177 1 8 5 13 7 19 10 28 0 29 38 75l27 26c18 14 35 22 54 34 13 8 13-6 59 16 9 4 13 2 23 5l11 4c11 2-1-2 5-1 32 15 68 5 103 10 13 2 31 5 39-4l2 2 1 1 1 1 4-6c19 4 55-6 69-2 8 2 1 2 8 2 7 1 1-1 9-1 9 0 13 2 20 5l22-4c34-10 33-5 40-7 9-3 20-11 30-15 25-9 16-4 35-8l27-11c5 2-3 2 3 1l10-5c10-5 10-7 12-18-5-5-7-5-10-12l-4-8c-10-13-6-13 7-20 3-2 30-11 33-16 9 3 2 6 9 1 11-8 15-18 28-25 8-4 12-10 20-15l11-6 71-57c9-8 14-6 21-17-4-3 0-2-5-3-9-3-2-2-6 1l-9 8-1 1c-13 13-29 23-44 33l-13 7c-12 7-21 20-31 26l-14 7c-10 6-1 4-11 9l-39 21c-6 2-8 4-13 7l-1 5c-7-2-16 6-24 9-7 3-16 4-23 8-11 7-2 3-17 8l2 7c12-6 28-5 41-5l-9 1c-1 14 5 19 3 32-16 12-64 23-85 25-22 2-48 0-70 8-14 5-34 4-48 10-8 3-7 1-19 1l-21-1c-10 0-11-1-20-4-5-2-37-1-51-3-9-1-25 2-34 0l-26-4c-30-1-61-12-89-19l-34-13c-32-18-28-9-55-37-7-8-9-6-17-13-10-8-20-24-26-36-12-21-9-27-13-49-6-31-2-19-2-39 0-7-2-4-2-15 0-43 8-80 23-118l14-28c7-12 19-22 27-33 15-20 37-31 56-47 12-10 17-15 33-19 14-4 28-15 43-18 11-3 16-7 27-6 8 1 11-2 18-8 2 3-1 2 5 4 3-14 23-15 35-19l14-7c7-2 3 1 12 0 15-2 10-8 49-10 11-1 14-5 29-5 9 0 18-4 31-5l9-2c6-1 26 5 34 4 7-1 8-4 12-7a469 469 0 0 1 91 1c16 3 3 0 16 7l11-6c21-7 14 3 34 4 11 0 17-1 28 1l1-5c5 9 12 10 24 13 10-5 2-5 10-4 7 0 5 2 10-2 0 14-1 2 3 7 12 1 12 3 19 5 16 4 7-3 21 8 11-6 5-1 15-1 7 0 7-4 14-2 10 2 16 10 17-13l-40-10c-7-2-17-1-22-3-9-3-5-5-17-7-23-5-18-7-40-2-8 2-33-5-43-8-14-4-25-1-41 2-17 3-45-6-60-7-11-1-30 3-39 2-11-2-7 1-18 1z" class="fil0"/>
  <path id="path7" fill="#222" d="M1012 3210l-34 3c-23 2-52 2-76 8l-18 5c-10 2-10 0-17 1-5 1-9 0-7 4l-26 5c-46 14-31 7-41 9-17 4-42 22-61 29-15 6-81 47-89 56l-19 19c-9 8-13 23-19 33-12 20-23 47-29 72-2 9-4 10-4 23l-3 50c0 16 20 70 31 82 15 17-5-1 17 18l6 7c4 4 8 7 12 13l6-2c0 15-1-3 9 13l6 7c5 4 7 1 12 5 12 9 18 4 24 18 8-1 15 0 20 1 10 3 10 6 19-1-9-8-11-2-18-16-2 1 5 4-8 2l-24-11c-8-6-4-5-13-10-14-8-25-22-37-33-7-7-6-2-12-11-3-5-8-9-10-15-24-50-25-58-23-107 1-13 16-53 22-68 8-17 13-30 26-40 9-6 19-25 36-40 18-16 30-20 53-32l1-1 3-1c8-6 8-7 21-12 12-5 20-11 36-13 7-10-1-6 11-9h1l6-3 9-4c7-3 9-6 15-5 29 2 35-5 61-10 8-1 29-10 36-11 16-1 24 1 35-2 16-3 18-4 40-4 6 0 17-1 23-3 10-2 7-1 19-1 14-1 6 2 26 0 15-2 24 3 40 3 6 0 11-4 15-4 17 0 30 0 46 6 17 7 43 0 56 16 14-2 63 4 81 9l12 5c14 6 25 6 43 9 9 1 11 9 41 14 16 3 26 0 44 8l37 22c13 6 30-2 35 16 1 2 0 5 2 9 8 19 5 24 9 36l-5 6c4 2-5 6 8 2 18-5-12-34 14-46l8 9c7 4 3-4 9 5 10-28-6-26-18-34l-9-5c-17-6-23-16-34-21-20-9-42-12-63-17-12-3-27-15-36-18l-22-2-78-20-4-3-21-11c-7 9-15 5-26 3-25-5-15-8-30-10-14-2-25 3-39-1-6-2-6-4-14-5l-31-4c-8-1-8-3-13-4-6-1-23 5-32 5-26 2-37 0-60 4h-18z" class="fil0"/>
  <path id="path9" fill="#222" d="M264 3461c-5 11-33 36-42 48l-6 9c-4 3 1-2-4 2l-43 62c-12 12-27 16-27 52 0 15 23 35 35 39 5 2 3 0 6 1 15 6 2 8 33 14l35 8c9 2 16 1 20 3 23 10 34 4 47 12 5-4 3-3 8 1l20 2c8 2 5 5 12 0 22 22 37 10 62 18l5 2 16 4c3 1-4-3 3 1l1 1c7 8 21 3 30 2 17-2 39 7 56 10l6 2 18 4 26 4 41 9 13 2c12 2 18-2 31-1 14 6 2 11 26 10 5-8-1-3 11 0l11 2 11 3c3 1 8-3 20-1 18 3 16 5 18 6l63-2c-9-9-23-9-36-11l-17-4c-12-1-10 2-24-2-35-9-48-7-77-11-14-2-4 1-9-3l-2 1-13-4c-8-4-16-1-23-3l-9-4c-5-2-13-2-21-5-12-4-11-4-25-5-11-1-14-6-22-7h-2l-7 1c-23 1-103-16-129-24-22-6-103-19-116-27-9-5-10-7-21-7-12 0-24-4-37-6-12-2-17-10-28-14l-25-13c-15-11-28-17-21-37l5-10c6-10 17-8 24-18l5-7 45-53c6-4 2 0 8-5l37-43c32-31 24-30 44-54 7-8 6-4 13-13l5-8c9-18 24-23 40-50l36-56c6-13 1-11 22-51 15-29 18-41 30-69 5-12 11-26 7-41-14 11-17 28-23 45l-70 135-102 127c-11 11-16 30-24 21zm2525-780c5-2 2 12 7-22 4 4 2-1 3 5l-1 22c0 13 3 23 1 37l-6 150c0 9 2 2 2 8 0 7-4 2-2 12-10-2 0-2-12-5l-2 16 5 2 2 1 4 2 1 43-1 28-1 5-6 28c0 7 0 0 1 5l1 9c0 31-5 32 8 33 0-10 3-18 4-28l5-150c1-9 3-7 3-15l-2-15 3-41 2-23v-61l7-138c1-12-2-6-1-23l1-29c0-10 3-19 3-28l4-149c1-10 3-14 3-24l1-79c1-20 5-36 5-56l-1-27c4-1-1-16 1-29l5-120c-3-12-1-5-5-8l-17 6c0 8-4 10-4 21l12 8c-9 19 0 31-2 73-1 14-3 24-3 40 0 12 0 31-11 29-1 11-9 37 0 57-7 13-3 23-4 44l-2 17c-5 19 2-4-1 12l-1 3v2c1 12 2 14 0 26l-3 12-2 10c10 7 9 15 4 29-3 8-3 2-5 13l-5-4-4-6c-2 9-8 25-7 38s5 9 7 10c7-11 3-12 7-23 3-9 20-19 21-5l-7 110c0 17 3 33-13 33-6 77 0 44-19 67 3 1 0 4 11-1 3 13 6 8 7 18 1 11-4 9-2 25zm-910 985c-12 14 9 11-39 60-13 14-29 20-45 29l-55 26c-19 7-21 5-38 14-10 5-8 3-20 5-9 1-5 0-11 3-22 11-34 11-42 19-8-7-2-1-13-1l-58 14c-22 7-55-3-73 18-25-7-1-12-50 1l-5 1h-4c-48 8-33-11-86 3-12 3-81-1-93 0l-23 1h-25l-44 1c-18-1-27-4-50-4l-1 8c-9-6-5-2-9 3 14 14 18 7 34 12 14 4 27-2 61 1 39 3 17 0 52-3 23-2 6-3 28 1 26 5 38-3 51-1 22 3 50 2 72-4 13-4 35-3 44-6 28-9 30 1 44-11 27 13 22 2 44-2 16-3 29-5 45-11l5-1c20-4 24 3 48-8 6-3 2-2 4-3 0 0 31-8 51-17l1 1c1 4 7-4 24-7l44-17c10-5 24-3 55-23l31-19c8-4 13-7 19-14l6-9c21-27 9-16 27-43 16-24-2-89-18-114-3-5-5-5-11-5 4 9 4 13 9 23l9 24c4 21 6 30 4 56zM445 798c0 29-6 66-26 73l7-26c-33-4-29 35-38 10-2-6-6-28-5-37 18-1 37 24 56-13 2-4 0-3 6-7zm-61-17c2-13 3-23 8-40 4-14 9-22 26-22l-4 8-5 8c-4 6-7 13-1 18 13 11 20-12 26-19l3 2 1 1c6 6 7 11 8 22v16l-4 14c-3-6-5-10-10-15-10-10-21-10-34-3-10 6-3 7-14 11zm22 107c19 0 13 0 25-9 9-7 12-8 17-21 8-20 5-7 8-30 6-40 16-109-26-129-10-5-5 2-13-6-8 11-31 2-47 66-4 16-6 72 1 93 10 31 19 20 35 35zm188-450l-5 85c-1 12 1 13 1 28 0 25-2 49-3 73-2 54-9 78-2 137l-2 110-1 16 3 14 1 2c12 4 11-12 11-33l4-130c0-31-5-63 2-96 3-14 11-215 1-239-15 5-10 21-10 34zm385 671l-2 54c7 37-2 38-2 83 0 8 1 17-1 25-2 14 5 35-2 66-4 16-5 88 1 100 26 3 18-13 18-49 0-20 4-45 3-63-1-16 1-37 1-56l1-149c2-29-1-50 2-87 2-25-18-34-19 5v70zm1450 2399c-7-6-1 5-5-5zm-52-26c-3 6-3 3 0 4l20 10c11 5 10 6 15 7 7 0 5-12 9 5-7 0-9-1-13-3l-12 6c-12 3-7-2-13 4 0-12-2-8-5-16l-1-2-3 1-2 1c-2 1-3 3-4 2l-2 1c0 5-4-7 4 7-8 0-20-2-24-9-5-10 0-6 0-7 10 0-2 0 7 2 15 4 5-9 5-13v-2h17zm21-20c-9 0-3 2-4-4zm-50 73l-15-4-1-8 9 2c-1-12 0-9-8-14l7-5c5 6 4-4 29 17 15 12 16 9 23 12 14 5 12 8 34-11l7 2c-4 11-2 5 2 15l17-12c-5 9-3 8-5 15 4 0 1 0 5 2 8 5 3 3 12 4 14-22 2-25-2-28l-1-12c-15-9-8-8-23-8l-34-7c5-15 3-18-3-30 5-12 8-8 11-27-7-1-15-3-22-2-9 2-6 7-15 0l-6 9c9 4 11 1 22 11-4 7-6 13-4 21h-13l7-20-19-6c-5 9-3 3 1 11-9 4-4 3-16 3 6 13 0 6-1 8-3-1-2 1-12-1l1 16c-14 2-7 1-18 12l6 15-9 2c7 19 7 13 17 21 15 14 10 16 26 22l6 2c7 1 6 0 11-2-10-8-20-10-25-25zm376-2562c-2-12-2-10 5-16 5 5 2-7 3 7 1 9-4 8-8 9zm-13-46l-4 13 6 7-16 28c5 7 0 3 6 7-3 5-7 32-16 44 10 3 5 4 16 4l3-4 9 9c-1 5-3 3-3 8l7 5 1 1c7 6-1 4 12 6 8-17 4-12 2-28l7-7 14 4 7-13c-6-16-15-23-8-42 24 5 17 9 27 14 6-7 5-16 7-27-18-22 0-7-24-19-4-2-2-4-8-5-28-8-1-4-21-5-6 0-6-2-9-2l-15 1zM1175 590c-6 4-4 33-4 41l-3 40c-2 32 0 66-4 95l-6 6c-24 11-8-56-10-93-1-15 2-27 1-46v-25c4-42 7-78 5-121-1-17 6-80-1-92-15 9-9 31-9 49l-1 56c-2 54 4 67-4 127-2 14 2 18 1 29l-3 107c-1 12 1 15 1 24 0 8-2 7-2 15-1 17 3 12 6 14l4-21c3-11 4-12 15-13 6 21 4 47 3 69l1 17c2 8 1 3 3 6 10-14 4-52 4-73l-1-74v-17l3-17c2-12-1-27-1-36 1-22 5-52-1-66zm1126 3020c11 3 12 6 13 11-13 0-12 1-13-11zm0 0c-6-1-2 1-6-2-5-3-5-8-17-13-2 17 5 9 10 31l1 6 11-1c1 10 8 10 21 19l49 24c13 3 3 0 10 8l15 6c12 1 3 1 14 3s4-1 15-1c0-9 1-9-3-14 7-7 3 0 8-8 4 6 3 3 12 4-6-8-5-6-18-6-11 0-4-5-15-1 3-5 7 0-7-14l-1-2c6-3-2-3 9 0 3 1 3 0 8-5-8-13-16-4-27-19l15-7-15-14c-6 4-6 1-12 6l13 10c-6 5 2 1-5 4l-8 1c-6-1-7-3-7-10l-21-2c11 6 2 1 8 8l7 6 1 1 13 7 1 1c6 5 9 4 18 4l-3 9c-9-4-3 0-9-7-5 4 1 4-15 2-9-1-11-4-20-5-6 4-8 7-18 8l-8-9-5-14 2 2 9 4c-9-18-35-31-40-47l-9-4c7 23-3 14 18 26l-2 5zm466-398c22-72-9-84 16-94 2 13 3 32-5 41 6 11 3 12 4 27l-1 31c0 16-8 46-3 60l-9 8c-2-21 3-39-3-50-10 7-2 36-7 68-2 13 0 64 1 66 8-9 1-15 3-27 1-9 5-13 5-25 10 15 3 35 6 44 3 11 1 2 4 6 7-12 4-24 5-38l7-37c2-13-5-20-3-35 2-16-2-55 1-70 9-42 0-51 2-67 2-15 7-23-1-37-6 3-6-2-7 10v13c-8-4-6 3-6-14 0-11 3-11-5-14-3 5-7 55-7 64l-2 42-1 19c2 11 0 3 5 7zm-95-1740c6 1 12 0 16-2 5-3 67-49 48-22l-8 7c-16 13-13 0-26 11-29 25-8-1-20 24 24-3 16 2 25-4-4 13-4 2-9 13l16-3c9-2 20-9 26-13l50-43c4-4 5-6 5-12-11-3-20 8-25 15l-6 6c-6 5-6 6-16 9 5-17 26-23 34-39 3-6 0-11-7-9l-7 5c-7 6-5 7-12 11-3-8 1-7 7-16 6-8 8-11 7-23-14 11-6-1-23 21l-11 12c-4 4-10 6-15 10-6 5-5 6-13 9l-4 1-3 1c-17 7 1-1-20 13-8 5-8 5-9 15zm-998 1450l-8-1c-2 7-5 8-9 13-11 13-43 42-58 60l-40 78c-11 22-23 68-37 78 3 8 4 6-1 27-10 47-5 29-5 68 0 7 0 11-3 14-4 4-3 1-6 4l-1 1-1 1-3 5c14 14 8 8 26 9 4-20 4 4-8-21 11-14 10-35 13-54 1-9 7-40 15-51l3-4c-3-1-1 1-5-3 6-13 3-20 7-31 4-13 57-117 66-126l30-38c2-2 24-14 26-28zM942 1371l7 3 2 1c12-9 11-8 13-24 3-25 0-41 4-66 2-9-3-15-2-31l-2-128-9-5c-11 14-9 38-8 63v14c5 25-5 58 3 88 3 9 2 8 2 18 1 12 0 16-6 30-4 10-5 22-5 36zm168-250c17-20 7-84 9-93l2-99c-1-15 4-31 4-50l-3-93c1-22 5-28-6-42-2 18 1 36-1 53l-4 94c4 37-10 104-4 141 3 18-16 73 2 90z" class="fil0"/>
  <path id="path11" fill="#222" d="M1388 3810l-28 1c-25 2-23-1-58 2-32 2-45 2-77-1-11-1 2-1-9 2l-30 1c-10 0-6 1-13-2-1 1-6 4 1 7l4 1c34 14 20 2 40 5l11 2 64-2c10-1 6 1 17 1 14 1 7-3 17-3 6 0 2 2 7 1 4 0 5-4 38-4l55-6c13 0 30 4 50-13-14-1-14-4-28-4-19 0-58 10-63 10zM1054 545c0 40-4 73-4 100l-2 90 1 45c0 6-5 62-2 70l3 6c5-4 4-1 6-7 4-9 4-50 2-66-1-7 3-21 4-28 1-32-4-43 1-97 3-27 2-46 2-69 0-19 8-54 3-69-7 2-8 0-11 14-2 5-2 6-2 12zm-92 161c16-9 15-46 15-71l2-158c-2-28 16-63-7-65l-4 11c-4 15-3 46-2 62v59c-5 37 0 57-2 94-1 18-7 54-2 68zM563 525c-8 14-8 68-7 90 1 28-8 124 2 150 17-6 14-36 14-55-1-52-6-19 0-86l2-74c1-20 4-7-1-28l-11 3zm509 317l7-6c6-27-2-56 7-77 8 16 3 40 1 57-2 16 3 7 3 22 0 10-4 25-2 40 8-2 8-6 10-14 2-11 8-122 4-132-3-9-8-10-14-10l3 4 1 1-7 7-5-27v-25c-1-15 0-4-3-9l-1 2s-5 11-7 37l2 131zm2113 2889c17 11 43-43 55-51 0 17-9 24-17 33l-22 28c-2 1-14 8-15 18 5-6 12-8 17-11l16-14c9-7 20-23 28-32 2 2 13-1-8 20-12 12-9 23-35 38-7 4-16 10-17 21 8-2 7-1 14-6l11-11c17-15 8 0 41-34l5-5c4-6 10-24 7-35-5 0-3-1-12 5l-4 3c4-26 8-10 8-43-12-1-5 1-10 1l-3-14c-23 10 0 30-46 73l-4 4-1 1c-5 5-6 2-9 11zM1119 553l-4 148-1 18c0 9-1 17 4 23 7-9 3-39 3-50l2-24 9-229c1-37-3-5 2-48 2-15 5-46 2-56l-9-3c-7 12-3 13-3 24l-5 143c-1 21 6 42-1 55zm-243 719c0 41-3 53-4 75 0 24-9 20 0 47l8-1c5-9 10-16 12-29 5-35 2-121 1-160-18 2-16 10-16 26l-2 43zM525 904l2 73-2 65 1 23c0 11-7 38 0 53 13-2 10-10 10-23l4-143v-29c-2-17 7-37-3-51-9 2-9 1-11 11s-1 11-1 21zm487-319c9-2 6 2 9-6 4 25-7 92-2 135 2 17 1 30 5 38 14-16 7-22 7-44 0-19 5-43 5-78l-1-75c-1-8 2-6-6-11-12 6-1 3-11 12-3 3-9 0-8 16l1 6c3 9 0 2 4 6zm1853 707c-1 6 1 1-4 3-5-6 2-7 3-7 2 3 3-4 1 4zm-24 17c14-1 10-1 18-11 1 6-2 14-4 21 8 1 3 0 10-4 6-4 4-3 11-2 9-9 11-9 17-23l7-13c5-8 6-5 6-15l-8 5-11 8c-9-4-3-1-8-5-6 11-4 11-17 15 4-6 4-10 4-20 12-9 13-27 21-35l-3 35c7-8 18-28 20-40 2-16 1-2-1-8-9-1-9 4-16 10 0-14 3-17 2-23-3-9-2-3-4-6-10 9-12 32-15 42-13 34-2 17-15 41-3 6-11 23-12 29zm-607 2474c7 10 4 3 14 9 5 3 7 8 12 11l31 9c6 3 6 6 15 8l12 5c11 8 34 13 39 11 5-5 6-6 8-11-15-23-4-13-8-24 12 3 11 3 18 11l12-1c-5-17-3-2-34-24l-8 6 8 11c8 14-4-12 2 3l2 7c-13-3-11-2-13-14-13 2-15-2-23 5-15-22-16-2-40-13-8-4-5 0-8-9l-11 2h-2l-6-3c-6-3 0 0-6-1s-5-2-11 1zm-1284 26l14 3c10 3 17 10 46 11 26 0 29-7 37-6l17 3 2 7c6-15 0-4 24-5 13-1 12 1 14 5 13 1 38 8 48-9 5 4 0 3 9 4-7-18-24-9-34-12-5-1-3-1-5-3l-4 6c-15-5-39-4-57-5-7 0-8 3-19 1-68-12-61-1-67-25-14 8-1 8-19 18l-3 2-3 3zM496 956l1 45c0 23-2 31-3 53 0 14-5 50 4 62l9-7c2-20-1-45 3-66 3-15 6-92-2-107-12 1-12 5-12 20zm679-366c4-3 3-8 2-15v-18l4-30 1-70c-2-28 6-118 0-128-7 2-7-11-9 26-1 9 1 23 1 34l-2 65v68c0 16-1 53 3 67zm-656 73l2 33c1 14-2 16 8 25 9-14 9-26 8-45l2-65c1-5 10-26-12-28-4 13-7 65-7 80zm2064 3141l-4 2-1 3c-12-2-9-10-18-19h-11c-3 11-3 7 1 14l-6 4v-3l-2-3c-12 8-6 1-22 6l-8 4-1-2c-2 5-1-1-4-4l-3-2-3-4-3-4c10-9 7-3 15-7-6-11-7-3-15-6-5-1-12-11-25-1 19 11 22-3 25 13-12 3-7 1-19-1-5 6-5 4-8 11l48 10c20 0 67 29 65-10zm-132-168h10c10 3 3 2 6 5-2 7 3 2-10 5l-5-10zm1-16l-29-2c4 11 1 1 10 11l2 3c7 1 7-1 14 4l-7 3-11 3h-7c16 10 17 10 27 3 3 9 3 8 14 9 9 1 9 0 17 6l7-7c-6-2-3-4-13-8l8-1c3-11 8-15 7-27-9-5-18-2-29-5l-6 12c-2-7 0-10 0-15l-15-2 5 5c3 2 1-2 5 7zm-1677 76c2 18 15 7 21 16 19-16 26-2 26-1 11 2 13 3 18-2 4 4 5 8 14 4 7-2-1 1 6-5l7-5c6 5 6 8 12 3l6 9c15-9 9-2 27-6 11-3 6-1 9-7-15-16-51-2-51-2-3 1-20-7-39-7-9 0-53-2-55 2zm899-774c9-2 10-5 17-11 31-26 12-11 27-18l9-7 36-24c18-13 53-23 47-39-9-2-69 36-74 40-10 8-35 25-40 32s-1 3-7 8l-14 18zm863 985c10 8 5 5 15 6 13 2 16 6 27 6 10 0 7-2 15 0l35 4c51-2-7 6 45 3 12-1 12-1 24-6-12-4-1-5-16-3h-7c-27-5-13 7-28-3-12-8-20-2-42-6l-11 3c-4-9 6-3-29-9-18-3-16-3-27 5zM452 393c0 22-3 62 4 77 5-2 2 0 4-3l3-4c7-13 5-34 6-48 1-20 7-42-6-52-5 3-7 4-9 10l-2 19zm2250 3531c1 1-3 5 14 4l16-2c12 0 7 3 19 2h18c11 1 69 3 76-12-16 2-29-5-71-2-12 1-8 1-17 4-16-6-18-2-36-6-6 6-10 7-18 11zM939 1230c0-15 4-36-5-49h-7c-9 13-4 14-5 32-1 14-9 23-7 35 4 32 24 24 24-17zm441 1989c0 7-3 0 16 16l4 4 1 1 13 7c16-9 13-2 28 1 19 4 2 2 22 8l4 1 6-6 4 4c9 11 4 8 18 11-2-10-7-13-18-17l-32-14c-7-3-52-20-61-20-6 0-3 0-6 2zm1099 533l3 4c16 15 11 0 36 15 25-10 49 17 62-3-3-9-5-8-13-9h-3l-7-1c-23-4-17 5-36-2-25-9-10-8-43-4zm-1645 44c9 12 20 6 30 8 2 0 5 3 9 3 17 1 16-2 31 3 13 4 25 3 37-6-13-15-49-5-59-7-7-1-10-5-17 2-5-4-3 1-4-7-13 4-16-5-27 4zm2052-2465c18-10 26-36 33-54l10-28 5-15c4-12 4-9-1-14-10 11-6 18-13 29-4 6-3 3-6 11l-5 15-1 4c-10 31-21 31-20 52zm-604 475c6 12 5-1 9 19 1 3 14 17 18 32l3 10c10 23 1 13 7 30 2-13 9-35 1-46 6-6 4-3-3-12-15-20 1-8-11-21-8-9-10-16-24-12z" class="fil0"/>
  <path id="path13" fill="#222" d="M1096 648c0 21-9 60-3 71 4-2 2 2 6-5l2-10v-21c-3-22 3-55 2-64l2-35c-15 8-10 27-10 64zm1551 3166l-18-1c-1 5-3 6-2 13 18-4 42 16 50-13 8 2 5-1 15 1 9 2 9 5 10-7-9 1-6 2-13 2-23 0-23-12-41 5zM976 3699c26 6 15 0 24-3 14 0 14-1 23-3 12-3 39 9 50-10-11-19-39 8-63 7-29-1-11 0-29 3-3 1-2-7-6 6zm952-926c1 2 1 5 7 7 8 2 9-8 28-8 6 0 12-2 19-4 8-3 12-9 17-3 4-8 2-5 8-7l13-4c-17 0-10-2-25 2-19 4 1-8-44 7-7 2-14-2-21 10zm370 980l6 7 1-1 2-2c3-1 4 2 5 3-2-5-4-5-7-7l-5-4c-15-10-1 3-19-16l-9-7-10 3-15-10-1-1-13-4c9 16 9 5 32 25 19 16 8 11 17 14h1c11 4 5 5 13 1zm-554-489c14-1 6-2 14-3 14-3 21-7 34-14l3-2c6-5 4 4 3-9 12 4 24-9 24-9l-1-1-5 1h-9c-7 10-10 8-10 8l-5 2c-17 7-15-1-33 15-10 9-10 4-14 13zm1425 458c3 2 2 9 12 0 17-13 42-44 46-65v-16c-16 8-1 15-23 46-10 14-22 23-35 34zm-419 100c-9 25 8 11 24 11s16 5 30-7c-8-14-11-1-28-4-10-1 4-6-14-2-5 1-6 4-12 2zm86-2542c-7 3-1-2-7 5-7-1-6-2-13-1-6 11-8 13-11 25 11 3 8 1 16 5l10-4zm-51 1105c7-7 8-1 4-28-2-17 4-26 1-42-16 3-10 39-10 52 0 7-2 4-1 10 1 13 1 5 6 8zm51-1105l8-7 2-3 4-7c6-15 15-32 8-44-13 6-21 46-22 60zm-463 2303l1 1 1 1 18 13 5 7c14-5 12 3 18-6l-6-3c8-10 0-3 3-9l2-2 2-1c-19-4 2-6-22-8l10 12c-8-2-21-4-31-4zm384-1838c-3 2-3-2 0 4l3 4c5-10 17-17 9-55-14 7-15 29-12 47zm272 1745l-6 1c-5 26-33 35-31 56 4-2 11-5 14-8 5-4 8-11 12-19 9-16 14-18 12-31zm-1302-22c0 6-1 1 1 7l4 6c4 5 21 31 31 21 7-7-10-16-17-23l-5-5c-4-3-9-5-14-6zM464 1024c0 11-1 15 5 22 16-7 13-23 11-40-10 1-15 9-15 19z" class="fil0"/>
  <path id="path15" fill="#222" d="M3165 3705c5-2 11-6 16-11l15-15 4-4c11-14 11-20 18-36l-9-4c1 2-5 34-23 45-10 6-17 12-21 24zm-1623-417c3 3 6 6 11 8l13 7 2 1 18 10c12 3 2 1 7-1l-22-19-3-2-6-1h-1l-4-12c-9 7-8 1-14 10zm751 295c20 3 23 21 42 23l-5-9-1-1-32-28c-6 7-2 5-4 15zm127 152l-5-5-1-1-35-21c-7-3-14-4-23-4 30 29 28 11 48 24 11 7 1 3 15 7zm-73-8c5 14-1 5 8 9 11 5 11 12 22 3-4-11 1-1-13-11l-3-2c-9-4-20-7-29-9 2 6-3 9 15 10zm813-42c19-3 24-21 30-34l4-9c4-9 8-13 0-17-6 11-5 18-15 33-11 16-18 18-20 27zm-1416-421l-20 1c-5 8 0 4-7 7-12 7-15 4-25 13l-6 8c27-6 4 5 30-12l22-13 2-1c5-3 1-1 4-4zM1423 721c6-10 1-52 3-68-12 12-9 57-6 63zm950 2862c-2-5 0-2-4-5l-2-1-36-24c-4-4-5-6-13-6l-1 5c10 6 41 33 56 33zm-464-835c0 12-1 31 5 39l3-12v-5l-1-3c-3-9-2-18 0-27 3-19 0-17-4-20-3 7-2 17-2 29zm546 837l1 2 1 2c1 8-6 10 3 15l3 3 13-12-11-18zm52-710c5-11-7-16-16-20-9-3-5 0-10-5-3 9-4 2-4 6-1 7 2 3 8 8 20 17 11 5 22 11zM1363 983c-1 1-7-1-6 14 1 20-3 43 3 53 5-23 1-31 4-50v-17zm934 2744l5 11 7-7c-9-13-16-13-26-18-9-5 2-3-9-3 0 4-1 3 1 7 2 7 0 4 6 7l17 3zm-475-908c8 4 11 2 18-1l14-7 4-5c-18-8-27 4-35 13zm916 997l-3-7-9-2h-5l-14 1c6 8 21 16 31 7zm130 109c15-6-4-4 32-4-3-7-3-9-15-9-14 0-16-2-16 13zm-103-867l6 5c6-10 10-28 5-36-5 11-4 1-7 16l-3 14zm-262 849c13 0 25 3 27-2l2-4-21-7c-3 5-5 7-7 13zm-156-372c26 12 4 8 14 15l5 2h4c1-6-2-10-10-16l-1-1-1-1c-10-7-10-6-18-7 4 8-2 3 8 8zm421-831c5-2 11 1 9-23-1-8 0-3-3-8-2 2-4-6-5 16-1 8-2 9-1 16zm-1366 779l4 5 1-1 1-1c7-5 12-8 17-16 2-5 2-3 2-8l-6 4c-24 16-3 3-19 17zm1752 155c23-10 18-39 5-16-4 7-4 7-5 16zm-1245-523c13-8 6-30 1-41zm564 571l8-6 1-1 3-4c5-8-5-4-8-3l-15 2 10 10 1 1z" class="fil0"/>
  <path id="path17" fill="#222" d="M2473 3686c-6-1-14 0-19 3l4 1 2 1-1 2-1 1c-6 15 2-9-2 4l12 2 4-8c3-6 2 1 2-6zm-280 70c-6-11-4-1-10-11-6-11 2-8-9-11-5 8 2 14 8 19s0 2 10 3zm-837-2653c6-13 7-23 4-37-2 3-3-3-5 13v24zm1304-69c4 2 24 12 24-8l-12 4-6 1-6 2zm-217 2777c8 4 16 10 24 2-4-5-15-6-17-6-11 0-5 1-8 4zm-138-102c13 3 15 12 24 10 7-19-15 2-20-17zm89-126v-14c-8-2-5-3-18-6l12 14 6 5zm-350-835c5 4-7 4 11 2l29-3c-8-3-30-4-40 1zm200-808l15-2v-7c-12-2-17-3-15 10zm-586 1370c16-1 3 2 11-4l4-3c3-4 1 1 3-6-9-1-15 0-19 13zm694 443c3 7-3 2 6 7 3 2 5 2 10 3l-8-17c-3 2-6 3-8 6zm427-1238c7-6 8-11 0-19-9 19-6 15 0 19zM488 627c5-1 11-6 5-15-2 1-6 2-8 5-5 11 2 10 2 10zm1894 2925l2 1 2 1c5 4 1 2 2 6 7 2 9 1 14-2l-6-8-14 1zm11-142c7 5 11 8 18 4l-5-10c-7 10-2-4-14 6zm371-513s10-2 1-13c-3-4 0-1-4-3-2 5-2 3-1 9 1 10 3 6 4 7zm-43-943l3 7 20-6c-12-4-1 0-7 0-5 0-4-4-13-2zm29-876l1-10c-13-1-7 2-12-6 0 4-5 9 11 16zM1508 3403l12-10c-5-6-17-5-12 10zm839 340c-4-6 2-2-11-4l-9-2c3 4 3 6 9 7 8 2 10-1 11-2zm448-1289h8c1-11 0-9-6-11-4 6-3 1-2 11zM1365 826l4-5-4-15c-4 8-4 11 0 20zm1-41c6-5 4 1 5-7 0-10-4-8-5-8-3 6-3 9 0 15zM922 3706l4 1 17-7c-4-2 0-2-11 0-15 3-6-2-10 6zm990-822c3-5 0-3 1-10 1-9 6-1-1-12-2 4-3 3-3 8zm823-1485c8 1 10 1 13-6-12-7-6 1-13 6zm-430 2163c3 3-2 0 7 5l8 2c-2-6 2-1-6-7l-4-3c-9-2 2 0-5 3zm453-1602l11 3c-4-10-7-4-2-11h-10c4 9 6 5 2 8zm-440 1586l-1-7c-10 2 3-1-11-3 3 8 4 8 13 10zm265 258c7 2 4-2 5 4l7-7c-8-4 0 0-8-7l-4 9zm-379-205h7c2-6 2-4-3-10-5 5-4 0-4 10zm16 138l-2-9h-8c3 7 3 6 10 9zm-1485-44c6 4 5 2 13 1-7-3-11-12-13-1zm1602-85c3 4-5 2 4 4 12 3 6-1 7-2-5-3-5-4-11-3zm486-256l5-15c-3 1-3-6-6 5-1 4 0 7 1 9zm-676-316c4 4-6 6 6 4 9-1 3-1 5-5l-10 1zm-235-130c3-4 4 8 3-5-1-7-1-3-3-5-3 6-4 3 0 11zm517 683c-5-10 3-2-7-8-1 10-7 5 7 8zm-185 162l4-6-10-4zm-848-256l7-5-4-2-4-2c-1 13-2 4 1 8zm1072 403h7c-2-4-2-1 0-6-11 1-6-2-7 6zM856 3672l6 4 1-10c-9 5-3 5-7 6zm858-214c1 1 0 2 3 4 6 5 1 1 8 5-3-7-2-8-11-9zM1366 804c3-6 2 0 2-6 0-4-1-3-2-5-3 6-3 5 0 11zm1337 933c2-5 2-5 0-8-8 10-2 6 0 8zm-392 1997l8 3c-4-7-4-10-8-3zM1365 852c2-3 3 2 3-5l-3-8zm660 1906c6-1 4-1 8-5-15 1-3-1-8 5zm210 981l1-2v-2l-1-2-2-2c-4 12-1 4 1 7zm554-1058c-4 2-1-6-4 6 11-5 3-1 4-6zm-28-1596c2-4 3 1 0-4l-4-3c3 10 1 6 4 6zm239 2878c-3-10 1-3-6-5 3 7-1 1 6 5zM1368 693l3 1s6 8 1-1c-1-1-5-6-4 0zm544 2019c4 5 4 4 6 1zm557 1040c12 0 4 1 5-3zm-62 27c3-2 6 4 1-5zm9-382c0 1 5 3 3 0-1-1-5-3-3 0zm-38 154c-4 4-1 3 1 0 5-5 1-3-1 0zm176-1473c4 3 1 2 5 0zm-644 919c-2 3 2-1 2-1 1-3 0-3-2 1zm416 580s-3 2 0-1c4-4 2-1 0 1zm-496-354c-1 1-4 2 0-1 2-2 2-1 0 1z" class="fil0"/>
  <path id="path19" fill="none" d="M876 1272l2-43c0-16-2-24 16-26 1 39 3 126-1 160-2 13-7 20-12 29l-8 1c-10-27-1-23 0-47 0-22 4-34 4-75zm46-60c2-18-3-19 5-32h7c8 13 5 34 5 49 0 41-20 50-24 17-2-12 6-21 7-35zm20 159c0-14 1-27 5-36 6-14 7-17 6-30l-2-18c-8-30 1-63-3-88v-14c0-25-2-49 8-63l9 5 2 128c-1 16 3 22 2 31-5 25-2 40-4 66-2 16-1 15-13 24l-2-1-7-3zm-478-347c0-10 5-17 15-19 2 18 6 33-11 40-6-7-5-11-5-22zm511 248l1-25c0-45 9-47 2-83l2-54v-70c1-39 21-30 19-5-3 38 0 58-2 87l-1 149c-1 20-2 40-1 56 1 18-3 43-3 63 1 35 8 52-18 49-6-13-4-84-1-100 7-31 0-52 2-66zM496 956c0-14 1-19 12-20 8 15 5 91 2 107-4 21 0 46-3 66l-9 7c-8-12-4-48-4-62 1-22 3-31 3-53zm29-53c0-10-2-11 1-21 2-11 2-10 11-11 11 14 2 34 3 51v29l-4 143c-1 12 3 20-10 23-7-14 0-42 0-53l-1-23 2-65zm-119-16c-16-15-25-3-35-35-7-22-5-78-1-93 16-64 38-55 47-66 8 7 3 1 13 6 42 20 32 89 26 129-3 23 0 10-8 30-5 13-8 13-17 21-12 9-6 9-25 9zm704 233c-18-17 1-72-2-90-6-37 8-104 4-141l4-94c1-17-1-35 1-53 12 14 7 21 6 42l3 93c0 19-5 35-4 50l-2 99c-2 9 9 73-9 93zm-41-410c2-26 7-37 7-37l1-2c3 5 2-6 3 9 0 2-2 11 0 25l5 27 7-7-1-1-3-4c6 0 10 1 14 10 4 11-2 122-4 132-1 9-1 12-10 14-2-15 1-31 2-40 0-14-4-6-3-22 2-17 7-41-1-57-10 20-1 49-7 77l-7 6-2-131zm-581-84s-7 1-2-10c1-3 5-4 8-5 6 9 0 15-5 15zm31 37c0-15 3-68 7-80 22 2 12 23 12 28l-2 65c1 19 1 31-8 45-10-8-7-10-8-25l-2-33zm577-15c0-36-6-56 10-64l-2 35c0 10-5 42-2 64a74 74 0 0 1-2 31c-4 7-3 3-6 5-6-11 3-50 3-71zm-84-63c-3-4-1 3-4-6l-1-6c-1-16 5-14 8-16 11-9-1-6 11-12 8 5 6 2 6 11l1 75c0 34-5 59-5 78 0 22 7 28-7 44-4-8-3-21-5-38-5-43 6-110 2-135-3 8 0 4-9 6zm-449-60l11-3c5 20 2 8 1 28l-2 74c-6 68-1 34 0 86 0 19 4 49-14 55-11-26-1-122-2-150-1-22-2-76 7-90zm487 120c0-28 4-60 4-100l2-12c4-13 5-12 11-14 5 16-3 50-3 69 0 23 1 42-2 69-5 55 1 66-1 97 0 7-5 21-4 28 2 16 2 57-2 66-3 6-1 3-6 7l-3-6c-2-7 2-64 2-70l-1-45 2-90zM594 437c0-13-5-29 10-34 10 24 2 224-1 239-7 34-2 65-2 96l-4 130c0 21 1 37-11 33l-1-2-3-14c-1-7 0-10 1-16l2-110c-7-59 1-83 2-137 1-23 3-48 3-73 0-14-2-15-1-28l5-85zm582 153c7 15 2 44 1 66 0 9 2 23 1 36l-3 17v17l1 74c0 21 6 59-4 73-2-3-1 2-3-6l-1-17c0-22 2-48-3-69-11 2-12 3-15 13l-4 21c-3-2-7 3-6-14 0-8 2-7 2-15 0-9-2-13-1-24l3-107c1-11-3-15-1-29 7-61 2-73 4-127l1-56c0-18-6-41 9-49 7 11 0 74 1 92 2 43-2 79-5 121v25c1 19-2 31-1 46 2 37-14 104 10 93l6-6c4-29 2-64 4-95l3-40c0-7-2-36 4-41zM963 706c-5-14 1-50 2-68 2-37-3-57 2-94v-19c0-14 2-25 0-40-1-16-3-46 2-62l4-11c23 2 5 37 7 65l-2 158c0 25 1 61-15 71zM453 392l2-19c2-6 4-7 9-10 13 9 8 31 6 52-1 14 1 34-6 48l-3 4c-3 3 1 1-4 3-7-15-4-55-4-77zm723 198c-4-15-3-51-3-67v-68l2-65c0-11-2-26-1-34 2-37 2-24 9-26 6 10-2 100 0 128l-1 70-4 30v18c0 7 1 12-2 15zm-58 150c-4-5-4-14-4-23l1-18 4-148c7-13-1-34 1-55l5-143c0-11-4-13 3-24l9 3c3 10 0 42-2 56-6 42-2 10-2 48l-9 229c0 9-3 15-2 24 0 11 3 41-3 50zM339 223c-2 23 1 48 1 71l-7 198-2 40c-1 65-7 130-5 195 0 18-4 32-4 48 0 39 2 78-2 118-1 14-3 29-2 40 1 29-6 121-6 167l-3 105c0 55-4 110-2 165l-3 60c-1 18-16 91 22 78 10-3 8-8 16-12 7-4 12-5 18-3 12 5 43 5 57 8 8 2 20 11 39-1 3 6 7 10 11 12 18 7 37 3 56 5 5-7 10-11 21-15 4-2 8-2 12-5l10-7c9 4 11 1 21 7 8-10 26-1 32 6h8c0-1 0-12 10-11 27 3 59 5 87 3l14 2h13l15 1 15-3 2-1 6 4c11-14 13-1 23 1l13-3h62l13 1 8 1 21-1 12-2c13-2 13 2 25 0 10-1 2-2 13-3l36-3 8 2c9 3 1 0 11 6 11-3 7-4 20-4 42-1 58 15 95 14 8 0 15-4 22-2 8 3 5 11 16 3l1-2 1-4 1-25c-2-21 4-43 2-64-1-14 6-84 8-101 2-16 1-58 1-78 0-28 8-120 6-148-2-21 3-60 3-85 0-71 8-157 6-228-1-34 4-79 4-115l2-103 1-14-1-16 1-28-2-32 3-80c1-40 0-80 3-120 1-11-4-21-12-22l-13-1c-3-4 0-2-3-2l-36 3 3-5c0-6 0-1-1-4l-2 6-44 4-14-1c-11-1-23-4-32-3h-31l-10-2-60-2c-10-1-22 6-40 5-6 0-10 2-15 4-14-12-30-11-49-7l-11 3-7-1c-8-3-58-3-73-2l-8-1c-17-4-7 0-27 2-17 1-42-5-61-4l-12 1c-11-1-1-3-12-2s-19 7-32 4l-60-3-4 1h-1l-1-1-1-1-1-1c-27 4-104 1-111 1l-20 4c-8 2-31-3-37-6-12-6-6-5-11-13-6-9-21-4-30-5 0 6 2 1-4 6zm1022 844c3 14 2 24-4 37v-24c2-17 2-10 5-13zm2-83v17c-2 19 1 27-4 50-6-10-2-33-3-53-1-16 5-14 6-14zm4-137c0 7 0 2-3 5v-13zm-2-41l4 15c-5 4-2 2-4 5-4-9-4-12 0-20zm0-13c1 2 2 1 2 5 0 6 1-1-2 6-4-5-3-4 0-11zm0-8c-3-6-3-9 0-15 0 0 5-2 5 8 0 8 1 2-5 7zm2-92h4c5 8-1 1-1 1zm-5 290l5-290zm-5 290l-8-4c3-14 2-32 3-46 1-20 5-53 4-77 3 2 6 0 5 9-1 11-3 24 2 34l1 1 1 1c10-10 7-63 5-75-3-18 1-17 1-35 0-9 1-10 2-17 1-20 1-13-7-15l-2 8-1 2c-6-9-4-47 0-56 3 5 4 30 4 36 0 12-2 5 4 7 4-8 6-119 7-135v-91c2-8 4-25 0-33l-3 21-2 43c-1 17 1 18-1 35l-2 58v13l-2 13-1-3c-4-19-6-36-1-57 5-22-2-15-1-30l2-33-1-18 2-18c1-19-3-72 6-88 7 10 0 18 2 30l5 27c3-9 3-63 0-69-7 3-3-2-7 10l-7-22c4 11 7-92 9-104 4-20-2-53 4-64-6-12-7-27-3-40l15 1c9-12 12-7 14-26l-14-11c-15 2-16 6-25 17-28 34-42-1-67 20-7 6-10 4-15 10-4 5-1 21-6 32l1 2 1 2c7 10 0 4 4 11 8-9 19-8 33-10 5-1 11-5 17-3 14 3 1 5 16 7 11-14-4-15 15-20 4 17-1 96-4 117 5 4 0 32 0 39l2 22c0 4-5 33-4 72l-10 334c0 18-3 32-2 52v30l1 30-3 50 1 43c1 7-3 84-7 97-6-3-1-1-10-3-1 21-7 32-3 55 11-6 11-18 11-29v-5c1-5-2-1 3-3l2 62c11-2 7-30 10-44 2-11-2-32 2-40l6 12c-3 16-2 57 0 74 9-5 8-42 7-52l3-71-1-17 2-73c0-28 4-61-1-81-4 4-6-4-7 21l-2 25c-1 10 2 29 0 34zM542 177c7-4 9 2 39 0l102 3c14 3 37 4 45-10 5-10 6-13 1-23-6-14-6-10-13-19-7-10 1-16 1-26l-15 1-9-18c-32-5-45 0-65-3-29-4-18 8-30 18-6 5-37 16-46 34l-8 32-2 12zm619-7l-2-19c-10 0-8 2-14-6-14-19-5-8-3-23 1-9-8-3 4-9l-5-8c-7-12-44-13-57-14-6 18-17 25-36 25-8 0-9-1-16 4-4 2-10 8-12 11s1 1-4 6c-4 4-2 0-7 6-8 9-14 21-6 31 8 11 21 8 36 8 22 0 92 6 107-1 10-5 5-5 14-11zm87 829l6-30c0-13 1-20-2-36l-1-53 3-8-4-2c7-9 4-12 0-21 6-6 5-1 6-12l3-100 2-27-3-28c0-10 3-16 2-27l1-47c2-32-1-51 2-79 4-33 2-65 2-102-9 5-9 11-9 31l-1 35-2 136c-1 6 0 8 1 16 1 37-6 150-6 203l-3 79c1 21-3 26 1 55 2 14-4 5 1 16zm-20-248c-5 9-1 39-2 48l-4 57c-1 18-2 32-1 53 1 12 3 15 2 22-4 22 1 74-2 97-5 54 7 13-2 60-4 20-1 56-1 77h1l2-23c11-40-3-30 2-72 3-23 1-46 3-67 1-14 1-5-2-13-3-10 3-15 3-26 0-41 13-198 1-212z" class="fil1"/>
  <path id="path21" fill="none" d="M418 871c20-7 26-45 26-73-6 4-4 4-6 7-19 36-38 12-56 13-2 9 2 31 5 37 9 25 5-14 38-10zm-34-90c11-4 4-5 14-11 12-7 23-6 34 3 5 5 7 10 10 15l4-14v-16c-2-11-3-16-8-22l-1-1-3-2c-6 7-13 30-26 19-6-5-3-12 1-18l5-8 4-8c-16 0-22 9-26 22-5 17-6 26-8 40zm823-623l-8 25c14 3 9 1 21-1 10-2 10 5 20-3-1-12-4-9-6-10-9-8-1-1-7-10-5-10-11-8-16-19 2-15 4-1 6-19l-8 4-1 1c-16 12-21 9 0 32zm26 458c5-11 4-30 3-41 0-13 3-32 3-50l-1-23c3-30-3-27-3-34l1-23c0-8 7-3-3-6 0 30-7 160-1 178zm92 969c13-8 9-11 13-33v-62l-2-5c-5 5-5 2-6 12l-5 36c0 10 4 5 1 20v32zm-282 28c5-5 4-6 11-6 2-14 1-10 1-22 0-18 10-15 6-29-23 1-19-3-21 4-2 6-5 40 2 52zM769 139l-2 5c12 6 8 12 8 27 27 16 13 6 26 12 8-15 3-20-5-28s-1-9-14-15l-12-1zm492 261c8-16 9-121 0-132-2 23 2 58 0 67s-3 59 0 64zm6 751c11-21 5-77 3-98-1-9 1 1-4-8v55zm-39-400c5-2 7-28 7-35 1-15 5-25-2-38-8 11-6 26-5 38v16c-2 8 0 11 1 19zm-51 814l2 1 4 2c23 6 15-3 31 1l9-22c-10 6-4 13-20 12s-20-2-26 6zm158 20l-2 12c9 5 18 3 27-1-4-6-1-2-8-5-2-10 2-13-6-12-6 0 3 0-6 4zm68-511c9-18 3-21 5-47l-6-6c-2 17 6 14 1 28-1 3-2 2-2 8l1 10zm-267 485c7 4 4 1-1 6 7 4 2 0 7 7l13-7c5 3 3 0 6 5l1-2 3-4c2-4-1-1-7-2-9-1-1 2-8-4l-14 3zM897 179c5-7 10-17 10-24-7 3-20 13-10 24zm445 1216c-8 3-6 1-6 12 0 5-1 17 2 18 4 2 4-21 4-30zm43-1051l2-6 1-34-4 8c-2 6-2 22 2 32zm-137 655c-4 9-3 24-2 35 3-4 6-13 5-25-1-8 0-5-3-10zm15-747c3-4 3 1 2-12v-11c-7-3-6-1-12-5 6 9 4-2 6 12 1 9-1 8 4 15z" class="fil1"/>
  <path id="path23" fill="none" d="M1233 616c-2 3-3 2 0 7-5 7-1 11-1 11l-1 19v1l-1 1-1 2c-2 11-1 9 3 11v-52zM769 139l7-7c-5-2-5-1-7-5l-9 4zm493 44c1-6 3-7 8-11-6-5-2 0-6-7-4 9-10 9-2 18zm81 1164l2-15c-1-11 0-4-2-7-7 10-3 18 0 22zM1148 108l1 2 4 8 4-7c2-4 1 2 2-6zm80 1350c6-2 4 3 6-5 1-4-2-3 2-11-7 5-6 6-7 16zm173-276c6-7 5-7 0-14-3 9-3 7 0 14zm-164-898c3-5 4-7 3-14-5 6-6 6-3 14zm104 1005c4 16 4 11 0 28 4-11 2-20 6-29zm76-830l1 7c4 0 3 3 5-11l-5 4zm0 52c4-6 2-2 2-10l-2-15zm5-66v-22c-3 10-3 13 0 22zm-64 925c4-7 2-8 2-17-3 7-2 16-2 17zm45-296l-2 18c5-6 2-8 2-18zm-46 312c2-8 4-5 1-10-3 5-3 2-1 10zm-12-133c4-2 1-13 0-17zm-77-271c2-3 0 3 2-5l2-7c-4 5-3 2-4 12zm-755 566l-3-2-2-1c1 6-2 7 5 4zm836-343l-4-7c0 10-2 4 4 7zm-110-799c-3-9 0-7-3-4-4 3-1 0 1 2l3 2zm102 970l2-5c-6 1-2-2-2 5zm82-1122c10-3 2 1 5-5zm-86 1216c-2 5 2 0 2 0 1-4-2 0-2 0zm19-59l1-1z" class="fil1"/>
</svg>