<?xml version='1.0' encoding='utf-8'?>
<!-- Generator: imaengine 6.0   -->
<svg viewBox="0,0,959,720" xmlns:xlink="http://www.w3.org/1999/xlink" xmlns="http://www.w3.org/2000/svg" width="959" height="720" version="1.1">
<defs/>
<g id="layer0" opacity="0.8">
<path d="M19,720C23.1,719.5 36.2,720.5 43,720L68,720L94,720L120,720L145,720L171,720L197,720L223,720L248,720L274,720L300,720L325,720C342.7,720.3 321.4,719.2 323,712C319.6,707.3 320.9,693.8 327,697C319,698.2 326.3,710.8 327,714C337.5,717.4 335.8,719.3 341,720L367,720L392,720L418,720L444,720L469,720L495,720L521,720L547,720L572,720L598,720L624,720L649,720L675,720L701,720L727,720L752,720L778,720L804,720L829,720L855,720L881,720L907,720L932,720L958,720C960.8,713.7 959.2,703.5 959,695C964.6,682.8 949.1,688.1 943,687L917,687C909.9,689 900.7,688.3 892,688C885.4,690.2 874.8,688.1 867,689L842,689L816,689C807.6,690 799.4,689.7 791,689C782.4,690.1 774.7,687.7 766,689C759.5,690.3 750.3,689.6 741,689L716,689C713.6,695.8 708.4,699.1 705,705C702,718.5 702.7,696.8 707,696C711.3,686.9 710.5,691.1 702,687C693.7,687.5 686.8,689.1 677,688L651,688C643.6,688.2 634.2,689 626,687C634.9,686.1 637.6,683.5 646,683C654.9,684.2 635.8,681.7 641,671C641.1,663.7 640.4,655.8 633,653C618.6,653.1 632,659.8 622,658C616.8,659.2 597.3,659.1 608,655C609.4,654.8 614.5,655.1 610,654C597.5,653.8 611.7,650.1 608,649C608.6,648 596.7,638.7 608,638C601.6,636.2 591.3,636.7 584,635C576.1,635.5 566.5,636.5 559,635L533,635C527.5,635.4 514.1,631.8 511,637C513.3,650.7 508,637.5 507,631C504.3,627.5 509.7,644 507,648C504.5,642.8 507,631.7 500,630C484.9,630.3 510,629 504,639C508,652.7 501.6,645.3 500,637C497.8,631.5 485.9,634.8 478,633C469.5,633.6 461.2,633.9 453,634L427,634C418.7,634.2 410.4,634.6 402,635C392.4,633.4 390.2,641.1 392,649C396.4,662.2 385.6,659.9 376,659C367.8,659.3 360.1,660.1 352,660C344.1,661.2 345.1,670.8 345,679C351.4,690.8 353.2,676.6 352,670C358.5,667.3 361.9,664.8 372,665C391,663.4 362.9,665 367,662C377.2,662.1 382.9,663.3 390,664C398.4,659.4 397.2,661.7 398,672C401.4,682.2 390.3,688.8 392,675C390.8,672.7 387.9,671.5 377,670C367.5,668.9 359.4,673.4 370,676C368.7,678.5 346.7,679.4 360,681C364.7,681.4 384.7,679.7 374,682C363.6,684.6 384.9,684.2 388,685C387,687.6 374,687 369,689C360.8,689.5 352.6,689.9 344,690C337.1,691.5 326.9,689.9 322,693C318.7,694.7 313.2,709.5 313,702C316.6,696.5 317.9,692.8 322,687C325.8,682.4 328.4,676.4 331,670C333.7,664.5 336.4,658.7 339,653C341.9,647.1 345,641.6 347,635C350.8,630.2 353.4,624.3 355,617C355.4,599.6 355.2,618 352,617C350.9,624.3 348.3,630.3 345,635C342.6,641.7 339.8,647.5 336,653C332.4,657.4 341.8,641.1 339,641C336.5,647.2 334.6,653.9 331,659C330.2,666.7 326.9,671.9 324,678C321.8,684 319.3,690 314,693C311.2,700.9 306.5,706.6 311,694C319.6,685.6 306.6,695 307,700C311.6,709.4 290.7,710.7 300,707C302.6,705 309.5,690.9 301,696C284.3,694.3 305.6,696.3 307,692C301.8,692.5 291.4,692.3 283,692L257,692C250.4,693.5 241,692.7 232,693C224.7,693.6 216.5,693.9 207,693C200.4,695 190.8,694 182,694L156,694L131,694L105,694C96.5,694.6 89.6,693 80,693L54,693L28,693L3,693C-11.7,699.9 20.9,700.8 2,700C-0.7,699.6 -0.1,702.3 0,704C12.1,705.2 -5.7,705.5 1,712C7.8,714.3 18.9,711.9 19,720M25,709C13.7,710.8 13.3,703.2 24,704C31.9,704.2 37.6,700.9 45,701C60.5,700.7 52.9,703.9 43,702C36,703.4 30.5,706.9 25,709M109,691L133,691C142.5,692.3 149.2,690.9 157,691C166,690.8 173.6,691.3 181,691C185.3,689.8 202.3,692.6 199,689L175,689C168.2,689 160,689 151,689C143.9,689.5 134.8,688.5 127,689C122.1,689.9 107.1,689.1 109,691M813,688L851,688C854.8,688.4 859.7,688.9 860,687C885,687.9 843.2,686.7 862,685C864.8,685.7 868.6,684.9 871,685C874.7,685.9 876.2,684.4 871,684C869,682.4 884.6,684.1 887,682C894.3,680 913.5,683.4 907,666C908.6,654.2 907.6,640.5 905,630C907.5,618.5 905.8,604.4 905,594C904.5,591.6 904.8,586.8 903,585C887.3,583.8 896.8,580.2 907,581C904,578.8 886.1,578.8 877,577C867.3,574.7 854.9,574.1 842,573C816.6,572.8 846.2,576.5 852,577C843.8,578.4 818.5,581.3 842,582C858.3,582.8 864,583.6 873,583C880.3,588.6 902.5,579.3 898,595C898.1,595.7 895.8,597 895,595C891.2,600.8 891.8,607.5 888,595C887.3,593.3 886.5,589.7 885,588C870.7,582.3 886,587.5 883,597C885.1,608.9 884.1,622.7 868,618L858,618L851,618C833.4,617.3 855.7,621.4 847,621C833.4,625.2 828.9,614.9 826,604C825.3,603.3 824.3,599.7 822,599C805.1,596.7 815.8,600.6 822,604C831.9,603.2 788.7,600.2 810,603C814.2,603.8 785.8,611.3 788,598C784.9,589.8 788.7,572.5 778,570C783.8,571.8 781.9,591 784,599C782.6,608.9 783.6,625.6 784,634C788,643.8 781.8,664.1 797,659C797.6,657.2 816.8,662.4 823,663C836.6,664.5 848.7,661.5 860,663C864.2,664.3 866.3,663.5 869,663C873.4,663.8 870.6,665.5 868,664C854.9,665.8 866.3,666.5 870,666C869.6,667.3 862.9,668.2 865,668C868.3,669 871.9,666.7 869,669C860.7,669.8 866.5,672.2 862,674L852,674C849.9,674.6 847.8,673.1 846,673C831.1,673.3 858.1,673.1 842,671C829.1,671.6 816.7,672.1 807,675C794.5,677 802,687 813,688M280,677C292.3,676.3 307.9,678.6 315,672C305.5,676.3 290.8,674.8 280,677M422,676C410.8,675.9 422.3,664.4 426,667C442.5,665.4 434.2,668.4 423,668C421.8,669.9 428.7,668.9 428,669C442.7,669 429,670.5 423,670C430.8,672.1 433.6,674 422,676M280,674C292.5,673.9 303.8,673.2 313,671C302.6,672 291.8,673.2 280,674M432,666C422.4,666.6 418.1,664.2 432,664C438.5,664.3 412.3,662.5 426,662C434.9,664.5 439.1,663.5 447,662C446.3,665.1 437,666.4 432,666M219,665C230.2,666.9 228.2,655.5 229,647C228.8,638.2 231.8,628.4 228,622C227.6,628.4 226.6,634.8 225,643C225,652.7 226.7,664.6 219,665M828,665C835.8,665.4 854.1,664.8 852,664C846.1,664.6 824.7,663 828,665M399,656C391.8,641.6 409.5,641.2 417,643C418.4,647 390.8,639.1 399,656M685,653C684.2,648.4 679.3,643.5 676,638C673,634.1 669.9,629.1 666,624C663.5,619.2 660.4,614.2 656,610C653.3,605 649.9,600.3 646,595C643.9,590 640.1,585.6 637,580C633.5,575.9 630.9,570.4 628,565C624.4,560.6 621.5,555.3 617,550C614.2,547.3 612,535.9 608,543C604.3,545.5 617.3,542.8 616,551C619.8,556.4 623.4,561 626,566C629.5,571.1 631.9,576.9 635,581C639.1,586 642.1,591.1 645,595C648.2,601.3 651.7,605.9 655,610C658.7,615.3 662.1,620 665,624C668.5,629.9 671.9,634.6 675,639C678.6,643.9 682.1,649.4 685,653M621,651C631.5,653.1 632.9,646.1 622,647C620,647.2 618.5,647.8 617,648C619.5,650.3 609,651 621,651M265,650C268.3,644.7 269.7,636.2 269,628C266.4,621.2 269.5,612.7 268,604C270.3,596.4 268.8,586.6 268,579C267.1,574.4 271.2,559.9 263,561C259.8,558.4 269.6,570.1 265,577C265.4,586.6 266.7,593.8 266,603C266,611.2 264.4,621.2 266,627C268.3,636.4 265.4,641.4 265,650M401,650C400.9,643.8 414.1,647.3 420,646C427.3,647.4 436.4,646.4 444,646C442,648 429.3,646.8 423,648C417.7,650.2 405.9,646.6 401,650M362,641C380.5,633.6 363.1,644.2 361,633C357.1,615.4 355.1,640.1 362,641M613,637C617.3,638.1 615.9,632.1 617,631C610.3,617.9 621.4,628.5 622,621C622,617.8 625.7,618.5 625,615C628.6,600.1 623,615.1 617,616C608,618.7 594.7,617.4 583,617C572.3,616.5 559.5,617.4 547,617C535.4,617.4 525,615.8 512,616L476,616C465.7,615.1 452.6,616.3 441,615C428.8,616.1 417,615.8 405,615L369,615C353.2,618.6 359.4,599 363,594C364.7,589.3 383.2,575.1 368,583C365.7,582.8 357.2,594.7 346,591C336.6,589.4 328.3,585.6 320,581C313.6,574.9 305.6,565.3 315,579C321.3,586.2 330.5,589 338,592C346.8,597.6 364.8,586.3 356,604C350,621.2 365.8,619.7 376,619C387.7,620.8 400.3,620.1 412,620C424.6,619.9 435.6,620.9 447,621C467.5,621.9 434.1,621.7 428,621L392,621C381,621.9 368.4,621.2 357,622C355.3,623.1 355.5,626.4 354,628C356.2,645.6 354,616.3 363,624C374,626.5 384.7,624.2 397,624L433,624C445.8,625 456.8,626 469,625C481.7,625.1 492,626.8 504,626L540,626C551.3,627.5 564.8,626 575,627C587,627.8 600.1,626.7 610,628C626.9,637.1 600.4,629.6 594,632C597.7,632.5 600.8,632.4 603,633C621.2,634.1 604,636 613,637M614,637C615.3,640.1 616.8,632.8 617,632C611.7,619.2 618.9,626.4 622,622C629.3,611.9 627.1,602.5 618,615C609.5,618.9 596,617.4 584,617C573.4,616.7 560.9,617.2 549,617C536.4,617.5 525.1,615.8 513,616L477,616C466.4,615.1 453.2,616.3 441,615C429.4,616.1 417.7,615.8 406,615L369,615C353.7,619.2 358.9,599.8 363,595C363.9,589.5 383.1,575.6 369,583C365.7,582.5 357.9,594.4 347,591C336.9,589.5 327.7,585.6 320,581C313.6,574.9 305.6,565.3 315,579C321.3,586.2 330.5,589 338,592C346.8,597.6 364.8,586.3 356,604C350,621.2 365.8,619.7 376,619C387.7,620.8 400.3,620.1 412,620C424.6,619.9 435.6,620.9 447,621C467.5,621.9 434.1,621.7 428,621L392,621C380.4,621.9 367.7,621.2 356,622C355.9,624.4 354.7,626.2 354,629C356.7,644.8 353.7,615.4 363,624C374.6,626.3 385.3,624.2 397,624L434,624C446.2,625.2 457.6,625.9 469,625C482.2,625.2 492.6,626.8 505,626L541,626C552.2,627.4 566.5,626.1 576,627C588.3,627.8 601.4,626.7 612,628C626.8,638 596.5,628.5 595,632C599.4,632.1 601.3,633.2 604,633C622.1,634.2 602,636.9 614,637M164,630C176.3,629.9 185.4,628.9 196,630C204,629.9 225.9,630.2 221,628L212,628C195.5,627.3 213.9,626.4 219,626C234,625 206.4,625.4 201,625C192.8,626.2 178.6,624.5 171,626C169.9,629.1 151.8,627.7 144,628C136.3,626.9 109.9,629.6 132,629C143,629.6 155.6,628.9 164,630M855,626C841.2,629.4 839.5,619.5 853,622C866.5,623.3 869.5,625.2 855,626M556,622L516,622C505.2,621.5 489.7,623.2 479,621C493.2,620.4 505.3,622.3 518,621C529.9,622.9 544.9,621.9 556,622M270,621C273.6,611.7 272,597.3 273,585C272.5,572.8 271.9,557.4 282,558C265.6,554.3 272.4,573.9 270,584C271.4,595.6 270.2,610.2 270,621M478,613C489,613.7 501.5,614.5 510,613C532,611.5 503.2,610.5 498,612L465,612C443.4,613 474.3,613.6 478,613M579,613C592.5,612.9 611.4,616.6 618,610C620.4,599.1 612.6,588.6 610,578C605.6,568.7 601,558.1 601,543C601.9,540.2 600.5,536.7 601,533C599.1,514.2 598.5,529.2 599,540C598.3,555.2 601.4,567.2 605,576C609.3,587.1 614.6,595.9 616,608C614.4,609.5 610.6,610.7 608,610C604.9,610.8 579.4,608.8 587,610C591.6,610.2 594.8,611.9 597,611C607.1,614.5 576.5,611 579,613M800,612L793,612C797.1,611.7 794.2,609.4 799,609C797.4,611.5 817.4,610.1 800,612M460,608C473.9,608.5 489.7,609.6 500,607C486.9,607.6 471.7,607.1 460,608M492,606C502.2,606.8 507.2,606.5 516,606C524.5,606.9 539.2,604.9 523,604C516,603.3 506.1,603.3 498,604C490,604.5 482,604 474,603C465.3,603.5 460.2,603.4 450,603C447.5,605.4 424.6,605 442,605C451.4,605 458.7,606.3 467,606C475.6,606.5 485,605.7 492,606M66,604C66.1,603.1 64.5,582.3 60,575C62,576.3 62.7,598.1 66,604M729,600C731.9,600.1 737.3,601.3 736,599C726.7,595.9 750.3,600.5 748,594C755.7,587.9 749.8,575.7 748,568C746.6,556.3 755.4,546.3 746,559C728.4,565.9 744.9,556.2 747,551C754.2,547.6 754.5,531.9 747,529C744.4,522.9 733.6,521.9 732,513C728.4,492 730.5,521.8 727,522C727.2,513.1 724.4,493.2 734,503C729.9,494.3 720.3,500.8 723,513L723,522C738.1,524.2 720.2,526.7 721,521C717.8,512.8 726.9,492.3 721,501C718.2,505.3 722.1,535 718,517C720.3,502.8 718.5,494.3 716,511C719.3,501.2 702,505.9 693,504C683.4,503.3 670.6,504.3 660,504C649.9,501.2 639.6,505 639,513C638.4,524 633.5,530.8 620,527C606.2,525.7 595,530.2 614,530C623.9,526.5 625.4,545.1 635,533C641.1,522.1 643.4,521.3 636,532C635.9,541.8 641.7,549.8 640,559C636.8,567.1 644.3,578.6 645,583C654.2,593.5 653.2,585 662,582C659.1,582.8 659.7,578.1 659,576C658.9,561.5 664.9,571.9 666,572C668.9,565.3 667.7,591.1 673,588C668,583.7 674.5,565.4 663,566C657.3,566.3 665.1,565.2 666,565C673.8,566 671.2,576.8 673,582C677.2,596.9 685.7,584.4 693,586C703.9,587 716.8,585.8 722,590C739.6,596 724.2,592.6 720,596C726.3,597.6 701.4,597.3 698,598C708.2,600 721.8,598.2 729,600M241,599C253.3,595.3 244.1,573.5 249,564C251.3,563.3 257.8,562.4 253,561C244,558.8 244.5,587.6 244,566C257.2,559.1 250.1,546.7 265,549C280.2,549.1 292.4,546.8 303,543C321.6,529.4 301.7,540.2 291,542C282.8,545.8 261.6,545.1 256,545C260.8,535.3 274.8,533.8 286,531C297.2,529.8 313.9,529.6 311,533C309.2,517.1 293.5,530.7 282,530C274.5,536.4 247.8,527.4 248,536C251.8,554.6 243.6,562 228,560C215.9,562.8 202.3,563.8 189,565C177.1,567.9 162.6,569 150,570C137.6,572.6 124,573.5 110,574C90.6,574.8 128,571.2 133,570C145.8,569.1 159.3,568 172,566C186,565.3 199.2,562.9 212,561C214.7,560.9 219.6,560.9 221,559C221.1,558.6 203.6,562.1 196,561C183.8,563.7 169.3,564.8 156,566C143,567.1 130.6,569.2 116,569C103.6,571.6 88.4,572 76,574C58.1,581.8 61.2,562.5 59,550C51.5,531.7 65.2,528.2 79,529C82.4,528.3 86.7,527.6 89,527C103.3,524.6 75.4,526.8 72,527C52.7,523.5 54.7,541.4 57,554C56.4,570.2 63.7,577.4 66,589C70.5,583 87.8,583.1 101,583C115.3,582.3 127.2,579.6 141,579C155.1,578.1 171.9,579.4 183,576C196,574.8 210.2,574.5 223,572C241,574.9 245.9,556.3 242,578C242.2,585 242.8,584.6 243,580C246.5,574.2 246.2,598.1 241,599M377,595C382.2,589.4 386.9,583.4 390,576C392.1,569.8 403.4,563.4 408,567C396.6,566.1 395.9,576.2 390,581C385.1,587.3 376.3,595.9 389,586C398,584.7 409,585 419,585C429.9,586.3 440,584.2 448,585L480,585C491.8,585.1 502.2,586.2 511,586L543,586C555.2,585.7 564.5,587 575,586C584.9,585.5 600.2,588.1 599,590C596.7,582.7 582.4,583.7 574,584C563.6,584.8 554.3,582.7 545,583C533.9,583.9 526.1,582.9 514,582C504.2,582.4 500.6,576.6 488,579C477.4,579.8 469,579.2 459,579C447.3,579.9 441.5,586.4 451,575C460.1,571.9 470.2,574.8 480,573C492.2,572.8 498.4,577.3 509,577C530.8,582.3 493.6,572.1 510,574C516.1,577.2 527.1,583.9 531,580C521.8,571.9 537.8,583.8 546,581C556.9,582.4 566,582 576,581C585,580.6 604.5,587.2 589,581C587.2,580.8 584.1,579.8 582,579C568.7,579.8 572.9,577.6 574,576C567.6,571.2 550.8,570.6 566,577C574.6,582.4 557.5,572.3 550,574C541.7,573.7 533.1,571.9 523,572C513.9,571.5 504.6,573.3 494,571C486.3,571.4 473.4,571.5 463,571C460.9,571.5 457.9,572.6 455,572C444.6,571.3 454.5,571.9 444,576C440.4,580.7 420.3,582.7 437,577C449.6,572.7 447.1,570.1 433,574C434.3,579.7 409.5,583.8 419,579C421.2,576.3 442.4,570.1 432,572C422.2,570.5 417.5,578.1 410,577C428.7,568.9 402.9,578 406,571C414.8,570.1 427.7,570.2 435,569C447.3,569.2 455.2,570 465,570L496,570C507,570.1 519.8,570.2 527,570C537.4,571 550,570.5 556,572C562.5,570 573.2,572.9 583,572C593.1,585.5 586.4,566.7 576,570C565.4,568.9 556.5,569.8 546,568C538.2,569.1 525.7,568.7 515,568C504.3,569.1 494.4,568.6 485,568C475.2,568.8 465.7,568 455,568C444.2,568.5 433.4,568 424,568C402.6,569.1 421.4,564.9 429,567C437.9,567.1 450,567.1 460,567L492,567C501.4,567.4 511.1,567.5 521,567C532.5,567.4 540.9,568.2 550,567C561.6,568.9 570.4,568.1 581,568C588.6,566.6 598.1,585.6 593,570C589,564.5 577.4,565.4 567,565L534,565C524.8,564.4 514.3,564.2 503,564L471,564C459.7,564.7 453.5,563.9 441,563L409,563C397.5,562.5 391.9,567.6 388,575C386,582.8 380,588.3 377,595M91,594C96.8,594.7 121.2,588.8 106,590C105.3,594 73.7,592.1 91,594M732,593C725.8,586.3 720.2,577.7 702,581C700.8,574.2 711.5,570.9 725,572C729.5,571.3 731.9,573.8 733,574C732.7,584.1 736.5,597.9 742,592C740.4,594.3 735.6,592.9 734,592C732.7,590.9 733.4,587.7 732,586C730.9,571.6 729.8,590.9 732,593M192,592C220.2,592.3 180.6,591.1 174,590C160.2,590.2 146,589.9 131,590C103.6,591.8 142.8,591.6 150,591C165.1,591.3 178.6,592.4 192,592M481,590C494.7,590.5 510,591.5 521,590C538.5,589.7 504.6,588.2 498,588L457,588C455.6,588.5 447,589.2 453,589C462.3,590.3 472.5,590 481,590M157,588C168.4,589.6 178.6,587.1 187,588C189.5,588 193.7,588.2 195,588C211.1,588.5 199.3,586.9 190,587C180.5,586.2 171,587.9 160,587L152,587C136,587.9 151.5,588.2 157,588M3,588C13.6,585.8 21.1,580.3 30,576C38,571.5 49,569.7 53,561C46.9,567.6 36.7,570.3 28,574C20.2,579.5 12,584.1 3,588M355,585C363.1,585.1 368.3,582.2 374,579C379,579 381.6,576.4 385,571C388.8,566.8 390.1,559.1 390,552C390.9,542.4 394.9,542.2 398,547C405.1,543.8 400.4,552.4 404,554C413.2,557.3 391.6,555.8 394,560C401.2,559.2 411.3,560.3 417,559C419.2,561.2 401.9,560 401,561L425,561L449,561L473,561C481.6,561.2 488.9,562.9 496,562L520,562L544,562C551.2,563.7 561,562.8 567,563C574.1,563.2 591.5,563.3 577,561C561.4,562.3 570.2,560.6 580,561C587.4,560 598.9,563.5 597,563C597.7,557.4 580.3,561 588,554C594.5,542.8 597,559.9 597,557C597.7,549.3 596.7,542.2 597,533C596.4,526.5 596.5,517.5 596,510C595.3,503.8 596.5,493.7 595,487C595.6,479.8 595.1,471.3 594,464C594.7,456.6 594.1,449.1 593,441C596.4,434.1 584.6,426.2 590,428C585.9,425.2 575.6,426.6 569,425L545,425L521,425L497,425L473,425L450,425L425,425C418.1,425.9 408.1,424.9 402,426C398,426.6 395.6,444.9 396,431C396.7,423.6 406.5,424.4 412,423C420.1,424.4 428.3,424.4 436,424L460,424L484,424L507,424L532,424L556,424L579,424C588.4,423.6 594,426.9 595,432C593.4,442.6 600.7,443.5 610,442L633,442C640.5,441.1 637.3,428.9 639,423L639,399C640.3,393 639.3,383.9 639,376C641,369.6 639.9,359.5 640,352C641.4,346.3 640.6,336.5 640,329C641.7,322.8 641.7,313.7 641,306C641.7,298.6 642.7,291.5 642,282C642.3,275.2 643.9,266.7 641,261C636.9,257.6 626,259.4 620,259C611.9,260.3 604.8,258.5 597,259L572,259L549,259L525,259C517.5,259 509.6,257.9 502,258L477,258L453,258L430,258L406,258C399.5,257.1 390.2,258.2 382,257L358,257C350.7,257.6 340.2,256.1 342,264L342,288L342,313L342,336C341.4,345.3 343.2,352.4 342,360L342,383C342.3,392.2 342.8,399.9 343,407L343,431C341.7,440.8 351.9,439.5 358,439L382,439C391.3,440.4 386.7,427.6 391,424C391,427 389.3,437.6 388,442C388.4,451.4 390.3,458.7 388,465C388.3,472.7 388.4,481.7 387,487C387.2,495.6 387.2,503.7 386,511C386.2,518.7 384.8,526.3 385,533C384.7,541 381.1,546.4 381,554C379.7,559.8 379.3,568.4 371,567C363.5,568.1 354.5,572 361,563C360.6,556.6 354.1,554.2 350,550C352.4,543.6 327.9,548.6 342,548C349.4,546.5 345,563 343,564C338.3,567.9 325.9,558.6 329,563C333.6,566.5 341,568.1 347,568C360.9,570.3 338.1,569.8 336,568C325,563.2 337.4,572 342,570C348.8,572.8 357.9,571.9 365,572C373.1,571.7 381.7,571.3 381,563C385.6,560.4 386.7,552.5 386,545C387.4,538.3 386.8,528.8 387,522C388.4,515.3 387.9,506.6 388,499C388.5,491.2 390.2,484 389,476C390.1,469.1 390.7,460.7 390,453C391,446.2 392,438.2 392,432C394.2,425.2 397.7,420.6 406,421C413.5,423.4 393.7,422.3 396,428C393.9,433.9 393.6,442.5 393,449C392.4,456.2 392.9,465.6 392,471C391.4,479.3 391.6,487.6 390,495C390.3,502.3 390.4,511.4 389,517C390.2,525.9 388.3,533.1 388,540C388.3,547.9 388,556.6 387,562C385.6,569.2 384,575.7 376,576C369.6,577.3 359.6,576.3 352,576C346.4,575.4 337.5,575.3 333,572C326.4,571.6 322.2,566.8 320,561C315.4,563.5 326.8,571 325,572C320.5,570.3 315.5,566.4 316,558C317.5,552 320.2,545.8 326,545C333.6,545 343.1,543.5 349,545C355,556.3 355.7,539.3 347,540C340.7,540.7 331.5,540.6 325,541C318.1,542 316.5,549.3 314,554C312.6,561.1 316,568.6 319,571C325.2,573.9 329.5,577.7 336,578C343,580.3 352,580.2 358,581C358.8,583.5 345.5,581.3 340,581C332.9,581.1 327.2,577.8 322,575C317.2,572.7 313.4,568.4 313,560C309.3,564.5 315,573.8 317,576C322.3,579.1 328.2,582.2 334,583C341.4,583.8 350,584.1 355,585M701,585C681.1,591.7 684,571.6 678,566C681.3,567.2 682.6,569.7 684,571C684.4,581.5 695.1,585.5 701,585M134,585L160,585C167.7,585.2 177.3,583.2 183,585C192.2,585 201.7,585.2 208,584C212.5,584.2 234,584.9 225,583C217.2,581.8 208.9,584.1 200,583C192.5,583.5 182.4,584.2 176,583C167.2,583.7 159.7,581.9 151,582C147.5,583.5 128.3,582.2 134,585M237,583C240.6,584 241.2,569.9 238,577C230.2,577.5 233.6,580.8 237,583M79,582C75,576.6 84.2,574.9 90,576C86.5,576.8 86,581.9 79,582M559,579C553.5,579.1 542.4,579.6 540,576C546.5,576.3 555.7,577.7 559,579M121,578C106.1,576.6 137.2,576.3 140,574C150.7,573.6 161.7,571.9 171,570C182.1,569.6 193.1,567.9 203,567C213.4,565.5 224.9,564.4 234,563C247.6,562.7 220.7,567.2 216,567C205.5,568.3 194.6,570 184,570C174.1,572.2 163.3,574 153,575C143.4,576.8 131.8,577.9 121,578M466,577C474.1,575.7 492.4,578.1 492,576C484.6,572.9 468.9,576.1 466,577M905,574C919.6,573 896.4,569.4 892,570C883.8,569.1 873.6,568.7 865,567C856.5,567.5 847.6,565.8 838,565C830.5,564.6 820.4,564.1 812,563C804,562.2 793.7,561.8 786,560C771.4,563 775.4,554.5 777,546C783.8,535.7 775.2,530.5 766,531C754.1,529.7 756.9,537.1 748,529C749.9,528.5 753.9,544.5 761,538C759.7,529.9 780.8,534.2 777,540C776.6,547 770.1,557.1 774,561C782.7,562.7 792.6,563.5 800,564C810,564.4 818.9,566.1 827,566C835.9,567.3 845.7,568.2 853,568C862.1,570.1 872.2,570.6 880,571C888.7,572.3 897.8,572.6 905,574M907,569C908.1,564.1 902.6,556.1 909,552C910.4,543.7 919.7,550.8 923,550C918.9,548.8 910.4,542.2 908,549C903.3,552.8 899.9,559.2 905,563C905.2,565.6 896.2,558.8 887,561C879.9,562 870.8,562 864,561C857.7,560.3 849.4,559.6 843,558C835.5,558.7 828.3,557 822,556C814.6,555.5 807.2,554.8 799,554C795,554.1 779.3,551.7 782,554C788.7,555.6 797.5,555.8 803,556C811.1,557 819,558.1 825,558C832.4,559.8 840.1,560.2 847,561C854.8,561.6 862.1,563.2 869,563C876.5,563.6 885,564.1 892,563C900,564.7 907.1,565.8 907,569M358,565C348.6,568.3 346.6,559.7 349,554C352,556.1 360.9,559.7 358,565M958,562C955.9,555.6 940.7,554.1 934,549C925.4,544.1 912.9,542.4 907,534C907.4,544.2 923.4,545.6 930,550C939.1,554.8 949.5,558.8 958,562M883,558C888,555 887,539.6 885,535C881.8,535.4 885.7,553.4 883,558M514,556C504.3,557.4 495.1,555.5 485,556C479.3,556.3 456.4,556.6 469,553C480.3,553.1 490.6,553.8 499,554C504.9,553.9 526.5,554.3 514,556M834,554C848.4,554.1 825,552.3 822,551C814.7,551.1 807.1,550.2 799,549C790.3,549.7 781.2,549.1 784,537C784.9,528.9 781.5,523.7 777,518C773.9,518.9 781.6,530.6 782,534C784.6,542.1 777.4,555.7 786,550C795.3,550.6 803.4,552.2 811,552C818.7,553.3 827,553.6 834,554M579,549L534,549C518.7,550.9 504.7,547.6 491,549C476.7,549.9 461.5,547.9 448,549C433,549.3 418,548.8 405,547C394.6,542.3 403.1,521.6 401,509C402,495.3 402.6,480.3 403,467C404.2,464 404.6,460.6 404,456C405.7,456 404.3,489.7 405,472C410.3,461.1 401.3,439.4 412,435L457,435C471.5,436.2 488.1,435.1 500,436L545,436C547.7,436.6 557.7,436 552,437C542,437.2 529.8,436.8 520,437C507,436.5 491.1,437.4 476,437C472.9,437.5 467.9,436.4 465,437C468,437.8 471,438.9 473,438C488.2,438 482.8,439.7 471,439L426,439L415,439C412.5,438.9 408.3,438.8 408,441C410.9,460 405.5,436.1 415,439C428.9,439.5 442.6,440.9 458,440L469,440C477.7,441.4 451.9,440.8 447,441L435,441C429.7,441.7 435.3,442.8 437,442C451.9,443.8 427.6,444.2 425,442C423.2,442.2 417.7,441.7 415,442C407.1,454.9 421.6,449.2 414,454C414,457.7 412.8,460.3 412,464C413.6,466 413.6,470.4 412,471C411.7,487.7 415.7,462.3 414,481C416,485.3 412.2,486.9 415,485C425.6,475.7 422.8,483.5 416,487C410.5,498.5 421,509.2 421,521C421.6,524.7 423.1,527 423,530C431.5,546.1 419.7,512.6 427,532C427.3,534.2 436,536.1 430,536C429.1,536 439.1,539.6 449,537C453.2,537.4 457.1,537.4 459,535C463.8,534.1 459.9,536.9 458,536C441.1,539.1 460.4,538.1 457,540C451.3,540.5 461.5,540.9 463,540C473.6,541.7 484.2,542.2 495,542C499.1,542.3 502.6,542.7 505,543C509.1,542.9 501.6,541.9 501,541C486,540.5 504.7,540.2 509,541L520,541C523.4,541.9 527.6,541.7 528,542C543.9,541.2 536.7,544.2 545,544C547.9,545.6 552.4,545 556,545C561.7,546.7 536.7,544.9 532,546C527.9,547 525.7,545.3 521,545C502.6,547.1 532.6,547.4 536,547C550.5,548.7 567.2,547.6 579,549M736,549C725.9,549.5 718.8,546.3 711,543C704.6,541.4 690.8,539.6 685,543C696.3,542.2 683.5,535.6 694,532C711.6,538.6 687.8,521.8 687,534C685,541.5 680.2,549.1 669,545C661.6,540.8 657.3,540.8 660,534C655.4,521.9 661.8,528.7 672,523C674.8,524 656.8,526.3 662,538C665.8,537.8 665.7,522.4 678,527C689.1,526.9 699,528 707,528C715.3,529.9 734.4,526.9 727,531C716,532.1 728.5,554.5 725,542C721.7,532.3 737.5,528.4 738,531C730,528.8 724.9,550.6 731,538C737.8,532.7 748.4,532.7 745,536C750.1,536.1 743.7,551.3 736,549M659,544C648.4,546 640.6,540.2 643,530C651.6,515.6 638.5,544.4 649,529C659.4,539.3 653.6,517.5 657,536C656.6,532.9 647.3,543.3 659,544M730,544C733,540.2 740.8,538.1 743,536C737,535.2 730.7,538.8 730,544M670,543C680.9,543.8 683.9,535.2 685,528C674.9,528.1 666.4,530.6 666,540C667.2,535.2 675.2,528.6 684,530C680.2,532.3 665.4,535 670,543M258,540C252.8,538 248.1,534.7 251,534C259,534.2 269,535.6 258,540M324,537C338.9,537.7 347,531.2 356,527C359.9,527.5 362.6,526.7 366,527C376,523.1 383.9,542.8 378,528C369.2,521.5 352.6,525.5 345,529C343.4,531.3 340.8,532.2 337,532C335.8,534.1 333.9,531.3 331,531C345.6,530.9 336.3,529.2 328,528C311.1,534.9 313,518.3 304,513C303.2,505.8 276.9,502.8 282,506C296.8,506.5 304.4,513.7 309,521C304,536.2 340.4,528.3 324,537M377,537C379.2,525.6 353,529.4 347,534C349.9,536.8 371.8,524.7 377,537M777,532C775.5,526.9 758.2,529.4 750,525C743.3,520.3 739.9,511.3 733,505C735.9,513.2 740.6,522.2 747,527C754.4,533.2 769.8,527.3 777,532M422,531C420,521.7 417.6,507.8 413,498C415.4,509.2 418,522.8 422,531M192,530C204.1,530.7 214.4,529.2 224,529C233,526.8 243.2,525.2 251,523C239.4,522.2 231.2,525.9 222,527C212.1,527.7 201.6,529 192,530M113,529C129,530.6 141.1,527.6 154,527C167.2,525.9 179.5,524.1 192,523C205.5,521.6 219.8,520.8 230,518C233.8,511 267.8,523 243,515C242.2,513.5 236.7,514.1 235,513C236.5,514 211.4,521.9 223,516C235.6,515.1 226.2,493.2 229,481C228.2,468.4 229.5,452 228,439C228.8,425 227,412.7 227,397C224.9,386.3 230.6,365.4 221,360C209,359.3 193.8,360.3 180,360C166.9,361.2 150.8,360.3 137,360C124.8,362 105.8,357.2 104,370C102.3,382.2 104.1,399.1 103,412C104.9,424.8 103.8,440.1 104,453C104,468.3 104,483.5 104,496C105.1,510.1 102,527.3 113,529M642,527C640.7,524.8 648.9,516.1 652,515C649.6,510.4 645,517.5 645,509C650.7,505.6 661.5,510.4 669,507C679.8,508.4 684.1,505.9 694,507C701.2,507.5 720.1,506.3 709,512C704.2,517.8 693.7,512.8 685,514C684,510.3 658.9,513.5 673,513C666.8,516.5 685,515.9 691,516C695.6,517.2 717.3,515.9 709,518C701.7,517.8 692.1,518.4 684,517C679.4,517.7 655.7,516.8 669,518C678.8,518.8 687.1,519.6 695,520C702.2,518.5 721,521.7 712,522C705.3,521.3 695.2,522.3 686,522C678.2,521.3 670.2,520.4 660,520C652.3,518.7 642.8,519.8 642,527M119,527C111.3,527.6 107.1,522.8 107,515C106,509.2 107.1,500.4 106,493C107.3,484.6 105.9,477.1 106,469L106,446L106,423C105.7,415.6 105.1,408.6 105,400L105,377C107,371.9 107.1,362.5 115,365C107.5,365.4 107.9,374.8 107,381C107.7,388.5 106.6,397.4 108,403L108,427L108,450C109.3,457.2 108.3,467.1 108,473L108,496C108.4,504.9 108.8,512.2 109,518C106.7,526.9 125.7,523.6 119,527M266,527C269.1,524.3 267.4,511.6 268,505L268,482L268,459L268,435C268.3,427.8 266.8,420.3 267,412L267,389C266.1,383.1 267.1,374.5 266,367C265.6,360.5 266.5,352 266,344C264.9,348.8 264.7,359.2 264,365L264,388L264,412C265.9,419.4 265.4,427.6 265,435L265,459L265,482L265,505C266.2,512.3 264.3,522 266,527M270,527C275.4,522.1 272,508.8 273,500C272.8,490.7 273.9,479.7 272,471L272,441L272,412L272,383C272.3,373.6 273,363 271,354C272.3,344.7 272.3,334.9 275,328C281,315.3 284.4,332.6 286,336C287.4,345.4 288.9,353.8 289,363C290,372.4 289.9,382.4 290,391C293.6,408.4 292,384.2 291,379C291.7,369.2 290.4,359.9 289,351C288.9,342.8 287.4,334.5 284,327C276.8,315 289.6,328.7 288,334C291.3,341.5 291.8,350.8 293,359C294.4,367.7 294.8,377.8 295,385C296,394.8 298.6,403.8 298,411C302.8,404.4 297.2,395.2 297,386C296.1,378 296,361 298,379C301.7,376.1 301.5,392.5 304,397C309.2,408.4 302.1,388.3 302,383C301.6,374.4 298.7,367.5 297,359C295.7,350.8 294.8,341.9 292,334C290.1,327.1 287.5,319.1 279,318C271.8,319 267.2,331.5 271,329C268.2,335.9 267.9,345.5 268,355C267.8,365.6 268.5,374.8 269,383C269.6,393.1 270.5,402.9 270,412L270,441L270,470C270.2,480.2 271.1,489.2 270,499C270.2,508.8 271.2,520.5 270,527M894,526C908.1,530.4 906.5,517.7 906,508L906,478L906,448C907.7,439.4 906.7,427.3 907,418L907,388C906.3,378 909.3,367.6 905,360C899.2,357.2 887.1,358.3 878,358L848,358C839.7,357 828.1,357.6 819,357C809.3,357.7 797.3,356.8 789,358C782.3,360.9 785.3,375 784,383C783.9,392.6 785,403.5 783,412L783,442C782.3,450.9 783.4,463 783,471C783.3,481.3 782.8,494 783,500C781.1,508.4 795.1,515.9 793,511C784.6,511 784.5,500.2 784,490C786.3,481.9 785.2,469.7 785,460L785,430C786.8,422.1 786,411.4 786,401C787.5,393.1 786.6,381.1 786,372C783.6,359 795.3,359.6 804,360C815.5,359.4 824.7,361.2 834,360C839.6,360.1 866.2,360.9 847,361C842.6,362.5 848.8,362.8 850,362C866,361.7 850.9,365.7 845,364C836,364.9 824.1,365.2 822,370C835,369 831.5,366.9 826,377C824.7,388.6 831.1,392.1 838,394C850.2,396.7 853.7,389.1 855,381C861.9,369.6 840,368 858,370C864.5,376.1 860,389.6 856,392C852.5,398.9 842.5,398.7 833,399C824.5,400.5 817.5,404.5 811,408C806.8,413.1 801.1,418.4 798,424C795.7,431.9 794.3,442.7 795,451C797.9,459.2 801.9,466.2 806,470C811.4,476 817.4,481 824,482C831.8,485 842.7,487.4 851,485C858.7,482.9 867.7,480.9 872,476C878.7,472.8 881.9,466.2 885,459C888.1,452.5 889.3,441.9 887,433C886.5,425.9 878.2,419.6 879,414C885.7,417.7 889.4,425.1 891,432C893,440.2 892.8,452.4 889,458C887.6,466.3 883.3,472.9 878,477C873.6,482.5 865.8,485.7 858,487C849.4,489.3 834.7,490.6 853,491C856.8,494.2 837.6,493.2 831,492C823,491.3 812.4,490.9 802,491C790.8,496.6 806.3,503.4 813,502C822.5,502.8 832.7,503.6 840,504C845.9,504 870.1,507.1 853,507L846,507C830.9,504 847.6,512.3 835,513C835,514.5 828.8,512.6 832,514C843.5,515.8 841.9,520.1 831,517C823.6,515.8 812,516.3 803,515C795.2,514.1 784,515.4 782,507C776.9,503.7 764.3,502 757,504C761.9,505.2 776.3,505.2 780,509C782.6,516.9 791.8,518.8 801,518C809.8,519.8 819.3,520.2 826,522C827.8,524.1 831.1,523.4 832,524C847.4,524.6 827.5,522.8 826,520C811.9,516.1 835.4,521.5 838,522C848.8,522.2 858.3,523.7 867,523C875.8,525.2 885.3,525.5 894,526M131,525C126.3,521.7 113.2,525.8 111,518C111,510.3 110.2,501.3 110,493L110,466C109.2,458.7 110.3,447.9 109,440C109.9,431.4 110.2,422 109,414L109,387C110.1,379.5 106.8,367.1 115,366C125.3,362.8 133.1,367.9 118,368C108.9,366.9 111.8,380.4 111,387L111,413L111,440C113.2,447.7 112.1,458.6 112,466C112.5,475.1 112.2,484.4 113,492C113.5,500.8 112.4,511.6 113,518C115.4,523.2 133,521.9 133,520C138,523.4 142.6,525 131,525M124,518C103.1,517.8 149.7,515.9 126,516C121.3,515.4 129,514.4 129,514C143.8,514 131.5,519.4 124,518M428,514C427.2,504.4 423,493.6 424,483C425.1,492.2 427.9,504.5 428,514M123,513C123.8,501.9 122.5,496.6 131,495C116.5,502.4 133.7,499.7 142,498C145.2,498.7 148.2,497.6 149,497C165.5,497 156.9,498.9 147,499C138.6,500.9 125.3,498.4 124,508C133.4,511 145.3,507.7 154,507C159.4,507.7 187.2,505.1 171,507C162.4,509.5 151.2,510.2 142,511C138.9,510.6 136.5,512.2 134,511C124.2,519.4 122.2,501.3 123,513M884,512C874.4,515 891.5,506.7 887,498C882.6,491.6 885.5,483.1 892,482C901.8,484.1 894.8,498.6 896,505C888.5,505.2 888.3,501.4 884,512M208,508C191.9,510.8 217.4,507.5 212,498C215.1,491.1 214.9,479.9 216,472C218.3,454.8 217.8,483.1 216,485C216.6,495.9 214.1,504.5 208,508M222,500C219,491.4 221.3,476.2 220,464C222.6,474.9 221.3,489.1 222,500M173,489C170.7,486.1 177.6,483.2 187,481C194.4,478.4 200.7,473.3 203,466C208.1,460.3 211.2,452.7 210,441C210.6,431.5 207.2,423.5 202,418C211,416.4 213.6,427.3 214,435C215.3,446.9 214.3,457.3 210,462C206.9,470.3 203,477 196,480C190.2,485.4 182.7,489.4 173,489M850,481C833.9,481.6 838.2,479.6 850,479C859.3,479.2 865.8,475.5 871,472C879.3,462.6 877.4,468.7 870,473C865.5,478 857.7,480.4 850,481M172,479L164,479C163.6,478.9 159.5,478.5 162,478C172.9,477.4 152.8,475.3 165,475C176.2,476 184.2,473.1 189,469C196.4,465.8 199.3,458.3 201,450C204.2,441 201.4,430.6 197,426C185.6,417.8 195.9,418.3 200,426C204.7,432.1 206.8,443.4 204,450C202.8,459.3 198.9,465.7 193,470C187.9,475 180.6,478.7 172,479M847,477C834.8,477.3 825,474 818,469C812,463.6 805.8,457.9 804,446C802.8,434.9 807.6,426.3 812,419C818.8,414.1 826.6,409.8 837,408C850.5,406.9 858.9,411.6 865,416C871.5,422.4 878.1,427.7 879,438C881.6,450 877.4,459.8 871,465C866.3,472 858,475.7 847,477M118,475C117.7,465.2 116.6,454.9 117,444C117.5,439.2 115.8,441.9 116,444C115,443.2 116.1,431 115,424C116,414.2 114.4,404.4 115,394C116.8,385.7 109,368.4 122,370C123.9,370.1 128.2,370.2 129,370C123,366.6 141.2,364.7 134,367C128.7,366.6 134.9,369.4 136,368C140.4,368.8 126.5,370.9 136,372C136.6,377.5 133.4,374.9 129,384C128,391.7 129.9,415.7 130,394C130.5,367.7 132.9,409.6 133,387C134.4,388.2 133.1,395.7 134,393C135.6,382.7 136.5,401.1 133,403C131.9,404.1 131.4,406.6 132,407C139.5,400.4 139,406 142,403C135.8,410.5 151.8,402.7 137,412C132.3,417.2 126.8,423.1 123,429C120.7,437.2 120.8,448.6 120,458C121.1,480.9 119,462.1 118,453C117.6,444.7 118.6,470.5 118,475M837,475C849.7,475.8 858.6,472.5 865,468C871.2,463.3 877.5,457.3 877,446C878.8,436.3 874,427.5 869,422C862.9,417.3 856.5,411.5 846,410C836.3,409.2 825.8,413 820,417C812.8,421.1 808.7,429.2 806,437C806,449.9 809.8,458.3 815,463C820.1,469.9 828.8,473.4 837,475M170,473C162.1,474.3 155.4,473.3 152,468C147.1,465.2 148.6,459.5 145,453C143.1,451.4 150.5,436.9 147,447C149.7,450.7 149.4,460.6 154,462C158.8,466.8 168.3,463.7 172,462C178.8,460.4 182.1,456 184,450C186.8,445.1 184.5,436.9 183,430C183.2,425 173.4,423.7 167,426C163.1,425.1 151.9,434.2 156,428C168.2,422.5 156.5,427.6 156,425C161.5,423.3 156.3,421 167,419C175.2,418.7 181.9,419.8 187,422C193.2,423.9 195.3,429.6 197,435C199.5,441.2 199.5,448.5 197,454C195.1,460 192.3,464.9 187,467C183.2,471.2 176.5,472.2 170,473M847,473C837.6,475.3 822,467 837,471C847.8,472.3 863.9,469.1 847,473M844,471C840.9,471.6 838.2,470.8 835,470C815.4,465.6 844.5,468.8 831,464C837,466.6 833.5,463.9 831,462C836.8,466 845.8,459.7 851,457C855.6,454.5 851.3,456.5 849,457C837.9,463.5 842.1,453.4 846,448C838.3,425.3 867,445.8 855,433C845.3,420.8 852.7,422.9 853,421C839.8,411 866.7,421.3 866,427C874,431.4 876.2,449.1 870,457C865.8,465.7 856.3,469.5 844,471M138,466C133.2,462 131.7,454.6 131,446C131.8,438.1 135.1,431.6 138,426C139.3,429.7 132.9,437.7 133,444C133.1,453.5 135,461.4 138,466M275,460C274.3,451.1 286.8,455.9 291,453C299.2,452.8 305.8,451.8 312,450C318.5,449.7 328.5,450.2 328,444C327.2,438.5 325.4,432.5 322,427C320.9,421.6 319.2,415.6 316,410C315.1,404.3 311.5,400.2 309,394C307.9,388.3 307,381.5 305,375C304.8,368.6 300.9,363.9 300,358C297.6,347.5 299.9,366.3 301,368C303.3,374.2 303.3,382 304,388C305.4,395.3 308,400.4 309,406C312.3,411.5 313.1,418.5 315,423C317.6,429.4 318.9,435.8 320,441C327.3,447.8 311.3,443.2 307,446C300.6,447.2 295,449.3 288,450C281.3,450.7 272.7,450.6 275,460M279,444C282.9,440 282.4,431.4 282,423C284.1,417.1 284.3,408.3 286,403C287.6,397.4 288,386.8 286,381C286.8,373.3 286.9,364.2 285,358C284.1,360.9 285.2,373.4 284,379C284.4,388.2 286.6,395.9 284,401C281.8,407.2 281.4,415.9 280,421C279.8,429.1 279.4,437.6 279,444M874,437C872.5,432.4 869.2,426.7 865,423C861.9,419.2 855.4,416.7 850,414C857.7,415.2 861.8,420.2 865,423C870.1,426.7 873.9,431.8 874,437M172,399C161.4,402 150.1,393.2 167,397C177.3,396.8 181.1,389.6 181,380C181.1,378.2 182,374.7 180,374C169.7,372.7 190.9,372.7 185,381C184.3,391 179.7,397.5 172,399M163,381C160.1,377.7 172,374.8 174,377C170.8,381 170.5,381.5 163,381M632,378C631.5,368.8 632.2,356.3 631,346C632.9,336.7 632.6,325.7 632,315C633.7,305.4 633.1,294.1 633,283C633.2,280.9 634.4,277.9 633,275C641,263 619.9,269.1 622,266C639.3,260.5 635.4,274.1 635,284C635.8,296.2 634,305.1 634,316C634.8,327.3 633.2,336.4 633,347C633.1,357.8 633.2,368.6 632,378M349,375C346.1,371.5 347.5,356.8 347,347L347,314C345.7,319.5 347.4,335.8 345,343C346.2,349.8 345.7,378.6 345,357C345.6,346.9 344.5,334 345,325L345,292C346.3,282.1 344.6,268.6 347,261C357.3,260.5 368.7,261.2 379,261L412,261C417.5,260.9 447.8,260.9 428,261L396,261C384.6,261.1 374.6,262.9 363,262C349.7,260 344.5,264.7 348,278C348.6,289 349.5,300 349,310L349,343L349,375M441,263L418,263C411.1,263.2 402.5,264.1 396,262L419,262C426.5,263.3 435.1,262.4 441,263M516,262L489,262C477.5,263.6 472.1,261.8 487,262C496.6,262.3 506.7,262.6 513,261C526.3,261.3 530.9,262.3 516,262Z" fill="#F4F0ED"/>
</g>
</svg>
