<?xml-stylesheet type="text/css" href="../css/styles.css" ?>
<svg xmlns="http://www.w3.org/2000/svg" width="280" height="290" viewBox="0 0 280 290" class="cogs" version="1">
  <path fill="#2f2222" d="M158 240c-9 2-29-2-26 6 10 0 29 4 26-6zm-19-130c10 13 29-9 30 7-5 10-7 23-10 34l-5 41c-2 13 5 36-9 36-17 3-9-22-14-32 2-15-2-26-4-40-2-12-5-25-9-37-10-19 13 4 21-9zm15-18c4 2 9 16 0 16-12 0-3-12 0-16zm13-9h1c9 2 2 13-2 13-6 0-5-13 1-13zm-26 0c10 0 5 11 1 14-6 1-11-12-3-14a16 16 0 0 1 2 0zm4-50l12 1c10 3 20 6 26 11 9 6 14 13 20 18 5 9 10 17 12 26 3 10 4 26-1 33-2 10-8 18-13 25-3 9-8 17-13 24l-10 28c1 14-1 26-12 27-12 1-3-21-6-31l4-33 7-31c0-13 14-14 9-26 2-11-19 9-5-10 9-7 2-24-11-18-11 11-10 0-25-1-14-1-12 18-7 23 8 15-20 9-11-2 7-9 3-22-9-20-13 3-2 17-8 25-2 10 9 14 9 24 4 10 5 22 8 30 0 14 5 22 3 35 2 10 3 27 0 35-14 2-17-9-18-22 0-11-4-19-7-30l-15-23-13-25c-5-8-3-20-3-33l11-26c6-6 11-14 19-19 7-6 16-9 25-13zm-4-7a35 35 0 0 0-7 0c-11 3-21 5-29 9L83 51c-6 7-11 15-15 22-5 8-6 23-6 31-2 13 2 23 6 30l14 24c4 9 10 16 12 25 7 7 5 21 6 32 4 9 11 18 7 27 3 10-4 22 5 27 15-3 12 13 22 15 14 2 27 1 25-14-5 0-12 16-25 6-9-10 17-5 22-10 14-9-10-3-19-3-10 2-34 0-13-5 3-1 1-6-2-5-19 0 6-5 0-9-19-5 9-9 17-7 9-3 22-3 31-2-3 8 6 20-16 15-22 3 0 10 12 6 2 3 2 19 12 2v-30c7-6 6-19 7-31l11-27c4-8 10-15 14-24 5-7 10-15 12-25 5-10 2-23 0-34-3-9-7-17-12-26-5-6-11-13-19-18-6-6-15-9-25-13-8-1-16-4-25-4z" class="lightbulb"/>
  <path fill="#fcfce5" d="M72 215c-5-1-9-8-10-18a90 90 0 0 0-9-36 185 185 0 0 1-11-17l-5-9-7-13c-6-11-6-11-6-26V83l2-7c5-12 7-17 13-23l8-9c9-9 26-18 37-19 13-3 22-2 32 0 18 6 26 11 38 24 6 7 9 11 13 19 6 15 8 33 3 42l-1 5-8 16-7 11-7 13-11 26-2 14c-1 6-1 11-3 14-3 7-12 9-15 4v-10a434 434 0 0 0 2-30l1-14a351 351 0 0 1 8-41c1-3 2-5 6-9 3-4 4-7 4-10-1-7-1-7-3-8l-4 1c-3 2-4 2-4 1l6-9c2-2 3-5 3-8-1-10-11-13-17-7l-5 3-7-2c-6-3-8-4-13-4-6 0-9 4-9 12 0 4 1 7 3 11s2 6 1 8c-4 3-13-1-13-6l2-3c2-4 3-7 3-11s-1-7-4-9c-4-2-11-1-14 3l-1 7c1 8 1 10-1 13-2 4-1 7 4 13l4 10 2 7a269 269 0 0 1 10 93l-1 2h-2zM95 86c-2-2-4-5-4-8 0-1 0-2 2-3 1-1 1-2 4-2s3 1 4 2l1 4c0 2-1 5-3 7zm25-1c-2-2-2-8 0-11l3-1c5 1 6 4 3 9l-4 4zm-14 12c-3-1-2-7 3-13l1-2 1 2c2 2 3 4 3 8l-1 5-4 1zM95 218l-4-4c-1-2-2-6-2-15l-1-10-1-10-1-15a1136 1136 0 0 1-6-32 196 196 0 0 0-8-29c-1-1-1-1 2-1l6 1c6 2 11 2 14-1v-1l2 1c4 3 8 3 16 1 9-2 11-2 12 2 1 1 0 2-1 5l-6 21-5 26c-3 25-3 27-3 40s0 15-2 18l-2 2z" class="lightbulb__fill" filter="url(#a)" transform="matrix(1.11988 0 0 1.02774 34 7)"/>
  <path fill="#faf578" stroke="#cca958" stroke-linejoin="round" d="M154 195l3-24c2-20 6-39 10-50 3-5 2-8-1-10-1-1-3 0-8 1-10 3-15 2-18-1h-3c-3 3-6 3-12 2-7-2-9-2-10-1l2 5a247 247 0 0 1 14 80l-1 2-2-2c-3-3-4-4-4-11a519 519 0 0 1-3-27 296 296 0 0 0-13-46c-4-6-5-9-3-14l1-9 1-9c2-4 10-5 14-2s4 11 0 17l-2 5c0 4 8 9 12 6 3-1 3-4 0-9-2-6-3-12-1-16 2-7 9-7 20-2 7 3 7 3 12-1 8-6 16-2 16 8 0 3 0 5-3 8l-5 8 5-1h4l1 6c0 5 0 6-2 8l-7 11a379 379 0 0 0-12 71l-6 4zm2-87c2-1 3-4 3-6l-3-9-2-2-2 3c-3 4-5 9-4 11 0 3 5 4 8 3zm-12-12l3-9c0-4-5-6-9-4-3 1-3 2-3 5 0 6 5 11 9 8zm25-2c3-3 4-7 3-9l-4-2c-2-1-3-1-4 1-2 3-2 9 0 11 1 2 2 2 5-1z" class="lightbulb__wire"/>
  <filter id="a">
    <feGaussianBlur in="SourceGraphic" stdDeviation="8"/>
  </filter>
</svg>