<?xml version='1.0' encoding='utf-8'?>
<!-- Generator: imaengine 6.0   -->
<svg viewBox="0,0,720,959" xmlns:xlink="http://www.w3.org/1999/xlink" xmlns="http://www.w3.org/2000/svg" width="720" height="959" version="1.1">
<defs/>
<g id="layer0" opacity="0.8">
<path d="M217,959C232.5,962.6 221.8,949.2 218,947C213.6,943.8 210.5,937.1 208,931C205.4,925.7 201.6,919.7 198,914C195.7,908.9 194.1,900.5 193,896C198,898.1 204,903.4 207,907C211.1,912.3 216.7,916.5 219,921C223.1,926.7 229.2,930.4 231,936C235.4,940.8 237.3,948.6 238,955C239.1,956.9 238.7,961 241,959C244.9,953.6 248.8,964.8 247,954C245.3,947.5 242.7,940.3 239,936C236.1,930.3 232.4,924.3 227,921C223.8,916.3 219.7,910.6 215,907C213,900.7 205.4,898.5 202,893C197.2,890.2 192.7,884.9 189,880C184.4,874.8 190.8,866 191,860C193.8,854.3 197.7,848.4 199,842C202.7,836.5 203.8,828.7 205,820C207.1,814.3 209,806.4 212,801C215.7,796.5 219.3,790.3 223,786C226.4,780.8 230.9,775.6 232,768C234.6,762.7 236.2,754.5 236,747C239.2,741 252.7,744.6 258,742C266.5,741.9 274.7,740.3 280,738C287.7,736.7 294.7,733.9 301,732C307.7,730.3 314.7,727.6 318,723C324.8,721.1 327.9,714.4 331,710C334.7,704.6 338.1,698.2 337,689C338.1,680.5 334.9,673.9 333,667C330.1,663.4 323.9,656 327,649C332.5,645.2 337,640 339,634C345.3,627 327.8,618.8 338,621C345.2,620.3 350.1,612.4 346,605C344.9,597.7 344.9,588.9 348,583C352.1,578 361,577.1 366,574C372.8,572.4 378.2,568 381,563C384.6,556.1 381.2,546.1 378,541C375.5,536.4 371.3,530.8 368,525C364.3,521.2 359.9,515.8 356,511C351.7,507.4 348.4,501 343,497C340.6,492.2 335.1,487.9 332,482C329.6,478.3 325.2,467.5 330,463C333.6,462 349.6,454.8 338,456C334.1,456.7 322,468.8 327,460C334.6,458.1 330.7,445.6 329,441C327.6,433.8 325.1,426.6 322,421C319.6,415.5 316.4,408.9 313,403C310.3,398.4 308.3,390.7 305,385C303.3,379.1 300.6,372 298,366C297.8,361.4 289.8,350.8 293,351C302.3,351.3 308.2,353.8 313,356C320.1,357.8 326.7,361 333,361C347.1,363.6 326.4,358.5 324,357C322.4,355.4 304,349.5 315,351C322.1,353.9 329.1,356.7 335,358C343.4,359.9 352.2,359.2 358,357C366,356 369.3,349.6 371,343C372.6,337.6 379.3,330.8 378,326C379.8,319.6 380.2,310.3 383,305C386,289.1 379.5,304.9 379,309C377.1,316.4 375.7,324.7 372,329C371,336.7 369.1,344.5 365,349C363.1,355.1 354.3,356.1 347,356C340.9,355 328.6,355.9 328,350C334.9,352.7 343.6,353.7 351,353C359.8,352.7 364.2,348.1 366,341C371.6,327.4 364.8,340.5 360,342C348.7,352 364.8,342.3 364,343C362.6,349.3 353.2,351.8 346,350C339.4,348.7 331,347.4 325,345C319.9,341.9 315.5,336.5 311,333C315.5,332.8 320.4,340.8 325,342C331.6,345 340.4,346.1 347,346C355.3,345.3 360.4,340.7 363,336C368.4,330.2 370.6,334.6 372,323C374.5,316.9 376.9,309.6 379,304C381.3,297.3 383.5,289.8 383,281C385.9,274 375.1,263.6 379,276C383.6,286.8 379.2,294 378,279C375.7,272.6 376,265.6 374,258C373.3,251.3 369.7,245.1 367,239C363.4,234.5 356.1,232.8 349,230C341.3,219.5 347.4,235.6 352,235C357,240 363.3,243.4 365,248C368.8,252.3 366.8,270 369,268C370.4,260.5 367.1,245.7 370,260C371.4,267.7 371.7,275.6 372,282C374.7,290.5 371.7,298.9 371,306C369.3,312.4 365.1,318 361,322C363.8,325.5 353.2,330.4 347,331C339.2,333.6 331,330 324,329C315.8,329.2 319,316.3 316,311C317.8,301.4 312.9,302.5 312,292C311.8,284.5 310.2,276.3 310,268C311.5,260.1 313.1,250.2 306,248C312.9,248.5 319.7,259.2 312,248C301,241.1 308.9,254.5 307,261C308.5,269.5 308.4,278.5 309,286C309.8,294.8 310.8,303.6 313,309C315.4,315.6 317.3,323.5 318,329C323.5,333.8 334.9,332.2 340,334C348.8,333.7 356.6,331.7 360,327C365.7,324.2 369.3,318 371,312C374.5,306.6 375.9,298.3 376,291C381.9,283.2 377.4,303.8 376,306C374,311.4 370.5,319.2 369,323C367.5,330.5 362.6,335.4 358,338C354.2,343 344.1,344.7 336,342C327.6,339.7 351.9,343.1 352,339C359.2,337.6 363.6,332.3 366,327C367.6,319.5 360.2,335 356,334C352.8,339.6 341.9,338.5 335,340C325.6,341.4 320.7,336.4 316,333C316.6,331.8 325.1,339.8 333,338C341.9,335.5 320.8,335.8 319,333C314.4,331.6 315.5,314.8 312,317C315.3,331 311.4,330.5 310,318C308.1,312.6 307.3,303.6 306,297C304.8,289.5 304.2,280.3 301,275C298.6,260.3 300.6,283.3 300,286C298.9,302.2 296.4,288.9 297,280C296.1,272.4 297.2,262.2 300,257C304.7,254.5 307,238.5 301,250C295.4,257.4 292.3,260.5 295,251C284.7,260.1 294,249.5 296,245C297.4,241 285.1,249.8 289,239C282.6,247 286.6,231.9 289,228C294.7,223.5 295.5,211.4 289,223C286.2,228 283.5,235.2 280,240C277.9,254.6 274.2,240.8 278,234C280,227 284.7,221.9 287,216C291.4,212 299.5,207.8 304,213C291.5,215 308.3,217.7 312,214C322.6,209.3 326.2,227.1 325,219C329.3,220.6 330.7,232.2 332,237C333.4,240.5 336.7,261.4 336,248C335.6,242.1 332.4,224.7 336,237C338.7,241.7 345.3,245.5 349,248C353.8,248.8 340.3,234.4 351,244C353.9,249.8 364.3,257.7 356,247C353.7,241.9 347.6,238.2 344,233C341.1,228.1 340.6,218.9 337,214C332.8,210.1 329.4,203.6 322,203C315.3,204.5 304.4,202 299,201C292.5,203.5 287.9,208.6 283,212C280.1,217.7 279.7,226.3 277,233C274.7,237.7 276.1,252.6 271,250C270.9,241.6 272.6,233.6 274,227C275.4,219.8 278.1,212.7 282,209C286.5,204.5 288.1,196.3 293,193C305.8,187.1 288.8,192.3 287,196C283.9,201.3 280.9,208.1 277,212C273.8,217.6 273.6,227.1 270,231C267.6,237.7 264.5,244.4 264,252C265.6,260.6 269.2,266.8 270,273C271.7,280.9 271.3,291 276,293C279.4,299.5 281.3,307.4 283,313C288.1,327.6 280.8,317.4 279,311C276.9,296.6 275.8,305.6 279,313C281.1,320.3 284.6,326.6 289,329C293.7,334.1 300,337.6 306,339C319,344.8 306.5,343.7 299,340C291.6,340 288.1,333.7 283,330C281,324.2 274.6,320.8 273,313C272.5,306.3 270.5,298.6 267,293C266.1,289.3 259.3,274 262,288C265.3,290 271.1,307.8 265,297C262.6,291.2 257.2,286.8 257,278C256.8,274.6 258.7,254.5 256,271C254.7,271.6 254.7,256.4 252,252C251,245.6 249.7,237.1 248,230C247.7,216 243.8,224.9 239,220C237.6,224.1 240.9,238.3 236,223C232.9,234.2 234.1,214.7 229,224C229.1,205.8 226.4,239.5 225,224C225.5,215.1 223.6,207.3 221,201C219.5,194.7 216.1,188.5 211,185C208.5,184.6 217.2,194.5 217,199C214.1,197.9 219.9,216.9 216,208C214.6,205 205.8,190 209,201C212.7,206.8 214.4,214.9 216,220C220.1,224.9 221.1,237.1 217,241C217.1,233.5 211.3,240.2 214,250C216.5,259 215.2,270.2 212,256C208.6,251.7 208.8,238.6 206,242C199,249.9 199.6,244.9 194,250C190.6,255.3 187.1,261.6 185,267C181.5,272.5 178.7,279.5 174,283C172.4,286.9 160.7,293 163,293C168.9,290.1 175.3,286.6 178,282C183.3,283 171.8,290.9 169,292C163.9,296 156.9,298.8 150,300C145.6,304.1 144.7,313 142,318C139.3,324.1 143,305.6 145,303C152.3,296.5 154.1,295.3 144,300C140.6,306.9 138.9,294.4 136,309C132.7,324.9 136.2,304 135,300C121.3,294.8 140.4,302.7 142,297C147.3,296.6 155.9,293.8 160,291C167.7,289.4 169.9,282 171,275C174.6,270 178.3,264 181,259C185.5,254.6 190.7,250 193,244C194.9,239.9 204.4,233.1 202,231C198.8,226.5 193.5,222 192,215C194.9,213.8 199.1,225.3 203,226C210.2,236.3 203.2,218 201,216C198.3,210.8 195.4,204 191,199C185.8,197 183.1,189.9 178,186C174.9,181.6 168.1,178.5 162,176C150,172.7 155.4,171 164,175C167.7,173.6 154.3,169.6 150,168C140.7,165.3 132.6,172.5 144,173C152.3,174.6 158.9,177.8 162,181C168.5,184.8 171.9,191.2 176,194C173.4,188.8 168.1,184.3 163,180C167.6,178.5 175.1,186 177,189C183.6,193.3 183.5,200.8 187,204C198.5,212.8 184,207.4 181,203C170.8,195.6 175.5,205.4 181,207C189,211.7 194.8,211.5 187,219C184.3,224.5 183.7,233.7 183,241C182,249.9 184.1,255.3 178,259C175,265.3 171,271.1 168,276C161.7,288.4 163.6,273.4 168,270C171.6,265.1 175.8,259.5 178,253C180.3,251.8 181.4,230.6 179,237C180.4,253.3 175.8,244.4 175,252C170.8,263.8 175.4,243 174,239C176,231.5 177.8,223.6 178,216C181.4,211.2 164,203.5 175,208C181.3,215.8 189.5,214 178,208C171.9,200.8 170.1,208.3 167,200C165.2,194.7 157.8,183.9 163,196C166.8,201.4 165.9,212.3 164,218C164.5,223.3 160.9,241.6 158,230C159.5,225.8 162.8,209.1 160,211C160.4,220.6 156.4,226.3 156,234C154.3,246.8 164.6,239 168,236C173.8,233 163.3,245.5 160,246C157,251.2 154.3,258.3 151,263C150.4,267.4 144.8,281.7 143,275C145.6,268.4 147.3,261.1 150,255C156,243 145.1,257.2 145,261C142.7,267.1 135.4,269.6 131,273C126.8,277.6 120.4,280.9 116,284C107.2,294 117.7,280.9 120,279C125,275.1 130.6,270.9 135,268C141.1,264.9 143,256.9 145,252C149.1,247 152.4,239 151,232C149.4,227.4 151.9,205.9 149,219C149.3,235.9 145.5,223.8 144,216C141.7,210.9 143.2,199.6 140,194C139.1,178.6 137.4,188.2 138,198C138.3,207.2 139.2,216.1 141,221C143.3,228.6 146.3,235.4 146,243C143.9,235.7 142.4,248.7 139,253C136.2,258.7 134.3,266.6 127,268C131.9,263 135,257.2 137,250C139,243.7 145,238.2 141,230C138.8,224.7 136.9,216.8 135,210C135.4,203.7 135,186.6 133,201C131.8,200.5 132.2,184.9 129,201C127.6,209.9 132.8,218.1 131,224C135.5,228.7 134.6,240.1 133,246C134.8,253.8 124.2,265.3 129,253C130.7,246.4 132.6,237.1 130,230C128.7,227.2 120.7,211.4 124,223C128.2,227 130.1,236.9 127,244C129.4,254.4 123.9,258.8 120,263C115.8,265.2 114.1,279.1 111,277C112.1,268.6 117.6,264.4 119,258C121.6,251.7 127.7,248 126,238C126.9,231.8 119.8,219.5 118,228C120,233.5 123.7,246.8 120,248C118.3,252.7 114.9,267.1 113,262C115.3,256.3 118.2,249.5 118,241C118,233.8 111.9,230.9 115,221C117,214.3 118.7,206.3 120,200C125.2,189.7 122.6,187.9 119,198C116.5,204.3 114.3,211.9 111,217C108.6,222.7 104.3,228.2 103,235C101.3,242.2 102.1,253 103,259C101,262.8 99.3,247.2 99,241C100.3,233.7 102.2,225.8 105,221C108.5,215.5 107.2,204.5 108,197C108.4,191.3 111.6,178.8 109,176C107.5,183 106.3,191.7 104,198C105.3,214.3 98.2,202.8 99,207C100,216.8 96.3,228.3 95,213C94.7,207.6 99.6,188.2 94,200C91.6,206.4 90.8,215.4 91,223C89.6,229.7 94.6,247.6 90,241C89.2,234.4 88.3,225.6 88,217C88.2,208.6 92.6,201.7 91,195C89.2,201.4 87.6,209.5 84,214C81.2,219.4 80.9,230.4 82,237C81.7,244.7 92.4,251.8 85,251C88.3,257.2 93.5,261.8 97,266C90.3,264.2 86.7,258 83,253C82.5,247 80.1,239.9 79,232C78.6,223.6 80.6,215.7 83,210C85.1,207.2 91.3,193.5 88,195C84.9,201 83.5,209.3 80,214C78.1,219.8 77.5,231.1 78,237C77.2,243.2 85.3,256.5 81,253C77.5,247.8 76.2,240 75,231C75.7,222.5 75.2,212.3 79,208C80.8,201.3 82.5,193.2 84,187C88.1,177 87.4,173.4 83,184C81.6,191.3 78,197.4 76,203C73.6,209.6 72.1,217.8 72,225C70,227.8 72.4,248.7 68,241C62,236.5 74.3,248.7 73,252C75.4,257 80.8,267.3 84,264C80.4,261.6 75.2,251 75,250C78.7,255.9 83.5,260.9 88,264C98.9,270.1 83.1,267.6 78,265C73.9,261.3 72,253.4 68,249C66.5,242.4 58.4,240.7 53,237C53.6,241.8 63.3,245 66,248C71.1,252.6 72.7,260.8 75,265C72.8,269.5 67.8,257.9 63,256C56.6,254.2 47.3,253.7 42,250C37.5,249.1 19,247.7 34,246C42.8,244.2 52,246.9 57,248C70.9,254.3 60.8,246.8 55,244C50.3,241.2 45.3,236.4 38,235C44.8,232.9 30,232 23,232C35,236.2 26.5,234.7 16,234C10.4,232.1 -7.6,236.9 3,238C12.6,237.8 22.7,239.5 28,238C47.8,237.4 18.8,244.7 36,241C51.8,241.1 43.3,245.2 33,244C25.5,248.1 18,242.8 11,242C-4.9,240.7 0.5,246.7 11,245C19.2,246.6 27,248.7 32,250C33.8,255.7 42.7,258.8 46,262C53.2,264.4 57.6,268.9 63,272C70.4,279.3 72.6,264.3 80,268C85.7,267.7 101.7,274.6 92,273C87.3,273.2 73,266.6 75,277C77,287 67.4,270.3 77,270C80.5,264.3 68.7,276.2 68,277C57.6,276.6 73.8,284 74,286C78.6,291.4 80,299.8 84,303C88.5,307.8 88.3,317.8 91,322C95.4,328.4 87,332.8 90,340C90.3,348.1 92.5,357.2 90,364C84.6,377.6 86.1,361.6 88,356C88,347.5 86.6,339.1 86,331C87.9,322.6 87.7,316.5 83,313C81.2,306.7 77.1,301 74,295C71.2,290.4 65.9,285.9 61,282C56.8,278.1 54.2,271.7 49,267C40.8,262.8 52.7,276.1 54,277C61.5,288 48.7,275.8 47,273C44.3,267.8 38.7,263.6 35,259C37.7,263.1 42.2,270 45,274C48.1,280.1 53,285 56,289C62.1,292.4 63.6,300.8 66,305C68.1,319.4 74.9,306.7 69,300C68,292 76.9,309.8 75,309C75.1,312.5 75,324.9 72,329C71.2,337.1 69.1,344.7 70,353C71.2,361.1 67.7,369 65,374C65.6,367.8 68.3,359 67,351C64.8,344.7 66.2,340.3 67,331C68.6,325.9 69.3,306.8 66,316C64.9,323.7 64.4,332.9 62,338C60.2,345.6 59.2,353.6 57,360C53.8,371.1 56.9,376.9 57,363C63.9,350.2 58.1,366.6 58,372C57.8,381.6 60.1,389.1 60,396C61.4,404.4 61.1,414.5 61,422C63.1,429.1 62.2,439.8 62,447C64.1,458.1 64.1,435.1 64,432C63.9,429.4 60.4,409.3 64,417C66.3,421.7 67.2,436.5 69,434C68.4,426.9 66.3,419.2 65,412C64.8,404.2 61.9,397.3 61,389C60,381.9 60.7,372.9 61,365C64.7,361.9 64.7,342.9 66,357C66.5,365.8 61.6,370.6 63,379C63.2,388.5 65.3,396.1 66,402C68,410 70,417.8 70,424C73.4,430 70.6,445 73,446C73,444.3 74.5,442.1 73,440C73.3,426.8 77.4,450 76,435C74.9,426.9 76.6,419.1 73,412C71.9,406.8 71,395.7 68,392C64.4,386 67.5,378 70,372C71.9,366 74.6,358.9 74,351C77.9,352.2 75.3,365.8 73,370C73.1,377.4 69.8,386.6 72,392C74,399.1 74.5,407.7 76,414C76.5,423.9 82.4,432.1 79,418C78.5,411 75.7,404 75,396C72.5,387.3 79.8,378.8 77,390C83.4,377.3 80.4,391.8 79,397C79.8,405.9 82.9,412.5 84,419C83.8,439.5 85.8,421.2 89,423C90.4,420.5 90.3,407.5 91,401C92.8,394.3 92.8,385.3 94,378C95.3,370.1 95.7,360.7 96,353C95.9,346.5 97.3,332.2 99,334C99.8,343.2 99.7,352.8 99,360C98.1,367.8 97.9,377.4 95,383C96.9,392.9 93.9,399.8 93,407C91,422.9 96.6,417.1 95,406C97.3,399.7 97.2,388.3 100,385C99.7,403.6 103.8,388.8 104,382C105.3,374.5 105.7,365.9 104,358C102.1,341.6 105.9,355.4 106,361C108.9,370.2 103.4,376.6 105,385C105,396.7 105.8,407.3 106,391C109.3,381.4 111.2,409 113,398C114.6,394.6 117.2,414.5 116,394C116.1,385.8 117.4,377.3 118,370C122,370.5 118,384.9 118,390C116.1,401.2 119.4,410.8 119,395C120.1,390 123.2,371 122,387C122.2,394.4 121.5,407.2 122,410C124.9,404.9 124.2,394.4 125,387C127.7,372.2 125.3,394.9 126,399C130.7,399.4 124.9,381.6 131,380C131.1,386.9 130.4,402.4 131,399C132.8,392.2 134.5,384.1 136,378C142.9,367.1 138.1,382.3 140,386C139.8,395.4 140.8,404.2 141,411C141.6,402.9 142.1,393.6 144,387C147.1,380.9 149.2,375.6 149,368C152.5,362.3 159.6,359.7 161,353C165.5,349 170,343.7 173,339C176.4,333.5 183.4,330.7 187,326C194.8,322.1 200.8,327.4 208,327C213.7,327.3 232.4,332.9 223,328C220.3,324.5 200.9,324.4 216,322C209.3,318.3 224,319.4 224,325C232.7,332.7 233.2,331.5 226,324C223.3,318.9 219.9,312.6 216,307C216.3,301.7 223.7,315.8 225,317C226.2,321.4 237,334.1 233,325C230.3,320.2 228,312.8 225,307C221.1,303.1 216.7,297.7 214,291C211,286.9 207.8,280.2 205,275C202.8,272.6 198.9,255.1 198,263C199.9,270.3 202.9,277.1 205,282C211.9,294.7 205.9,286.3 203,280C200.5,271.6 197.1,265.1 199,279C203.2,284.4 206.1,291.3 208,296C210.2,301.4 202.1,288.8 200,285C197.4,274.4 194.9,292.4 191,293C188,298.9 187.6,308.3 185,314C185,322.3 177.6,324.6 174,329C170.7,330.4 165.4,346.5 165,339C167.8,332.7 173,328.1 177,324C183.1,321.6 183.5,312.3 185,306C186,298.2 189.6,292 193,288C196.6,285.3 198.9,269.1 196,270C195,278.3 190.2,283.2 187,288C182.4,298.5 178.4,293.7 185,287C188.9,281.8 192.5,275.6 194,269C195,261.6 200.1,256.8 201,250C214,243.7 201.6,248.8 201,256C203.4,263.6 206.4,270.4 208,275C212.1,281.3 216.2,287 217,293C220.3,301.9 225.2,307.6 220,294C218.1,285.5 220.3,273.3 221,288C221.5,297.6 225.7,303.2 228,307C231.5,314 233.5,321.8 237,325C243.2,328.7 250.3,331.3 255,334C273.4,337.1 249.2,337.6 261,340C265.2,341.5 281.1,347.5 278,340C282.5,343.1 294.8,346.5 293,347C276.8,346.1 286.4,351 289,356C291.6,363.1 294.8,369.8 297,374C299.7,381.4 302.7,388.2 304,394C307.7,399.8 310.5,406.7 313,411C316.7,417.1 319.8,423.8 322,429C322.4,437.8 325.6,444.4 326,451C331.2,457.5 322.4,463.2 323,470C324.8,477.8 328.1,484.3 331,488C335.6,493.7 339.7,498.6 343,503C348.7,507.3 352.2,513.6 356,517C360.6,521.8 364.7,527.5 367,532C371.5,537.3 375.3,543.2 377,549C381,556.4 377.1,565.9 372,567C366.8,571 359.5,573.4 353,575C346.5,577 343.3,583.5 342,590C340.5,599.1 345.3,607.7 342,613C339.8,619.1 329.5,618.6 326,623C322.1,627.2 315.8,632.2 315,637C319.5,632.8 325.4,629 329,624C331.3,625.3 339.6,635.6 332,639C328.1,643.4 322.8,647.9 322,655C324.2,662.9 329.5,667.4 331,673C333.6,679.1 334.5,690.1 333,696C331.6,704.1 327.7,710.1 324,714C319.8,719 314.4,722.6 308,725C302.4,728.3 295,730.7 288,732C282.4,734.7 274.6,736.7 267,737C260.6,739.2 250.9,739.3 243,739C232,737 232.3,747.1 232,754C230.6,762 228.6,769.8 225,774C223.1,780.8 217.8,785.3 215,790C211.4,795.4 207.7,801.5 205,807C203,813.4 201.7,821.9 199,828C198.8,835.5 195.5,842.1 193,847C190.1,853.2 188.4,861.3 185,866C183.6,873.5 181.1,881.1 184,887C186.3,894.6 186.9,903.9 188,910C190.4,916.9 195.1,922 198,927C200.7,933 204.4,939.1 207,943C212.1,948 216.1,953.8 217,959M60,954C60.3,950.9 48.9,947 42,945C42.4,948.3 54.5,951.5 60,954M54,929C52.1,924.7 36.6,922.6 30,917C20.3,914 12.9,908.1 1,905C2.3,912.1 18.4,913.7 25,918C34.1,922.9 43.8,926.5 54,929M55,637C62.3,634.9 45.8,634.3 42,633C37.1,633.6 51,637.1 55,637M71,637C78,633.5 81.6,626.7 87,622C88.4,612.6 104.9,616.5 102,616C97.5,606.9 87.1,615.6 84,620C79.8,625.7 72.4,630 71,637M26,626C34.9,625 15.5,620.7 12,618C4.7,618.6 21.9,625.1 26,626M21,608C44.1,607.5 8.9,603.1 6,599C-10.3,593.8 14.3,609.6 21,608M24,594C36.1,593.7 46,587 59,590C71.1,593.1 86.8,588.9 77,577C68.8,572.2 65.4,561.2 58,555C45.8,548 56.6,538.2 64,535C51.7,535.5 44.2,547.1 53,554C59.8,561.7 64.6,570.1 71,576C85.8,586.2 63.9,591.2 54,586C39.6,584.6 30.8,592.2 24,594M320,577C326.5,576.5 332.9,573.9 338,572C344.6,570.9 348.7,567.3 356,567C361.3,571.7 369.4,565.3 372,563C374.5,557.9 363.8,566.4 356,563C350.6,564.8 344.1,567.2 338,568C333.9,571.2 326.1,573 320,572C318.4,576.8 312.2,564.2 310,564C310.3,572.3 314.2,576.2 320,577M13,557C18.4,548.8 26.2,539.2 37,540C40.2,534.6 39.9,538.8 39,542C39.7,547.5 16,553.3 32,550C49,555.4 42.7,530.6 40,523C36.8,512.7 32,502.3 22,498C21.1,492.2 -12,485.7 6,494C17.4,497.7 26.6,503.6 32,511C33.2,514.2 35.1,517.2 35,519C36.2,521.2 38.6,522.9 37,525C38.3,535.5 37.4,525.9 32,534C25.1,540.8 11.3,544 13,557M46,521C45.4,513.5 41,504.7 36,500C37.8,507.1 43.6,514.5 46,521M289,496C296.3,492.1 290.6,475.4 303,477C321.8,475.7 312.6,472.6 302,471C296.2,471.6 283.5,481.4 288,482C291.4,481 289.6,485.7 289,487C292.9,502.2 284.7,482.8 289,496M30,492C35.4,491.6 65,493.9 48,489C37.4,490 28.9,486.3 20,484C18,480.8 -9.8,477 5,484C15.8,484.7 23.2,489.5 30,492M109,490C109.3,482.2 107.3,471.4 104,464C103.6,473.8 107.5,483.4 109,490M260,486C269,480.9 277.8,474.6 288,471C300.4,469.4 309.2,464.1 308,449C302.8,457.9 298.3,468.6 285,469C275.3,473.3 267.3,479.4 260,486M141,482C146.9,474.6 147.1,461 154,455C159.2,446 165.9,438.4 168,428C162.3,435.7 157.2,444.3 153,453C145.9,460.3 143.7,472.4 141,482M18,476C24.3,474.1 27.9,469.1 29,462C26.2,467.4 21.6,471.3 18,476M14,473C18.2,469.4 21.8,465.4 23,459C24.9,453 27.2,447.6 26,439C23.6,444 25.1,453.2 22,458C21.6,465.2 16.4,467.7 14,473M6,466C9.8,460.2 14.9,452.4 12,442C9.5,447.8 8.3,459.4 6,466M16,462C22.8,454.6 23.8,437 19,426C19.3,412.7 19.7,396.8 13,388C15.6,395.3 16.6,413.9 16,426C23,436.6 19.6,452 16,462M322,460C323.7,459.9 324,456.1 324,455C321.6,443.4 322.3,446.3 318,446C314.2,438.4 298.9,444.1 293,446C301.8,446.6 318.7,442.8 318,453C317.8,463.6 322,440 322,460M121,460C123.5,454.6 119.9,444.6 119,438C117.5,444.7 119.6,455.5 121,460M84,459C86.3,447.3 83.8,435.8 81,428C80.3,438.5 82.5,450.3 84,459M126,459C128.9,453.3 124.2,445.2 124,439C122.1,444.9 125.4,453.9 126,459M14,458C17.2,452.8 18.7,443.7 16,437C15.5,430.8 12.8,422.1 14,415C15.3,408 13.4,400.9 11,394C9.1,388.3 8.2,379.8 7,372C9.2,367.3 2,352.8 1,362C4.9,372.6 -3.2,360.5 0,375C3.4,381 4.7,389 5,395C7.8,398.1 8.7,419.5 5,407C5.1,412.8 6.1,422.9 5,429C5.3,437.3 10.6,449.3 9,433C8.1,426.9 8.3,418.1 8,409C10.3,401.6 7.5,393.4 7,387C4.3,372.2 8.9,388.3 10,392C12.1,400.2 12.6,407.8 10,414C11.1,422.8 12.7,430.5 14,436C16.5,442.7 16.5,452.4 14,458M27,457C31.8,449.2 33.4,437.6 32,423C32.4,410.8 32.5,397.4 29,387C26.9,378.3 22.3,362.6 28,357C28.8,367.9 29.1,382.4 32,390C35.6,401.3 35.1,415.1 36,427C38.1,435.6 30.7,464.7 36,448C39,438.4 38.7,424.9 38,411C39.1,393.9 35.2,394.6 33,381C32.2,369.1 30.8,357.2 27,347C25.4,336.1 17.3,330.9 14,320C11.3,311.3 6.7,300.1 0,297C6,304.7 10.6,314 12,324C16.9,333.3 20.7,340.3 20,354C19.9,368.6 26.9,375.5 27,387C29.8,398.4 31.7,409.7 30,421C27.6,432.1 30.5,448.9 27,457M88,457C89.4,450.8 90,439.6 88,435C86.7,442.1 87.5,452 88,457M57,451C60.1,444.8 58.9,433.5 58,426C56.4,418.4 60.5,408.8 57,401C56.8,410 55.2,420.3 56,427C54.6,437.8 57.6,442.4 57,451M42,450C45.8,445.4 45.9,436.9 45,428C43.5,434.6 43.8,443.4 42,450M113,446C114.3,435.5 115.9,424.1 114,412C112.4,422.1 113.2,436.7 113,446M1,444C8,439.8 -2.7,425.3 2,418C3,407.9 3.9,397 1,387C0,389.8 0.8,403.8 0,412C0.1,421.3 -1,436.6 1,444M41,439C45.7,428 43.9,412.5 43,398C38.3,388.2 36.8,373.8 38,360C36.9,347.3 29.5,339.7 25,329C18.2,321.2 15.7,308.1 9,300C9.2,304.2 16.9,319.5 20,327C27.4,336 29.8,348.6 34,358C37.7,369.5 33.7,388 39,397C40.3,411.3 42.5,426 41,439M52,437C52.6,429.9 53.6,421.9 53,414C54.1,407.6 53.5,399.2 50,394C47.7,390 45.6,383.1 45,376C44.4,367.6 42.4,361.2 39,372C40.3,379.6 42.4,386.5 43,392C47.7,408.9 44.5,385.4 47,394C49.4,400.1 48.3,410.1 49,415C51.8,421.5 49.7,432.6 52,437M171,432C177.9,423.9 185.1,416.1 192,408C181.9,412.9 176.3,422.3 171,432M104,431C105.6,424.2 102.7,417 102,409C101.5,416.5 103.1,425.1 104,431M22,423C23.7,399.3 26.4,436.8 28,415C28,405.4 27.1,394.4 25,386C24.4,375 17.4,373.8 16,363C14.7,354.4 13.4,343.8 7,339C-1.7,327.8 -1.1,335.2 7,342C12.5,347.5 12.3,359.5 14,367C19.7,374 15.7,388 19,393C22.5,401.8 21.8,414.3 22,423M171,422C177.2,416.3 180.9,408.4 185,401C179.5,407.1 175.4,414.6 171,422M159,414C164.2,406.9 170.4,396.1 172,390C166.4,392 162.1,405.7 159,414M155,411C161,403.6 159.8,389.1 165,381C165.3,375.1 181,357 172,362C167.1,366.7 156.9,380.5 160,383C162.7,386.7 156.2,402 155,411M175,411C179,406.7 181.7,401.3 185,396C188,391.7 191.3,386 193,381C189.2,385.1 186.1,390.1 183,395C180.5,400.5 177.1,406 175,411M85,410C82.7,403.3 81.4,392.5 84,387C88.3,387.6 83.7,403 85,410M170,403C176.4,395.2 182,386.2 187,377C180.6,384.8 174.5,393.3 170,403M147,397C150.1,393 150.4,384.3 152,379C148.5,383.3 147.9,391.6 147,397M53,390C54.1,380.5 48.7,366.1 54,357C57.8,348.3 59.2,336.9 61,325C62,301.3 56.3,351.8 56,326C62.7,319.2 55.6,299.8 52,304C53.4,307.1 54.2,310.8 54,312C57.1,329.3 53.2,317.6 52,309C50.2,298.2 47.3,288.3 41,280C36.1,273.8 32.4,264.6 20,263C10.2,260.5 -9.6,259.2 3,272C13.2,276.1 21.6,280.5 29,285C40,301.2 36.3,287 27,280C24,276.5 3.9,270.6 10,268C12.9,269.1 16.3,270.3 18,270C19.8,271.4 23,270.8 24,271C14.6,271.8 26.6,276.4 28,278C33.1,284.1 45.8,300.3 36,282C33.7,272.3 25.7,267.5 13,266C16.9,264.4 34.4,268.4 34,277C40.3,284.8 44.4,294.1 46,303C50.5,312.7 53,323.1 54,334C56.1,357.8 50.8,330.5 47,325C42.4,318.2 37,310.8 32,302C29.2,295.3 15.5,289.7 15,286C23.2,291.2 31.9,295.3 36,304C39.1,306.5 50.1,330.8 46,315C43.7,305.4 38.2,298 32,291C25.7,284.8 16.4,281.3 7,277C-7.7,277.8 11.4,283.9 14,290C20.2,295.5 31.4,303.7 30,307C23.7,302.2 20.2,292.9 10,289C0.7,277 -4.2,285.6 9,292C11,289.9 24,300.2 27,306C33.9,312.6 39.8,319.5 43,328C48.2,334.5 55.2,347.7 49,356C49.2,369.1 50.4,381.4 53,390M14,385C16.4,377.3 12.2,367.3 10,360C9.1,351.5 6.2,344.1 0,339C-5.2,354.2 8.4,352.3 8,360C10.6,368.7 10.5,379 14,385M168,383C172.3,377 176.8,370.5 181,365C184.8,359.5 191.2,356 194,349C188.6,353.5 183.8,359.7 179,364C174.6,369.6 170.5,375.3 168,383M79,370C78.6,363 81.5,351.7 81,342C84.7,334.2 78.8,324.2 81,316C83.6,324.5 85.5,335.3 84,343C82.3,352.3 84.1,364.3 79,370M124,369C121,362.9 119,354.8 115,349C112.8,343.6 110.1,337.3 108,329C104.4,316.6 107,339.6 107,343C108.6,350.4 112,357.6 110,365C107,360.2 107,350 104,343C103.9,336.3 103.6,325.4 106,319C107.7,311.7 107.4,305.3 105,297C102.3,293.1 94.1,287 94,284C98.9,289.5 106.8,291.8 108,298C109.1,308.7 109,314.1 113,317C115.9,324.6 121,329.6 122,336C126.4,341.1 128.4,355.9 122,342C120.5,335.8 116.7,329.4 113,324C110.4,309.1 108.8,323.1 111,329C113.7,335.6 115.7,342.7 118,349C120.8,355 125.1,361.2 124,369M341,368C349.7,369 356.1,367.7 361,365C366.2,362.7 370.1,358 373,354C379.8,346.2 385.8,337.2 390,327C393.3,322 395.8,316.7 396,309C397.3,303.1 399.1,296.4 398,289C400.3,276.7 391.6,250.2 395,278C392.8,283.5 396,292 394,299C393.7,305.9 392.4,313.2 391,318C387.4,329.7 381.5,338.9 375,347C372.9,353 369.2,356.9 365,360C360.9,363.7 354.7,366.2 348,366C344.2,366.8 341.4,365.7 338,365C320.5,359.9 331.9,365.8 341,368M118,363C113.8,359.4 112.4,350.2 110,343C113.5,349.9 117.3,356.7 118,363M347,361C363.3,363.3 368.7,354.6 374,345C380.8,338.3 385.4,328.8 388,318C382.8,326.2 378.8,336.4 373,345C368.4,354.2 360.2,360.2 347,361M16,352C19.2,346.2 15.5,337.6 12,333C10.1,327.5 4.1,324.1 0,320C-3.4,328.2 6.1,330.5 9,334C13,339.2 15.2,346.4 16,352M40,352C43.5,347.3 42.8,340.5 38,332C35.3,325.3 30.8,319.5 24,315C20.1,312.8 32.3,325.4 32,330C34.3,338.5 38.8,344.4 40,352M48,352C50.2,340.2 44.2,329.7 39,321C34.3,312.4 24.4,307.6 18,300C20.3,308.7 30.6,314.9 36,322C41.4,331.2 48,339.3 48,352M327,349C317.4,348.4 314.8,338.4 305,336C297.9,333.3 288.3,329.9 287,321C294.1,326.4 301.3,331.9 309,334C315.5,339.7 322.3,345.8 327,349M163,333C160.9,327.9 159.1,315.6 162,311C165.7,305.6 170.5,301.8 176,298C176.9,301.2 166.9,306.3 165,311C160.9,314.1 162.7,326.5 163,333M147,332C146.1,324.6 149,316.5 151,311C151.5,303.9 158.8,301.8 163,298C168.7,296 173.7,291.7 178,289C183.9,287.6 185,277.3 188,277C186.5,283.4 182.9,289.2 178,291C174,296 167.4,298.9 163,302C160.1,305.2 154.4,304.8 153,313C150.7,318.9 149.4,325.8 147,332M29,331C29,323.4 21.7,317.9 18,312C19.8,318.9 26.5,325.1 29,331M333,329C342,329.3 346.3,324.2 353,322C358.5,319.8 361,321.2 365,312C369.9,307.8 369.7,298.1 370,289C373.6,284.8 367.8,265.6 369,274C369.6,283.6 370.1,292.5 367,299C365.6,307.2 360.5,312.4 356,316C351.3,320.8 345.2,324.2 338,326C326.5,327.3 319.3,326.3 333,329M343,329C347.6,328.7 358.1,327.2 354,324C352.1,325.1 341.7,328.6 343,329M145,325C144.6,315.1 147.7,303.9 154,299C149.7,305.1 146.1,315.9 145,325M246,325C236.7,325.2 239.1,310.9 238,301C241.6,309.3 239.7,323 246,325M325,325C334.1,326.9 340.7,324.6 345,322C349.6,320.1 356.8,314.4 356,312C352.8,316.2 345.4,317.9 341,320C338.4,324.1 324.8,323.9 325,325M8,323C7.1,319.1 7.9,307.7 0,308C0.9,313.9 7.3,318 8,323M381,323C387.2,318.7 389.4,309.9 390,302C391,292.1 389.2,284.1 386,277C385.1,280.5 390.2,293.6 387,300C387.4,308.8 384.8,316.2 381,323M327,322C336.4,321.2 342.2,316.3 349,312C355.8,310 363.3,295.4 352,306C350.6,310.5 331.8,319.8 343,310C350,306.1 356.1,300.8 359,294C364,293.6 368.2,268.6 363,284C362,293.4 354.2,297 349,302C343,306.2 337,310.9 331,315C346.5,313.1 315.3,322.3 327,322M324,314C335,311.7 340.6,303.5 349,298C356.6,293.8 363.7,282.9 362,274C358.4,288 354.2,286.4 347,296C339.8,302.8 333.5,310.2 324,314M322,312C333,309.9 337.5,300 344,294C351.6,288.6 356.9,279.4 358,269C354,278.7 349.4,288.5 341,293C337.9,302.6 325,304.5 322,312M18,311C18.1,299.1 6.6,294.9 0,286C6,293.9 13.6,302.1 18,311M322,307C327.2,306.3 331.5,299.1 333,291C336.7,283.5 336.7,273.6 333,287C331.4,290.5 323,308 327,294C330.5,288.6 331.6,279.5 334,273C336.2,265.3 333.5,256.4 330,250C323.8,240.8 330.7,260.7 331,263C333,272.2 327,277.8 325,285C322.9,291 319.9,299.9 322,307M229,302C222.8,298.1 225.7,284.5 223,275C228.1,282.1 225.2,295.7 229,302M138,297C141.2,294.5 151.7,292.3 156,288C155.4,292.6 145,295.1 138,297M255,297C248,292.2 252.1,274.9 250,263C249.2,254.4 244.4,237.3 245,234C248.9,244.6 251,255.8 253,266C249,281.1 262.7,290.7 255,297M137,294C138.2,291.6 152.5,286 159,283C159.2,286.7 143.2,290.6 137,294M232,294C229.1,288.7 231.8,274.7 230,268C235.4,274.5 231.6,284.5 232,294M392,294C394.2,287.3 392.7,273.9 389,268C388.9,275.1 392.1,286.8 392,294M268,292C268.6,285.2 266.5,275.2 264,268C263.3,277.6 266.2,286.8 268,292M132,291C112.8,291.4 137.4,288.8 139,286C145.8,283.5 152.6,279.7 157,275C168.2,267.3 157.8,284.2 152,282C145.6,285.7 139.9,290.5 132,291M338,291C346.6,286.2 351.9,277.1 354,267C348.6,274.7 343.2,283.6 338,291M114,290C109.1,288.3 125.8,286 129,284C135.7,280.6 136.7,272.1 142,268C144.1,269.8 137.3,279.8 134,283C133.6,289.5 119.7,287.2 114,290M320,286C319.3,273.1 327.7,261.8 323,250C320.8,258.1 318.8,275.2 320,286M322,285C324.3,277.8 330.6,270.9 328,262C325.3,266.9 321.9,275.9 322,285M172,282C176.7,277.2 180,269.5 182,262C177.8,268.2 174.8,276.2 172,282M261,277C264.2,267.3 260.1,255.9 261,244C259.3,253.2 261.7,266.2 261,277M108,271C108.6,266.4 112,259.2 110,251C111.6,238.3 108.3,260.1 106,258C104.9,251.1 109.2,244.8 109,238C104.9,241.6 109,225 109,223C115.2,211.1 110.8,225.9 109,230C108.4,248.6 114.9,220.5 113,232C114,238.6 114.7,245.4 113,252C113.4,260.8 110.4,266.7 108,271M32,264C33.2,260.6 24.1,257.4 19,255C13.7,254.2 6.9,252.1 1,250C-5.4,260.6 8.1,259.4 13,259C20.7,260.4 28.2,261.8 32,264M219,264C218.1,258.4 216.1,245 220,239C221,243.1 220.4,257.4 219,264M99,252C92.4,242.8 97.1,227 102,218C101.8,223 94.3,240.3 99,252M185,252C189.8,249.3 190.3,232.5 199,232C196.2,235.2 191.2,247.6 185,252M253,249C254,240.4 259.6,238.7 257,224C257.7,213.8 261.5,204 255,197C251.7,191.7 253.6,217.1 253,219C255.7,229.6 252,239.9 253,249M137,244C139.3,235.1 134,225.2 133,219C137.7,225.9 141.8,237.2 137,244M341,239C336.4,234.6 336.3,224.1 333,218C330.9,223.7 326.3,210.4 319,210C320.7,206.2 334.5,212.4 334,217C337.3,224.3 340.3,230.7 341,239M86,238C85.3,233.7 83.4,226.3 85,223C87.4,224.5 87.1,235.4 86,238M59,236C70.1,238.4 70.7,222.2 64,234C55.3,235.5 43.8,229.5 58,231C66.6,230.5 65.3,220.2 68,214C70.1,207.3 71.3,198.8 73,192C77,177.7 71.1,188.5 70,196C69.4,205.5 64.5,213.5 67,199C65.9,190.6 67.8,182.8 67,173C64.5,179.3 66.5,191 64,197C65,206.4 62.6,213 60,219C52.2,229.7 57.6,226.2 61,223C64,232.6 43.6,229 48,225C54.7,222.1 58.7,216.4 60,210C61.4,202.2 62.8,194.6 62,185C62.7,167 60.7,188.7 60,192C59.2,200.7 60.8,211.2 55,215C51.9,220.1 46.5,224.5 40,226C26.6,228.5 27.9,226.1 37,222C42.6,218.1 46.8,213.3 45,203C46.1,195 47.4,185.5 45,178C44.8,168.2 37.8,165.7 41,178C43.5,184.6 44.5,194.7 43,202C41,209.1 36.7,214.6 33,219C31.4,226.2 22.9,226.7 15,228C6.9,229.8 -5.4,230.5 8,226C14.6,224.2 24.6,225.2 27,219C32.5,215.1 36.1,209.7 39,203C44.5,190.7 37.2,197.1 35,205C31.8,210.2 26.7,214.9 23,219C16.4,221.5 10.5,224.6 3,226C-7.3,234.9 9.4,231.7 14,230C23,229.2 30.9,229.6 39,230C46.5,232.2 52.7,235.8 59,236M250,230C254.2,221.4 249.5,211.8 248,205C247.9,194.4 249.2,189.7 246,181C243.8,174.9 240.9,166.9 234,163C228.6,158.9 221,159.7 212,157C204.8,155.5 195.5,153.8 188,151C181.4,149.9 169.6,148.6 162,151C154.8,153.8 143.7,153.8 135,154C125.7,156 118.1,152.2 109,151C100.9,153.2 89.3,150.4 83,154C77.4,158.6 74.4,165.5 66,167C51.9,167 77.7,172.2 77,164C82.9,160.5 87,154.7 97,154C100.5,153.3 77.6,165 89,160C96.2,158.2 105.7,156.4 114,157C121.9,159.9 128.9,162.7 135,166C135.9,166.7 141.4,168.1 140,166C128.7,162.5 139.8,163.5 146,162C157,159.6 163.6,166.1 169,169C179.2,178.4 175.7,171.1 167,166C167.3,160.7 144.6,161.4 153,158C159.6,155.6 169.6,154.3 177,157C186.4,158.5 193.9,162 202,162C218.8,166.3 209,165.5 203,165C210.2,168.8 215.9,174.1 222,176C228.6,180.5 232.2,186.7 234,194C238.1,196.5 229.5,180.4 229,178C227.3,172.6 220.1,168.5 214,165C208.9,160.4 196.2,162 190,158C181.3,153.2 202,159.6 206,159C214.7,161.1 220.4,166.4 226,169C230,175.9 234.7,181 240,185C248.6,187.7 246.5,197.9 246,207C251.3,212.7 247.1,221.6 250,230M264,228C267.3,224 268.6,213.1 266,207C265.2,199.7 261.5,194 257,190C253.3,186.2 251.1,179.8 249,172C249.2,164.9 241.8,162.9 236,160C235,163.6 246.3,166.3 246,172C247.7,179.7 250.8,185.9 252,191C258.5,194.3 260.3,201 262,207C266.9,212.1 264.3,221.2 264,228M7,222C14.7,221.1 12.3,209.4 14,203C18.3,198.6 14.7,217.5 13,219C17.1,221.8 18.2,208.1 18,202C14.9,197.4 16,186.9 12,182C8,178.4 15.3,166.2 10,162C9.2,165.8 7.9,175.9 7,182C11.7,187.2 13.1,193.6 11,201C9.9,207.8 11.5,218.8 7,222M129,221C125.3,217.1 127.6,198.5 126,196C122.4,204.6 122.8,217.4 129,221M6,221C6.9,212.8 9.3,197.3 7,194C6.3,203.6 2.4,217.3 6,221M46,219C52.9,216.9 55.9,209.3 55,200C55.1,190.7 57.7,182.3 55,173C51.9,176.9 53.8,190.9 52,197C53.1,207.8 51,215.2 46,219M273,216C277.9,210.4 280.4,202.6 284,196C287.6,189.5 297.1,188 300,181C293.7,185.7 286.5,188.8 282,195C279.5,202.1 274.3,207.9 273,216M271,213C273,204.8 276.6,198.2 280,191C276.2,180.9 275.5,199.2 271,203C270.5,216.4 269.7,191.1 264,191C267.4,196.2 267.9,208.2 271,213M229,210C234.2,198.4 227.4,184.8 221,178C223.4,185 229,198.7 229,210M47,209C50.7,204 49,192.5 49,185C47,191.4 47.7,201.8 47,209M146,207C148,201.2 144.3,191.4 143,183C142.4,190.3 145.8,199.7 146,207M204,205C203.8,200.5 198.6,195.9 195,191C192.2,187 188,182.2 183,179C185.7,183.3 191.5,187.3 194,192C197.8,196.4 201.7,201.5 204,205M20,203C22.6,197.1 19.9,188.1 18,181C17.4,187.1 20.5,195.9 20,203M113,198C117.4,198.3 117.4,193 117,190C112.4,188.9 114.2,196.1 113,198M205,197C203.5,186.8 195.8,177.7 189,171C194.4,178.4 200.8,188.7 205,197M243,185C239.1,181 235.8,174.5 230,171C227.3,166.4 219.6,164.3 215,160C222.5,162.3 230.2,164.4 234,168C238.5,172.7 241.5,179.4 243,185M95,181C100.9,174.6 101.7,162.4 104,167C94.5,153.2 100.5,175.8 95,181M200,180C201.3,171.2 196.4,164.3 187,163C191,168.1 198.2,172.6 200,180M94,176C96.7,165.9 97.4,157.3 107,166C111.8,154.3 118.3,179.2 117,167C114.4,156.1 105.2,159.8 108,163C98,157.1 92.3,164 94,176M181,172C179.1,166.6 168.8,160.9 160,158C165.2,162.2 175.1,168.3 181,172M55,170C58.5,160.3 64.9,151.6 65,142C62,150.8 53.9,158.6 55,170M62,165C71.2,165 73.2,158.1 78,154C81.9,148.7 88.9,146.8 92,141C85.9,143.8 81,147.9 76,152C72.7,157.5 66.4,160.3 62,165M52,162C57.7,152.1 38.6,152.8 31,150C22.1,147.9 -0.9,148.6 20,151C28.9,152.8 47,155.3 46,156C22.4,154.7 48.3,158.2 52,162M145,162C139,162.7 116,155.5 133,157C145.3,155.2 157.9,155.6 145,162M0,160C7.5,153.3 32.4,162.7 33,157C25.3,156.9 2.6,146.2 0,160M185,154C179.5,154.2 171.4,154.2 167,152C174.1,152.4 183,151.6 185,154Z" fill="#424241"/>
</g>
</svg>
