<?xml version='1.0' encoding='utf-8'?>
<!-- Generator: imaengine 6.0   -->
<svg viewBox="0,0,720,959" xmlns:xlink="http://www.w3.org/1999/xlink" xmlns="http://www.w3.org/2000/svg" width="720" height="959" version="1.1">
<defs/>
<g id="layer0" opacity="0.8">
<path d="M649,948C646.6,936.4 654.5,937.9 660,930C654.1,933.4 640.5,939.1 649,948M590,921C611.7,921.5 578.7,919 576,917C566,915.2 559.7,908.4 554,901C545.9,889.7 557.8,913.2 562,912C568.9,918.6 580,920.6 590,921M658,910C665.2,909.4 671.3,906.5 675,903C680.1,900.5 688.3,899.7 691,895C685.6,897.8 678,899.3 674,902C670.2,906.2 663.8,908.9 658,910M603,901C613.8,899.2 624.2,896.8 635,895C647.1,894 656.4,890.4 667,888C676.9,885.2 686.4,881.8 695,878C704.2,874.5 717.5,873 720,865C709.3,867.5 701.2,872.2 691,875C683.3,880 673.2,882.7 663,885C653.1,888.3 642.7,890.8 631,892C622.7,898 610.7,895.2 603,901M574,896C594.1,897.9 587.5,893.9 574,892C565.5,891.2 561.3,883.6 558,876C548.6,876 560,858.6 561,858C560.4,869.1 558.5,880.5 565,885C575.8,893.4 561.2,874.1 566,867C570.5,870.7 569.8,890.8 574,886C579.2,888.8 573.2,871.6 572,867C571.2,858.2 574.7,847.6 576,840C580.2,832.9 583.9,824.8 588,819C593.7,813.6 600.2,808.3 599,797C599.8,776.3 595.1,798.8 592,802C588.7,809.8 581.4,814.3 577,820C571.6,825.4 567.5,833.2 563,839C559.2,845.9 555,853.5 552,860C548.6,868.2 546.5,879.9 552,885C557.4,891.5 565.5,895.3 574,896M597,891C602.4,886.7 611.9,883.8 618,883C609,881.3 601.7,886.9 597,891M599,861C605.4,852.7 608.7,841 610,828C604.9,837.2 601.3,848.6 599,861M575,727C574,719.4 567.3,712.1 562,706C557.1,700.1 554.3,690.3 551,682C551.3,692 556.3,701 560,707C565.7,713.7 571.3,720.8 575,727M554,671C559.4,669.6 576.8,661.7 559,665C551.4,666.7 540.8,663.3 531,665C520.9,665.8 512.6,663.8 503,662C495.6,660.2 486.9,658.6 478,656C470.9,653.9 462.9,650.5 459,644C454.1,639.4 450.3,632.9 450,622C449.2,614 454.2,607.2 456,599C461.6,591.3 454.4,583.8 449,579C442.8,569.6 438.4,571 446,581C452.1,584.1 459,592 454,599C451.7,607.3 447.4,613.3 447,623C448.1,633.2 451.6,640 455,646C460.4,651.9 467.6,656.1 474,658C482.5,661.1 491.1,662.9 499,664C507.5,667 516.2,668.5 526,668C536.8,668.6 548.1,667.6 554,671M473,574C472.9,570.2 463.3,566.7 458,564C451.6,562.2 444.3,560.4 438,557C435.1,551.6 437,540.8 435,532C433.7,526.1 425.8,524.9 418,523C410.5,522.7 401.3,515.2 414,520C431.3,523.7 421.5,518.9 422,515C430.5,514.2 436.8,518.5 444,519C457.3,521.2 438.7,514.8 435,513C429.2,510.8 419.3,511 412,513C400.6,518.5 406.9,504.4 408,500C404.9,496.6 401.1,509.2 399,514C402.1,521 408.5,523.6 415,525C422.5,527.6 431.2,527.9 433,534C435.5,542.7 432.1,552.8 434,559C438.7,564.2 444.1,567.7 453,567C460,569.9 468.3,570.5 473,574M694,528C702.5,528.8 708.8,526.1 713,523C724.5,523.6 719.5,512.4 712,520C707.7,522.7 701.6,525.5 693,524C686.2,524.1 681.5,519.9 676,517C673.9,512.7 666.6,511.1 665,505C663.6,490.5 659.6,508.2 664,511C668.3,514.7 673.2,518.7 676,522C681.4,525.3 688,527.7 694,528M448,525C458.9,525.1 464,519.9 466,512C465.8,503.3 460.6,497.4 456,492C451.2,495.5 462.3,504.1 462,511C463.8,521.1 448.6,521.2 448,525M685,486C695,485.9 701,481.7 707,480C720.7,481 723.3,473.8 709,477C701.1,477.3 694.3,482.9 686,480C682.4,475.1 692.7,469.4 693,464C696.8,458.1 700.4,451.6 705,448C712.1,439.6 694.6,446.9 695,451C691.8,457.3 689.2,464.9 685,469C680.4,472.3 677,485.7 685,486M424,466C430.7,462.7 433.6,454.1 439,450C445.1,446.5 448.1,437 454,435C458,427.1 454.2,420.6 444,419C434.2,419.9 431.7,412.2 433,402C434.1,389.9 427.9,414.7 434,416C437.5,423.4 451.8,420.8 450,430C447.8,438.8 442,443.3 437,448C431.6,453.5 427.7,459.8 424,466M471,461C473.9,457.2 474.2,450.4 472,445C468.4,448.4 473.6,455.5 471,461M467,445C471.2,440.2 477.1,435.9 481,432C489.9,421.5 484.2,426.8 475,425C471.4,424.3 495.5,426.3 478,421C472.6,419.7 460.8,416.7 457,423C447.3,429.8 465.4,423.5 468,425C459.8,422.4 452.1,438.7 460,430C464.5,427.6 484.4,427.5 478,429C475.4,435 467.1,436.9 467,445M717,444C713.9,440.9 725,424.2 714,421C709.3,409.5 722.5,406 720,393C714.3,393.5 712.3,408.5 709,416C708.8,427.6 711,439.8 717,444M704,442C710,440.3 697.1,438.3 694,436C691.6,436.5 698.4,444.5 704,442M617,434C628.1,436.2 632.5,431.9 619,432C613.5,430.4 605.3,433.2 617,434M486,432C488,425.7 501.9,429.9 504,427C497.1,425 486.4,423.7 486,432M437,428C443,424.5 427.6,419.9 430,410C425.1,414.4 432,425.7 437,428M504,424C504,420.9 494.7,418.4 489,416C482.9,414.7 475.1,413 468,412C459.5,411.7 464.8,398 471,399C480.5,399 487.7,399.5 495,399C498.5,398.4 484.2,396.4 478,396C472.6,393.7 458.9,402.3 464,397C470.2,395.6 476.8,390.8 483,394C489.7,395.4 498.2,398 504,397C501.9,395.4 491.1,394.4 486,392C480.4,389.8 469.2,389.2 465,392C459,394.9 455.1,399.6 448,401C443.4,402 427.2,405.9 439,405C447.8,406.6 453.8,401.8 459,401C462.5,398.4 454.1,417.1 463,415C471.6,415.5 479.7,416.7 485,418C491.8,420.3 499.1,422.4 504,424M442,414L451,414C459.1,406.4 456.8,407.7 448,412C444.9,412.9 442.5,412.3 440,411C431.4,402.4 433,414.1 442,414M654,394C658.1,383.8 659.9,371 662,358C656.2,367.3 657.5,383.2 654,394M684,394C691.1,392.8 699,391.8 705,388C709.6,384.6 719.3,384.6 720,377C713.5,379.9 708,383.4 702,386C695.7,388.8 685.1,388 684,394M616,383C619,370.9 614.1,357.3 613,345C611.5,358 615.1,371.9 616,383M644,382C646.6,376.4 646.4,367.6 648,361C652,355.5 651,345 646,341C646,342.6 651.5,353.8 647,360C644.3,365.5 643.7,373.4 644,382M606,380C607.4,376.6 606.5,364.7 606,358C607.6,350.2 606,344.1 604,338C603.8,330.8 603,322.6 602,316C601.2,302.6 599.2,311.8 601,320C601.6,327.5 602.7,335.3 603,341C605.1,346.5 604.1,363.3 602,349C601.4,342.4 601.1,334.9 599,328C599,321.5 597.6,315.3 597,307C600.7,302.7 600.6,291.3 597,287C601.4,284.1 602.7,296.1 602,302C603.2,309 605.4,314.5 605,322C606.4,340.3 607.3,315.6 608,325C608.6,330.2 607.9,348.8 609,338C610.6,331.6 609.7,323 610,315C610,301.1 613.5,318.5 612,323C613.6,327.2 612.8,343.6 613,340C613.7,334.6 613.8,323.8 614,318C615.3,309.8 610.9,306.5 609,300C607.7,294.2 606.5,287.7 603,283C600.7,278.1 594.8,276.3 594,269C594.5,264.1 609.1,267.9 612,268C619.1,269.1 626.2,266.8 631,265C637.5,266.1 624.3,270.3 620,270C613,272.4 606.1,270.6 599,269C588.2,264.9 599.1,276.3 601,277C605.2,278.4 609.4,289.7 609,287C612.8,287 615.1,295.9 616,300C620.1,307.3 615.4,313.8 616,321C614.1,332.7 618.1,336 617,323C619,319.7 619.7,304.9 622,310C626.2,323.4 623.4,293.3 627,308C631.2,312.5 629.4,322 631,327C633.1,339.8 636.1,336 633,326C632.6,319.5 632,312.4 629,307C627.1,294.2 632.6,309.8 633,313C634.7,330 636.3,305.4 638,314C636.5,321.5 639.8,329.1 640,334C644.3,346.3 644.2,336.1 641,329C641.5,315.4 646.2,335.1 647,333C644.7,321.5 645.8,324.3 650,327C651.7,333.6 656.3,312.3 658,322C660.4,328.3 661.9,334.5 663,340C665.8,353.7 664,335.9 662,332C661.3,329 657.8,316.9 660,316C664.5,315.2 665.4,327.2 666,331C668.6,337.5 671.2,342.6 671,349C673,356.3 675.2,361.7 676,367C682,377.9 676.9,363.5 676,359C673.3,354.5 674,344.9 671,340C669.5,334.6 667.6,328.9 667,320C670.5,327.5 674.3,316.7 673,327C669.3,333.2 675.8,338.9 676,344C677.1,351.6 679.2,358.4 681,363C682.5,367.6 687.7,380.7 685,367C683.2,361.5 681.4,355.6 678,350C679.4,342.1 675,338.8 675,331C673.6,324.9 674.8,313.1 677,313C678.6,320.4 681.5,325.2 682,332C684.6,337.6 685.7,344.2 687,349C690.9,361.5 692.2,353 688,346C686.8,340.4 684.4,333.8 682,328C679.7,321.3 682.5,311.4 684,324C685.5,330.8 687.6,336.4 690,341C687.3,329.6 689,333.5 692,335C694.4,325.5 697.2,344.9 699,343C695.7,333.6 702.9,339.2 698,328C697.3,325 692.8,312.5 696,312C697.2,319.1 699.8,324.2 701,330C703.3,336.3 703.4,345.2 707,348C709.9,353.3 712.4,358.6 718,360C723.3,352.4 711.5,353.1 710,347C705.5,336.7 710.5,347.5 714,349C725.3,352.2 715.5,338.9 719,340C720.5,336.5 719.7,326.2 720,319L720,296L720,273L720,249L720,226L720,203C718.5,197 724.2,183.5 714,185C712.4,183.9 697.9,183.4 706,180C710.4,176.2 721.3,179.4 720,170C715.9,166.5 707.7,171.7 702,172C696.6,174 691.2,176.3 684,177C673,182.7 684.9,173.4 689,173C704.3,169.4 677.2,175.2 689,171C694.9,169 701.1,167.5 707,166C716.7,169.1 724.3,165.1 718,156C717.4,147.9 719.2,149.1 713,156C708.2,159.8 707.6,163.4 700,164C702.5,159.7 692.4,168.1 687,167C682.4,166.8 697.5,160.7 696,162C701.9,159.9 707,156 711,153C718.6,145.3 707,153.2 703,154C704.7,152 717.1,145.1 710,145C704.8,148.1 700.2,151.2 696,155C693.1,159.7 688.3,163.8 683,165C678.8,169 674.8,172.8 671,176C667.1,180.5 663,185.4 658,188C655.7,192.6 649.5,194 647,196C651.1,192 656,187.9 658,183C664,181.2 667,176.5 671,172C675.4,169.5 679.5,165.8 684,162C689.2,160.1 692,155.2 696,151C700.1,147.8 705.9,144.6 711,142C713.5,138.1 721.5,136.8 719,129C715,132.6 712.9,138.2 708,141C703.8,144.5 698.7,147.2 694,150C691,152.8 680.6,157.4 682,158C689.5,158 677,164.8 675,166C670.9,170.1 666.7,173.7 662,176C658.9,181.2 652.5,182.6 650,188C646.5,191.5 643.8,199.4 639,199C642.8,195.3 645,189.8 649,186C652.1,181.5 656.3,178 660,174C664.4,170.7 669.9,168.4 673,163C673.7,157.1 664.7,168.7 662,169C653.1,176 659.1,168.6 663,165C667.7,161.7 670.4,156.8 675,154C683.4,146.7 671.6,154.5 669,156C664.3,159.8 660,164.5 657,168C652.8,171.9 648.3,175.1 644,179C642.3,180.3 632.1,191.3 637,184C635.2,180.5 641.2,177 644,172C648.7,169 653,164.3 657,161C660.6,157.2 667.4,156.3 671,152C676.4,149.9 680.5,146.3 685,144C689.8,140.8 695.2,136.8 700,136C704.2,140.8 692.6,143.2 689,145C685.7,151.5 697.4,143 700,142C704,138.2 708.7,133.9 711,129C713.4,123.9 721.1,123.9 720,115C717.8,118.4 707,127.2 713,118C719.6,118.8 723.1,104.1 715,112C711.9,116.6 703,121.1 711,113C713.6,112.1 725.7,103.1 716,106C711.5,109.9 705.9,113.2 703,117C700,120.7 703.4,124.4 697,129C696.1,133.3 684.1,140.8 691,133C693.5,128.7 700.5,123.6 698,119C708.1,108.9 694.5,121.2 700,112C704,108.7 708.4,105.4 714,103C726.1,100.6 715.6,97.2 709,101C704.8,104.4 699.5,106.8 696,111C691.3,108.5 701.9,102.6 705,101C708.2,96.9 718.5,99.4 720,93C722.9,82.6 717.3,80.5 708,81C697.4,81 719.4,80.6 720,80C715.8,76.7 704.1,79.4 698,78C692,80 686.4,82.2 680,84C674.8,85.9 669,87.9 663,90C661.4,91.6 642.6,93.9 653,91C659,89.3 666.5,87.8 670,84C676.1,82.7 681.5,80.4 687,78C692.6,77.2 704.3,73 690,75C684.9,77.4 678.7,79 673,81C669,84.8 661.8,86.6 656,88C649.3,88.7 644.8,91.9 637,91C630.1,92.7 622.2,92.5 617,95C610.4,96.1 605.5,99 599,100C592.7,101.7 586.5,104.4 583,108C578.9,111.5 575.9,116.2 570,118C567.4,121.1 560.3,129.1 559,127C562.2,122.5 566,118.6 570,115C576.5,107.8 561.8,116.2 561,118C557.7,122.5 555.3,127.8 552,132C549.2,137.1 550.4,146.1 547,151C547.2,144.2 547.2,138.4 549,132C553.9,126.7 556.4,119.5 550,128C548.8,134.8 545.5,139.3 544,145C543.3,152.1 547.6,157.7 546,165C547.4,171.5 549.1,185.6 545,173C544.1,164.3 540.9,171.3 541,158C539.9,152.4 540.6,143.1 542,138C546.2,134.2 547.8,128 551,124C556.3,121.1 557.4,114.5 562,111C566.5,110.9 580.2,107.6 576,106C567.4,107.6 563.3,104 554,104C547.4,105.1 542.3,107.7 536,109C530.7,111.6 522.1,110.7 517,113C512.4,116.6 507.4,120.5 504,124C499.2,127 497.3,132.8 495,138C491.5,142.5 491,149.6 487,154C485.9,160 482.2,164 482,172C479,166.7 480.7,163.5 480,154C483.4,146.6 482.4,138.5 480,151C478.3,156.3 478.7,166.3 479,172C481.6,186.2 476.6,173 476,167C474.4,161.7 473.8,152.7 477,149C481.7,145.3 484,138.7 475,145C470.4,148.3 470.3,156 468,162C464.2,170 468,153.9 469,151C473.8,143.1 463.3,146.5 459,149C453.1,150.9 450.2,155.8 446,159C442.5,163.6 440.7,170.8 439,176C439.5,184.7 439.9,192 441,198C442.1,205.4 443.8,212.6 444,218C446.5,224.6 448.9,229.9 451,234C456.6,237.7 455.7,252.1 450,241C448.2,235.8 445.9,230.3 444,224C442.4,218.4 440.8,211 439,205C437.6,191.2 435.7,206.5 438,211C440.3,217.4 441.8,223.5 443,229C445.1,231.7 448.8,249 444,239C444,236.8 438.4,221.1 439,230C441.4,236.2 443.7,241.6 443,249C443.2,253.5 448.6,269.1 448,256C449.6,247.4 451.2,265.1 455,264C459.7,268.1 464.3,272.5 469,273C471.8,278.1 491.1,273 480,277C482.6,279.3 496.6,271.6 486,278C480.7,280.8 475.4,283.1 469,285C473.8,284.5 477,285.9 470,291L459,303C455.1,307.3 450,309.8 445,313C440,320.8 452,311.7 453,309C463,302.5 446.6,320.9 457,312C460.5,310.2 464.2,300.6 466,302C463.5,307.3 459.5,311 457,316C454.3,321.2 452.3,326.9 451,333C450.3,340.5 449.2,348.3 445,351C438.3,353.6 432,348.9 441,355C447.8,353.9 450.7,349.1 453,343C454.6,337.6 456.6,331.9 458,325C461.2,320.9 462.5,313.3 466,309C468.7,304.7 471.7,300.1 475,296C480.4,293.2 484.9,288.7 489,286C499.4,284.8 497.5,279.3 489,284C484,284.4 497.5,279.2 499,277C504.9,275.4 509.1,271.9 514,269C519.5,266.9 523.8,263.4 529,261C535.5,259.7 541.6,258.1 549,257C555.4,256.3 564.4,256.4 569,254C573.8,252.6 586.7,257.1 586,254C579.6,253.5 572.1,253.3 567,250C570.1,246.7 580.4,247.6 585,247C593,247 602.2,247.2 602,240C607.3,230.5 607.6,237.9 602,243C597,253.6 602.7,245.9 606,241C609,236.8 610.3,230.4 612,225C615.7,220.2 615.4,210.9 617,205C622.5,195.1 620.2,206.2 617,210C614.9,218.3 627.7,205.1 619,216C621.5,221.1 616.6,225.7 613,230C611.3,235.9 609.2,242.8 606,246C602.2,250.5 600.3,256.4 594,257C592.4,259.8 573.1,260.6 583,261C594.7,258.5 589.8,260.7 586,266C584.2,271.7 580.7,279.5 583,286C583,292.6 589.9,296.8 589,300C587.1,296 577.3,289.9 585,298C589.7,301.3 589.9,308.8 591,315C592.8,328.6 595.9,320.5 596,320C597.3,327.8 599.5,333.3 599,341C599.7,348.5 602,353.9 602,361C603.9,367.5 604.4,374.6 606,380M621,373C623.8,366 623.2,352.7 621,345C620.9,351.9 620.6,365.4 621,373M627,373C628.1,366.1 628.8,354.8 626,348C626.1,355.9 625.4,367.1 627,373M599,368C600.7,358.4 596.8,349.8 595,340C591.6,340.4 589.4,329.5 587,320C587.3,318.4 585.9,315.7 585,314C582.5,302.3 581.8,310.3 579,305C573.4,300.3 568,293.8 570,281C569.1,271 565.5,296.5 571,298C573.2,307.4 581.3,311.2 584,318C588.5,324.9 589.2,336.1 592,343C594.4,351.8 597.9,360.2 599,368M395,365C391.8,362.7 388.8,351.1 385,345C381.5,338.7 378.9,330.6 376,322C374.7,313.2 366.9,309.2 365,300C364.8,298.6 363.8,295.5 363,293C363,275.1 361.7,304.9 360,296C357.6,275.7 355.8,298.7 360,303C363.3,311.5 369.9,315.7 372,323C375.4,331.7 377.6,341.3 383,345C386.9,352.8 388.2,362.2 395,365M396,363C399.3,358.9 401.2,334.3 401,354C406.3,366.4 417.6,353.8 419,348C421.6,340.7 440.6,340.7 423,339C411.1,350.5 422.7,336.6 427,333C432.6,330.7 442.1,312.9 432,322C426.5,328.6 419.3,333.6 413,338C406.1,340.3 395.9,348.2 396,349C388,336.5 399,357.9 396,363M408,355C397.3,354.4 410.7,346 411,343C415.4,339.1 419.4,335 424,331C430.8,326.6 419.2,338.8 417,340C415.2,345.6 413.1,351.6 408,355M683,351C682.9,339.3 677.8,329.1 677,315C676.3,329.1 680.5,340.2 683,351M441,345C443.5,345.7 445,343.1 445,342C450,329 441.6,348.6 435,339C426.8,328 430.9,346.6 441,345M394,344C404.2,344.6 410.6,335.9 418,331C419.9,327.1 440.8,315.3 429,317C421,321.7 414.7,329 406,332C388.1,341.3 404.8,336.3 412,331C426.7,319.8 409.8,337.1 404,338C392.8,351.8 387,333 389,328C385.8,325.5 372.2,309.6 379,321C386,327.3 385.2,341.6 394,344M394,343C402.3,345.5 410.8,336.4 417,331C420.1,327.9 438.6,316.3 430,317C421,321.4 415.5,328.7 406,332C388.1,341.3 404.8,336.3 412,331C426.7,319.8 409.8,337.1 404,338C392.8,351.6 387,333.4 389,327C385.3,326.1 372.1,308.2 379,322C386.5,327.4 385.4,343.9 394,343M628,340C632.8,332.1 626.6,323.3 626,314C623.3,322.9 629.5,331.7 628,340M392,338C397.4,333.1 406.4,331.8 411,326C417.3,322.4 423.9,318.1 428,313C421.4,316.6 416.1,321.6 409,325C405.8,331.6 394.1,331 392,338M437,338C441.4,336.8 441.2,331 441,325C438.8,328.6 438.1,333.5 437,338M712,338C708.4,333.1 709,321.9 708,313C712.2,319.5 711.1,331.3 712,338M397,324C407.1,325.3 411.8,321.4 417,318C423,315.8 427.1,310.5 431,307C425.3,307.3 421.9,314.8 416,316C411.8,318.9 401.9,320.7 395,318C389.7,318.6 385,312.5 381,308C378.7,304.8 374.8,295.6 376,291C378,298.2 381.4,304.1 385,307C389.1,312.1 394,316.6 401,316C413.8,317.2 418.5,313.5 404,313C396.1,313.7 390.7,309.8 387,306C383.1,301.6 379.5,295.9 378,289C380.1,277.4 375.2,281.5 376,270C377.9,254.2 373.6,269.6 374,275C372.3,282.7 372.8,292 374,298C376.4,304.3 379.1,311 383,314C388,317.7 391.7,323.5 397,324M574,316C574.6,309.6 568.8,303.3 566,297C567,304.3 571.4,312.1 574,316M595,315C593,307.3 593.2,296.1 587,292C581.8,287.2 585.3,274.1 588,269C588.6,259.7 600.5,260.6 603,254C605.2,258.2 615.7,244.4 622,252C633.9,263.3 624.2,255.1 616,253C604.7,251.5 610.1,267.9 597,264C590,267 593.5,279.6 592,287C595.6,294.5 595.6,305.4 595,315M409,311C433.5,307 406.1,312.1 398,307C376.8,300.7 400.8,312.2 409,311M614,309C617.1,302.7 612.1,295.9 610,289C610.7,294 614,302.4 614,309M404,307C417.2,308.5 420.6,305.1 406,305C395.6,301.9 391.1,306.3 404,307M409,304C413.1,303.1 397.2,299.7 394,296C389.9,298 404.7,302.5 409,304M388,302C387.5,297.1 381.5,284.8 383,277C383.7,267.8 387.4,256.7 385,248C383.3,257.7 379.9,266.6 380,277C379.8,286.9 382.3,297.8 388,302M558,299C558.6,292.1 559.5,285.9 558,280C556.4,285.7 556.2,294.5 558,299M410,297C417.8,296.4 397.3,292.4 396,286C391.4,285.5 402.9,298.6 410,297M394,295C391.1,293.1 387.3,279.4 386,270C383.2,279.3 387.8,292.1 394,295M579,295C578.9,289.6 576.6,279.1 579,274C579.5,269.6 591.1,259.7 582,266C577.7,267.1 577.4,286.5 574,276C571.8,285.2 577.3,289.5 579,295M626,295C625.9,289 627.7,281 629,275C629.5,281.1 628.2,289.6 626,295M412,291C414.6,290.2 403.5,284.8 402,279C398,276.1 394,268.2 396,261C397.5,252.9 393.6,246.2 394,237C394.6,228 393.7,219.1 392,212C390.5,205.5 390.7,195.9 394,190C394.1,185.2 407.4,175.1 399,183C397,190 393.6,195.6 393,204C393.8,212.7 397.2,219.2 398,225C400.5,234.5 405.5,231.5 407,241C410.7,246.7 414.6,252.5 417,257C422.3,261.7 425.7,267.3 430,271C436.2,277.1 445.2,278 435,271C429.7,267.8 425.2,263.3 421,257C418.2,252.6 414.3,246.8 410,242C407.9,236.3 404.7,230.4 401,225C397.1,220.4 396.4,211.2 395,204C395.9,196 397.9,189 401,183C404.5,177.9 411.8,175.4 415,171C420,166.7 424.3,162 428,156C431.6,153.6 440.8,142.2 431,150C427.9,156 423.9,161 417,163C412.3,167.1 406.6,171.2 402,174C396.6,178 393,183.5 390,189C386.5,194.7 386.1,204 386,212C388.9,220.2 383.4,228.1 386,236C389.9,252.1 387.2,232.6 387,226C389.3,214.7 391.3,235.5 390,240C390.8,248.8 394.8,256.1 392,263C391.3,271.8 393,280.7 397,284C407.1,292.7 393.8,281 394,276C392.1,260.7 396.4,272.5 398,279C401.8,284.4 406.8,289.3 412,291M613,286C609.3,280.4 605.1,274.4 598,270C607.3,272.1 611.5,278.2 613,286M417,285C418.7,279.9 412.2,273.1 408,269C409.4,273.5 415,281.2 417,285M421,271C420.4,265.7 413.4,262.5 410,257C411,263.2 417.6,266.8 421,271M444,267C442.9,262.7 439,255.7 437,250C437,242.7 431.6,240 430,233C430.1,239.3 433.9,246.5 435,252C437.6,257.7 440,263.5 444,267M499,265C489.4,263.1 482.4,257.7 475,252C482.5,257.6 491.6,261 499,265M511,262C515.3,258.6 512.8,244.3 507,243C503.2,237.5 498.5,231.5 496,225C495.5,216.2 493.1,208 491,200C489.5,192.9 490.5,181.1 493,175C496.2,169.1 501.5,163.8 505,158C512.8,148.1 493.7,167.8 505,154C510.3,149.7 515.3,144.1 518,138C520.7,131.3 525.3,126.5 529,120C534.8,117 543.7,115.3 550,113C551,116.4 537.4,118.5 534,122C531.1,128.3 549.9,114.6 547,120C540.7,123.4 534.1,127.4 529,131C524.5,136.1 520.6,142.9 516,147C516.3,152.5 507,156.7 504,162C495.6,172.7 502.4,168 507,161C511.8,156.5 516.4,151.7 521,147C527,143.2 530.7,136.4 534,131C538.1,130.3 550.8,116.5 544,125C541,131.4 536.6,137.7 534,144C532,151.3 529.3,159.2 525,164C517.6,181.8 526.3,153.5 521,162C516.8,167 510.8,171.6 507,176C503.1,182.2 503.1,192.9 503,201C506,209.9 503.6,218.9 507,224C508.4,228.8 518.1,245.6 513,233C512.2,226 508.9,216.6 510,208C509.5,191.5 513.9,196.8 512,210C512.9,219.3 515.2,227.6 520,231C525,242.9 517.5,234.1 523,246C528.3,262 518.5,253.1 519,244C508.6,234.2 518.4,246.2 518,252C513.9,238.4 517.5,261.3 511,262M509,261C507.9,262.5 508.6,247.3 501,246C497.2,241.3 493,235.3 491,228C495.1,232.1 498.7,239.5 503,243C508.8,245.3 514.5,255.8 509,261M432,260C428.6,255.6 425.1,246 419,241C415.4,240.8 404.2,225.9 406,232C407.7,234.6 409.4,236.9 410,237C416.4,246.9 409.4,233.2 417,243C423.7,247.9 423.5,258.8 432,260M435,259C432.2,252.6 430.2,241.7 426,234C425.1,224.4 423.5,213.9 421,205C420.6,215.7 424,225.2 424,235C428.8,242.7 430.2,253.5 435,259M498,258C493.4,255.6 488.1,251.6 484,248C478.6,245.3 475,239.5 470,236C461.6,228.1 475.3,237.7 477,239C482.2,242.9 486.3,248.2 490,251C499.2,257.9 486,246.4 485,244C481.6,239.7 476,236 471,232C466.3,230 461.8,225.1 457,221C451.3,213.6 449.7,216.1 455,223C458.2,228.9 463.2,233.3 467,236C469.3,238.8 481.2,249.5 473,244C470.4,240 463.5,237.5 460,232C455.7,229.7 453.3,222.7 450,218C447,213.3 445.2,205.8 444,199C442.2,193.7 440.5,183.9 442,177C443.6,170.5 445.4,162.9 450,160C451.4,157.9 465.2,149.5 459,155C454.9,159.1 451.3,164.8 448,169C445.3,171.6 443.6,183.1 445,187C447.3,194.2 448.5,202.3 451,207C453.3,211.8 457.1,221.3 460,219C456.3,216.2 455.6,207.5 453,201C452,196.1 450,187 450,181C450.2,172.6 453.7,166.7 457,162C465.3,153.5 462.9,162.5 458,167C454.5,171.6 453.5,180 452,186C453.1,192.1 454.5,205.9 458,201C459.7,198.9 464.5,180.7 464,194C461.6,197.9 464.1,217.1 459,207C458,214.6 464,219.6 466,223C468.6,228.3 474.7,232 478,235C484.6,237.9 487.8,244.1 491,247C493.2,251.2 505.1,257 498,258M536,255C525.5,258 529.5,245 527,240C528.1,234.3 528.1,223.2 527,217C526.1,211.1 523.6,204.6 522,198C522.1,191.5 520.3,185.6 519,178C522.1,183.9 524.3,190.7 524,197C525.9,203.9 528.3,210.5 529,216C530.1,222.6 531.3,232.6 530,237C531.6,244.3 529.2,254.5 536,255M552,254C544,252.5 562.9,251.1 561,244C563.9,239.1 571.1,237.7 573,231C577.3,226.7 582.7,223.6 585,217C585.4,211.8 587.3,202.9 587,195C586.3,182.8 585.2,204.7 583,207C584.3,214.3 576.5,225.5 581,212C581.7,204.2 583.4,197.2 584,189C584.9,181.7 585.8,174 586,166C588.2,160.8 583.8,142.1 583,158C582.3,166.6 581.4,174.3 581,183C580.8,190.8 580.9,199.5 579,206C581.2,213.6 573.5,226.4 574,214L574,189C575.2,180.9 576.2,173.4 576,164C573.6,163.5 573.7,177.6 572,183C572.6,191.3 571.7,199.8 572,207C571.2,214.8 566.9,217.4 567,227C563.6,240.6 566.2,220.8 566,216C567.1,209.4 565.8,199.9 565,192C564.1,184.5 563.3,177.9 565,169C566.4,162.5 566.2,153.7 567,146C571.3,133.2 566.9,139.2 565,148C565.7,157.1 563.8,163.7 563,172C562.8,179.3 561.8,188.5 563,196C563.4,204.3 564.6,211.8 564,220C565.6,226.1 561.4,242.2 561,235C564.5,228.8 561.8,220.1 563,212C561.4,199.4 561.2,231.9 559,212C560.2,203.9 559.4,194.5 560,187C560.1,178 561.2,170.6 561,162C563.2,155.4 563.6,147.2 565,140C567.1,133.9 571.2,128.7 574,124C582.2,119.8 580.1,116.9 583,112C587.6,108.5 593.5,105.8 599,103C606.1,101.3 612.2,98.8 619,97C632.7,94.7 616.4,101.6 613,103C607.9,106 603.2,109.9 597,113C593.7,117.6 588.7,121.1 586,127C581.3,140.1 588.6,131.1 590,125C595.4,121.4 598.9,116.3 604,113C608.9,109.2 613.3,105 619,102C631.4,98.5 615.5,105.7 614,109C612.4,112.8 610.7,119.4 606,124C602.8,129.2 600.9,135.9 599,143C597.8,147.1 595,160.5 597,161C598.3,153.8 600.6,147.6 603,141C605.2,135 609.7,130.9 613,126C618,122.5 621.4,116.5 625,113C627.1,108.2 639.3,106.4 637,103C628.5,104.9 648.8,97.2 647,102C653.8,100.8 661.1,99.5 667,97C681.4,93.5 672.8,98.7 665,100C658.8,102.3 653.1,105.2 648,109C643.5,112.8 638.2,116 633,120C630.4,122.4 627.1,135.7 622,129C619.9,132.8 617.8,141.7 616,147C611.2,159.3 621.4,151.4 621,144C623.3,137.7 626.7,132.5 631,128C635.6,123.8 646.2,120.6 635,127C631.2,131.3 626.3,136.5 625,142C629,137 632.5,132 637,127C641.7,124 648.2,121.9 652,117C654.4,115.7 660.7,98.6 660,111C658.3,117.6 653.4,122 649,126C647.3,132 640.9,134.1 638,140C635.5,145.9 633.4,152.4 630,158C628.9,163.8 623.2,169.8 621,171C623.9,166 627.8,161.3 630,154C631.6,147.9 634.5,142.3 637,136C641.2,135.4 650.9,122.7 640,129C636.3,133.8 631,137 628,143C624.9,148.1 623.2,155 619,160C619.5,152.2 616.9,155.7 613,164C612.4,171.6 611.2,179 609,185C609.2,194.1 606.2,199.7 604,207C603.6,214.3 602.8,222 599,226C595.8,235.3 589.4,233.9 595,237C590.8,234.5 576.1,242.2 582,241C588.7,237.4 601.3,246.7 601,236C604.9,232.1 606.4,224.2 608,219C610,211.8 611.3,204.6 615,200C618.7,194.8 622.9,190.5 626,185C627.9,180.1 629.6,172.8 633,167C634.3,163.8 643.1,154.3 639,154C636.5,160.3 632.6,165 628,169C625.3,174.9 621.9,180.1 619,185C617.7,193 613.3,197.2 611,203C606.6,216.9 608.6,202.6 610,196C614.4,190.6 611.4,182.6 613,175C618.1,164.4 620.4,170.3 615,178C617.4,178.3 612.5,196.8 615,192C616.2,184.7 619.3,179.1 622,173C626.3,169 629.9,164.1 632,158C635.1,152.1 637.2,145.7 640,140C641.7,137.6 652.5,124.6 647,134C643.5,139.6 644.8,148.7 641,152C645.1,151 649.9,143.2 653,147C656.5,144.8 666.9,139 667,140C662.1,144.2 656.4,147 651,151C647,154.8 642.1,158.5 639,163C636,169.5 631.9,174 630,180C628.3,187.5 624.2,192 621,197C617.5,202.4 613.9,207.4 612,214C611.3,221.9 607.9,227.1 605,233C600.2,236.6 602.9,247.8 590,244C585,243.2 568.2,244.3 578,239C582.8,235.4 589,233.1 592,228C598.7,225.7 599.6,217.9 601,211C602.4,203.6 605.3,197.9 605,189C607,182.9 609.2,175.1 608,167C607.7,158.8 609.5,152 612,146C617.4,139.4 615,130.5 611,142C609.9,149.2 606.3,154.1 604,161C603.9,168.9 602.5,176 601,183C598,197.8 598.5,184.6 599,176C601.2,169.6 602.1,162 603,154C605.9,148.6 608.6,142.7 610,136C613.4,127.7 604.9,142.2 604,145C601.3,150.9 600.2,158.3 598,165C597.5,172.4 596.5,180.8 595,187C596.7,192.9 590.4,209.8 592,196C594,188.8 595.1,181.3 594,172C594,163 593.7,151.8 592,167C590.5,174.1 592,184.2 590,190C590.5,199.8 588.5,206.4 587,214C588.2,220.9 583.4,226.1 579,230C573.4,232.9 573.1,241.1 568,244C566.1,251 559.3,253.6 552,254M502,253C495.3,249.6 490.1,242.2 487,234C488.4,224.5 481,216.9 484,205C484.9,211.8 488.7,223.3 489,232C492.4,241.1 497.3,247.7 502,253M441,253C442.5,245.7 440.4,237.2 439,230C438.2,223 436.8,216 433,210C429.6,205.9 430.1,195.6 428,189C425.4,181.5 429.2,172.7 432,168C435.5,163.3 440.4,158.3 444,154C449.3,150.7 455.7,147.3 460,144C465.4,140.4 474.9,140.1 478,136C483.1,133.1 492.7,129.2 492,126C486.8,126.7 481,132.1 474,133C466.3,134.3 461.2,139 455,140C449.7,144 445.5,149.6 441,153C437.3,158 432.1,162.6 430,168C425.3,172.8 425.1,181.9 426,189C426.7,197.9 428.5,205.8 431,210C433.8,217.1 435.2,225.5 437,231C438.8,238.5 440.5,246.5 441,253M540,253C532.1,253.5 532.9,241.7 533,234C534.3,225 532.6,217.6 530,210C528.3,203.9 527.9,195.3 527,187C526.5,183.4 517.9,169.1 523,173C525.8,180.1 531,183.8 529,194C530.7,202.1 531.2,210.6 533,217C536.2,223.7 534,234.9 535,242C530.1,253 553.8,251 540,253M554,247C536.4,252.5 538.9,239.3 540,227C540.7,215.6 539.1,200.3 543,217C543.7,221.5 539.7,242.9 545,245C560.2,251.9 557.5,235.3 559,226C555.1,218.8 557.1,204 556,194L556,185C556.6,167.9 559.1,181.4 558,190C558.3,199.6 557.5,214.4 561,221C562,231.4 560.7,243 554,247M553,244C547.4,237.9 548.6,222.9 544,214C544,205.8 540.2,189.5 544,183C545.5,188.5 544.6,209.2 547,212C547.8,224.9 552.6,232.9 553,244M509,241C512.3,235 502.4,226.7 501,218C500,208.5 497.2,199.7 495,190C492,198.3 497.2,210.4 498,218C500.2,228.1 504.8,235.2 509,241M576,238C576.3,234.1 588.1,226 590,216C593.1,205.9 600,199 602,187C604.9,195 597,207 594,215C589.9,224.9 584.5,233.3 576,238M433,237C433,228.8 429.7,218.9 428,210C424.3,203.8 424.2,192.1 422,183C420.6,194.3 424.7,203.4 425,212C428.2,220.4 430.8,229.7 433,237M526,237C523.6,229.7 522.7,219.2 520,212C526.2,216.5 525.5,228.6 526,237M419,234C424,237.5 419.6,223.7 417,217C415.1,205 411.9,204.7 415,218C421.8,234 413.1,222 411,215C411.1,221.1 416.7,228.4 419,234M494,227C490.5,219.9 490.4,208.3 489,198C491.3,207.4 493.1,217.3 494,227M554,225C551.9,218.9 553.4,208.4 552,200C550.7,192.8 551.8,182.8 552,175C555.6,182.7 552.1,191.6 554,199C554.7,207.5 555.3,218.2 554,225M700,225C695.6,219 692.2,211 689,204C694,210 698.1,217.4 700,225M538,223C534.9,218.1 533.5,211.4 532,204C531.5,197.1 531.5,188.9 531,180C534.8,185.7 533.1,195.4 534,201C534.2,210.6 538.3,214.7 538,223M569,212C571,204.2 569.2,192.9 570,185C568.9,177 574.3,163.9 568,161C568.3,170.2 565.2,178.1 568,185C568.2,194.7 569.1,203.2 569,212M501,210C501.8,205.1 499.9,197.6 500,189C501.1,182.5 503,175.9 507,173C513.7,165.9 524,159 527,151C522.6,154.2 518.6,158 514,162C511.4,165.9 505.5,168.5 503,172C497.6,180.3 497.7,201.5 501,210M706,210C701.8,205.8 694.5,202.9 689,199C695.9,202.3 704.9,203.5 706,210M577,205C578.4,196.7 578.2,187.2 579,178C579,169.5 580.9,160.3 579,152C577.3,159.2 577,168.4 577,178C575.4,186.9 577.7,195.7 577,205M403,203C405.2,197.6 405.7,188.8 407,183C404.4,188.3 402.7,196 403,203M400,203C402.5,196 405.1,183.7 406,180C402.9,185.5 397.4,195.7 400,203M409,203C411.5,198.7 410.8,191 409,186C409.4,191.4 407.3,199.6 409,203M475,201C472.8,197.2 470.7,189.3 471,182C471.8,176.2 469.6,165.6 471,162C472.1,168.4 475.3,175.6 474,181C471.7,188.2 474,197.2 475,201M702,200C689.7,200.9 686,192.6 675,190C688.5,190 691.9,198.7 702,200M430,184C433.6,176.7 438.6,169.4 441,161C434.7,166.3 432.4,176.3 430,184M419,178C423.8,174.2 426.5,166.8 430,162C432.6,156.2 439.7,152.7 442,148C435.3,150.7 431.5,157 427,161C424.4,166.5 418.2,171.4 419,178M639,171C639,167.7 647,160.4 651,156C656.2,150.9 662.3,146.7 669,143C668.6,146.1 658.4,151.2 654,155C649.3,160.7 644.1,165.9 639,171M558,169C557.9,158.4 555.3,141.3 562,135C558.5,141.1 561.2,160.5 558,169M555,149C551.7,145.6 556.9,136.3 558,133C561,127.6 566.8,124.4 570,121C572.5,123.6 562.8,128.4 561,132C559.1,137.5 556.5,143.9 555,149M592,149C595.3,144.7 593.5,135.2 595,129C598.1,125.3 602,118.9 603,116C599.5,120 596.2,124.3 593,129C591.1,134.4 592.7,142.1 592,149M485,145C489.4,142.4 491.2,137.4 494,133C489.9,136.1 486.5,139.5 485,145M500,144C502.6,133.4 510.5,125.1 518,120C513,126.8 505.3,135.4 500,144M509,142C507.8,138.3 513.4,132.8 515,128C516.3,132.3 510.9,138.1 509,142M655,127C657.3,122.5 661.2,111.8 666,106C666.7,101.5 693,97.8 677,104C675.3,106.4 681.8,106.5 682,105C693.7,105.5 674.2,109.7 673,111C666.5,115.8 660.5,120.9 655,127M583,116C591.9,115.3 598.4,107.5 606,104C597.1,104.9 590.5,111.6 583,116M678,99C667,101.5 682.6,93.8 687,94C699,93.2 681.8,99.3 678,99M659,96C646.3,95.7 670.6,92.4 672,90C679.6,87.9 686.8,85.3 694,83C707.6,84.1 685,88.4 682,90C675.1,92.2 668.9,95.9 659,96Z" fill="#260000"/>
</g>
</svg>
