<?xml version='1.0' encoding='utf-8'?>
<?xml-stylesheet type="text/css" href="svg.css"?>

    <!-- Generator: imaengine 6.0   -->
    <svg viewBox="0,0,720,959" xmlns:xlink="http://www.w3.org/1999/xlink" xmlns="http://www.w3.org/2000/svg" width="720" height="959" version="1.1">
<defs/>
<g id="layer0" opacity="0.8">
<path id="svg-img" d="M0,959L23,959L46,959L70,959C81.1,965.9 81.9,951.2 82,954C80.1,963.9 93.5,958.2 99,959L122,959L145,959L169,959L192,959L216,959L239,959L262,959L285,959L308,959L331,959L354,959L378,959L401,959L424,959L448,959L471,959L494,959L517,959L540,959L564,959L587,959L610,959L633,959L657,959L680,959L703,959C709.1,957.9 723.5,964.5 720,953L720,929C719,922.9 721.8,912.4 718,908C703.7,906.3 727.1,910.5 720,898C721.7,884.1 716.2,899 715,887C725.4,888.5 716.5,881.3 711,880C703.2,871.9 711.1,881.7 717,879C724.8,874.4 705.5,878.2 709,869C710.5,876.1 728.6,871.4 713,870C709.2,870.1 709.5,851.3 706,860C700.8,849.1 704,859.6 703,864C700.4,864.9 699.8,853.9 691,855C685.8,855.1 677.3,856 675,860C670.5,847.2 676.3,869.1 672,860C670.1,848.4 677,857.5 669,849C666.2,846.9 653,844 666,845C676.9,844.1 658.3,842.5 656,840C651.8,837.6 649.5,830.9 647,826C646.5,821.4 638.9,810.8 644,821C645.1,828.4 649.2,832 651,837C653.3,842.4 645.9,831.8 641,833C639.1,829.3 634.5,828.9 630,823C628.3,809.9 627.8,831.6 630,831C624.5,829.7 626.5,819.9 621,817C616.1,814.9 614.8,808.5 608,807C605.7,805.8 590.1,801.2 597,801C602.8,804.4 609.1,805.8 613,808C619.8,810.6 624.5,813.6 631,813C631.9,810.8 621.8,809.8 617,807C612.2,805.3 606.4,803.4 600,801C588.6,797.4 604.1,800.1 607,802C613.2,804.3 619.5,805.7 626,806C633,805.5 641,806.2 646,808C654.4,808.2 658.1,813.5 662,816C667,819.3 670.2,823.8 675,826C680.6,828.8 685.2,831.9 691,833C698.2,834.4 704.5,835.8 710,837C714.2,842.8 725.9,841.4 716,835C711.7,832.4 705.6,830.8 699,829C692.3,828.7 687.1,826.2 682,823C676.6,821.3 672.8,817.3 667,814C663.4,811.2 659.5,806.1 653,804C648.4,802.5 641.6,801.6 634,801C628.1,802 620.2,800.5 615,797C610.1,795.9 603.7,794.6 597,792C591.9,790.9 586.6,788.4 581,785C576.7,783 569.3,782.7 569,774C568.3,768.2 568.7,760.1 567,753C566.3,747 561.9,743.7 559,738C556.9,733.2 553.5,727.6 550,723C547.4,719 544.4,714.3 541,709C538.7,704.6 535.5,700.1 531,696C527.8,692.4 525.1,687.3 520,684C517.6,679.4 513.7,675.6 509,672C505,668.9 500.3,665.9 495,663C489,661.7 483.5,659.5 476,658C467.3,659.1 468.5,652.6 469,644C470,637 470.9,629 470,621C471.3,614.6 474.5,610.2 478,606C481,601.2 483.4,595.9 486,590C488.5,585.6 489.7,579.1 491,572C492.5,566.5 493.4,559.6 493,552C495.2,545.8 494.6,536.4 491,532C489.6,519.1 487.9,531 490,537C490.4,545.1 489.7,552.1 489,559C488,565.9 487.4,574.3 485,579C484.1,585.7 481.1,590.4 478,595C476.2,600.9 473.2,605.7 469,610C467.1,614.9 466.1,621.6 466,630C465.8,636.8 465.8,644.5 464,651C465.4,657.7 469.8,662.7 467,670C466.7,677.6 467,685.6 466,692L466,715C466.1,723.3 467,731.4 470,734C473.3,739.7 477.4,743.4 476,752C475.9,759.4 474.1,765.3 472,771C470.6,777.2 469.1,783.4 467,789C465.8,795.6 463.6,801.1 460,806C457.4,810.3 455.3,815.9 451,820C449.7,825.7 447,830.8 444,835C441.5,840.7 439.1,846 435,850C433.7,856.1 430.4,861.8 427,865C425,871.1 421.9,875.8 419,880C415.5,884.8 412.4,889.4 408,893C405.9,898.3 401.6,901.8 398,906C395.4,910.9 389.9,913.2 386,917C381.8,919.1 377.6,926.5 370,922C366.4,919.4 362.4,915.6 358,911C354.9,907.7 351,903.9 347,900C343.8,895.6 338.8,892.9 334,889C331.1,885.2 327.2,881.4 323,877C320.5,872.6 315.9,869.5 313,864C309.1,860.9 306.5,855.8 302,851C299.8,847.1 295.7,843.4 293,838C289.1,834.6 286.3,829.7 282,825C279.7,820.9 275.9,816.9 271,813C269.4,808 264.2,805.5 261,800C257.6,796.6 254.1,791.1 251,786C246.2,781.8 251.2,770.1 257,778C259.6,783.7 264.6,786.5 268,790C270.6,795.9 275.8,798.5 278,803C282.5,807.2 283.9,813.5 288,816C293.8,826.6 291.4,809.5 288,807C286.3,802.1 283.8,796.8 280,792C278.4,786.9 273.6,783.9 270,779C265.8,776.1 262.5,770.5 259,766C256,762.2 253,757.6 250,752C246.2,748.9 244.9,742.5 244,735C242.7,728.5 244.3,720.6 244,713C245.3,706.9 245.2,699 246,692C245.9,684.3 247.5,678.2 246,669C246.4,661.7 248.1,655.6 248,648C246.5,651.7 243.2,657.9 237,658C231.8,661.3 226,664.5 223,668C218.7,671.9 216.6,677.6 212,680C208.9,685.3 205.4,689.5 201,693C199.3,698.8 195.2,702.5 192,707C188.9,711.5 185.7,716.1 181,720C179.8,725.5 175,728.5 172,734C168.9,737.8 169.5,746.2 166,750C164.5,756.6 156.7,756.5 151,759C144.4,759.7 138.6,762.9 133,764C128.2,767.2 119.3,766.1 111,766C104.8,766.9 100.7,770.5 96,774C92.2,777.5 89.2,782.2 84,784C80.2,788.6 72.4,789.4 66,787C61,785 53.8,784.4 46,783C38.8,783.2 31.7,783.8 27,787C22.7,790.2 18.8,794.1 17,800C16.9,807.8 8.4,808.2 0,807C-2.5,814.8 12.8,812.4 16,811C21.9,809.4 21.5,801.3 24,796C28.3,792.6 32.1,788.7 39,788C47.7,788.6 55.5,788.6 61,790C66.5,792.5 74.1,794.7 80,792C86,789.9 91,787.2 94,783C98.3,779.1 102,775 107,772C112.6,770.1 122.4,770.9 129,770C135.4,769.2 140.9,767.1 146,765C152.9,763.6 158.6,761.6 164,759C170.4,758 171.7,751.5 174,746C177.6,742 178.8,735.5 183,732C185.2,726.5 187.5,721.1 190,716C195.2,713.3 197.2,707.6 201,703C205.1,700.1 207.6,694.9 211,691C214.6,686.3 218.8,681.5 221,677C225.9,674.6 228.9,668.2 234,667C241.9,667.8 243.1,674.2 241,683C240.8,690.1 240.8,697.9 239,704C240,712.5 238.1,718.3 238,726C237,733.1 239,740.6 239,747C240.2,751.3 243.7,767.4 236,759C236.6,762.2 241.4,771.4 234,773C221.2,775.3 225.7,775.3 234,777C230.7,781.5 241.4,782.5 233,784C227.2,788.3 232.2,796.5 233,801C231.6,802.9 226.2,808.6 223,812C222.3,824.8 225.4,806.8 228,811C227.7,813.6 225.6,831.8 227,824C228.3,819.2 230.2,807.8 232,810C236,803.4 237.9,819.5 235,822C234.4,827.5 219.5,832.2 232,829C238.3,831.2 241.9,817.4 243,824C243.1,829.8 231.5,831.6 234,833C233.5,837.4 231.7,850.8 229,837C228.5,833 220.3,831.3 219,825C221.7,817.6 212.3,811.9 209,818C203.5,824.8 208.4,809.8 210,808C213.4,799.1 212.8,794.9 208,804C208.7,799.8 201.6,793.1 201,797C199.6,786 197.8,811.4 196,793C192.9,784.9 194.6,802.9 193,806C198.3,809.7 194.8,821 199,823C202.6,825.8 207.9,836.4 209,831C214.2,835.2 209,847.7 205,842C201.6,838.5 196.6,835.8 194,830C198.6,830.4 210.7,835.8 201,828C195.4,828.4 192,824.6 187,820C182.8,818.2 181.7,811.5 180,805C177.6,797.2 177.4,797.6 170,802C164.2,803.9 160.6,808 154,810C153.6,806.4 147.6,813.1 140,810C148.1,806.7 151,804.7 138,804C140.5,800.8 133.1,799.2 146,800C154.7,801.8 165.9,797.3 151,798C146,796.2 132.2,794.6 145,795C149.9,792.4 137.8,792.1 132,792C124.9,792.2 126,801 120,803C115.6,806 110.1,808.2 105,811C96,816.5 111.5,811.1 113,809C117.5,807.4 111.1,814.3 114,815C121.6,806.3 116.6,817.1 113,820C110.2,821.5 102.4,832.3 103,826C100.9,831.2 94.7,834.1 91,838C91.2,842.6 100.9,834.8 102,832L114,820C118.9,813.9 121.3,812.7 115,820C112.9,825.8 109.5,830.2 105,833L93,845C90.4,850.1 84.6,854.2 83,850C75.6,854.5 87.5,845.2 79,846C66.1,844.2 93.1,846.7 82,843C78.5,839.5 69.5,837.9 67,844C57.6,850.2 66.3,840.7 69,838C75.2,836.3 75.3,825.4 69,834C63.2,839.1 66.6,834.4 55,837C50.8,837.2 44.4,849.9 50,844C48.3,849.3 43.1,851.8 40,856C39.1,868.3 34.6,856.9 40,853C36.9,849.1 35.5,867.4 33,856C29.6,850.6 36.2,867.4 30,859C26.6,856 22.7,852.3 23,844C22.8,838.4 17.1,860.1 18,842C13,845.1 14.2,857 21,856C11.4,858.4 12.8,849.3 12,842C16.4,834.8 14.2,829.1 11,840C11.5,845.8 12.9,862.6 10,849C9.7,845.8 4.8,829.8 6,842C10.4,852.9 2.3,838.8 5,853C9,865.3 4.9,862.3 1,855C-1.4,861 3.6,864.6 0,872C-0.6,883.3 1.8,883.5 0,891C0.3,900.3 0.1,904.6 0,913L0,936L0,959M292,953C292,947.6 291,935.2 293,932C294.8,939.4 294.4,946.8 292,953M262,916C257.1,914.2 257.4,904.6 254,900C262.1,900.7 258.6,913.6 262,916M454,911C453.8,905.1 451.9,893.2 454,886C457.5,879.2 459.6,871 462,864C463.7,871.8 457.7,880 459,885C457.3,893.8 458.6,905.4 454,911M256,910C251.7,907.5 249.2,900.6 244,898C240.7,894.6 236.7,887.1 240,880C241.6,882.2 245.1,891.9 248,894C252.1,899.1 255.9,903.4 256,910M412,909C412.7,906.1 421.5,898.6 422,891C425.3,884.3 430,878.7 433,871C435.1,867.9 443.6,851.1 444,860C439.9,866.1 442.9,877 439,885C438.8,884.7 442.4,859.1 437,878C436.3,879.9 437,883.1 435,884C439.1,899.3 434.7,884.5 432,887C432,883.6 428.8,891 430,890C431.4,898.8 427.1,882.3 424,891C421.5,897.9 417.7,904.4 412,909M88,889C87.4,888.1 88.4,884 89,882C90,877.6 90.2,884.9 90,885C89.7,891.9 96.1,880.3 92,876C94.9,868.8 100.1,892 88,889M236,888C232.4,882 225.3,874.9 226,866C228.3,876.8 237.3,873.7 236,888M98,863C95.3,858.7 78.5,864.1 80,860C86.1,858.2 95.4,857 98,863M99,860C98.2,859 97.8,855.3 95,855C83.5,852.8 94.6,853.4 96,846C106.2,834.6 90.6,856.2 99,860M113,858C108.5,852 117.5,838.8 120,846C126.2,853.3 109,844.8 113,858M392,850C395.6,845.7 397.4,838.1 398,831C399.3,826.6 404.6,817.7 401,814C398.1,814.1 397,826.2 395,830C394.7,837.4 390,842.6 392,850M685,844C694.2,840.5 679.8,836.7 676,835C672.1,835.2 685.9,839.6 685,844M53,834C62.7,835.7 69,833.8 70,827C76.8,817.6 65.8,832 62,828C57.9,829.5 70.6,833 54,831C41.9,829.2 44.2,833.5 53,834M625,830C622.6,822.6 612.9,820.5 612,811C615.4,818.8 625.6,820.4 625,830M10,828C12.7,826.6 7.8,826.3 7,824C-8.2,823.3 16,822.1 13,819C-5,817.1 -1.6,828.3 10,828M62,828C69.2,830.5 57.5,819.8 60,813C58.5,822.1 53,825.2 62,828M613,823C609,820.2 607.7,812 602,810C597.8,806.2 590.3,804.4 586,801C592.9,802.6 599.7,805.3 604,807C611.7,809 611.3,818.7 613,823M253,817C249.4,812 248.8,802 239,802C232.5,802 229.1,787.3 235,785C243.5,791.3 229.3,796.4 241,800C250.5,801.2 252.6,809.7 253,817M158,804C166,802.5 170.4,796.6 174,790C167.1,793.2 164.6,801 158,804M582,799C575.3,796.9 565.1,796 561,790C570.4,791.5 576.2,796.8 582,799M563,786C558.4,781.5 559.2,771.3 554,766C553.8,765.1 554.7,760.6 553,760C554.2,772 549.9,755.3 546,756C541.3,752.3 540.9,743.3 533,741C518.3,739.9 528.8,735.5 536,734C536.8,730.6 521.6,729.1 524,723C518.8,717.4 521.5,712.6 514,707C510.2,702.4 502.5,700.7 501,692C499.3,685.3 495,679.4 490,675C486.4,673.7 473.7,663.6 486,667C493.9,670.1 500.7,672.7 505,676C511.5,680.8 516.5,685.2 520,691C524.7,696.2 525.1,702.4 530,707C535.3,711.5 538.3,716.7 542,722C547.2,727.4 550.3,733.7 554,739C557.5,745.3 560,752.3 561,759C563.1,767.7 561.9,779.1 563,786M123,784C132.1,784.4 140.7,782.9 144,777C138.4,781.4 127,780.2 123,784M261,779C252.7,774.8 250.5,763.6 248,754C252.9,762 256.7,771.6 261,779M465,777C469.9,771.4 471.1,747.9 466,742C462.4,751.5 466.1,766.7 465,777M532,727C531.7,721.4 527.5,715.4 524,710C521.2,705.2 518.3,699.5 514,694C515.3,700.2 520.6,705.1 522,711C525.9,716.4 527.5,723.3 532,727M374,692C384.9,688.9 374.4,684.4 368,684C360.8,684.5 352.3,685.2 346,683C339.8,682.3 331.2,681.8 326,679C319.9,678.5 314.8,675.9 308,674C299.4,671.7 314.4,679.6 316,680C321.8,682.3 327.2,684.6 333,686C340,687.4 347.1,689.3 354,689C361.2,689.9 368.7,690.1 374,692M284,660C282.2,654.3 275.6,648.5 271,643C266.5,638.9 261.8,632.6 257,627C253.7,621.5 248.7,615.5 244,610C241.4,603.7 237.5,597.8 234,590C235.4,597.9 240.1,605.6 243,610C247.7,616.7 252.7,622.7 256,628C260.3,634.3 265.3,640.3 269,645L284,660M439,586C448.9,582.7 454.8,572.6 454,561C451.9,570.6 445.7,580.3 439,586M293,570C299.8,568.7 300.9,561.7 309,562C316.9,561.4 321.4,557.8 330,558C338,559.2 343.1,562.2 352,561C358.6,563 367.4,562.4 375,562C383,561.7 389.1,567.9 396,563C403.7,563.1 410.9,562.1 418,563C429.4,565 431.8,555.6 421,559C415.5,558 406.3,559.1 399,558C394.3,558.1 375.4,558.5 385,555C389,555.2 409.8,554.8 396,553C389.1,552.1 381,554.2 374,555C369.8,557.9 361.9,559.8 354,558C347,557.1 339.2,556.7 332,555C323.6,554.8 318.3,557.7 310,558C301.5,559.6 294.9,555.9 288,556C282.9,561.7 286.2,569.6 293,570M435,568C442,564.5 446.3,552.4 442,543C440,534.4 437.1,524.7 433,517C428.1,517 437.2,533.8 437,540C441.6,548.9 439.4,562 435,568M320,554C325.1,554.3 346.4,553.1 336,550C332.5,551.4 310.4,552.1 320,554M275,549C278.7,545.5 280.3,539.4 283,534C286.1,530 289.8,525.2 292,521C297.5,511.8 305.9,504.1 304,489C303,495.2 294.6,496.2 295,502C293.6,508 290.7,513.7 288,517C282.8,527.3 276.5,536 275,549M353,544C361.4,543.1 387.4,540.9 372,535C370.3,534.3 366.6,536.2 365,537C356.2,539 363.7,518.3 359,514C358.6,488.7 350.4,516.4 356,524C355.3,535.4 335,539.2 353,544M218,541C219.9,535.4 210.6,531.2 210,523C208.2,517.2 208.5,505.1 210,498C210.9,489.2 212.8,479.1 208,473C203.7,469 198.1,465.1 196,457C190.5,457.9 198.9,471.3 199,475C203.6,480.8 205.2,488.7 206,496C206.2,506.7 207.1,516.4 208,523C209.4,532.3 215,536 218,541M502,537C510.7,538.2 514.9,533.5 516,527C519.1,523 520.2,516.3 522,511C523.6,504.3 524.3,497.3 523,489L523,466C525,459.4 527.1,453.8 527,446C528.2,441.2 527.9,431.9 520,432C514.4,434.7 508.8,436.8 506,442C506.7,444.8 512.6,435.2 518,436C528.5,442.5 516.9,437.1 517,446C514.5,449.9 510,456.3 513,462C516.9,467.4 517.8,474.2 518,480C520.1,486.7 521.3,495.1 520,501C520.1,509.1 516.9,513.7 515,520C512.8,525 512.8,532.7 504,532C497.4,533.1 495.4,524 492,523C492.5,531.6 497.5,534.3 502,537M363,531C370.1,525.9 371.7,515.3 378,511C383.2,504 404.3,514.6 400,507C394.6,501.7 379.7,504 374,508C368.5,513.3 366,522 363,531M216,530C218.2,513.8 221.8,536.9 222,525C221,517.6 217.3,511 218,501C221.5,492.9 218.9,484.3 217,477C217.4,468.3 215.8,459.8 216,451C216.4,441.8 214.7,433.3 215,424C215.7,415.5 214.6,404.2 216,397C216.3,393 219,373 215,381C216,373.5 213.2,374.7 210,385C208.7,392.7 208.8,403 208,411C208.5,421 211.9,427.8 211,436C213.2,443.7 210.7,463.3 206,450C206.2,441 204.3,432.8 204,424C204.2,416.1 200.6,407.4 201,400C200.6,392.6 200,383 198,376C198.4,374 198.7,368.9 199,372C202.1,376 201.7,362.6 204,360C207.6,354.6 211.1,348 214,343C209.7,345.2 205.5,352.7 203,358C199.7,366.6 197.8,372.6 195,361C193.4,352.4 195.6,342.9 203,342C201,338.5 189.6,339 191,347C187,343.3 192.8,331.5 198,331C212.3,334 215.2,330.4 199,331C190.6,330.8 186.5,337 185,343C184.7,342.5 187.5,364.8 189,352C189.6,345.6 191.2,365.9 192,369C193.7,376.6 196.6,383.9 197,391C197.4,400.6 197,411.2 198,418C198,427.6 201,434.8 201,442C202.1,451.2 202.2,461.2 208,462C212.3,468.7 215,476.1 215,484C219.9,490.2 213.8,500.1 214,506C212.6,514.6 214.1,525.3 216,530M348,516C349.6,507.2 339.1,505.3 330,505C321.3,508.3 310.2,509.3 313,496C307.2,504.2 316.1,513.3 325,509C335.1,509.3 345.6,509.8 348,516M514,514C517.8,510.9 520.2,488.4 513,491C515.8,492.4 517.3,505.8 514,514M505,508C507.4,502 509.3,495.4 510,487C511.3,478.8 507.8,472.9 505,467C506.8,457 501,456.1 500,448C500.9,443 501,431.3 500,425C500.3,416.8 500.2,408.4 498,401C497.3,394.4 495,387.3 493,381C490.4,376.2 487.2,370 486,363C482.6,356.3 484.8,349.4 486,343C486.3,335 485.5,327.3 480,323C473.5,315.1 478,315 484,320C496,326.9 490.2,318.1 484,316C478,312.7 472.7,308.2 475,308C471.3,305.9 492.2,300.3 474,302C466.6,302 472,290.8 466,293C451.8,294.6 468.6,286.4 455,289C451.7,288.4 452.3,283.5 451,281C439.6,288.3 447.7,280.2 442,276C440.5,273.1 432.8,283.3 431,278C423.3,284.7 430.1,272.3 427,272C429.8,266.6 434.8,262.3 437,257C438.7,250.1 440.5,243.3 439,234C436.7,235.6 436.1,241.6 436,226C434.5,209.9 433.4,229.6 432,233C431.8,240.8 428.9,247.2 426,252C424.7,257.3 417.3,268.8 423,256C424.8,254.1 429.6,236.4 425,244C423.8,250.8 420.5,256.8 418,262C415,267 412.5,273.9 409,278C402.3,288.6 408.6,271.7 410,269C413.6,264.6 416.6,258.1 419,253C421.4,247.3 424.6,241.1 424,234C424.1,227 426,217.5 423,211C422.3,205 421.1,217.6 419,222C418.7,230.3 417.3,238.2 414,243C412.7,249.3 409.4,255.4 406,260C404.4,266.2 399,269 396,268C401,264.5 403.1,258 406,253C408.9,249.2 413.8,238.7 412,237C410.1,232.2 412.7,220.2 410,214C409.9,207.3 408.8,199.1 406,193C402.4,192.6 407.4,205.4 405,212C410.4,225.5 402.6,208.6 396,217C389.9,218.8 384,222.3 378,224C373.7,227.6 368.6,231.9 363,234C357,235.4 355.8,245.2 349,243C342,241.2 343.4,231.4 340,232C335.9,224.6 335.5,242.4 334,246C337.8,257.9 335.4,259.5 332,249C330.8,240.7 335,232.5 333,226C331,230.9 328.5,239.4 329,246C327,256.1 337.3,263.9 327,256C324.2,250.6 328.8,240.3 324,235C318.8,240.8 320.4,246 314,248C310.6,251.9 305.9,260.3 306,262C310,260.8 313.5,249 316,252C312.5,259 325,259.5 327,262C333.6,265.7 339.3,268.7 347,268C357.5,268.6 359.4,272.7 366,273C362.9,276.3 351.3,275.7 344,275C330.9,272.1 334.9,279.4 342,280C345.3,284.6 365.2,282.3 352,286C346,289.6 333.5,282.5 334,285C341.9,289.8 344.2,293.9 331,291C322.3,292.3 315.6,289.7 310,287C305,288.8 294.8,287.5 295,279C293.7,272.8 292.2,264.9 289,259C282.9,249.4 289.1,266.4 289,269C289.6,275.1 295.9,286.2 293,285C289.1,281.6 289.9,272.2 286,266C282.1,253.1 285.7,269.3 287,273C292.4,286.2 285.5,278.5 284,271C282.4,268.2 276.7,256.6 275,261C280.2,273.1 270,260.8 271,254C270,247.6 264,244.2 261,239C254.7,230.9 267.2,243 268,244C275.1,255.2 273.8,245.2 268,241C263.6,237.6 259.8,232.9 254,229C250.6,229 239.5,219.3 239,226C245,230 250,234.3 253,237C256.5,240.7 265.8,248.8 263,248C253.5,243.3 267,253.6 266,258C268.4,262.1 256.7,256.4 250,258C248.4,259.7 254.2,263 244,264C240,269.4 237.5,270.5 250,271C258.1,271.9 265.8,272.7 273,273C283.9,272.6 289,280.4 276,276C270.6,276.2 257.4,274 255,275C262.7,277.2 271.7,277.6 278,278C281.9,279 297,286.4 284,286C279.4,287.6 265.4,286.7 265,289C278,290.7 257.3,292.8 256,295C251.8,298.3 246.4,304.1 242,303C239.1,308.5 234.3,313 231,317C224,326 228.3,325.3 228,325C225.9,331.2 221.4,336.1 218,340C213.4,352.5 226.1,330.9 223,338C221,344.6 216.7,348.9 214,354C210.4,359.4 207.4,365.8 205,371C201.3,378.9 205.2,388.9 206,375C208.8,369.6 211.9,363.3 214,358C221.7,349.7 213.8,365 212,368C207.1,378.2 211.8,378.5 214,369C216.3,363 220.2,357.5 221,351C224.5,346 227.8,340 230,334C231.8,328 235.2,322.9 239,318C243.4,314.2 247.7,309.1 252,306C255.8,301.5 262.1,298.5 268,297C275.7,296.3 284.4,295.7 291,295C299,296.8 308.2,297 314,298C320.9,300.1 329.5,300.7 336,300C344.5,300.2 352.6,298.9 358,297C366.5,297.1 369.4,290.7 378,291C387,291.4 394.3,292.7 401,293L426,293C434.4,291.8 447.5,296.3 431,295C423.9,294.8 408.8,296 424,296C430.1,296.5 440,297.1 446,298C452.9,300.4 459.5,303.2 462,307C467,311.4 470.3,317.5 473,321C477.3,326.2 479.2,333.7 480,340C479.8,349.1 481.2,356.2 482,363C483.1,371.1 484.1,379.5 486,384C489,390.3 491.2,397.6 493,403C494.9,409.5 495.1,418.7 496,424C496.8,433.8 494.8,441.5 496,448C496.2,457.1 500.2,462.4 500,469C501.4,476.9 507.3,480.4 506,488C506.7,494.8 500.6,504.4 505,508M426,507C427,496.9 416.5,491 406,487C410.1,494.3 421.1,499.7 426,507M286,467C296.9,466.6 305.4,463.5 311,458C317.3,456.2 327.1,443.8 323,442C317.8,448.3 311.2,453.3 304,458C301.4,462.6 279.7,463.8 286,467M518,467C510.3,462 516.9,444 521,446C526.6,440.7 519.2,462.5 518,467M415,462C426.2,462.9 435.3,461.5 441,458C450,456.9 455.9,448.8 442,454C435,456.8 426.6,459 417,459C403.6,456.5 404.2,459.6 415,462M374,458C377.1,450.2 380.2,441.3 378,432C377.7,424.2 384.1,411 379,408C374.6,411.8 373.3,423.4 372,431C375.1,440 370.9,450.8 374,458M231,454C239.6,450.3 254.3,439.3 256,445C262.1,443.3 257.7,447.6 255,448C254.2,453.8 267.2,441.5 273,442C288.6,446.4 298.2,436 311,439C318.6,439 310.7,440.8 309,442C319.6,441.1 327.8,437.5 328,428C329.7,412.3 304,410.9 322,423C331,442.1 302.4,432.7 296,430C281.1,430.3 271.3,436 259,438C247.5,441 237.6,446.6 231,454M235,444C243.6,444.2 246.3,437.9 252,434C256.7,430.3 262,426.6 268,424C275.9,422.5 283.1,420.7 291,420C299.1,420.2 308.6,425 313,422C306.7,419.7 299.6,417.9 289,418C282.1,419.7 273.3,419.9 266,422C260.1,424.7 254.3,427.8 250,432C245.6,437.2 240.3,440.9 235,444M504,442C507.1,437.3 513.6,434 514,427C517.2,421.2 515.7,411.2 516,403C515.4,395.8 513.1,387.6 515,380C514.5,374 512.1,364.9 514,358C516.4,351.3 518.1,342.6 522,342C524.4,333.3 517.9,329.6 514,324C516.5,322.9 526.2,336.7 523,331C521.7,325.3 514.7,322.2 510,320C511.8,317.3 499.8,320.1 509,322C513.2,327.9 518,331.6 519,338C514.8,344.2 512,321.7 511,333C507.5,333.1 510,347.7 508,353C507.6,361.3 507.6,370.3 508,378C506.3,385.3 508.3,392.9 509,399C509.8,407.1 512.5,416.7 509,423C509,430.7 504.7,435 504,442M470,437C486.1,436.4 463.1,433.3 461,430C455.6,427.5 445.5,427.4 439,425C431.8,423.4 421.2,424.6 412,424C403.1,424.4 398.9,430.5 392,432C379.6,435 382.4,437.7 395,435C403.2,433 411.9,433.5 420,433C429.8,434.8 439,431.6 446,434C454.4,435.3 464.4,434.3 470,437M468,431C474.8,431.8 474.8,430.7 471,429C462.8,427.4 459.2,419.6 451,417C443.2,412.5 428.7,411.1 416,412C405.3,413.6 437.6,412.2 442,415C453.1,419 459.4,427.4 468,431M478,415C478.7,406 472.8,397.6 466,392C461.8,387.7 456.1,383.2 441,385C429.5,385.8 418.8,380.7 408,384C405.9,385.1 404,386.2 401,387C393.1,394.7 417.7,384.2 403,393C394.2,404.2 396.2,409.4 406,398C410.3,390.8 419.5,386.9 432,390C445.2,389.6 454.4,392.5 462,396C469.1,401.8 474.4,408.4 478,415M401,409C409.3,405.9 418.2,402.1 427,400C432,396.3 453.9,398.7 451,395C444.7,389.8 429.2,394.1 421,395C413.3,398.5 403.6,400.4 401,409M315,407C318.1,407 311.9,404 312,402C311.6,398.3 289.8,389.6 302,393C303,383 280.2,391.2 273,393C271.1,394.8 266.6,395.3 265,396C255.1,400.3 281.6,396.7 284,396C300.9,392 306.6,402.8 315,407M368,407C368.9,400.9 382.3,401.5 382,399C376.5,395.1 369.5,401.9 368,407M293,406C310.8,408 295.9,401.5 289,401C280.8,401.6 270.2,402.3 263,401C247.3,403.2 260.3,404 269,404C275.7,406.7 287.3,404.9 293,406M373,396C382.9,393 393.9,390.1 399,383C387.2,384.2 378.1,389 373,396M504,369C506.7,361.2 502.3,352.4 499,346C499.1,352.4 503.3,361 504,369M174,354C177.9,343.3 182.5,331.8 194,330C179.7,332.3 175.6,339.4 174,354M173,331C178.5,332.7 195.6,327.4 182,329C175.4,329.1 160.8,327.4 173,331M217,329C221.4,325.5 238,306.1 224,318C222.6,320.6 220.9,322.3 219,324C218.1,325.5 216.6,326.5 214,327C197.4,327.2 218.2,328.7 217,329M194,328C192.5,325.3 177.2,319.5 172,312C158.3,300.8 181.2,323.7 179,322C178,317.1 143.1,311.8 162,318C173.6,321.4 182.7,326.4 194,328M534,327C533.3,317.4 516.9,314.8 506,315C512.3,318.1 530.2,318.9 534,327M534,324C533.5,320.1 531,310.8 531,306C533.3,295.9 522.9,316.2 529,302C532.7,298 535.9,290.9 532,284C530,279.8 524.2,277.4 527,270C522.4,266.9 517.5,262.8 515,257C516.1,243.9 511.2,252.9 512,259C512.4,266.3 522,272.5 513,265C509.8,267.7 504.1,271.4 500,274C504.6,277 509.8,266.3 514,270C521.5,273.8 518.5,277.8 515,284C519.8,281.1 521,277.4 525,284C531.8,288.1 523.7,295.6 520,297C511.7,300 516.2,309.2 521,302C529.9,294 518.1,313 527,309C525.5,314.1 507.9,312.2 521,314C528.1,315.4 531.8,319.3 534,324M199,315C203,314.6 209,315.7 210,314C206,314.4 207.6,310.6 209,313C216,311.1 201.7,307.6 198,306C188.2,301.9 180,295.5 179,281C179.1,277.8 179.5,273.3 180,271C181.5,253.7 175.4,259.8 176,273C175.3,275.9 174.7,280.2 174,282C180.2,299.4 175.1,293 172,282C168,270 180.3,254 176,252C175.8,255.8 172.3,257.2 171,258C169,259 165.7,259.8 166,262C163.2,276.1 172.9,251.1 170,262C171.3,270.9 166.7,288.6 174,297C179.8,306 190.2,310.2 199,315M214,306C214.4,302.2 198.2,302 194,298C187.8,294.4 183.1,288.8 182,279C178.6,286.5 185.9,295.5 190,298C197.3,302.2 205.4,304.4 214,306M201,298C199.3,294.3 192.9,289.6 190,284C186.2,281.4 186.8,272.6 185,266C183.6,274.8 186.3,280.9 189,286C190.7,292.5 195.7,295.7 201,298M210,297C208.8,293.6 202.5,287.1 198,282C194.7,276.6 190,270.6 186,265C186.6,270.8 191.3,278.9 195,283C199,289.5 206.1,293.1 210,297M336,297C324.2,298.4 307.9,294.7 304,293C313.2,292.4 331.1,294.8 336,297M321,289C346.3,288.7 317.4,289.8 316,282C307,267.8 313.7,288.9 321,289M239,286C248.3,286.8 276.1,285.2 253,284C240.5,284.8 231.2,281 221,279C214.4,276.9 198.1,265.1 211,277C217.5,283.2 228.9,284.9 239,286M302,286C302.4,278.4 296.8,260 297,255C290,249.6 280.3,244.5 273,237C271,240.5 286.2,250 289,256C298.1,262.2 295.6,279.5 302,286M210,280C209.5,277.2 201.9,272.6 198,268C193.9,264.2 190.5,257.7 187,252C185.8,247.4 181.3,237.6 185,231C189.8,226.7 187.2,243.5 190,246C192.7,253.5 195.7,259.5 201,262C211.2,270.2 209.1,264.4 201,260C197,256.5 193.3,250.5 191,244C189.5,236.9 189.9,226.7 194,223C205.8,215.3 196.2,229.1 199,235C201.2,242.7 204.4,249.3 208,253C212,258.6 216.6,263 225,263C219.2,260.6 213,257.1 210,252C207.5,247.7 201.2,239.7 202,236C205.3,242.5 209.9,247.6 212,252C221.3,261.9 211,247.1 209,244C205.9,239.9 202.3,233.7 201,226C204.9,215.2 207.1,215.3 205,227C212.7,239.6 203.7,219.9 208,216C212.9,208.7 211.5,228.1 215,230C218.9,236.6 218.5,243.3 223,247C232.6,250.4 220.2,239.3 219,235C216.9,229.5 213.9,222.8 213,215C212.6,206.1 212.9,207.3 214,197C211.8,203.8 207,208.8 201,211C199,214.9 190.6,223 190,221C194.5,217.3 198.2,211.2 200,205C202.8,195.4 196.2,188.8 198,203C197.3,211.2 192.1,215.8 187,219C183,223.5 179.4,228.9 177,235C176.8,243 181.9,249.2 183,254C187.1,260 191.6,265.3 195,269C199.6,273.9 205.5,277.8 210,280M476,278C481.2,273.7 479.4,261.2 485,258C491.4,255.6 495.4,246.8 502,248C511,237.6 507,255 503,258C502.1,262 491.6,276.2 502,266C507.7,262.8 511.4,255.9 511,247C513.3,234.2 502.8,237.3 498,243C493.8,247.5 486.9,251.2 484,257C479,261.6 478.5,271.7 476,278M405,274C405.7,267.1 410.3,260 413,253C416.8,246.7 419.6,238.5 421,231C422.8,240.7 418,247.6 415,254C411.4,260.7 408.8,269.1 405,274M327,269C330.3,263.4 316.9,265.4 313,261C311.1,267.1 323.8,266.7 327,269M221,266C218.7,264.2 208.5,257.1 204,252C198.6,246.2 196.7,236.6 194,226C190.9,235.5 195.5,248.2 199,253C205.1,259.7 213.1,263.3 221,266M475,257C479.8,252.5 485.9,249.1 490,244C494.8,239.1 501.7,236.6 504,230C496.1,231 491.3,235.6 487,241C484,247.3 477.1,249.8 475,257M470,246C475.1,239.4 479.1,231.4 482,222C484.9,213.6 486.4,201.4 484,190C483.1,179.9 480,171 475,163C472.9,155.3 456.3,155.3 449,159C442.5,162.8 431.9,168.9 433,176C438.8,166.1 448.3,161.7 437,174C439.3,172.7 441.9,172.4 442,170C439.5,181.2 445.7,171.5 450,167C453.7,159.8 468.8,154.9 468,168C468.9,179.4 470.6,192 469,202C469.2,214.4 463.4,220.6 462,231C459.5,246.2 469.1,222.8 469,217C472.2,209.1 473.3,197.5 474,187C474.6,185.3 474,180.7 473,181C472.5,196.8 469.9,173.8 471,170C476.9,161.2 479.1,182.8 480,188C480.6,199.6 483.9,211.6 480,221C478.9,231.5 473.4,238.7 470,246M466,244C471.4,240.6 473.2,233.4 476,227C479.2,222.2 481.3,213.1 480,205C477.6,209.8 477.5,220.3 474,225C472.2,232.4 467.9,237.1 466,244M475,243C481.4,237 488.5,233.5 498,230C521.8,228.7 497.4,224.8 488,228C475.4,242.7 485.3,229.2 487,221C484.2,225.4 479,237 475,243M283,241C283.1,238.9 270.6,221.4 281,234C288.7,243.8 295.4,243.7 286,232C283.5,225 276.1,220.6 274,212C272.1,203.7 272.2,191.7 270,183C267.5,190.1 268.6,197.5 269,207C265.8,206.8 258.9,186.1 263,205C257.9,204 266.7,220.5 268,224C272.7,230.6 277.4,237.8 283,241M347,241C356.7,239.9 359.1,231.6 367,228C373.5,224.6 379.2,219.6 385,215C386.7,200.7 381.6,216.6 374,218C369.9,224.2 362.2,227.8 357,232C346.7,244.4 356.7,231.8 358,226C358.8,218.1 354.7,209.4 353,200C353.4,197.7 352.1,194.3 354,196C356,196.7 357.9,194.4 365,195C373.6,188.8 356.1,185.6 349,185C344.8,183.8 339.3,162.5 342,181C345.9,188.7 350.4,194.9 352,203C352.7,208.9 357.5,227.5 354,222C350.7,215.5 346.1,208.7 341,203C338.8,201.4 330,182.7 331,192C332.5,194.7 334.1,197.2 334,198C342,208.4 336.2,200.9 336,207C339.5,215.1 341.3,224 349,226C354.2,234.6 345.4,238.4 347,241M236,241C235.4,237.7 227.7,226.9 226,225C222.5,224 220.1,208.5 224,203C227.7,198.4 224,220.5 229,222C229.6,222.3 223.5,201.3 229,203C229.4,212 232.6,221.6 235,228C242.2,234.1 232.9,215.2 233,210C231.9,198.9 235.8,191.5 239,185C251.8,175 241.7,185.7 240,193C239.6,202.2 237.2,215.3 242,221C244.5,218 238.6,204.7 242,197C242.3,186.9 249.9,183 255,179C261.1,174.1 267.1,168.7 271,163C275.2,154.2 288.9,159 286,168C289.9,187 288.9,160.4 294,160C304.8,156 288,168.7 291,176C294,192.2 295.2,164.8 298,163C307.2,155 296.7,174.4 297,179C300.3,187.3 302.1,166.1 306,164C310.8,159.7 313.7,148.9 322,151C328.2,168.1 329.8,148.6 330,141C336.7,128.9 332.3,128.1 325,138C321.1,143.8 312.9,147.1 308,152C303.2,160.2 290.9,154.2 285,151C273.3,150 270.9,159.1 264,162C260.1,168.6 255.7,175 248,178C241.4,178.9 233.4,190.1 231,187C224.1,189.5 222.6,202.9 219,204C219.7,194.5 225,188.3 229,183C241.2,174.9 232.5,173.6 226,182C220.8,187.5 217.6,195.8 215,203C216.1,209.6 218.9,217.2 221,224C226.5,230.1 230.7,237.3 236,241M413,236C416.9,228.9 417.7,216.6 415,207C412.5,196.2 417.8,190 417,178C411.5,161.6 419.7,173 419,184C419,186.7 419.1,189.8 419,192C424.1,183.4 422.7,198.2 426,201C433.2,210.5 424.5,188 425,181C424.8,173.7 434.6,154.7 429,172C426.7,192.2 431.8,167.2 435,163C439.7,157.1 446.7,151.9 450,144C445.4,144.3 440.4,156.9 435,159C436.9,153.6 439.2,145 444,138C452.5,122.8 439,138.7 437,144C432.9,151.1 428.6,159 424,165C424.1,175.6 420.1,193.2 419,173C420.6,156.8 412.2,159.5 414,174C415.4,185.9 410.8,195.1 413,205C413.9,215.6 415.9,227.4 413,236M271,235C268.8,229.8 262.9,223.7 260,216C257.8,208.6 254.3,198.3 256,191C252,198.8 254.5,210.8 257,217C262,223.8 266.8,229.7 271,235M266,235C266.5,231.9 260.2,227 257,223C255.3,218.2 252.1,212.8 251,207C247.1,205.4 251.8,194.4 252,189C258.9,180.2 251,186.6 250,192C248.4,196.2 245.8,183.7 245,199C243.5,203.2 246.2,219.3 247,213C249.8,208.7 252.2,221.9 255,223C258,228.3 263.8,231 266,235M427,235C429.6,229.4 432.3,217.7 428,213C426.5,211.7 428.2,229.7 427,235M455,234C457.1,227.4 458.7,226.6 459,215C459.1,206.7 459.3,197.9 457,190C455.6,184 457.2,175.7 458,168C456.2,156.9 453,176.2 453,179C453.8,188.6 452,195.3 452,204C450.2,209 453.5,229.4 454,214C453.2,201.1 457.2,198.4 455,211C455.1,219.5 453.7,227 455,234M312,232C317.7,233.1 333.4,233 323,230C320.5,226.5 307.1,229.6 312,232M343,228C354.8,230.7 343.7,225.8 341,221C337.2,217.1 334.8,210 332,205C327.2,192.8 332.2,211 333,213C335.6,219.7 341.4,223.3 343,228M359,228C366.5,225.9 364.1,214.1 369,210C372.8,204 377.7,199.5 382,194C385.3,188.2 392.7,186.1 398,182C408,172.5 396,184.2 390,184C383.7,187.5 381.2,194.3 374,197C372.6,199.3 361.2,214 365,203C368.2,201.7 362.1,203.2 363,204C360.3,217.4 358.6,197.3 358,205C358.3,213.9 364.8,222.7 359,228M361,226C367.7,223.1 372.6,217.4 376,212C381,207.5 385,200.9 388,195C382.6,199.3 377.1,204.4 374,210C369.4,215 366.8,223 361,226M290,226C289.7,221.6 283.3,217.4 281,212C279.1,207.5 277.2,200.3 276,194C274.9,201.2 278.4,208.3 279,213C283.3,217.6 285.8,224 290,226M317,226C318.3,224.3 307.1,221.4 304,217C298,216.1 296.7,207.2 293,203C294.6,211.6 296.8,217.9 301,221C304.5,219.2 310.8,225 317,226M320,226C320.6,222.3 313.2,216.8 310,212C304.7,210 302.7,203.4 298,198C297.8,204 304.3,210.3 307,214C311.5,218.4 315.6,222.9 320,226M298,225C294.2,217.2 290.7,205 288,193C286.7,207 292,218.1 298,225M329,225C330.1,219.7 322.2,215.1 321,207C318,201.6 315.7,194.5 314,186C315.4,171 303.5,179.3 309,189C312,193.1 310.9,187.2 310,187C312.1,177.8 312.4,196 315,196C319.4,206.9 314.4,208.2 309,198C306.6,193.9 299.1,181.8 303,197C307,203.2 310.4,209.2 315,213C319.6,220.6 324.3,222.2 329,225M333,219C332.2,210.7 327.2,198.7 323,190C323.2,200.4 327.9,212.7 333,219M463,219C466.4,211.7 466.6,199.9 465,190C463.6,181.7 464,169.8 462,162C459.5,168.5 461.7,182 462,190C464.5,198.4 462.9,212.1 463,219M436,211C436.7,204 439.3,193.9 436,187C434,193.5 435.4,204.8 436,211M344,201C344,196.3 339.7,190 336,186C331.6,184.5 331,174.5 329,171C326.9,177.7 332.5,182.9 334,187C339,190.9 341.7,197.1 344,201M445,198C450.6,194.3 450.1,181.3 450,173C445.7,179 445.7,190.7 445,198M408,193C414.7,185.6 408.2,168.8 414,164C419.8,153.3 413.9,141.1 401,149C399.8,150.7 395.1,152.7 399,152C411.6,146.6 411.1,156.3 408,165C412.8,170.9 403.8,186.1 408,193M372,190C373.6,177 348.3,186.3 349,172C347.5,186.4 370.1,179.7 372,190M365,176C372.8,170.7 370.9,154.9 376,147C383.9,141 360.3,150.6 364,160C363.9,163.5 363,166.1 361,168C361,182.4 365.6,159.2 367,157C374.7,145.8 364.3,171.9 365,176M331,167C336.1,161.3 340.9,154.3 345,148C349.6,145.7 355.1,129.3 352,129C348.7,136.5 344.7,144.3 340,149C335.1,158.8 328.5,157.5 331,167M376,163C379.1,154.9 388.2,148.7 397,149C404.2,145 417.9,138.9 412,136C414,130.3 400,144.8 392,143C384.6,147.3 373.7,149.5 376,163M421,163C424.6,155.3 427.5,146.4 430,138C425.5,145.1 422.3,153.8 421,163M340,158C347.7,143.7 359.1,164.9 360,150C364.1,141.9 373.9,138.3 387,140C386.1,135.8 364.9,135.7 362,142C353.7,146.5 344.6,150.9 340,158Z" fill="#111"/>
</g>
</svg>