<svg xmlns="http://www.w3.org/2000/svg" width="541.353" height="541.353">
  <g transform="translate(0 158)">
    <circle cx="92.259" cy="261.707" r="15.769"/>
    <circle cx="180.339" cy="261.707" r="15.778"/>
    <circle cx="268.419" cy="261.707" r="15.778"/>
    <circle cx="356.5" cy="261.707" r="15.778"/>
    <path d="M33.947 262.845v-2.257c0-37.036 30.122-67.167 67.158-67.167h316.92c3.165 0 6.551.287 10.347.88l.431.067.373-.229a74.413 74.413 0 0 1 38.116-10.5c4.877 0 9.715.468 14.382 1.387l4.58.889-3.576-2.983c-18.131-15.128-41.1-23.457-64.652-23.457h-316.92C45.355 159.474 0 204.829 0 260.579v2.256c0 55.75 45.355 101.104 101.104 101.104h277.552v-33.928H101.104c-37.035 0-67.157-30.131-67.157-67.166z" fill="#222"/>
    <path d="M533.014 293.387h-8.31v-42.056c0-29.758-25.732-53.98-57.404-53.98-31.68 0-57.432 24.212-57.432 53.98v42.056h-8.311c-4.599 0-8.328 5.04-8.328 11.294v65.875c0 6.244 5.087 11.322 11.293 11.322h125.536c6.245 0 11.294-5.078 11.294-11.322v-65.875c-.009-6.254-3.719-11.294-8.338-11.294zM467.3 348.832c-7.803 0-14.133-6.35-14.133-14.152 0-7.805 6.33-14.125 14.133-14.125 7.804 0 14.134 6.311 14.134 14.125 0 7.802-6.321 14.152-14.134 14.152zm38.614-55.445h-77.208v-42.056c0-19.364 17.309-35.142 38.594-35.142 21.268 0 38.614 15.769 38.614 35.142z" fill="#222"/>
  </g>
</svg>