<svg xmlns="http://www.w3.org/2000/svg" viewBox="0 0 502.002 502.002" width="512" height="512">
  <path d="M371.103 479.322H27.83c-5.523 0-10 4.477-10 10s4.477 10 10 10h343.272c5.523 0 10-4.477 10-10s-4.476-10-9.999-10zm87.813 0h-36.494c-5.523 0-10 4.477-10 10s4.477 10 10 10h36.494c5.523 0 10-4.477 10-10s-4.477-10-10-10zm34.081-143.974c-12.757-17.969-38.29-30.529-73.839-36.322-.18-.029-.36-.053-.54-.073L276.32 283.665l-61.852-123.18a10.002 10.002 0 0 0-7.2-5.36l-58.403-10.299c-7.41-1.304-13.552 5.732-11.26 12.898l36.829 114.995-93.77-10.074-21.892-43.598a10.002 10.002 0 0 0-7.2-5.36l-39.837-7.025c-7.412-1.309-13.558 5.731-11.26 12.898l29.893 93.336a41.217 41.217 0 0 0 32.18 28.092l43.524 7.674 79.347 13.2a26.095 26.095 0 0 0-2.403 10.953c0 14.477 11.778 26.255 26.254 26.255 14.477 0 26.255-11.778 26.255-26.255 0-.89-.046-1.77-.133-2.639l15.197 2.528a26.09 26.09 0 0 0-2.554 11.287c0 14.477 11.778 26.254 26.255 26.254 14.477 0 26.255-11.778 26.255-26.254 0-1.017-.064-2.018-.177-3.005l154.369 25.681c2.89.51 5.721.756 8.471.756 18.774 0 33.69-11.518 36.87-29.55l1.188-6.74c2.231-12.648-.629-25.023-8.269-35.785zm-283.725 43.724a6.261 6.261 0 0 1-6.254-6.255 6.262 6.262 0 0 1 6.254-6.255 6.263 6.263 0 0 1 6.255 6.255 6.263 6.263 0 0 1-6.255 6.255zm65.019 11.175a6.262 6.262 0 0 1-6.255-6.254 6.263 6.263 0 0 1 6.255-6.255 6.262 6.262 0 0 1 6.255 6.255 6.261 6.261 0 0 1-6.255 6.254zm-75.443-216.299l73.661 146.698-31.719-5.593-14.079-41.659c-1.769-5.23-7.441-8.038-12.675-6.272-5.232 1.77-8.04 7.443-6.272 12.675l10.577 31.297-11.251-1.984-45.385-141.712zm281.533 200.454c-.841 4.77-3.215 8.314-7.056 10.536-4.016 2.323-9.383 3.045-15.21 2.02l-348.664-58.006-43.43-7.658a21.27 21.27 0 0 1-16.605-14.497l-24.84-77.562 18.579 3.276 22.084 43.982a10.001 10.001 0 0 0 7.868 5.456l108 11.603 8.778 27.408a9.999 9.999 0 0 0 7.787 6.798l90.972 16.041c8.1 1.429 14.364-6.986 10.673-14.336l-12.321-24.537 129.211 13.882c28.542 4.688 49.532 14.146 59.438 26.73l-41.879-6.21c-5.466-.81-10.549 2.961-11.358 8.424-.811 5.463 2.962 10.548 8.425 11.358l50.889 7.546c-.047.335-.093.67-.153 1.006z" fill="#222"/>
  <path d="M40.69 165.617l70.816 16.173c.75.17 1.498.253 2.235.253 4.561 0 8.682-3.142 9.74-7.776 1.229-5.384-2.138-10.746-7.522-11.976l-70.816-16.172c-5.386-1.231-10.746 2.139-11.976 7.522-1.229 5.384 2.138 10.746 7.523 11.976z" fill="#222"/>
</svg>