<svg xmlns="http://www.w3.org/2000/svg" width="406" height="406" version="1">
  <path d="M203 118a85 85 0 1 0 0 170 85 85 0 0 0 0-170zm0 141a57 57 0 1 1 0-113 57 57 0 0 1 0 113zm0-160c8 0 14-7 14-14V14a14 14 0 0 0-28 0v71c0 7 6 14 14 14zm84 34c3 0 7-1 10-4l49-50a14 14 0 0 0-19-20l-50 50a14 14 0 0 0 10 24zm105 56h-71a14 14 0 1 0 0 28h71a14 14 0 1 0 0-28zm-95 88a14 14 0 1 0-20 20l50 49a14 14 0 0 0 19 0c6-5 6-14 0-19l-49-50zm-94 30c-8 0-14 7-14 14v71a14 14 0 0 0 28 0v-71c0-7-6-14-14-14zm-94-30l-50 50a14 14 0 0 0 20 19l50-49a14 14 0 1 0-20-20zm-10-74c0-8-7-14-14-14H14a14 14 0 0 0 0 28h71c7 0 14-6 14-14zm10-74a14 14 0 0 0 20 0c6-5 6-14 0-20L79 59a14 14 0 0 0-20 20l50 50z" fill="#CCA958"/>
</svg>