<?xml version='1.0' encoding='utf-8'?>
<!-- Generator: imaengine 6.0   -->
<svg viewBox="0,0,959,720" xmlns:xlink="http://www.w3.org/1999/xlink" xmlns="http://www.w3.org/2000/svg" width="959" height="720" version="1.1">
<defs/>
<g id="layer0" opacity="0.8">
<path d="M6,720C13.7,715.3 16,705.6 21,698C14.5,704.1 10.5,712.1 6,720M33,720C44.7,720.1 44.4,717.7 51,720C61.4,712.5 55,723.4 63,717C71.3,714.5 53.5,724.1 68,717C86.6,714.5 64.3,719.7 75,720C81.5,718.3 97.9,724.3 93,714C90.9,708.4 80.2,710.9 72,710L48,710C38.7,709 35.8,714.2 33,720M100,720C113.2,725.6 133.6,712.7 129,720C133.3,720.3 130.7,711.5 134,714C125.9,723 149.5,719.4 155,720C169.7,708.9 143.5,708 132,709C119.2,710.6 99.8,705.3 100,720M167,720C171.6,719.9 196.5,720.4 183,719C182.3,718.8 196.1,715.7 197,712C191.5,719.6 207.4,710.6 207,714C191.9,717.1 216.4,714.7 199,719C207.7,720.2 219.4,720.2 226,719C229.3,709.9 219.9,706.9 210,708L183,708C172.4,706.7 167.7,712.2 167,720M234,720C242.9,719.8 254.9,722.4 252,713C265.2,709.6 263.5,717.8 253,718C255.8,719.3 265.1,715.1 264,717C272.8,704.9 267.4,724.5 276,719C283.7,720.5 298.1,722.4 292,711C289.8,704.9 281.1,706.7 272,707C263.6,706.7 255.8,707.6 247,707C237.2,706 234.9,712.3 234,720M266,720C268.4,719.2 269,715.2 270,714C266.8,714 266.2,718 266,720M300,720C309.6,720.3 321,721.5 322,714C316.6,715.2 324.8,707.9 324,718C327.9,717.8 330.4,710.2 330,718C335.9,713.4 335.2,718.8 343,719C347.9,707.8 354.7,728.5 358,716C360.4,705.3 350.6,704.9 341,705L313,705C303,704.2 300.7,712.2 300,720M365,720C380.4,719.8 396.5,720.3 409,719C409.3,716.4 414.1,714.2 415,715C407.4,720.3 417.5,719.2 424,717C428,698.2 406.6,705.3 394,704C378,703.1 363.5,703.2 365,720M432,720L455,720C461.4,718.6 473.1,722.5 475,717C482.4,711.4 483.1,712 477,719C484.3,712.4 479.4,716.9 488,720C491.1,714.5 488.8,705.7 484,703C477.5,702.8 469,703.6 461,703C454.1,703.6 445.5,702.6 439,703C432.1,704.7 431.6,711.9 432,720M497,720L521,720C527.5,718.3 541.4,723.3 541,716C550.1,705.7 540.1,727.6 547,716C552.7,707.8 542.7,725.5 555,720C554.5,713.1 553.6,705 549,702C542.3,701.5 532.5,702.3 525,702C517.4,701.4 509.9,702.8 502,702C496.7,703.7 496.1,714.3 497,720M562,720C567.4,714 562.8,705.3 567,720L594,720C607.5,724.2 607.3,715.6 611,713C622.1,724.8 604,708.4 612,720C626.7,724.1 618,711.3 617,705C615.5,698.8 602.3,702.2 595,701L568,701C560,701.1 561.7,713.2 562,720M628,720C632.8,716 626.9,701.7 632,718C638.4,721.6 650.5,719 658,720C673.3,723.4 673.5,717.1 677,712C687.9,727.3 670.5,707.2 676,717C686.2,726 687.8,713.8 682,707C682,698.5 670.1,700.9 660,700C651.7,701 641.5,700.2 633,701C623.4,701.5 626.5,714 628,720M693,720C698.2,716.4 688.7,699.3 697,716C700.5,723.8 717.1,718 725,720C744.9,727.9 728.1,702.5 737,717C753,726.1 735.9,713.5 737,711C743.3,704.4 750.2,731.1 749,714C746.7,706.3 744.8,697.6 730,700L698,700C686.3,701 690.7,712.6 693,720M758,720C764,721.6 762.1,717.2 761,714C753,702.7 761.8,708.6 763,716C770.5,723 789.1,718.4 799,720C802.2,720 809.7,720.3 804,718C795.9,707.4 805.1,712.9 808,720C813.4,721 806.8,717.1 807,716C797.7,704.9 809.2,713.8 811,719C813,719.6 809.8,715 809,713C797.4,705.1 811.8,708 811,716C820.5,722.8 808.9,699.9 804,699C793.7,699.2 778,699.6 766,699C749,696.9 753.8,712.4 758,720M823,720C829.8,717.5 828.5,720.4 824,710C827.9,711.4 828.8,723.5 838,720L865,720C874.2,721.5 885.9,720.2 877,711C873.8,706.6 872.2,698.4 865,697C856.2,697.1 847.1,697.8 839,698C831.4,698.7 818.9,696 817,702C815.5,708.5 822.3,713.9 823,720M888,720C897.9,715.5 890.8,721 903,720L926,720C931.8,718.3 947.1,724 943,714C940.6,709.6 936.9,705.6 934,700C932.2,694.7 921.7,696.3 914,696C906.6,695.7 900.6,697.5 892,696C884.5,695.5 876.9,699.2 880,705C882.3,710.7 885.6,715.1 888,720M598,718C590,719.1 595.9,705 586,705C597.8,703.1 592.3,716.7 598,718M743,718C745.1,717.9 740.1,714 739,711C737.7,712.8 742.1,716.9 743,718M876,718C874.4,714.1 868.3,713.9 864,709C871.4,707.3 875.9,712.7 876,718M399,718C390.1,719 378.6,716.7 392,716C404.3,717.4 406.2,712.1 394,714C380.2,717.6 387.4,713.5 395,712C400,707.4 409.7,717.3 399,718M252,717C252.7,713.9 260.6,717.5 261,713C258.9,715.7 251.9,713 252,717M531,717C528.5,713.7 504.4,711.8 523,711C527.1,711.5 529.5,709.8 531,710C539.6,720.7 521.2,709.2 531,717M599,717C595.5,715.4 597.3,706.7 593,705C599.1,705.7 598.4,713.5 599,717M870,717C864.6,717.3 864,711.9 861,708C866.1,709.7 866.8,715 870,717M467,716C455.2,719.8 437.4,710.8 456,715C467.4,715.3 483.5,708.6 467,716M727,716C726.3,713.5 718,710.5 719,709C723.8,705.5 725.7,715 727,716M894,716C885.9,714.1 906.2,715.2 909,714C918.8,714 930.3,715.7 929,711C943.1,714.5 925.8,716.5 919,715C911,715.5 901,716.6 894,716M789,714C787.2,711.9 780.8,709.8 781,707C785.3,706.2 788.8,711.2 789,714M853,714C848.3,712 833.3,702.5 847,707C858.3,720.7 844.9,702.9 847,702C859.1,695.6 858.7,723.4 855,708C844.4,694.9 858.9,711.9 853,714M463,713C450.4,714.5 443.3,706 457,712C467.3,710.4 478.3,706.8 463,713M790,713C790.2,709.2 785.8,706.1 784,704C789,704.7 792.2,709 790,713M589,712C584.6,715.1 582.8,708.3 583,708C585,710.3 592.7,710.5 589,712M658,712C647,712.9 647.3,705.3 654,707C661.2,710.2 673,710.8 658,712M853,712C854.8,708.3 848.1,703 848,702C845.6,703.9 853.6,709.3 853,712M923,709C905.5,713.4 900.2,699 919,705C922.7,708.4 915.3,706.4 914,705C894.8,707.1 923.5,706.5 923,709M957,696C957,691.2 950.3,684.7 945,680C940.7,675.1 929.5,675.3 919,675C909.7,675.4 899,675.7 890,676C880.6,676.6 868.9,675.8 860,676C850.9,677.1 839.3,676.5 831,677L801,677C790.1,677.8 782.8,677.8 772,678C763.1,678.6 751,677.5 743,678L712,678L682,678C672.4,679.2 662.1,679.9 652,679L622,679C613.6,680.8 601.6,679.9 592,680L562,680C553.9,681.5 541.7,680.4 532,680C522.4,680.2 512.5,681.4 503,681L472,681C463.8,682.7 451.8,681.8 442,682C432.3,681.4 422.8,682.9 413,682C402.9,682.3 392.7,683 383,683C373.1,682.7 363.6,684.2 354,684C343.8,683.6 333.5,684.3 324,684C314.8,684.8 303.2,684.2 295,685C284.8,685 274.1,685.3 265,685C255.4,685.9 244.3,685.7 235,686C226.3,687 214.2,685.9 206,687C196.6,687.5 184.9,686.8 176,687C169.3,687.6 156.5,688.1 147,687C137.6,687.6 126.9,687.9 118,688L88,688L57,688C48,688.6 36,687.6 29,690C28,693.7 44.6,688.4 52,690L82,690L113,690C122.8,690 134.9,691.2 142,689L172,689C183.3,690.2 192.6,688.5 202,689C213.2,689.8 222.5,688.1 232,688C242.5,688.9 252.8,688.2 261,687C272.2,688.1 282.2,687.8 291,687C302.3,687.6 312.5,686.9 321,686C331.5,686.6 342.7,686.8 351,685C361.1,686 372.2,686.2 380,685C390.4,685.2 402.1,685.8 410,684L440,684C449.3,683.6 461,684.3 469,684C480.1,684.2 489.7,682.7 499,683C509.8,683.4 520.3,683.6 529,682L559,682C570.6,683.3 580.1,681.9 589,682L619,682C630.3,682.6 640.1,681.5 649,681L679,681C689.7,681.7 700.5,681.4 709,680L739,680C749.3,680.8 760.5,681 768,680L799,680C808.2,679.3 819.4,679.4 828,679C838.9,679.7 848.4,678.2 858,678C868.4,679.1 878,677.6 887,678C896.1,676.5 909.3,678.7 916,676C926.8,676.9 937.7,677 943,680C948.3,685.5 953.5,691.4 957,696M121,679C132.8,680 143.8,679.1 153,678C164.1,678.5 177,679.5 185,678C196.3,677.9 209.2,678.9 217,677C228.4,677.2 241.4,678.3 250,676C260.6,676.5 273.5,677.7 282,676C293.4,676.6 304.8,676.1 314,675C325.7,676.1 336.6,675.2 346,675C357.8,675.5 368.8,674.6 378,674C390.2,675 400.5,673.5 410,673C421.5,673.5 434,674.3 442,673L475,673C485.3,671.7 498.1,672.8 507,672C519.2,672.9 529.3,671.1 540,671L572,671C583.2,671.3 594.5,670.8 604,671L637,671C648.5,671.7 659.1,670.5 669,670L702,670C713.3,670.9 723.4,669.2 734,669L766,669C778.2,670.3 788.3,668.5 799,669C809.9,669.2 822.1,669.6 831,668C837.2,668.9 864.6,668.1 850,666C844.8,661.4 842.6,651.9 837,646C844,642.2 857.8,644.2 867,643C878.8,644.2 888.9,642.4 899,642C910.7,643.3 920.8,641.5 931,642C942.4,642.1 952.3,644.1 959,646L959,613L959,581L959,548L959,516L959,483L959,450L959,417L959,385L959,352L959,319C960.6,312.5 959.2,284.6 958,306L958,338L958,371L958,404L958,437L958,469L958,502L958,535L958,568L958,600C958,610.8 959.5,624.1 957,631C954,651.5 952,634.5 955,626C955.6,615 956.1,603.6 956,594L956,561L956,528L956,495L956,462L956,430L956,397L956,365L956,332L956,299L956,266C956.8,255.7 955.3,245.4 955,234L955,201C955.9,191.1 956.2,180.1 955,170L955,137C955.8,126.1 954,116.1 954,105C954.9,94.3 953.4,84 954,73C952.3,64.1 954.5,50.1 952,42C946,24.8 955.8,36.1 955,46C954.6,57.8 956.2,68.1 955,78C953.9,99.2 963.5,89 959,75L959,42C966.7,24.6 945.7,33.8 945,24C940.3,18.2 931.8,14.9 922,14C912.7,13.1 900.9,13 891,12C880.5,12.5 869.1,12.1 859,11C848.1,12.1 838.1,10.3 827,10C816.5,11 805.9,9.7 795,10L762,10C753.1,8.9 741.3,10 730,9L698,9L665,9C653.9,10.2 643.9,8.4 633,9L600,9L567,9C558.1,7.7 545.3,8.7 535,8L502,8C491.8,8.4 481.2,7.1 470,7L437,7C427.7,7 415.9,6.9 405,7C394.1,7.7 383.8,6.2 373,6C362.9,6.2 350.4,6.9 341,5L308,5C298.9,4.6 286.3,5.3 276,5C264.9,5.8 254.8,4.1 244,4C234,4.1 222.1,5.2 212,3L180,3C168.5,4.4 158,3.2 147,3L115,3L82,3L49,3C38.1,2.7 27.5,4 21,7C13.4,10.8 8.6,17.8 5,25C2.7,32.8 3.1,45.1 3,55C1.8,64.8 3,77.7 2,87C1.2,97 2.3,109.8 1,119L1,152C0.9,162.2 1.3,174.5 1,184L1,217L1,250L1,282C1.1,294.4 0.5,302.5 1,313L1,346L1,379L1,412L1,444L1,477L1,510L1,543L1,575C1.1,586 0.2,597 0,607C0.9,618.1 0.2,630.6 1,639C0.9,649.7 2.8,663.7 13,656C22.1,654.1 35.7,655.8 44,654L77,654C87.6,654 100.6,655.2 109,653C118,655.6 140.2,649.6 127,658C126.7,665.6 116.2,673.6 121,679M163,676L136,676C126.3,676.3 126.7,673.6 129,666C131.1,663.3 131.4,664.6 129,666C127.3,677.5 129.6,664.7 135,665C144,665.4 154.8,665.1 161,665C169.1,664 180.4,665.1 188,664C198,665.3 205.5,663.8 214,664C222.5,662.8 234.2,663.5 241,664C249.3,663.3 257.6,662.6 266,662C273.9,661.4 284.9,665.2 290,662C297.5,662 307.7,660.6 312,663C319.8,661.7 329.5,661.2 338,661C347,661 354.6,660 363,660C372.3,660.8 381.3,659.7 389,659C400.3,661.2 371.6,660.8 378,662C388,663 396.2,661 403,660C413.2,660.3 421,659.5 428,659C437.8,658.2 446.2,659.7 454,658L482,658C491.5,659.4 498.6,659.2 507,660C526.7,661.8 508.6,658.7 508,658C517.4,658.5 526.4,661.8 531,658L558,658C569.1,658 582.9,658.6 565,659C574.8,658.9 584.2,660.7 590,658C600.1,658.8 608.9,660.2 617,659C626,659.5 634,656.4 642,658C643.8,657.7 647.2,657.4 648,657C665.8,657.6 645.5,658.3 649,658C656.8,661.8 667.7,658 669,661C659.9,661.4 652.3,661.6 644,660C635,660.1 628.6,663.3 620,662C615.5,665.9 595.5,661.9 613,662C621.3,661.8 590.9,659.7 604,662C597.8,660.1 588.3,663.8 580,663C572.4,660.8 564.6,664.6 556,662C547.4,661.1 539.1,664.9 532,663C528.2,663.7 514.4,662.4 513,663C530.2,665.4 518,666.5 507,666C502.8,665.5 482.2,665.8 494,662C489.2,662.3 480,666.4 471,664C458,665 480.9,666.4 485,666C493.9,666.6 503.1,667.6 511,667C519.4,668.1 531.7,667.6 536,668C527.9,668.3 516.9,669.2 509,667C501,667.7 491.2,668.5 483,667C474.1,667.4 465.4,666 456,666C440.2,664.5 450.1,668.3 460,667C465.1,668.1 487.7,667.6 478,669C469.3,669.8 461.8,668.3 452,668C445.1,667.5 433,667.9 426,668C433.6,669.7 446.4,668.7 451,669C442.4,669.6 431.5,670.3 424,669C414.9,669.6 406.6,668.9 397,668C386.8,666.3 377.2,669.4 394,669C398.9,668.8 421.8,670.5 405,670C396.9,670.1 385.6,671.2 378,669C375,672.5 361.7,670.4 354,671C345.8,673.2 337.5,671.7 328,671C322.2,670.6 302.2,671.6 320,671C314.9,673.1 305.6,672.7 297,673L270,673C261.1,673.3 252.9,675.3 243,674C234.1,673.8 226.9,675.6 217,675C207.5,674.3 199,676 190,675C181.6,675.9 171.8,675.2 163,676M336,671C338.5,671.2 350.9,671.3 344,670C343.2,669.5 331,669.3 336,671M954,669C965.7,668.4 954.4,667.3 951,666C946.9,658.5 950.3,669.4 954,669M605,668C594.5,667.7 582,668.1 570,667C582.2,667.9 596,666.2 605,668M565,667C553.7,667.5 542.8,667.3 532,666C544.5,665.6 554.7,666.5 565,667M655,667C643.2,667.4 630.5,667.4 621,666C633,665.8 645.3,666.1 655,667M729,666C724.8,666.3 717.3,667.3 714,666C719.1,666.4 726.6,665.4 729,666M606,666C596,665.7 584.1,666.4 574,665C564.3,665.5 549.8,664.7 545,664C554.2,664.3 567,663.9 575,664C585.8,665.2 597.4,665.4 606,666M681,665C675.2,665 666.6,665.9 662,664C668.3,665.1 677,664.2 681,665M656,664C649,664.4 640.4,665.2 633,664C641.2,664.4 649.8,663.5 656,664M687,659C681.6,659.7 667.4,659.7 678,658C684.7,658.2 697.3,657.5 687,659M14,653C10.2,654.3 7.2,653.8 7,650C4.1,645.9 18.4,656.5 27,651L37,651C36.1,649.9 32.4,650.9 30,650C15.3,649.2 34.5,649 38,649C52.6,649.6 64.7,648 79,648C93.1,649.2 106.2,648 118,648C127.7,650.3 156.1,644.2 146,648C144.5,650 140,648.9 136,649L129,649C112.9,649.3 128.4,650.5 134,649C148.2,650.3 160.8,648.6 174,649C186.4,648 201.7,649 214,648C226.7,647.6 241.4,648.5 253,647C267.9,647.8 280.4,646 293,646C306.1,645.3 321.4,646.8 333,645C336.7,645 341.2,646.1 343,644C346.1,645.1 347.2,643.6 350,644C363.3,641.9 359.1,644.8 360,645C371.9,643.7 384.9,642.9 399,643C411.3,642.1 427.3,643.8 438,642L478,642C491.8,643.4 503.7,640.6 515,642C529.5,642 541.7,643.5 556,642L566,642C582.4,641.6 585.2,645.1 568,644C553.3,644 543.3,644 528,644C516.3,645.5 500.9,644.4 488,644C477,645.5 464.1,644.9 450,645C438.5,646.8 423.1,645.7 410,646C397.7,646.5 384,647.1 370,646C359,648.3 342.7,646.3 331,648C317.5,647.5 305.6,649.3 291,648C279.1,650 263.3,648.6 252,649C237.6,649.3 225.6,650.9 211,650C199.3,651 186.6,651.5 172,651C160.9,652.2 145.2,652.1 133,651C120,651.6 104.6,650.5 93,651L52,651C40.3,652.9 25,652 14,653M64,650C71,650.2 78.4,651.2 83,649C77.5,650.3 70.1,649.3 64,650M18,649C16,647.2 24.9,642.2 30,644C32.3,645 21.1,647.7 18,649M13,647C4.2,649.6 4.4,615 6,625C10.8,624.1 4.7,631.2 9,629C23.5,624.1 11.9,640.7 13,647M252,646C245,647.4 233.7,646.1 246,645C251.4,646 265,644.8 252,646M187,643C188.6,642.1 194.4,633.2 196,627C198.9,621.2 203.6,615.6 207,611C213.4,607.7 217.4,602.3 223,599C237.1,593.7 233.1,608.4 225,608C220.3,612.2 217.2,618.6 210,621C204.9,628.6 206.7,631.7 200,635C211.4,628.3 197.3,641.1 196,640C215.2,641.2 192.3,643.9 187,643M638,643L611,643C606.4,643.3 585.7,644.1 592,642C590.4,642.5 565.2,641.9 580,640L606,640C616.4,640.4 623.4,640.1 631,641C638.2,641.4 650.1,642 656,640C663.4,640.6 680.9,643.7 664,642C655.7,643.2 645.1,642.4 638,643M703,642C699,642.2 690,644.2 687,641C693.8,641.3 699.9,642.1 703,642M836,640C827.3,638.2 846.9,638.4 851,638L877,638C885.1,636.9 893.5,637.4 900,637C908.9,636.7 918.5,637.8 925,636C934.1,636.3 943.6,637.2 946,631C950.8,627.2 951.1,618.9 950,610C950.7,600.6 950.2,596.8 950,586C951.6,573 952.7,595.3 952,599C953.4,599.8 952.3,584.7 952,578L952,552C950.7,560.7 952.3,567.6 952,576C949.5,575.5 949.7,562.1 950,556L950,530C952.1,523.1 951.1,513.5 951,505C952.8,496.1 950.1,491.3 952,482C952.2,473.2 951.2,467.3 952,458C953.4,451.1 952.3,441.5 952,433L952,407L952,381L952,356L952,330L952,304L952,279C953.4,269.8 951.7,262.8 952,253C952.7,247.1 951.6,238.2 952,229L952,203C949.9,196.1 953.4,187.6 951,180L951,154L951,128C950.3,121.2 951,111.9 950,103C951.3,94.4 949.5,87.6 950,78C950.4,69.6 950.1,61.4 949,53C948.8,50 947.5,45.4 945,37C943,30.7 938.7,26.4 933,23C933.6,18.8 944.6,31.9 943,28C948.1,32.5 950.7,38.4 950,46C951.9,54.4 950.9,64 952,71C952.5,79.5 951.4,89.2 952,96L952,122C952.1,131.3 953.4,138.6 953,147L953,172L953,198C953,207.6 954.6,214.5 954,223L954,249L954,275C953.4,284.3 954.7,291.6 954,300L954,325L954,351L954,377L954,403L954,428L954,454L954,480L954,505L954,531L954,557L954,583C954.1,591.1 953.7,599.3 954,608C954.1,616.8 954.2,625.5 952,631C951.5,640 940.2,637.2 932,637C924.3,638.4 916.5,639.2 907,639C898.8,638.7 891.9,640.3 882,639C875.2,640.1 862.9,638.4 859,640C852.8,638.4 844,640.7 836,640M823,639C824.1,633.7 809.6,636.9 811,635C815.3,632.5 825.3,633.1 823,639M444,625C443.5,623.9 444.6,619.8 444,617C444.7,598.4 450,620.1 450,614C457.2,595 452.5,628.2 459,625C455.2,626.3 453.8,624.7 453,621C454.6,604 452.4,615.5 450,623C448.5,627.1 448.7,621.4 448,619C445.7,602.4 446.8,618.6 444,625M496,625C502.1,628.2 497.1,601.7 500,606C497.5,620.8 509.2,628.3 496,625M509,624C500.7,623.3 499.2,611.1 506,606C505.5,610.7 500.3,620.1 509,624M520,624C518,620.4 516.9,606.9 525,610C522.7,610.3 518.5,618 520,624M511,624C503.2,611.8 520.4,601.7 514,616C513.3,618.9 513.1,602.7 511,624M465,623C458.6,623.3 454.8,617.5 459,614C457.8,608.6 466,617.4 465,623M68,622C59.7,623 62.5,621.3 66,620C73.9,618.3 72.6,621.5 68,622M472,622C463.5,624.5 463.5,611.2 470,612C469.8,612.4 463.7,621.3 472,622M477,621C471.4,623.9 471.9,609.7 475,609C481.6,608.9 480.5,620.6 477,621M486,621C480.5,622.8 480.1,612.9 484,612C491.3,611.9 489.3,620.5 486,621M495,621C489.4,622.7 489.2,613.1 493,612C499.4,610.2 498.5,620.9 495,621M528,621C522.4,622 522.3,613.7 525,612C531.9,610.5 532.5,619.7 528,621M484,619C487.9,621 486.9,613.3 485,614C482.1,615 484.1,619.2 484,619M493,619C495.6,619.2 496.7,614.9 494,613C492.5,614.4 491.3,618.7 493,619M526,619C529.2,619.8 529.8,613.8 527,614C525.5,612.3 525.5,618.8 526,619M475,618C479.4,619.1 476.6,615 477,612C474.9,608.4 474.7,616.6 475,618M73,616C73.8,612.5 78.2,608.3 82,606C81.8,610.2 77.4,614.5 73,616M6,614C5.3,607.6 6.1,598.6 5,590L5,566L5,541L5,518L5,493L5,469C6.6,462.6 6.5,454.4 6,446L6,422L6,397L6,374L6,349L6,325L6,301C5.8,293.1 7.7,285.9 7,278L7,253L7,230L7,205L7,181L7,156C8.2,150.2 7.4,140.4 7,133L7,109C7.4,101.1 7.9,92.7 8,86L8,61C7.7,53.2 9.4,46 9,38C9.7,31.1 12.2,25.5 15,20C19.3,16.6 23.2,11.6 29,10C35.4,8.6 43,8.1 51,8C59.4,8.5 68.4,8.5 74,7C81.8,9 89.1,7 97,7C104.5,8.8 114.4,7.9 119,9C121,15.9 118.4,12.4 110,9C102.8,10.3 96,11.5 88,10C81,10.7 71.7,9.6 64,10C50.1,10.1 68.9,12.6 74,11C78.8,13.2 91.9,10.4 90,12C95.7,15 90.2,14.6 94,16C96.7,12.9 92.4,38.4 95,24C98.2,32.3 100.2,36.2 93,39C106,33.7 94.8,40.8 98,45C95,49.5 96.9,51.4 90,43C86.4,28.4 91.5,51.2 88,46C84.5,37.7 86,56.2 77,50C76.5,52.7 73.8,50 69,51C66.4,54.7 57.1,47.4 54,50C58.8,46.9 65.4,38 55,44C45.9,47.7 53.5,55.5 57,52C49.7,52.7 52.7,63.8 51,70C56,71.8 53.3,89.5 55,86L55,62C53.3,52.1 64.2,54.6 71,55C78.5,53.7 86.8,55.5 93,55C101.4,56.2 111.2,55.4 117,56C125.2,57.7 104.9,57.1 100,57C93.6,56.8 85.1,56.3 77,56C72.3,59 60.7,53.5 57,59C56.5,65.6 56.5,76.3 56,81C55.4,88 55.1,95.8 55,104C55.2,108.1 55.8,128.9 54,119C54.7,111.3 54.8,103.1 54,95C52.8,102.5 53.7,112.3 53,118C53.7,127.4 53.2,135.1 52,142C47.9,151.7 50.4,153.3 54,145C56.6,134 55.9,155.6 55,159C56.7,167.4 53,174.4 54,180C56.6,186.9 55.9,195.7 55,203L55,228L55,252L55,276L55,300L55,324C50,332.6 70.3,332.3 66,331C57.5,329.8 53.4,324.2 64,328C70.4,330.6 75.9,333.2 79,337C82.3,341.9 87.8,347.7 86,353C87.9,360.5 82.6,375.6 84,361C85.1,344.5 83.8,357.4 83,364C80.5,380 85.7,365.3 83,376C82.5,381.2 83,396.8 84,392C83.1,383.1 86.8,379.7 86,370C87.4,367.4 87.3,347.1 88,356C88.2,363.5 87.7,379.3 90,364C89.4,358.3 91.1,348.8 89,343C80.8,334.7 93,338.9 92,346C90.5,355 98.1,360.2 95,365C95.6,378.3 96.1,377 97,371C97.6,375.1 102.5,359.2 100,358C95.7,343.3 102,360.7 102,350C100.3,343.5 117.7,339.3 108,343C104.8,344.2 101.8,360.9 104,356C105.5,349.7 109.5,344.7 113,341C116.1,339.6 119.6,325.3 120,330C121.1,338.3 128.5,343.5 123,333C121.8,321.7 121.4,326.9 115,331C113.8,337.7 110.2,343 104,343C96.9,353 96.4,342 105,341C114.1,336.3 110.4,333.4 104,339C100.3,344.5 85.8,338.7 91,336C92.4,337.3 95.2,325.9 93,320C96.9,309.7 93.3,306.2 92,318C92.9,321.8 93.1,339.8 90,330C91.7,312.2 89.1,338.4 88,329C86.9,322.4 92.7,317.6 91,310C92,299 89.1,318.2 88,320C87.6,319.8 86.6,304.3 91,304C105.3,305.9 80.9,298.3 86,307C85.7,314.2 81.2,322.1 84,327C85.9,334 91.9,337 83,335C83.9,334.7 79,331.2 72,329C70.4,327.5 50,325.4 64,325C69.2,325.2 83.8,332.3 75,326C73.3,321 57.9,328.3 58,319C59.9,313.1 54.7,298.9 64,301C74.1,299.8 76.4,305.7 74,315C76.5,322.4 74.9,302.2 77,300C84.4,294.7 80.3,290.6 75,299C73.7,298.6 59.8,299.7 58,298L58,273L58,250L58,225L58,201L58,177L58,153C58.6,145.6 59.6,138.5 59,129L59,106L59,81C60,74.7 57.5,63.2 61,59L85,59L109,59C117.1,60.1 126.1,59.3 133,60L157,60L181,60C188.4,61.7 198.4,60.8 205,61L229,61C236.2,62.2 246,61.4 252,61C260.5,62 269.4,61.2 276,62L300,62C308.9,61.9 316,62.9 324,63L347,63C356.6,62.4 363,64.1 371,63L395,63C403.1,64 412.4,62.9 419,64L442,64L467,64C475.8,63.6 483.1,65.4 490,64L514,64L539,64L563,64L587,64C596.1,65.8 602,64.4 610,65L633,65L658,65L682,65L706,65L730,65L754,65L778,65L802,65C811.3,65 818.5,66.8 826,66L850,66C858,66.5 868,65.5 873,66C881.5,67.2 890.4,66.3 897,67C901.1,72 898.4,82.8 899,90C899.7,97.7 898.6,107 900,113L900,137L900,162C899.4,170.4 900.8,178 900,185L900,209L900,233L900,257L900,281C900.6,289.2 900.6,299.2 901,304C901.3,313.1 900.9,318.8 901,326C900,333.4 901,342.5 900,350C900.5,358.4 901.9,365.9 901,373L901,397C901.8,403.6 900.9,413.7 901,420C901.4,428.5 902.4,435.6 901,444L901,468L901,493L901,516L901,541L901,565C899.9,571.1 906.3,585.8 896,584C889.4,584.8 880.9,585.3 873,585L849,585L825,585C818.4,586.2 809.5,585.3 801,585L777,585L753,585C745,585 737.7,586.7 730,586L705,586L682,586L657,586L633,586C625.5,586.7 616.2,585.6 609,586L585,586L561,586L537,586C529.1,586.7 522.4,588.2 513,587L489,587C481.1,587 474.4,588.4 466,588L442,588C434,588.1 425.8,588.1 418,588L394,588C386.5,588.8 378.3,588.7 370,589L347,589C339.8,590.3 331.6,590.2 323,590C315.8,590.5 305.9,589.5 300,590L275,590C268.1,591.2 260.5,591.7 252,591C243.4,591 237,592.7 228,592C220.8,592.5 210.7,591.4 205,592L180,592C172.6,592.5 165.1,594 157,593C149.3,593.3 141.1,593.2 133,594L109,594C101.5,593.7 93.8,594.2 86,594L62,594C53.8,595 59.8,580.9 57,574L57,550L57,526L57,502L57,478L57,454L57,430L57,405C58.7,399.1 57.1,392.7 58,384C59.5,377 57,366.7 58,363C59.3,370.8 62.3,381.2 60,366C58.7,361.6 54.3,348.5 59,359C61.6,359.7 52.1,342.2 59,352C65.5,359.1 55,344.6 57,342C53.3,329.5 64.8,334.3 68,338C72.5,341.6 74.6,348.5 74,355C73.2,353.4 71.4,343.7 67,340C58.9,335.1 63.9,345.3 68,347C71.4,352 74.4,357.1 73,366C75,360.6 77.2,352.6 75,346C72.8,341.4 70.9,335.1 64,333C53.9,329.1 55.1,332.3 55,342C54.3,349.8 54.9,355.7 55,363C55.5,370.6 56.6,380.7 55,386L55,410L55,434L55,459C55,466.5 55.8,476.3 54,482C55.1,473.6 53.4,467.1 54,458C53.6,445.4 51.8,464.7 50,465C48.3,471.7 46.9,478.4 44,484C42.7,490.2 40.1,496.6 38,502C36.8,508.4 34.8,514.6 33,521C31.6,527.3 29,533.7 28,540C26,545.9 23.8,551.8 22,558C20.8,564.8 17.1,570.1 16,576C15.2,583.2 12.6,588.8 10,595C8.3,600.5 7.4,608.6 6,614M26,613C20.4,614.6 21.3,609.4 26,610C33.2,608.7 27.8,613.1 26,613M32,603C20.4,604.1 29.4,592.6 36,595C48.5,594.7 37.7,605 32,603M113,603C105.4,604.7 103.7,602.1 110,601C117.9,600.3 121.4,603.7 113,603M151,601C136,597.6 152.5,596.6 162,597C172.7,597.4 185,595.4 194,597C217.6,598.1 189.6,599.2 183,599C173.1,600.4 159.8,599.3 151,601M240,597C234.1,597.5 222.7,598.6 219,597C225.8,596.6 236.2,595.7 240,597M39,570C44.4,568.6 25.4,563.7 36,567C38,559.3 51.6,571.1 45,560C40.6,549.9 54.2,573.3 50,559C56.9,567.1 47.5,572.5 39,570M880,550C881.5,547.4 886.1,544.8 887,543C883.6,544 879.1,546.7 880,550M862,542C880.7,542.3 855.9,541.2 855,536C845.9,528.9 856.9,543.7 862,542M126,541C127.4,536.8 120.4,532.7 119,527C113.2,517.2 120.9,523.8 124,527C127.8,530.5 129.7,538 133,540C132.8,532.9 127.9,529.2 125,525C123,520.5 114.2,519.8 116,512C118.4,507 120.3,500.4 122,495C123.7,489.5 128.7,486.8 129,480C129.6,472.6 141.9,476.3 145,473C151.4,471.5 157.4,469.8 159,464C164.4,459 157.9,451 158,447C161.4,442.3 164.4,437.6 163,429C166,424.1 176.2,425.7 174,417C172.9,412.1 169.3,408 165,404C162.9,399.8 156.2,396.1 159,388C156.3,377 151.4,366.9 145,358C148.3,362.8 149.2,369.6 152,374C154.4,378.8 157.7,385.8 157,390C156.8,383.4 146,384.2 143,388C148,387.6 156.5,384.8 156,392C157.1,400.2 162.2,402.8 165,406C168,411.4 174.8,415.4 172,421C167.4,424.6 160.1,425 162,434C159.5,439.5 152.5,441 151,446C151.4,446.4 163.6,435.6 157,446C154.6,450.6 162.6,457.7 158,462C155.9,468.4 149.8,469.9 144,471C138.7,474 127.9,471.7 127,478C127.3,485.4 122.8,488.6 120,493C118.7,499.6 116.8,506.2 114,510C111.5,523.2 119.9,533.8 126,541M77,539C81.4,537.6 69.9,536.6 69,534C64.8,537 76,538.3 77,539M883,539C887.7,537.7 893.8,536.4 896,533C891.5,535 885.6,536.5 883,539M868,536C877,535 886.2,534 892,530C909,524.8 892.8,526.5 887,531C879.4,532.5 871.3,536.4 862,533C859,534.1 858.3,532.2 856,531C854.4,519.9 857.1,525.5 858,530C865.2,537.8 856.4,523 862,516C867.4,516 870,492.3 866,504C863.5,511.9 857.1,515.8 854,523C848.4,534 861.2,536.2 868,536M75,532C76.8,529.7 64.8,526.9 61,525C59.4,527.9 71.9,530.2 75,532M866,527C870.1,523.8 870.3,517.2 871,511C868.7,515.5 867.8,521.5 866,527M898,512C901.4,503.9 899.4,489.3 900,478L900,444L900,409C900.2,397.8 898.7,387.6 899,375C899.3,366.3 899.5,351.7 899,341C898.3,329.1 900.2,322.2 899,309L899,274C898.3,264 899,251.7 898,240L898,205L898,170C899.2,158.3 897.4,148.5 898,136C899.5,127.9 896.4,103.6 896,116C892.1,119.9 895.3,138.4 894,147L894,181C895.2,192.5 894.8,204.5 894,216L894,250L894,286C899.3,302.1 885.9,300.3 876,302C867.1,304.5 857.1,307 855,315C855.1,316.8 854,321.2 856,322C856.2,334.7 857.6,333 857,338C854,356.4 844.8,342.9 849,330C847.8,318.4 851,309.9 860,307C849.1,305.7 839.7,309.2 836,316C833.1,318.6 829.6,347.2 829,329C836.6,312.6 822.6,321.5 821,324C817.8,335.2 823.9,344.1 828,350C824.4,351.6 815.6,330.1 822,349C827.1,358.8 844.3,351.9 828,361C825.5,367.9 822,380.7 817,380C829,380.9 824.5,364.8 832,361C838.1,355.3 845.9,351.5 855,349C868.2,350.7 869.6,340.6 871,330C877.2,321.6 878.1,308.7 871,324C868,333.2 869.3,346.1 858,347C845.2,352.3 866.1,342.2 862,333C861.4,331.4 863.6,328.4 862,325C861.7,312.7 863.8,319.1 865,313C876.9,298.4 867.1,312.7 865,321C866.4,324.9 863.6,325.1 864,329C860.4,347 869.2,322.3 865,336C855.7,351.2 868.9,341 868,330C867.9,319.1 867.5,313.2 876,307C879.4,305 903.7,296.7 891,302C884,306.7 874.5,308.7 871,317C872.9,316.6 882.5,307.8 889,305C905.5,297.5 888.7,308.5 883,311C867.3,324.9 901,309.8 883,319C875.6,323.4 873.4,332.8 871,342C870.9,344.8 869.3,346.2 868,348C862.6,347.3 856.3,360.6 860,358C861.7,357.3 866.5,373 867,380C870.1,403.4 870.2,376.6 867,370C864.5,344.8 871.3,388.9 869,363C855.4,351.9 885,350.5 877,354C858.2,352.1 877.4,361.6 871,373C871.8,365.6 877.9,348.1 875,361C879.1,370.9 880.3,380 880,389C883.1,379.2 877,367.3 885,367C883.4,376.7 895.1,394.4 889,376C888,375.6 889,369.3 887,370C890.6,376 880.5,356.4 889,364C892.2,369 901,383.2 891,388C883.9,391.7 904.2,385.1 894,403C894.6,406.4 892.6,407.4 892,410C886.1,421.6 902.1,410 895,423C889.7,436.7 880.5,404.7 884,421C889.9,428 900.2,429.2 895,445C894.9,457.7 896.8,467.4 896,479C896.4,490.8 894.9,504 898,512M405,506C417,503.5 433.8,505.3 446,504C459.5,503 474.7,503 487,502C501.5,501.9 516.1,501.4 529,500C542.4,500.4 557.9,500.6 568,498C553.3,498.2 539.8,499.9 525,499C512,500 497.7,500.8 484,500C470.7,501.8 455.5,501.7 442,502C430,505 414.7,500.2 405,506M392,504C394.8,493.6 410.7,495.6 422,495C429.1,495.1 422.5,492.7 420,493C399.1,493.4 419.3,493.2 426,492C439.5,492.9 450.7,491.2 463,491C475.9,490.7 488,489.9 500,489C519.4,495.6 515.1,478.4 531,482C545.4,483 554.8,479.5 568,480C579.6,483.4 600.3,478 598,480C592.1,487.3 575.3,483.3 572,493C560.8,494.8 544.8,492.7 534,494C523.9,496.9 509.7,495.5 498,496C485.8,497.4 473.9,498.3 461,498C450.3,499.5 433.9,498.5 428,501C440.5,501 453.3,500.9 465,500C477.9,499.8 489.7,498.7 502,498C515.2,498.5 527.1,497.5 540,497C551.5,496.2 565.8,497.7 577,496C579.7,495.6 586.3,497.6 583,496C571.7,487.3 589.2,490.2 597,489C608.4,488.2 600.2,467.1 603,457L603,418L603,379L603,370C608,357.4 595,368.5 586,364L547,364L509,364C497.1,364.3 475.3,362.2 498,366C511.4,366.3 525.3,366.3 536,367C549.5,367.7 562.7,366.1 573,366C582.2,369.7 608.5,360 600,372C600.1,385.3 598.6,396.7 598,409C597.7,411.7 598,416.5 595,416C589.9,426.5 603.1,413 592,425C592.4,428.3 588.8,429.2 589,432C589.6,442.3 596.8,424.5 597,421C601.2,398.5 599.7,429.7 596,434C594.8,446.2 594.7,458.9 595,469C595.8,482.9 574,474.9 564,477C551.9,477.9 539.8,478.7 526,478C515.1,479.7 500.6,478.1 489,479C475.9,479.1 464.8,480.9 451,480C439.6,481.4 426.9,481.6 414,482C406.7,477.2 411.2,459.8 408,450C407.2,438.2 407.5,425 406,413C406.1,400.7 404.2,389.7 404,376C397.4,360.4 407.3,355 423,358C435.9,358.5 445.4,359.7 459,359C472.5,359.4 485.7,359 497,360L536,360L574,360C584.3,357.6 608.5,366.6 602,350C594.2,345.7 578,349 566,347L527,347C514.7,347.7 502.1,349 489,348C476.1,349.2 463.2,347 452,349C429.8,344 470.8,356.3 450,355C437.1,357.6 419.2,351.8 437,351C459.3,348.1 424.5,348 423,349C431.8,367.9 418.2,338.9 409,351C401.2,356.1 398.9,366.1 402,379C403.1,392.1 404,404.1 405,415C405.2,429.2 403.8,441.7 402,452C401.8,455 400.6,458.3 400,460C397.6,474.9 409.1,446 403,465C401.9,466.7 402.2,471.5 401,472C399.2,491.2 398.4,473.9 397,466C397.5,453.6 395.9,442.4 396,429C394.4,404.9 392.9,438.4 394,444C394.1,458.3 395.2,470.1 396,482C393.6,511.4 398.2,467.4 398,484C398.8,487.5 399.6,491.2 399,493C399.3,487.2 394.5,497.7 392,504M570,504C581.7,504 596.8,505.8 604,503C593.7,502.3 580.8,503.4 570,504M426,500C433.9,494.1 453.4,498.5 464,495C478.6,496 491.5,494.7 505,494C521.5,495.4 533.3,493.5 544,491C540.2,492.1 537,491.2 534,491C533,491.7 533.2,485.3 534,485C532,498.4 539.8,478.7 538,484C533.8,483.3 529.8,484.2 531,487C531,494.1 532.1,488.5 531,486C537.1,496.4 524.5,487.7 527,487C528.1,495.2 525.4,488.1 526,485C526.9,494 510.5,490.4 502,491C488.1,491.6 474.2,492.8 460,493C450.1,496.4 428.8,489.2 426,500M605,500C605.6,498.5 599.2,496.8 596,496C596.4,498.6 604.3,498.9 605,500M412,491C389.3,492.2 413.1,488.7 419,487C428.7,485.7 438.4,484.3 450,484C455.6,483.3 478.6,486.2 473,484C453.4,484.6 489.2,480.9 486,484C491.2,483 488.9,487.5 486,486C484.8,485.6 479.3,486.3 482,486C496,487 480.6,488.8 477,487C466.8,488.9 455.3,488.5 444,488C439.1,486.4 413.4,488.4 427,489C446.8,491.1 415.3,491.3 412,491M552,491C558.3,492.5 553.1,484.3 552,483C549.2,482 553.6,489.4 552,491M861,488C862,484.5 855.6,479.4 854,473C852.4,479.3 859.4,483.7 861,488M513,487C504.1,491.1 480.1,478.8 496,484C497.7,487.8 501.6,487 498,484C495.1,485.8 518.8,478.1 513,487M413,487C401.1,487.9 412.4,485.7 415,484C427,483.6 416,486.1 413,487M402,485C402.3,482.4 404.4,469.8 406,473C408.4,483.4 406,484.1 402,485M600,482C597.9,476.7 599.8,466.2 599,458C600.5,465.6 599,475.7 600,482M414,480C424.2,480.4 435.6,480.8 442,478C433.8,479.8 421.9,478.9 414,480M426,473C421,465.7 424.4,455.6 432,452C440.5,444.8 423.9,424.5 431,440C433.8,444 432.5,443.4 429,444C423.5,455.3 436.2,436.5 430,450C423,454.1 417.8,467.4 426,473M586,469C594.1,471.3 582.3,464.2 588,459C588.2,454.2 582.7,467.8 586,469M847,469C851.3,469.9 855.1,470.3 857,469C872.1,464.9 845.6,470 842,467C829.1,467.7 820.4,458.7 826,446C809.1,433.5 828,443.2 823,455C823,467.1 836.6,469 847,469M589,455C592.2,448.9 579,454.2 579,448C577.2,454.2 586.7,452.7 589,455M583,448C591.4,448.6 584.2,445.7 581,446C574,445.1 582.5,448.6 583,448M77,448C81.2,443.6 86.8,437.4 91,436C82.3,435.2 78.7,443.9 77,448M410,446C413,444 410.5,437 410,435C408.3,436.2 411.1,443.3 410,446M71,444C78.2,445 75.9,442.9 72,442C65.9,442.2 68.1,443.7 71,444M577,444C583.1,445.5 588.2,437.3 581,441C577.7,443.8 569.2,440.4 577,444M417,442C418.8,439.2 420.3,432.8 422,431C419,433.3 416.7,438.9 417,442M831,442C834,445.2 810.3,429.3 820,426C822,428.3 827.9,429.1 828,425C825.8,411.8 821.6,413.1 826,425C822.8,428.2 827,422.6 822,424C806.7,431.5 816.3,407.1 810,421C817,427.1 818.3,443.2 831,442M52,441C53.3,432.2 53.7,421.6 54,412L54,383L54,353C53.3,343.2 55.7,334.7 54,325C52,331.2 52.9,344.5 52,352L52,382L52,412L52,441M68,441C73.7,440.4 65.3,439.5 63,439C59.1,439.9 67.1,441.3 68,441M576,440C579.6,438.3 590.6,438.3 588,437C585.5,432.4 578.6,437.5 576,440M413,438C414.8,433.5 413.9,426.5 410,424C410.3,428.3 413.1,433.4 413,438M63,435C73,436.7 72.9,433.3 66,433C57.8,432.1 57.8,433 63,435M415,434C419.2,429.2 414.9,421.8 412,420C411.7,422.5 416.9,428.6 415,434M577,434C581.8,429.9 588.5,428 591,422C595.7,411 583.7,421.9 584,426C578.8,423.5 595.9,412.1 584,418C577.3,421.7 584,430.8 577,434M417,433C423.8,434.2 417.6,407.7 424,428C441,441.2 432.7,413.1 429,421C433.3,441.6 426.6,411.2 415,416C396.9,415.6 432.5,419.1 417,433M576,433C577.6,429.6 579.1,419.7 579,419C577.1,422.7 573.8,430.3 576,433M63,431C69.2,430 87.2,433.1 80,424C71.9,421.1 77.6,411.9 78,410C69.3,412.9 74.7,424 79,426C82.1,430.8 61.2,427.8 63,431M427,428C424.7,427.7 424.3,422.7 423,420C425.9,422.1 426.2,427.1 427,428M154,425C163.5,425.4 180.7,417.9 162,422C160.3,422.7 157.3,423.7 155,423C149.6,415 148.7,419.5 154,425M61,424C61,415.6 78.4,411.5 65,419C63.2,425.3 77.9,412.2 69,405C62.5,399.1 53.1,398.5 65,405C75.9,413.5 58.1,414.7 61,424M512,416C513,413.8 513.9,406.1 511,404C511.9,406.3 511.2,413.7 512,416M464,415C467.2,414.3 464.5,407.4 464,405C463.4,405.5 464.4,414.5 464,415M471,415C473.1,412 468.6,408 469,403C467.1,408.6 471.3,412.9 471,415M527,415C529.7,414.7 529.7,406.8 527,405C526.7,405.8 527,414 527,415M543,415C545.6,412.7 545.6,404.8 543,402C542.3,404.2 544.8,412.1 543,415M475,415C477.2,412.2 475,407.9 473,406C472.4,408.7 475.7,411.7 475,415M495,415C495.4,412.6 496.5,406.2 495,405C492.8,406.4 495.1,413.8 495,415M892,414C891.3,413.4 895.9,407.8 896,405C897.4,406.6 895.1,414.4 892,414M497,414C495.8,408.4 510.4,412.4 506,409C503.1,406.5 495.4,408.3 497,414M814,414C821.5,410.2 822.5,397.7 833,400C820.8,411.7 830.1,402.6 839,400C843.4,399.6 815.5,395.7 820,398C825.7,398.3 819.2,407.8 814,414M830,414C831.7,412 831.1,405.4 831,404C828.9,405.6 830,411.8 830,414M478,412C481.9,410.7 478.9,406.5 479,403C476.7,404.4 480.3,409.1 478,412M538,412C540.6,410.6 534,407 531,406C529.3,408.9 537.2,411.2 538,412M145,406C145.6,399.9 151.2,394.7 154,395C148.5,392.1 143.6,398 145,406M91,404C92.9,399.7 90.6,392.8 90,388C88.4,394.2 91,400.7 91,404M484,404C486.1,403.2 498.1,397.9 484,398C475,402.7 483.2,399.8 484,404M497,403C498.7,398.7 496.3,401.9 503,400C503.9,394.5 490.2,397.9 497,403M528,403C532.3,394.2 509.9,398.6 506,399C510.1,402.4 524.6,399 528,403M875,402C886.9,402.1 873.8,399.7 870,400C858.6,402.2 873.3,401.5 875,402M100,401C103,395 105.9,388.6 109,383C112.3,376.4 117.1,371 118,364C114.3,369.3 112.2,376.6 108,382C104.8,387.8 100.7,393.9 100,401M67,401C81.6,401.9 76.7,399.7 67,398C55.8,395.5 59.4,399 67,401M135,400C140.8,396.2 149.1,395.1 152,388C148,394 138.8,394.2 135,400M838,398C842.5,397 819.5,393.5 835,391C852.2,392.8 828.6,385.8 826,390C807,395.5 835.1,391 823,394C813.8,395.9 836.9,396.3 838,398M466,395C475,395.7 481.9,394.1 491,394L516,394L542,394C549.5,396.3 551.2,378.6 543,379C534.1,379.3 526.8,380.7 518,380C509.2,380.9 502.3,379.3 493,379L467,379C458.4,377 460.2,396.5 466,395M95,394C97.6,391.7 97,386.1 96,382C92.9,383.8 94.9,392.4 95,394M60,394C63.6,375 64,399.9 64,383C62.3,366 62.4,390 60,394M63,393C73,385.8 64.8,368.5 63,360C61.6,369.6 71.7,384.3 63,393M536,393L511,393L487,393C480.5,393 470.4,394.1 464,392C460.3,385.1 463.9,378.7 473,381L498,381L522,381L545,381C549.6,390.9 542.9,396 536,393M882,392C883.6,388.5 885.7,382.1 883,378C883.4,382.7 881.3,389.1 882,392M9,391C11.4,382.8 12.6,372.8 14,363C14.7,352.9 16.2,342.5 17,333C19.6,325 20.1,313.7 21,305C22.9,296.3 27.7,287.2 25,277C22.5,283.5 21.8,295.4 19,303C17.5,312.5 16.8,323.6 14,331C13.6,341.4 12.4,352 10,360C9.9,370.5 8.1,380.5 9,391M70,391C75.1,387.6 68.7,368.2 72,370C72.8,375.3 75.7,395.4 76,388C75.9,378.9 73.3,370.5 71,363C70.1,349.7 65.7,347.4 70,361C69.6,355.3 59.6,340.6 63,353C63.8,366.2 70.4,369.7 65,355C67.3,351.2 71.3,368.7 68,374L68,382C70.6,369.8 71.7,388.9 70,391M466,391C469.6,391 466.9,384.7 466,384C465,383.8 466.8,390.8 466,391M77,390C80.7,388.5 75.4,371 79,376C78.9,384.5 82.3,392.9 81,379C79.7,365.3 86.5,351.8 81,343C78.1,341.1 73.5,332.4 70,334C73.8,338.5 79.7,343 77,349C74,362.7 77.7,375.2 77,390M480,390C479.9,382.1 484.4,389.3 484,386C486.6,381.2 474.4,386.3 480,390M487,390C493.6,393.1 492.1,385.8 489,384C485.5,383.5 483.6,389.3 487,390M507,390C508.9,390.4 507.7,385.2 507,383C504.4,384 508.1,388.1 507,390M508,390C512.9,391.4 510,384.6 511,382C509,383.7 511.2,389.7 508,390M514,390C527.9,395.6 520.8,377.5 516,387C515.1,389.4 510.3,378 514,390M524,390C528.4,389.5 524.3,387.4 524,384C522.3,382.8 524.2,389.4 524,390M540,390C540.4,389.1 540.8,385.5 540,383C538.6,385.2 538.2,388.9 540,390M535,390C536.7,388.7 534.2,386.1 532,385C530.9,387.4 534.7,388.8 535,390M871,390C873.1,386.2 871.4,381.1 871,376C869.2,378.5 871.7,385.4 871,390M92,387C93.8,383.6 93.3,381 93,376C90.7,379.5 92.7,383.6 92,387M90,385C91,384 91,376.9 90,376C89,378.3 89,384.4 90,385M874,385C875.5,383.3 875.1,377.7 873,376C871.9,379 874.1,382.8 874,385M808,383C808.5,381.3 800.3,367.4 798,358C795.1,364.1 804.9,376.4 808,383M110,383C113.6,380.1 117.6,376.7 118,372C115.6,375.6 111.9,379.3 110,383M865,381C866.8,371.8 860.6,364.4 857,357C858.6,365.6 865.3,372.5 865,381M105,380C107.7,378.8 114.2,364.4 108,373C103.7,384.5 106.7,374.1 108,368C110.9,364 116.9,354.2 109,362C106.5,366.9 105.1,374.8 105,380M588,380C593.4,382.3 595.2,377.3 592,379C587.4,379.1 584.9,379.6 588,380M809,380C814.1,380.6 827.5,367.2 819,371C813.3,377.4 805.3,382.8 815,372C823.8,367.4 814,370.5 811,371C807.2,377.1 803,368.7 809,380M594,379C597.4,376.7 590.3,375.3 588,377C582.8,380.6 593.9,376.2 594,379M94,378C93.2,370.8 94.2,362.1 91,355C92.5,365.1 88.9,371.7 94,378M100,378C102.7,370.6 103.2,361.2 109,357C108.2,348.7 130.4,353.8 124,350C131.6,350.8 114.8,341.2 120,337C122.2,345.7 131.8,352.5 123,341C119.4,328.1 118.2,337.4 115,346C109.5,355.7 106.6,355.8 113,346C116,335.9 105.5,352.3 105,355C102.2,360.3 100.2,369 100,378M876,377C876.9,375.4 876.6,368.3 874,367C873,371.1 875.8,375.2 876,377M406,374C409.7,367.6 412.4,372.4 417,366C412.5,370.7 401.6,363.9 406,374M896,372C891.6,368.3 893.4,358.8 893,351C894.9,343.8 894.3,336.1 887,334C894.8,333.2 896.5,342.6 895,350C895.8,359 894,365.5 896,372M460,372C469.8,372.8 477.7,371.6 486,371L513,371L540,371C548.8,371 560.4,372.8 565,370C575.2,371.4 569.4,370.8 576,369C569.7,377.3 586.7,364.3 588,372C591.1,367.2 595,373.2 595,369C589,367.1 578.5,369.2 572,367C563.3,367.2 558.3,371.3 547,369C539,370 530.7,370.7 521,370C512.1,370.5 504.6,369 495,369C486.1,369.4 477.8,370.9 469,370C460.3,370.3 452.5,369.1 442,369C437.2,368.3 423.6,372.3 420,366C412.9,370.4 429.5,372.4 435,371C443.3,370.9 453,371.6 460,372M80,370C79.6,378.1 78,364.6 79,364C82.4,358 79.9,369.3 80,370M809,370C817.3,371.6 826.7,355.5 817,365C803,369 812.7,365.7 805,360C805.9,333.9 802.7,367.9 802,354C800.4,351.6 801.2,373.5 809,370M77,368C76.5,362.8 79.7,352.1 79,345C82.4,352.2 78.9,362.5 77,368M110,367C115.1,364.6 115.9,357.2 121,356C114,356.2 113.1,363.5 110,367M442,367L466,367C471.7,366.4 486.9,368.3 486,365L462,365C446.5,367.1 455.8,362.2 464,363C480.9,364.4 471.2,362.7 462,362C453.4,360.9 449.4,365.9 441,364C434.8,365.1 421.1,363.7 420,365C425.5,367.9 437.1,365.3 442,367M855,366C856,364.4 855.9,354.7 855,355C852.5,358.1 854.3,364.3 855,366M405,365C415.8,369.5 422.8,357.5 413,363C411.7,360.1 402.5,361.3 405,365M99,364C96.8,359.8 94.1,354.3 93,349C95.8,353.4 98.6,358.8 99,364M161,363C170.7,364.9 173.2,358.1 176,353C179.9,349.8 180.7,340.5 179,333C175,321.3 178.5,338.3 178,343C176.3,352.5 177.1,332.1 175,350C172.1,360.4 170,358.3 174,349C176.5,341.2 173.5,334.2 171,328C170.7,322.3 156.7,319.9 167,325C170.9,329.9 172.6,340.1 169,345C166.8,348.7 155,355.3 154,347C152.3,343.1 155.4,327.9 151,328C151.5,336.9 153.1,343.4 154,350C159.4,355 168.3,349.9 171,346C175.7,334.6 172.1,351.4 171,355C167.5,360.7 156.1,357 151,356C144.1,354.9 142,348.9 140,342C139.1,336.2 137.2,345.3 135,331C137.1,328.7 136.8,307.2 138,318C142.9,321.5 137,308.5 135,306C132.1,302.2 128.4,302.8 120,300C113.1,297.7 106.1,299.8 98,300C91.4,298.8 81.5,299 79,304C78.6,306.3 88.7,298.3 95,302C105.9,305.1 102.2,299.5 112,301C118.4,301.5 127.2,306.9 126,308C128.5,320.7 130,318.2 128,310C136,311.9 117.7,299.6 126,303C134.5,308.1 127.8,306 133,315C134,322.4 126.6,323.1 129,332C131.6,348 124.1,331.8 128,345C129.7,352.2 136,354.1 142,356C148.4,357.9 153.3,361.2 161,361C179.6,360.2 159.9,362.9 161,363M491,363C502.5,362.9 478.6,358.5 473,360C464.6,359.7 453.4,361.4 443,360C428.5,361.6 457.5,361.3 462,361C472.1,361.9 485.5,359.9 491,363M865,362C860.4,365.3 862.7,343.5 874,349C887.4,352.1 854.6,347 865,362M812,361C809.5,360.9 807.1,346.9 807,338C806.1,327.7 816.7,326.6 818,320C812.5,324.7 804.5,328.1 804,338C808.1,345.2 803.7,359.9 812,361M822,358C817.7,354.5 814.5,346.7 810,341C807.1,342 816.3,356.3 822,358M499,357C491.7,354.7 514,345.2 501,352C498.7,354.5 513.5,355.9 499,357M159,356C173.7,356.9 173.9,346.8 162,354C149.7,358.8 152.9,338.5 149,339C146.8,357.6 151.1,320 147,330C146.5,319.8 149.5,314.4 143,327C138.5,332.5 143.4,311.2 148,311C158.4,300.1 141.8,312.2 142,317C137.4,325.5 139.6,334.8 142,342C143.7,351.5 152.8,353.7 159,356M593,356L549,356C535.9,355.5 519.1,357.2 507,354L551,354C565.3,355.4 582,353.9 593,356M496,354C495.8,349.6 484.5,352.7 482,351C486.5,352.3 499.4,347.8 496,354M487,354C483.1,353.9 475.5,354.8 472,353C477.3,353.9 484.9,353 487,354M821,353C817.6,349 814.9,328.6 820,322C825.1,318.9 846.8,307.9 828,315C817.3,318.9 814.2,327.4 815,340C817.6,345.1 813.4,340.4 814,338C810,339.8 820.1,349.8 821,353M838,353C839.2,347.9 822.4,345.3 822,333C820.6,332 822.1,322.7 822,329C825.3,343.7 825.2,341.1 826,328C828.4,322.9 828.4,333.7 827,333C826.1,341.4 834.8,348 838,349C834.6,341.9 832.9,323.7 841,318C842.3,316.2 845,314 845,311C859.1,304.6 841.4,317 841,321C852.4,306.2 851.7,313.5 843,325C839.7,325 839.9,330.2 838,331C840.3,345.4 842.6,349 841,333C842.6,332.7 841.9,340.5 842,341C844.2,342.5 843.6,345.7 844,347C841,344.2 844.8,348.9 838,353M133,350C131.4,349 129,343.6 130,341C132.4,341.2 131.1,350.3 133,350M138,349C136.1,346.8 133.9,339.1 134,331C135.8,337.3 137.7,344.9 138,349M159,349C165,347.6 169.6,342.7 168,336C166.9,340.1 163.3,345.9 159,349M850,349C843.1,348 844.1,331.7 844,327C852.1,328.9 843.7,346.8 850,349M156,348C162.1,345.2 159.6,318.9 158,333C157.2,337.1 157.6,329.3 156,328C153.8,330.3 157.2,343 156,348M851,347C852.5,344.6 856.4,345.4 853,333C854,331.9 856.2,324.9 853,316C858.7,305.3 847.9,319.6 851,325C851.4,333.4 850.5,340.5 851,347M835,345C832.6,343.1 832.2,337 832,332C834,336 834.8,341.8 835,345M160,343C163.6,341.9 167.6,337 165,333C164.6,334.9 162,341.1 160,343M876,341C870.7,333.8 894.9,319.5 880,327C870,343.1 879.1,321.7 886,320C888.1,319.4 891.3,318 892,316C899.6,305.4 896,320 890,322C891.8,326.1 877.3,332.5 876,341M896,340C897,333.3 885.9,330.2 884,334C888.3,327.1 898.6,333.8 896,340M97,340C104.3,338.1 109,334.2 111,327C114.6,319.4 111.6,314.7 107,310C107.8,308.3 109.1,325.1 108,325C105.6,331.2 102.7,337.6 97,340M145,340C144.3,337.8 143.8,334.5 143,331C147.3,331 143.9,338.2 145,340M91,339C105.8,338.5 105.1,320.3 101,309C101.5,319 105.2,337.9 91,339M860,338C859.2,336.6 859.6,324.4 856,320C857.4,312.4 862,309 867,306C873.3,304.9 860,311.4 860,316C858.9,322.9 862.4,331.7 860,338M91,338C102.4,334.5 101.4,320.9 99,309C98.1,319.4 100.9,333.4 91,338M127,336C130.3,327.8 126.8,319.8 125,311C124.1,312 123,306.2 122,309C124.9,321.4 118.8,300.4 117,307C120.7,312.7 127.4,319.8 123,328C124.9,329.6 123,334 125,334C123.8,320.6 126.7,331.6 127,336M111,334C115.1,327.3 122.8,322.4 119,318C115.4,312.4 110.6,306.1 103,304C91,304.1 114.2,308.4 113,313C119.3,316.3 112.8,328.2 111,334M84,333C79.1,329 82.6,312.7 84,306C81.4,312.8 75.8,329.8 84,333M167,333C167.7,327.3 161.6,323.5 160,317C157.1,313.5 143.1,313.6 144,320C142.1,323.6 150.5,312.7 156,319C157.9,326.6 165.3,327.4 167,333M824,331C821.3,328.6 825.5,324.3 826,322C828.2,323.2 824,327.5 824,331M134,330C132.9,325.1 135.4,317.3 133,310C137.1,314.4 135.6,325.6 134,330M95,329C97.3,328.3 97.7,323.5 95,321C94.2,322.1 96.2,327.4 95,329M888,329C887,326.8 895.8,325.4 898,322C899.9,326 890.8,327.1 888,329M86,325C83.5,321.9 86.2,316.9 86,312C87.9,314.2 85.2,320.6 86,325M73,324C82.7,324.1 79.7,305.9 77,307C83.4,318.1 70.4,326.4 68,320C77.2,321.6 70.5,294.3 70,309C75,321.1 55.6,322.4 73,324M61,321C66.6,319.8 58.5,298.6 66,304C70.5,303.9 68.9,303.3 65,303C55.2,303.2 64.5,316 61,321M63,320C68.1,320.7 69.2,316.7 70,313C68,315.5 66.6,319.2 63,320M894,313C898,305 885.8,318 892,308C895.9,298.1 899,307.9 894,313M142,313C144.1,311.3 144.7,308 147,306C144.5,307.8 141.9,309.1 142,313M116,310C116.5,306.3 114.5,302.5 107,302C108.2,303.4 115.3,306.5 116,310M77,303C81.9,300.6 85.3,297.2 91,296C83.4,295.4 81.5,300.3 77,303M53,300C56,298.9 54.1,293 54,289C52.7,290.3 53.7,297.7 53,300M456,281C458,272.6 460,265.3 460,273C465,261.3 450.7,269.8 456,281M445,280C442.9,275.9 442.6,262.2 446,260C439.3,262.8 441,276.8 445,280M515,280C520.5,276.8 522,264 516,261C517.4,262.3 520.1,275.9 515,280M586,280C584.8,274.1 585.4,262.7 588,259C582.4,263.5 582.6,274.9 586,280M316,279C311.9,276.4 311.9,261.9 316,260C308.8,262.3 310.5,277.3 316,279M372,279C377.6,277.3 378.8,262.4 372,261C375.3,262.8 377.1,274.1 372,279M462,279C466.6,276.3 466.4,265 469,264C464.1,265.9 463,276.5 462,279M612,279C615.1,279.5 614.6,276.5 614,273C615.9,261.1 619,289 619,275C619.3,257.3 608.3,276.1 612,279M654,279C661,277.9 660,262.2 655,260C657.1,263.1 659.7,275.7 654,279M471,277C481.3,278.9 479.3,265.3 477,259C478.5,267.7 476.4,278.1 471,277M27,275C29,269.2 30.7,262.3 31,254C29.3,260.9 27.8,268 27,275M359,274C368.5,275.1 357.8,272.8 359,268C358.4,259.3 356.8,273.9 359,274M624,274C627.5,274.2 620.9,270.2 622,266C619.6,265.8 621.8,274.2 624,274M352,273C354.8,273.8 355.8,272.3 355,269C356.8,253.4 353.3,269.1 352,270C349.4,253.2 345.4,267.5 352,273M496,273C509.3,274.6 500.7,271.1 497,271C497.3,260.9 493,268.5 496,273M603,273C601.3,272.4 601.8,268.6 603,267C595.4,266.6 599,275.6 603,273M642,273C653.9,273.4 641.1,274.4 642,268C641.1,259.3 638.8,272.6 642,273M327,273C337.4,272.9 326,262.1 324,269C329.7,268 327.1,270.9 327,273M334,273C346.8,272.5 333.6,265.1 334,264C333.7,251.2 332.5,271.4 334,273M342,273C347.3,275 349.2,269.7 346,268C343,265 340.3,270.5 342,273M469,273C474.6,275 476.5,269.7 473,268C470.1,265.3 467.8,270.2 469,273M481,273C491.3,274.8 480.7,270.2 486,270C485.3,264.2 477.6,269 481,273M489,273C499,274.2 484.9,268.3 493,269C491.7,264.2 484.7,271.2 489,273M606,273C611.5,274.2 612.2,269.8 610,267C605.9,266.1 604.1,271.5 606,273M626,273C637.8,274.7 626,261.1 626,270C632.9,271.8 626.3,268.3 626,273M634,273C647.1,274.7 629.5,269.4 638,269C640.8,265.1 628.4,268.3 634,273M54,267C55.2,260.8 54.3,251 54,244C53.5,251 54.3,260.8 54,267M391,239C390.1,233.2 394.2,217.7 396,228C387.6,229 402.6,235.5 402,239C397.6,235.8 399.8,227.6 396,223C386.5,220 391.4,235.4 391,239M416,239C420.2,230.2 414.5,217.8 422,232C428.6,249.2 425.3,227 424,220C421.6,218.6 427.6,245.6 421,226C413.4,211.6 417.1,231.5 416,239M432,239C428.6,231 440.7,220.6 436,223C420.8,219.6 437.7,230 432,239M583,239C585.9,235.2 581.9,220.6 588,226C579.4,231.2 593.2,233.2 592,239C589.3,234.7 592.6,226.3 588,223C579.6,220.5 583,235.1 583,239M380,239C381.4,237.4 381.8,235.2 381,232C393.7,227.6 378.1,228.9 385,225C387,215.9 373.3,230.7 380,239M457,239C459.4,225.4 457.3,221 464,233C469.2,247.8 466.4,216.4 465,218C465.5,235.1 465.3,232.9 459,223C454.6,207.9 457.8,235 457,239M560,239C557.3,229.7 573.4,231.9 566,224C557.7,218.3 559.6,233.9 560,239M546,236C542.4,235.8 534.4,227.7 537,219C533.6,223.8 535.5,240.1 546,236M517,235C517.2,234.2 521.7,230.4 522,223C530.8,215.9 518.7,221 519,227C515.5,236.2 516.1,218.9 509,221C513.8,224.2 514.5,231.2 517,235M448,234C465.7,236.9 435.2,227.9 452,225C454.7,216.2 437.7,230 448,234M472,234C480.3,237.3 483.8,226.6 477,224C470.7,217.6 467.9,231.8 472,234M491,234C499.3,237.1 502.1,227.3 496,223C488.7,218.2 486.9,231.4 491,234M504,234C526.4,236.2 491.9,230.5 508,225C516.3,220 492.9,224.2 504,234M526,234C547.4,235 517.2,233 529,225C539.5,219.8 515.4,223.6 526,234M549,234C557.4,236.5 558.6,224.8 552,223C543.6,221 543.4,234 549,234M573,234C575.4,234.3 581.8,235.6 579,233C564.2,231.3 589.4,228.7 573,226C594.2,220.8 559.6,221.5 573,234M405,234C414.5,236.9 415.2,224.7 409,223C401.9,219.6 399,232.9 405,234M475,232C471,235.1 471,222.6 475,225C479.7,225 480.4,233.1 475,232M495,232C489.4,234.8 490.4,224.8 493,225C498.2,225 498.8,231.4 495,232M552,232C546.6,234.3 545.6,225.7 549,225C555.6,224.4 555.8,232.1 552,232M409,232C402.6,234.2 402.8,226.4 405,225C411.9,223.6 412.5,230.5 409,232M563,229C560,230.2 561.7,225.4 563,225C567.3,225.3 565.3,229.7 563,229M54,225C55.1,218.5 54.3,208.3 54,201C53.5,208.3 54.3,218.5 54,225M381,207L408,207L434,207L460,207L487,207L513,207L540,207L566,207L592,207L619,207L645,207C651.9,204.8 668.6,211.7 666,201L666,175C665.9,167.5 667.8,155.8 665,150C657.8,149.3 647.2,150.1 639,149L613,149L586,149L560,149L534,149L507,149L481,149L455,149L428,149C421.4,148.4 410.5,149.5 403,149L376,149C368.4,148.8 357.5,149.8 351,148L324,148C318.1,150.7 301.4,143.8 303,153L303,180C303.8,188.3 302.7,199.2 304,205C311.4,207.1 322.3,206 329,206L356,206C364.5,206.7 375.1,205.9 381,207M662,205L636,205L610,205L584,205L558,205L532,205L506,205C497.9,205.7 487.8,206 480,205L455,205L428,205L403,205L376,205L351,205C342.3,205 333.7,203.9 325,204C318.6,202.5 303.7,208.9 305,198C305.9,189.5 304.1,182.8 304,173C305.9,166.2 302.5,154.2 307,150L333,150L359,150C367.9,150.6 378.4,149.9 385,151L410,151L437,151L462,151C471.5,151.1 481.7,150.8 488,151L514,151L540,151L566,151L592,151L618,151L644,151C651.3,153.8 666.5,147.2 665,156L665,182C664.5,190.3 667.2,201.5 662,205M643,192C643.2,189.4 636.3,185.2 634,180C629.9,175.5 639.6,172.6 641,168C649.4,161.4 644.5,163.7 638,167C634.8,171.6 630.1,175.5 627,179C622.1,185.9 628.6,165.6 623,166C621.7,171.7 622.2,181.6 622,187C625,196.2 626.3,176.1 631,181C635.3,185.3 638.4,190.8 643,192M348,191C352.5,187.8 360.7,179.1 369,185C378,198.4 373.7,184.8 369,179C367.9,173.9 362,158.3 358,171C355.2,178.1 352.2,186.1 348,191M398,191C393.6,187.7 391.3,181.2 396,173C397.6,166 381.6,163 378,169C377.6,175.3 377.5,199.7 381,185C388.6,175.8 392.1,191.7 398,191M427,191C430.4,185.8 429.8,170.2 428,164C425.1,170.5 425.9,185.6 427,191M647,191C649.2,185.2 648.9,172.4 647,165C645.4,172.6 645.8,184.8 647,191M437,190C443.5,188.2 434.8,161.1 441,173C445,178.2 452.5,190.4 454,188C451.5,180.3 445.3,175.3 441,168C433,160.4 437.6,186.7 437,190M501,190C513.8,192 512.8,178.7 512,167C506.3,163 514.4,191 503,187C489.8,191.2 500,165.4 493,166C491.7,176.5 491.2,191.4 501,190M524,190C529,191.5 531.5,190.1 535,190C537.7,186.7 513.3,192.3 522,176C522.9,145.5 512.9,194.8 524,190M546,190C554.9,191.2 559.6,187.8 561,181C561.5,172.9 558.1,168.1 550,167C543.6,165.6 538.3,170.1 536,176C535.5,185.5 540.4,188.8 546,190M606,190C623.9,192.8 616.8,173.3 604,176C600.3,164.1 631.8,175.1 608,166C591.6,170.1 606,183.2 613,183C611.1,194.7 588.5,177.8 606,190M344,190C347.1,185.3 347.4,169.2 344,165C343.3,166 338.1,175.5 335,180C331.6,185.5 329.1,170.6 325,167C318.8,157.7 322.4,178 321,184C325.1,198.3 325.4,173.2 323,170C325.3,170.7 328.6,182.1 333,185C337.8,185 340.7,175.4 343,169C345.2,168.7 341.8,184.6 344,190M409,190C427.5,187.7 420.8,184.7 408,186C399.5,182.5 402.9,166.2 415,169C431.6,175.5 410,158.7 404,168C397.4,173.9 400.1,190.1 409,190M455,190C456,183.2 457.9,169.6 454,165C453.9,172.8 452.8,185.6 455,190M475,190C491.9,195.2 490.9,174.2 477,176C464.6,163 502.3,175.1 481,166C464.2,164.5 471.9,183.8 482,181C489.7,195.5 456.1,178.9 475,190M571,190C578.1,188 578.2,172.4 581,171C584.1,176.5 584.7,195 591,187C593.6,179.9 597.2,170.7 598,164C592.9,169.4 591.5,179.4 589,187C586.3,184.3 585.8,170.6 579,167C576.4,172.1 573.8,186.5 572,187C569.9,180.2 568.4,166.8 563,167C566.5,174.2 567.9,184.2 571,190M549,188C537.5,189.7 535.9,170.2 547,169C561,167 560.9,188.9 549,188M367,181C356,183.4 356.4,178.4 361,171C362.7,163.5 365,180.2 367,181M389,180C378.9,185.3 378.6,168.7 384,169C394.5,165.2 396.1,179.3 389,180M851,151C860.9,152 865.4,148.4 864,139C863.3,132.5 854.2,133.3 846,134C838.3,133.5 831.2,136.2 833,144C834.8,151.8 844.9,149.8 851,151M856,149C847.8,151.5 845.2,136.3 854,135C865.4,132.6 864.8,149.8 856,149M827,114L853,114L879,114C897.8,115.3 883.6,111.9 874,113L849,113C840.5,113.1 831.9,112 823,112C815,112.2 805.8,112.9 799,113C792.4,111.8 781.5,112.9 774,112L748,112L721,112L696,112L669,112L644,112L617,112L592,112L566,112L540,112L514,112L488,112C481.2,111.2 470.3,112.3 462,111L437,111L410,111C403.6,110.5 393.9,111.6 385,111L359,111C352.1,109.9 342.5,111 334,110L307,110C298.7,111.2 292,109.4 282,109L256,109C248.8,109 240,109.2 231,109C222.3,109.7 213.3,109 205,108L180,108L154,108C145.3,109.1 137.6,108.2 129,108L102,108L77,108C59.4,107.5 69.1,109.3 79,108C88.6,108.3 95.6,109.9 104,109L131,109C140.3,108.7 147.1,110.5 156,109L182,109C191.5,109.6 198.4,111.2 207,110L234,110C241.2,111.9 250.8,110.9 259,111C267.4,111.6 278.3,110.5 284,111L310,111C319.6,111.5 328.7,112.2 336,112L361,112C370.1,112.9 379.8,111.8 387,113L412,113L439,113C447.3,113.4 456.7,112.6 464,113L490,113L516,113L542,113L568,113L594,113L620,113L646,113L672,113L698,113L724,113L750,113L776,113L802,113C810.6,114.1 819.9,113.3 827,114M583,110L622,110L662,110L702,110C712.8,107.6 736.6,117.6 732,101C736.7,84.4 712.6,95.2 702,91L662,91L622,91L583,91L543,91C530.3,92.2 518.6,90.6 504,91L464,91C451.9,91.1 437.3,91.8 426,90L386,90C374.1,89.8 360.2,89.9 347,90C333.9,90.6 322.5,88.7 308,89C294.9,90 282.5,88.5 270,88L230,88C218.1,87.5 203.8,88.4 190,88C178.8,86.9 164.8,87.6 151,87C141.9,90.6 117.4,80 121,96C119.1,112.1 141.8,102.7 151,106L191,106C203.8,107.1 217.7,106.5 230,106C242.7,107.9 257.3,107.2 269,107C281.8,108.2 295.2,108.1 308,108C322.5,107.4 333.9,109.3 347,108C360.9,108.8 374.9,108.1 387,109L426,109C440.1,108.7 451.5,110.5 465,109L504,109L544,109C557.3,110.2 571.8,109.6 583,110M799,109C802.4,107.1 803.4,100.6 802,97C799.3,96.5 801.2,105.9 799,109M729,108L689,108L650,108L611,108L572,108L532,108L493,108C481.7,107.6 467.2,108.2 455,108L415,108C403.9,107 389.4,107.6 377,107C364.1,107.6 351.7,106.1 338,106C326.1,106.3 311.1,107.4 300,106C287.5,105.7 272.7,106.7 261,105L222,105C210.6,104.2 195.8,105.2 183,104C170.2,105.4 157.8,103.9 145,104C131.3,107.1 115.3,103.8 124,89C136.6,88.7 151.6,88.2 163,89C176,89.7 190.8,88.8 201,90L241,90C252.8,91.3 267.7,90.3 279,90C293.4,90 305.4,91.8 318,91C331.9,90.6 344.1,92.3 356,91C369.5,92.3 384.3,91.3 395,92L434,92C447.2,93 462.2,91.8 473,93L512,93L551,93L590,93C602.5,94.6 617.5,93.5 629,93L668,93L707,93C721.4,91.7 739,92.2 729,108M792,108C800.3,108.9 794.8,94.8 802,95C792.9,93.8 797.5,106.9 792,108M833,108C836.4,107.6 835.7,102.3 835,100C833.9,97.7 839.6,99.4 837,101C836.3,116.2 843.3,99.7 837,98C834,98.4 828.4,97.3 829,100C830.1,116.8 834.1,86 833,108M741,106C751.6,109.8 751.3,98.3 748,95C738.2,91.3 736.9,104.6 741,106M761,106C768.7,106.7 768.7,97.8 763,95C756.4,95.3 757.1,105 761,106M849,106C858.8,110 859.5,99.9 853,99C849.6,92.4 844.6,105.7 849,106M866,106L874,106C880.3,97 865.5,110.8 867,98C882.8,98.4 855.9,92.9 866,106M887,106C888.7,104.9 890.5,99.6 889,98C887.8,100.2 886,104.6 887,106M719,106C725.3,107.5 730.4,101.6 724,98C720.2,97.2 716.7,99.6 719,106M777,105C785.4,109.4 786.9,100 783,97C775.4,94.1 774.6,102.1 777,105M747,104C740.5,107.6 738.7,99.5 742,97C748.4,94.2 751,101.9 747,104M763,104C759.4,104.5 760.5,98.9 762,97C764.5,99.6 765.7,102.9 763,104M816,104C828,102.1 814.8,101.1 813,98C809.6,89.7 810.8,108.4 816,104M313,104C319.7,106.2 319.1,100.3 318,97C317.3,99.4 317.8,105.3 313,104M320,104C323.5,103.4 321.6,97.5 320,96C318.7,96.5 322.1,100.9 320,104M204,103C213.6,105.3 206.4,90.9 215,92C205.1,89.6 212,103.8 204,103M285,103C293.2,104.9 282.5,100.5 285,96C283.5,89.1 283.5,104.2 285,103M307,103C309.4,102.5 308.5,94.4 306,95C305.4,94.4 308.1,101.2 307,103M311,103C310.9,102.5 311.1,93.7 311,94C308,94.5 310.3,103.4 311,103M73,102C79.9,101.3 71,98.3 70,97C65.7,96.2 73.8,101.5 73,102M236,102C240.2,101.8 238.8,96.5 238,93C235.6,92 238.5,101.2 236,102M244,102C245.7,102.9 244.8,95.7 244,93C241.4,95.2 243.9,101 244,102M246,102C248.8,90.2 247.5,103.3 250,100C254.2,92 242.6,94.2 246,102M254,102C255.3,100.5 255.5,93.2 255,92C252.1,94.6 255.6,100.1 254,102M257,102C257.8,100 259.3,95 259,93C256.7,94.3 257.1,101.2 257,102M173,102C181.3,103.7 171.6,98.3 174,93C170.5,90 174,100 173,102M217,102C220.6,103 216.7,96.4 216,95C214.7,93.7 217.6,101.2 217,102M258,102C261,100.9 260.4,95 262,93C258.2,93.7 260,100.8 258,102M279,102C280.8,101.1 280.3,93.7 277,93C275.3,94.6 281.2,97.2 279,102M281,102C284.3,101.5 281.7,95.5 283,93C280.5,94.3 281.9,99.2 281,102M301,102C306.7,100.8 299.9,98.5 304,96C296.3,95.3 293.7,102.3 301,102M313,102C319.7,98.8 314,96 313,100C316,94 311,96.6 313,102M743,102C745.3,102.6 750,100.4 746,99C744.3,99.8 740.9,100.7 743,102M141,101C143.6,99.4 142.2,92.2 144,91C139.7,90.7 141.9,98.7 141,101M147,101C152.7,101.3 153.7,97.2 154,92C151.5,95 151.2,99.8 147,101M228,101C234.3,104 233.8,94.1 232,95C227,91.5 233.9,101 228,101M262,101C270.8,101.5 261.7,90.6 264,98C265.3,101.7 261.4,91.9 262,101M268,101C271.1,100.4 267.9,94.4 268,93C265.3,94.1 269.3,99.4 268,101M270,101C273.7,101.9 271.8,95.1 270,95C268.2,94.2 272.7,99.7 270,101M273,101C278,103.6 278.9,96.9 276,97C273.2,94.1 272.4,100.8 273,101M107,100C125.8,92.1 104,103.9 107,93C123.4,89.5 92.5,92.1 107,100M127,100C135.8,103.5 137.5,94.6 133,91C127,88.4 123.6,97.7 127,100M186,100C194,99.4 184.9,84.6 188,99C187,96.3 184.2,88.8 186,100M198,100C204,103.2 210.4,98.1 205,93C199.5,91.8 193,97.1 198,100M220,100C222.9,100.6 228.5,101.8 226,99C232.3,89 218.5,105.9 225,93C231.2,93.2 225.6,92.1 223,92C222.1,106.8 218.9,88.8 220,100M293,100C297.7,99 291.4,97.5 288,98C285.4,99.6 293.2,99.7 293,100M157,100C162.6,101.5 161.7,94.5 160,92C155.4,91 155.4,98.9 157,100M165,100C165.7,88.6 168.2,97.8 168,99C172.1,87.8 158.6,94.3 165,100M192,100C197.9,101.5 194.9,94.8 192,94C190.2,90.2 190.3,99.9 192,100M132,99C127.1,101.1 127.3,94.4 129,93C134.7,92.3 133.6,98 132,99M144,99C148.1,98.7 148.7,96.3 149,94C146.6,92.5 145.9,97.8 144,99M181,99C187.7,99.8 179.1,93.5 183,93C178.9,91.7 178,98.4 181,99M72,97C77.5,97.3 83.2,94.6 74,95C66.5,94.4 66.2,95.6 72,97M68,93C71.3,92.1 78.1,94.6 77,89C72.4,88.9 71,91.8 68,93M819,90L847,90L874,90C879.3,90.9 905.3,90.8 889,89C879.3,90 870.5,88.6 862,88L833,88L806,88C796.3,89.4 787.8,87.7 779,88L751,88L723,88L695,88L667,88L640,88L612,88L584,88L556,88L529,88L500,88C492.4,87.3 482.2,87.3 473,87L445,87C437.5,86.3 423.6,90 421,84C416.5,79.3 417.9,68.5 408,68L381,68C371.6,68.6 362.4,67.6 354,67L326,67C317.6,67.1 308.7,66.5 298,66C290,66.6 279,67.4 271,66C264.3,75.7 267.1,70.5 258,66L230,66C222.7,64.9 212.2,65.9 203,65C194.1,65.5 183.4,65.9 176,64L148,64L120,64C111.6,65.1 112.7,75.6 108,81C103.2,84.7 90.3,82 82,82C75.6,85 58.8,80.7 61,83C60.4,85 77.3,83.3 82,84L111,84L138,84C147.6,85.3 158.9,84.2 165,85L193,85C202.8,85.6 211.2,86.6 221,86C230,86.4 241.1,85.6 248,86C259.4,88.9 265.4,84.7 266,77C266.5,68.4 274.9,66.5 284,68C293,69.4 303.2,68.6 312,68C322.1,68.3 331.2,69.3 339,69L367,69C375.8,69.9 385.4,70.4 394,70C403,70.5 415.7,67.4 415,76C418.2,83.4 420.1,91.7 431,88C441.4,88.1 449.4,89.5 459,89L486,89L514,89C524.7,88.7 533.5,90.1 541,90L569,90L597,90L625,90L653,90L680,90L708,90L736,90L764,90L792,90C800.8,90.3 811.8,89.5 819,90M426,85C445.1,91.4 444.4,77.6 432,74C413.5,69.5 419.2,76.6 426,85M259,84C244.5,85.5 231.6,83.8 216,84C201.6,84.9 188,83.4 174,83C160,83.2 144.5,84.1 131,82C110,86.8 106.6,79.4 116,67C129.2,64.6 144.2,67.5 158,66C172.2,67.1 188.3,66.2 200,67C214.7,67.9 230.5,66.8 243,68C261.9,62.4 270.9,76.2 259,84M289,84C291.4,83 288.6,77.5 288,72C285,74 288.3,82.6 289,84M306,84C311.4,85.5 308.4,77.8 309,73C306.6,76 309.4,83.5 306,84M311,84C312.8,82.2 311.6,77 310,74C310.1,76.6 310.7,82.4 311,84M403,83C412,79.8 412.1,86.7 410,75C402,73.3 406.7,74.7 403,83M439,83C433.2,87.6 417.5,79 423,77C433.7,71.3 436.8,83.2 439,83M886,83C894,85 894,76.2 889,73C882.5,72.2 881.5,82 886,83M295,82C302.3,84.4 298.3,79.4 300,75C298.1,75.4 299.7,83.4 295,82M345,82C348.7,83.2 346.9,74 346,73C345,73 346.8,82.3 345,82M275,82C282.6,85.1 282.3,73.8 278,72C272.4,68.9 272,80.4 275,82M343,82C344.4,82.8 344.3,72.4 342,73C340.2,72.7 340.9,82.6 343,82M324,81C325.3,79.8 324.7,70.6 330,72C324.4,69.1 324,77.4 324,81M334,81C335.4,80.3 337.3,74.7 339,79C339.1,71.5 331.5,79 334,81M252,81C261.1,79.4 259.2,79.5 259,73C250.1,72.9 256,71.7 252,81M302,81C306.9,82.7 305.6,76 304,75C300,74.1 301.2,80.8 302,81M320,81C323.5,76.4 310.9,69.7 319,78C310,71.2 319.3,80.5 320,81M327,81C329.1,80.3 333.3,76.8 330,75C326.3,74.2 325.4,79.8 327,81M138,80C141.8,80.6 136.4,78 138,76C137.8,62.8 136.8,81.7 135,71C130,64.6 135.1,83.1 138,80M156,80C160.4,80.9 158.1,75.6 158,73C157,74.5 158.1,78.6 156,80M279,80C273.8,82.1 275.3,75.6 275,73C277.8,74.1 279.8,77.1 279,80M292,80C290.9,75.3 296.6,71 296,72C291.1,68.4 291,78.2 292,80M120,79C146.6,81.8 116.1,60.8 122,73C142,81.5 113.2,71.9 120,79M140,79C144.2,79.7 140.2,73.6 140,70C138,70.1 140.1,78 140,79M306,79C307.4,76.1 308.4,70.2 302,72C301.5,72.4 308.3,75.5 306,79M44,79C46.6,78.1 47.1,72.9 43,73C41.5,71.6 43,78.6 44,79M163,79C168.9,76.9 166.9,61.9 165,75C165.4,82.5 161.1,65.2 163,79M144,78C145.7,76.8 145.3,70.8 145,70C143,71.1 144.1,76.4 144,78M147,78C153.2,79.3 145,74.8 147,71C145.4,67.7 146.6,79.1 147,78M171,78C173.2,78.1 178.4,79.1 178,77C166.9,75.8 174.7,71.5 180,77C188.5,78.3 163.8,64.3 171,78M183,77C184.5,75.2 180.1,72.2 178,72C178.6,72.7 182.4,76.4 183,77M84,75C90.2,76.5 88.9,69.1 85,68C79.1,67.9 81.1,75.9 84,75M97,75C102.9,76.9 103.1,69.2 99,68C93.9,67.7 93.6,75.4 97,75M69,75C74.8,77.5 76.1,70.8 73,68C67.9,66.5 66.6,73.2 69,75M47,66C50.2,65.2 52.2,56.3 50,54C50,56.8 46.7,64.6 47,66M46,64C47.3,62.2 48.9,57.8 48,55C47.5,58.3 44,60.8 46,64M453,61C448.9,61.3 443.1,62.4 439,61C444.1,61.4 449.8,60.4 453,61M610,61L579,61C569.2,61.4 558.2,62.2 549,61L580,61C590.5,61.3 601.5,60.6 610,61M428,60C422.4,60 411.1,61.1 408,59C415.7,60.7 424.5,58.2 428,60M519,60C512.9,60.1 505.1,61 499,59C506,60.1 513.8,59.2 519,60M363,59C357.5,59.4 349.2,60.4 345,59C350.9,59.5 359.2,58.6 363,59M266,59C254.8,57.6 284.3,57 291,57C302,58.2 272.2,58.5 266,59M336,59C331.5,59.1 309.5,59.7 318,57C323.5,58.2 346,57.1 336,59M468,59C456.5,57.6 465.7,37.7 464,30C470.1,13.4 461.9,12.9 447,14L410,14C398.8,13.9 386.6,13 374,13C362.4,13.7 350.8,12.2 338,12C328.7,13 314.2,13.2 304,12C293,11.1 279.3,11.7 268,11C255.6,11.9 245.9,12.2 234,10C223.1,9.7 209,10.7 198,10C186.5,9.6 173.6,9.5 162,9L152,9C134.6,9.6 147.4,7.3 157,8C169.9,8.2 182.8,8.3 193,9L230,9C241.2,10.1 254.9,9.5 266,9C278.9,9 290.1,10.9 302,10C314.6,9.8 325.6,10.8 337,10C350,10.6 362.6,11.1 373,11C384.3,12.9 398.5,11.9 409,12C420.3,13.6 434.5,12.5 445,12C457.9,12.6 469.5,14.1 481,13C493.9,13.3 506.8,13.5 517,14L554,14C560.3,14 594.1,14.1 572,14C559.9,14.6 548.2,14.8 536,15L527,15C511.5,13.2 517.2,19.4 510,16C512,16.3 513.1,20.4 511,22C518.3,18.1 495.9,13.9 502,17C514.6,19.2 489,23.5 493,18C491,16.8 491.7,25 489,21C488.3,21.3 485.9,17.9 486,19C491.2,29.2 478.3,16.7 482,25C484.1,29.9 481.3,30 482,25C480.5,13.1 477.5,28.6 471,18C468.2,16.7 476.8,16.4 477,16C494.4,17.8 487.3,14.3 475,15C471.4,14.8 468.9,16.8 469,19C470.2,25.3 468.7,19.8 469,18C466.8,10 466.5,27 466,28C467,37.8 459.8,54.3 468,59M223,58C211.1,59.5 197.9,56.3 217,57C230.4,56.8 241.4,57.8 223,58M502,58C495.9,58.2 487.2,59.1 482,57C489,58.2 497.6,57.3 502,58M163,55C158.9,55.6 151.7,56.6 149,55C153.5,55.7 160.7,54.6 163,55M127,54C122.8,54.2 121.6,49.8 120,45C124.9,46.6 124.8,52.2 127,54M467,54C464.7,46.7 467.6,35.3 467,27C467.9,26.7 468.6,21.6 469,23C467.4,38.7 470.5,26.9 470,32C470.6,40.1 468.3,59.2 468,39C468.6,25 466.8,49.4 467,54M68,45C70.9,43.1 71.2,42.7 71,39C69.7,38.4 68.6,42.6 68,45M0,38C1,27.5 3.8,18.4 10,12C10.1,6.2 34.4,3 23,0C19.9,7 2.3,6.1 1,10C4.5,12.9 -3.8,26.4 0,38M78,35C83.9,33.9 76.3,24.2 77,27C81.6,34.7 71.3,33 78,35M103,35C103,28.5 101,21.5 101,18C95.6,18.8 98.8,9.3 103,14C107.3,17.4 107.8,29.8 105,34C106.5,20.8 102.8,27.7 103,35M54,30C65.9,29.7 55.8,27.5 55,22C56.1,28.3 51.5,21.2 54,30M286,30C283.1,28.3 286.4,23.1 286,19C289.7,22.5 285.6,26.9 286,30M765,29C764.4,27.4 763.7,23.1 763,20C765.6,22.1 765.7,27 765,29M83,27C88.5,28.5 82.6,25.6 82,21C80.2,17.5 81.3,27.6 83,27M502,26C500.4,23.4 505.6,21.2 507,20C509.3,24 502.4,24.5 502,26M57,25C59.6,22.8 61.9,13.4 60,14C59.1,6.3 53.1,21.8 57,25M883,18C877,18.3 871.8,17.5 866,16C872.4,16.9 879.2,16.1 883,18M774,16C765.9,17.3 759,14.1 771,14C778.2,13.3 785.2,15.9 774,16M848,10C854.2,10.6 886.1,10.2 864,9C858.9,9.6 828.7,8.1 848,10M698,8L723,8C740,8.9 733.8,7.1 722,7C715.7,6.4 705.2,7.5 698,7L673,7L647,7C631.3,6.5 637.5,8.3 648,7L673,7C681.7,8 691.9,7.2 698,8M747,8C753.4,8 761.7,8.9 765,7C759.9,8.1 751.6,7.1 747,8M884,7C890.6,9.7 890.9,1.9 891,0C889.8,1.6 888.7,8.7 884,7M903,7C905.4,6.9 904.2,2.7 904,0C901.8,0.3 904,5.5 903,7M577,7C590.3,6.8 604.4,7.5 615,6C602.8,6.7 588.7,6 577,7M840,7C854.4,7.1 841.9,-1.1 840,3C842.3,5.1 819.7,5.9 840,7M506,6C516.1,6.1 526.7,6.9 535,5C525.9,6.1 515.3,5.3 506,6M849,6C854.2,7.9 853,1.8 853,0C852,1.7 851.3,6 849,6M456,5C461.6,5.4 468.2,6.4 472,5C467.3,5.5 460.7,4.5 456,5M774,5C777.1,5.1 778.9,3.6 777,0C775.2,-1.1 776,4.9 774,5M779,5C784.1,6 785.8,4.3 784,0C782.8,1.3 783.1,5 779,5M738,4C740.1,5.1 740.5,-0.3 739,0C735.8,-0.9 737.9,4.4 738,4M744,4C746.9,4.4 748,2.9 747,0C744.5,-0.5 746,3.5 744,4M747,4C755,8.5 757.6,-2.6 752,1C750.6,5.2 750.3,-3.2 747,4M759,4C763.8,6.2 762.1,0.9 762,0C759.7,-0.5 760.1,3.5 759,4M684,3C686.3,2.8 687,2.8 686,0C682.4,-1.5 684.4,3.6 684,3M719,3C722.7,4.2 725.9,4.4 724,0C720.4,-1.1 723,4.5 719,3M33,0L59,0C68.1,0.3 77.4,1.1 84,0L58,0C50.2,0.3 40.9,-0.5 33,0Z" fill="#260000"/>
</g>
</svg>
