<svg xmlns="http://www.w3.org/2000/svg" viewBox="0 0 52 52"><g fill="#222"><path d="M26 17.716c-4.566 0-8.283 3.716-8.283 8.283s3.717 8.283 8.283 8.283c4.568 0 8.283-3.716 8.283-8.283S30.568 17.716 26 17.716zm0 12.195a3.91 3.91 0 0 1-3.91-3.912 3.911 3.911 0 1 1 7.822 0A3.912 3.912 0 0 1 26 29.911z"/><path d="M26 0C11.641 0 0 11.641 0 26s11.641 26 26 26 26-11.641 26-26S40.359 0 26 0zm0 37.965c-6.596 0-11.965-5.367-11.965-11.965S19.404 14.035 26 14.035c6.598 0 11.965 5.367 11.965 11.965-.001 6.597-5.368 11.965-11.965 11.965z"/></g></svg>